<svg width="400" height="550" viewBox="0 0 400 550" fill="none" xmlns="http://www.w3.org/2000/svg">
<path d="M0.5 0.5H0.914507H1.82745H2.73883H3.64866H4.55695H5.46369H6.36891H7.27259H8.17475H9.0754H9.97453H10.8722H11.7683H12.6629H13.5561H14.4478H15.338H16.2267H17.114H17.9998H18.8842H19.7672H20.6487H21.5287H22.4074H23.2846H24.1604H25.0349H25.9079H26.7795H27.6497H28.5186H29.3861H30.2522H31.1169H31.9803H32.8424H33.7031H34.5624H35.4205H36.2772H37.1326H37.9866H38.8394H39.6909H40.541H41.3899H42.2375H43.0838H43.9289H44.7727H45.6152H46.4565H47.2965H48.1353H48.9729H49.8092H50.6443H51.4782H52.3109H53.1424H53.9727H54.8018H55.6297H56.4565H57.282H58.1064H58.9297H59.7518H60.5727H61.3925H62.2112H63.0287H63.8451H64.6604H65.4746H66.2877H67.0997H67.9106H68.7204H69.5291H70.3367H71.1433H71.9488H72.7533H73.5567H74.3591H75.1604H75.9607H76.76H77.5583H78.3555H79.1518H79.947H80.7412H81.5345H82.3268H83.1181H83.9084H84.6978H85.4862H86.2737H87.0602H87.8458H88.6304H89.4141H90.1969H90.9788H91.7598H92.5399H93.3191H94.0973H94.8747H95.6513H96.4269H97.2017H97.9757H98.7487H99.521H100.292H101.063H101.833H102.602H103.37H104.137H104.903H105.669H106.434H107.198H107.961H108.724H109.486H110.247H111.007H111.767H112.525H113.283H114.041H114.797H115.553H116.308H117.063H117.816H118.57H119.322H120.074H120.825H121.575H122.325H123.074H123.822H124.57H125.317H126.063H126.809H127.554H128.299H129.043H129.786H130.529H131.271H132.013H132.754H133.495H134.234H134.974H135.713H136.451H137.189H137.926H138.662H139.399H140.134H140.869H141.604H142.338H143.072H143.805H144.537H145.27H146.001H146.733H147.463H148.194H148.924H149.653H150.382H151.111H151.839H152.567H153.294H154.021H154.748H155.474H156.2H156.925H157.65H158.375H159.1H159.824H160.547H161.271H161.994H162.716H163.439H164.161H164.882H165.604H166.325H167.046H167.766H168.487H169.207H169.927H170.646H171.365H172.084H172.803H173.522H174.24H174.958H175.676H176.394H177.111H177.828H178.546H179.262H179.979H180.696H181.412H182.128H182.844H183.56H184.276H184.992H185.707H186.423H187.138H187.853H188.568H189.283H189.998H190.713H191.427H192.142H192.857H193.571H194.286H195H195.714H196.429H197.143H197.857H198.572H199.286H200H200.714H201.428H202.143H202.857H203.571H204.286H205H205.714H206.429H207.143H207.858H208.573H209.287H210.002H210.717H211.432H212.147H212.862H213.577H214.293H215.008H215.724H216.44H217.156H217.872H218.588H219.304H220.021H220.738H221.454H222.172H222.889H223.606H224.324H225.042H225.76H226.478H227.197H227.916H228.635H229.354H230.073H230.793H231.513H232.234H232.954H233.675H234.396H235.118H235.839H236.561H237.284H238.006H238.729H239.453H240.176H240.9H241.625H242.35H243.075H243.8H244.526H245.252H245.979H246.706H247.433H248.161H248.889H249.618H250.347H251.076H251.806H252.537H253.267H253.999H254.73H255.463H256.195H256.928H257.662H258.396H259.131H259.866H260.601H261.338H262.074H262.811H263.549H264.287H265.026H265.766H266.505H267.246H267.987H268.729H269.471H270.214H270.957H271.701H272.446H273.191H273.937H274.683H275.43H276.178H276.926H277.675H278.425H279.175H279.926H280.678H281.43H282.184H282.937H283.692H284.447H285.203H285.959H286.717H287.475H288.233H288.993H289.753H290.514H291.276H292.039H292.802H293.566H294.331H295.097H295.863H296.63H297.398H298.167H298.937H299.708H300.479H301.251H302.024H302.798H303.573H304.349H305.125H305.903H306.681H307.46H308.24H309.021H309.803H310.586H311.37H312.154H312.94H313.726H314.514H315.302H316.092H316.882H317.673H318.465H319.259H320.053H320.848H321.644H322.442H323.24H324.039H324.84H325.641H326.443H327.247H328.051H328.857H329.663H330.471H331.28H332.089H332.9H333.712H334.525H335.34H336.155H336.971H337.789H338.607H339.427H340.248H341.07H341.894H342.718H343.544H344.37H345.198H346.027H346.858H347.689H348.522H349.356H350.191H351.027H351.865H352.703H353.543H354.385H355.227H356.071H356.916H357.762H358.61H359.459H360.309H361.161H362.013H362.867H363.723H364.58H365.438H366.297H367.158H368.02H368.883H369.748H370.614H371.481H372.35H373.221H374.092H374.965H375.84H376.715H377.593H378.471H379.351H380.233H381.116H382H382.886H383.773H384.662H385.552H386.444H387.337H388.232H389.128H390.025H390.925H391.825H392.727H393.631H394.536H395.443H396.351H397.261H398.173H399.085H399.5V549.5H0.5V0.5Z" fill="white" stroke="black"/>
<rect x="20" y="55" width="360" height="440" fill="white"/>
<g clip-path="url(#clip0_0_1)" filter="url(#filter0_d_0_1)">
<path d="M29.1467 219.38C29.1467 217.593 29.1467 215.806 29.4394 213.946C31.1775 211.76 32.7565 209.746 34.0476 207.521C46.6304 185.836 58.5915 163.661 71.8993 142.553C82.1262 126.333 94.0318 111.445 105.191 95.964C105.761 96.2606 106.331 96.5573 106.901 96.8539C98.2263 124.505 95.9401 152.878 98.1346 182.204C114.546 184.535 130.707 186.83 146.868 189.125C147.174 188.281 147.481 187.438 147.787 186.595C146.129 185.145 144.557 183.547 142.8 182.269C132.896 175.065 132.135 166.136 136.715 154.312C141.826 141.118 145.186 127.069 149.557 112.563C160.24 124.558 170.216 136.023 180.497 147.133C183.364 150.232 183.502 152.548 181.759 156.38C177.19 166.424 173.079 176.73 168.478 187.085C168.154 187.547 168.138 187.855 168.122 188.162C168.617 188.105 169.112 188.048 169.988 187.828C179.411 182.625 188.375 177.393 197.554 172.692C199.584 171.652 202.739 171.591 204.754 172.617C212.941 176.787 220.871 181.588 228.934 186.071C230.394 186.882 232.032 187.29 234.853 188.368C228.892 174.904 223.662 163.093 218.792 152.095C230.394 139.075 241.568 126.534 252.992 113.715C258.304 131.747 263.76 150.013 268.947 168.374C269.34 169.765 268.193 172.217 267.127 173.522C262.982 178.596 258.581 183.407 254.276 188.315C254.525 188.687 254.774 189.058 255.022 189.43C271.462 186.957 287.902 184.484 304.225 182.029C306.223 152.715 304.063 124.847 295.827 97.6277C296.021 97.4629 296.371 97.0835 296.76 97.1362C306.111 109.072 315.924 120.286 323.856 132.98C339.659 158.271 354.411 184.388 369.681 210.102C370.426 211.357 371.973 212.012 373.147 212.947C373.147 214.734 373.147 216.521 372.884 218.371C354.938 233.659 334.456 241.616 313.084 247.216C306.839 248.853 300.537 250.218 294.106 251.744C297.285 268.582 300.482 284.789 303.269 301.085C303.674 303.451 302.793 306.938 301.345 308.712C295.415 315.977 289.063 322.811 282.811 329.742C278.525 334.494 274.148 339.144 269.713 343.946C278.706 351.544 286.822 358.256 294.733 365.259C295.81 366.212 296.732 369.028 296.261 370.295C289.906 387.361 283.292 404.305 276.721 421.334C266.32 418.764 256.319 416.292 245.926 413.723C242.43 429.201 238.955 444.591 235.501 459.885C212.349 459.885 189.819 459.885 166.792 459.885C163.338 444.596 159.873 429.26 156.372 413.76C145.707 416.36 135.633 418.815 125.383 421.313C118.409 403.01 111.635 385.232 104.829 367.373C114.05 359.585 122.956 352.062 132.332 344.143C121.659 332.181 111.342 320.493 100.87 308.983C98.7568 306.661 98.0402 304.689 98.7374 301.247C102.058 284.857 105.028 268.377 108.141 251.83C100.21 249.833 92.5695 248.094 85.0151 245.97C66.1366 240.662 47.7181 234.124 32.2694 219.979C31.5574 219.327 30.2023 219.56 29.1467 219.38Z" fill="#FDFDFD"/>
<path d="M169.409 187.718C169.112 188.048 168.617 188.105 168.122 188.162C168.138 187.855 168.154 187.547 168.478 187.085C168.927 187.103 169.07 187.274 169.409 187.718Z" fill="black"/>
<path d="M295.827 97.6277C295.836 97.3575 296.039 96.9224 296.306 96.7855C296.371 97.0835 296.021 97.4629 295.827 97.6277Z" fill="#FDFDFD"/>
<path d="M157.967 412.534L157.196 413.034L157.967 412.534C157.79 412.261 157.541 412.161 157.461 412.132C157.356 412.094 157.266 412.08 157.22 412.074C157.124 412.062 157.037 412.064 156.988 412.066C156.88 412.07 156.756 412.084 156.637 412.1C156.389 412.134 156.05 412.192 155.64 412.269C154.814 412.425 153.643 412.669 152.217 412.981C149.361 413.607 145.456 414.512 141.189 415.545L126.55 419.092L117.223 394.399C114.574 387.385 112.169 380.89 110.43 376.077C109.56 373.671 108.858 371.688 108.375 370.274C108.133 369.565 107.948 369.006 107.826 368.61C107.795 368.509 107.768 368.421 107.746 368.345C107.897 368.164 108.128 367.913 108.442 367.593C109.093 366.929 110.044 366.024 111.231 364.939C113.601 362.772 116.872 359.923 120.472 356.916C124.088 353.895 127.379 351.028 129.77 348.841C130.965 347.749 131.944 346.818 132.629 346.118C132.969 345.77 133.252 345.464 133.455 345.217C133.555 345.095 133.652 344.966 133.73 344.841C133.769 344.778 133.815 344.698 133.854 344.605C133.887 344.526 133.949 344.361 133.949 344.15C133.949 343.917 133.869 343.731 133.846 343.678L133.845 343.676C133.808 343.591 133.765 343.51 133.725 343.443C133.646 343.305 133.54 343.146 133.419 342.975C133.176 342.629 132.827 342.169 132.39 341.616C131.515 340.506 130.256 338.977 128.71 337.144C125.616 333.474 121.351 328.56 116.663 323.285L99.9568 304.49L104.508 280.696C105.786 274.016 106.948 267.665 107.791 262.814C108.212 260.389 108.554 258.335 108.791 256.8C109.021 255.314 109.17 254.214 109.17 253.78C109.17 252.789 108.404 252.048 107.603 251.498C106.733 250.9 105.455 250.278 103.757 249.601C100.347 248.24 95.0163 246.565 87.2976 244.379C67.8972 238.883 56.6576 233.87 36.236 221.587C34.5771 220.589 33.0712 219.565 31.9853 218.725C31.4397 218.303 31.0196 217.942 30.7428 217.665C30.6828 217.605 30.6332 217.553 30.593 217.508C30.6521 217.351 30.7396 217.144 30.8575 216.884C31.1262 216.294 31.5257 215.495 32.0301 214.539C33.0371 212.63 34.4402 210.14 35.995 207.532C39.1203 202.29 49.8785 184.017 59.9017 166.925C67.3724 154.186 78.4456 136.96 87.8092 123.107C92.4911 116.181 96.7383 110.109 99.8889 105.868C101.249 104.038 102.395 102.562 103.278 101.51C103.217 101.843 103.148 102.204 103.073 102.589C102.637 104.829 101.991 107.872 101.239 111.174C97.6719 126.848 95.5033 146.573 95.5284 163.107C95.5305 164.52 95.5233 165.839 95.5165 167.069C95.4981 170.401 95.4834 173.083 95.6688 175.221C95.9251 178.176 96.5784 180.375 98.3461 181.98C100.056 183.532 102.66 184.382 106.382 185.112C109.115 185.648 112.582 186.14 116.937 186.758C118.558 186.988 120.302 187.235 122.177 187.509C128.829 188.48 135.023 189.266 139.645 189.749C141.954 189.991 143.882 190.158 145.282 190.234C145.98 190.272 146.565 190.289 147.008 190.279C147.227 190.274 147.434 190.262 147.612 190.237C147.701 190.225 147.8 190.208 147.9 190.18C147.987 190.156 148.143 190.106 148.299 189.998C148.964 189.537 149.547 188.952 149.78 188.165C150.021 187.348 149.821 186.54 149.398 185.785C148.982 185.043 148.304 184.261 147.411 183.409C146.509 182.55 145.341 181.575 143.899 180.454C141.295 178.429 139.442 176.827 138.202 175.113C136.994 173.442 136.347 171.632 136.256 169.139C136.163 166.603 136.646 163.362 137.739 158.855C138.831 154.357 140.51 148.672 142.77 141.268L150.158 117.055L163.536 131.618C167.537 135.973 171.376 140.233 174.339 143.587C177.331 146.976 179.363 149.368 179.814 150.037C180.317 150.783 180.561 151.807 179.774 154.673C178.985 157.541 177.248 161.967 174.171 169.287C172.142 174.114 170.381 178.605 169.177 181.955C168.576 183.627 168.109 185.029 167.818 186.053C167.673 186.56 167.564 187.001 167.506 187.345C167.477 187.513 167.455 187.695 167.455 187.866C167.455 187.951 167.461 188.066 167.489 188.189C167.513 188.3 167.574 188.511 167.748 188.706C167.936 188.917 168.158 189.003 168.297 189.04C168.44 189.078 168.569 189.084 168.661 189.084C168.844 189.083 169.03 189.051 169.19 189.016C169.518 188.943 169.931 188.812 170.396 188.642C171.337 188.3 172.623 187.756 174.151 187.06C177.215 185.665 181.323 183.629 185.739 181.287L201.28 173.044L216.212 181.086C223.468 184.993 228.09 187.363 230.906 188.516C232.279 189.079 233.367 189.416 234.162 189.421C234.575 189.424 235.077 189.338 235.473 188.972C235.884 188.591 235.983 188.091 235.983 187.702C235.983 187.566 235.956 187.45 235.947 187.412C235.933 187.353 235.917 187.294 235.9 187.24C235.867 187.13 235.821 186.998 235.768 186.85C235.66 186.553 235.505 186.152 235.31 185.664C234.919 184.686 234.357 183.329 233.665 181.696C232.28 178.428 230.372 174.033 228.274 169.3L220.912 152.689L236.44 135.211C240.819 130.283 244.901 125.945 247.947 122.926C249.474 121.414 250.724 120.248 251.616 119.508C251.799 119.355 251.962 119.225 252.105 119.117C252.238 119.467 252.399 119.915 252.585 120.453C253.049 121.788 253.66 123.65 254.377 125.904C255.809 130.412 257.653 136.468 259.565 142.985C263.311 155.758 266.68 167.145 267.153 168.635C267.15 168.659 267.144 168.697 267.131 168.752C267.09 168.92 267.006 169.162 266.864 169.481C266.581 170.116 266.117 170.951 265.495 171.933C264.255 173.892 262.444 176.347 260.364 178.816C258.246 181.329 256.399 183.719 255.128 185.552C254.496 186.464 253.99 187.261 253.665 187.877C253.505 188.179 253.367 188.479 253.286 188.75C253.247 188.882 253.206 189.057 253.204 189.247C253.202 189.423 253.232 189.763 253.495 190.058C253.69 190.276 253.925 190.357 254.003 190.382C254.114 190.418 254.222 190.438 254.307 190.45C254.48 190.475 254.682 190.486 254.891 190.49C255.317 190.497 255.891 190.476 256.584 190.434C257.975 190.349 259.922 190.17 262.276 189.914C266.988 189.403 273.373 188.581 280.297 187.572L305.446 183.906L306.325 183.778L306.301 182.89L305.562 155.014C305 133.837 304.079 123.924 301.713 113.987C300.867 110.436 300.149 107.158 299.673 104.738C299.535 104.038 299.418 103.413 299.324 102.877C300.147 103.772 301.227 105.092 302.533 106.794C305.453 110.601 309.425 116.221 314.003 123.001C323.158 136.556 334.708 154.696 345.075 172.126C351.853 183.522 358.179 193.884 362.911 201.4C365.277 205.157 367.249 208.209 368.681 210.326C369.396 211.382 369.986 212.218 370.427 212.796C370.645 213.081 370.842 213.324 371.009 213.502C371.09 213.589 371.187 213.685 371.291 213.767C371.343 213.808 371.419 213.862 371.514 213.911C371.593 213.951 371.763 214.028 371.989 214.034C372.014 214.046 372.083 214.095 372.179 214.252C372.331 214.503 372.458 214.913 372.458 215.414C372.458 215.413 372.458 215.413 372.457 215.415C372.456 215.425 372.445 215.507 372.357 215.682C372.262 215.87 372.103 216.111 371.865 216.405C371.389 216.993 370.667 217.708 369.714 218.528C367.813 220.164 365.099 222.126 361.894 224.2C355.485 228.346 347.206 232.875 339.747 236.05C332.874 238.975 319.711 243.342 310.527 245.739C305.915 246.942 301.678 248.075 298.568 248.929C297.014 249.357 295.737 249.715 294.834 249.98C294.384 250.112 294.02 250.222 293.759 250.306C293.629 250.348 293.515 250.387 293.423 250.421C293.379 250.438 293.327 250.458 293.277 250.481L293.275 250.482C293.257 250.49 293.11 250.554 292.977 250.675C292.758 250.874 292.693 251.11 292.679 251.163L292.678 251.165C292.654 251.252 292.646 251.326 292.642 251.368C292.634 251.455 292.634 251.538 292.636 251.598C292.64 251.727 292.653 251.885 292.671 252.058C292.708 252.411 292.774 252.905 292.864 253.516C293.044 254.744 293.327 256.49 293.691 258.621C294.419 262.887 295.472 268.72 296.676 275.093C297.878 281.454 298.97 287.724 299.761 292.7C300.157 295.189 300.477 297.349 300.697 299.034C300.921 300.743 301.034 301.9 301.034 302.422C301.034 303.751 300.265 305.696 297.706 309.28C295.181 312.818 291.051 317.774 284.639 325.079L267.995 344.039L267.313 344.816L268.111 345.472L281.046 356.103C284.594 359.019 287.881 361.85 290.319 364.06C291.538 365.166 292.537 366.11 293.247 366.827C293.603 367.186 293.875 367.479 294.064 367.7C294.137 367.787 294.193 367.856 294.233 367.909C294.232 367.921 294.231 367.934 294.229 367.948C294.214 368.104 294.176 368.334 294.109 368.647C293.975 369.27 293.741 370.14 293.404 371.256C292.732 373.483 291.675 376.62 290.261 380.577C287.436 388.487 283.207 399.629 277.847 413.237L275.51 419.17L261.309 415.579C257.159 414.53 253.32 413.642 250.476 413.058C249.056 412.766 247.871 412.547 247.014 412.422C246.59 412.36 246.222 412.317 245.938 412.303C245.8 412.296 245.647 412.294 245.504 412.309C245.433 412.316 245.332 412.33 245.222 412.365C245.133 412.392 244.913 412.47 244.726 412.68C244.628 412.791 244.57 412.904 244.549 412.945C244.519 413.004 244.493 413.064 244.472 413.116C244.43 413.222 244.386 413.348 244.341 413.484C244.251 413.759 244.142 414.131 244.017 414.58C243.766 415.482 243.441 416.738 243.065 418.253C242.313 421.286 241.351 425.382 240.36 429.809C238.38 438.652 236.116 448.644 235.33 452.012L234.077 457.373H200.982H167.9L163.19 435.671C161.848 429.485 160.604 423.826 159.682 419.69C159.221 417.622 158.84 415.934 158.567 414.75C158.43 414.159 158.32 413.691 158.24 413.363C158.2 413.2 158.166 413.066 158.139 412.967C158.126 412.919 158.113 412.87 158.1 412.828C158.093 412.807 158.084 412.778 158.072 412.747C158.071 412.743 158.036 412.641 157.967 412.534ZM30.4544 217.331C30.455 217.331 30.4589 217.337 30.4647 217.348C30.4568 217.336 30.4539 217.33 30.4544 217.331ZM30.5182 217.733C30.5171 217.739 30.5162 217.743 30.5161 217.743C30.5159 217.743 30.5165 217.74 30.5182 217.733Z" fill="#800080" stroke="black" stroke-width="2"/>
</g>
<g clip-path="url(#clip1_0_1)">
<path d="M183.113 29.54C183.113 29.3641 183.113 29.1881 183.142 29.005C183.314 28.7899 183.47 28.5916 183.598 28.3725C184.841 26.2377 186.024 24.0547 187.339 21.9767C188.35 20.3799 189.526 18.9142 190.629 17.3902C190.686 17.4194 190.742 17.4486 190.798 17.4778C189.941 20.2 189.715 22.9932 189.932 25.8802C191.554 26.1096 193.151 26.3356 194.749 26.5615C194.779 26.4785 194.809 26.3954 194.839 26.3124C194.676 26.1697 194.52 26.0124 194.347 25.8866C193.368 25.1773 193.292 24.2983 193.745 23.1344C194.25 21.8354 194.582 20.4524 195.014 19.0244C196.07 20.2052 197.056 21.3339 198.072 22.4276C198.356 22.7326 198.369 22.9607 198.197 23.3379C197.746 24.3267 197.339 25.3413 196.884 26.3607C196.852 26.4062 196.851 26.4365 196.849 26.4667C196.898 26.4611 196.947 26.4555 197.034 26.4338C197.965 25.9216 198.851 25.4066 199.758 24.9438C199.959 24.8414 200.271 24.8354 200.47 24.9364C201.279 25.3469 202.063 25.8196 202.86 26.2608C203.004 26.3407 203.166 26.3809 203.445 26.487C202.856 25.1615 202.339 23.9988 201.857 22.916C203.004 21.6343 204.108 20.3997 205.238 19.1377C205.763 20.9129 206.302 22.7111 206.815 24.5187C206.853 24.6556 206.74 24.897 206.635 25.0255C206.225 25.525 205.79 25.9986 205.364 26.4818C205.389 26.5184 205.414 26.555 205.438 26.5915C207.063 26.3481 208.688 26.1046 210.301 25.8629C210.499 22.9772 210.285 20.2336 209.471 17.554C209.49 17.5378 209.525 17.5004 209.563 17.5056C210.488 18.6807 211.458 19.7847 212.242 21.0343C213.804 23.5241 215.262 26.0952 216.771 28.6266C216.844 28.7501 216.997 28.8147 217.113 28.9067C217.113 29.0826 217.113 29.2585 217.087 29.4406C215.314 30.9457 213.289 31.729 211.177 32.2803C210.56 32.4415 209.937 32.5759 209.301 32.7261C209.615 34.3837 209.931 35.9792 210.207 37.5835C210.247 37.8165 210.16 38.1597 210.017 38.3343C209.431 39.0496 208.803 39.7223 208.185 40.4046C207.761 40.8725 207.329 41.3302 206.89 41.803C207.779 42.551 208.581 43.2117 209.363 43.9011C209.47 43.995 209.561 44.2722 209.514 44.3969C208.886 46.077 208.232 47.7451 207.583 49.4215C206.555 49.1684 205.566 48.9251 204.539 48.6722C204.194 50.196 203.85 51.7111 203.509 53.2167C201.221 53.2167 198.994 53.2167 196.718 53.2167C196.376 51.7115 196.034 50.2018 195.688 48.6759C194.634 48.9318 193.638 49.1735 192.625 49.4194C191.936 47.6176 191.266 45.8674 190.594 44.1093C191.505 43.3426 192.385 42.602 193.312 41.8224C192.257 40.6448 191.237 39.4941 190.202 38.361C189.993 38.1324 189.923 37.9383 189.991 37.5994C190.32 35.9859 190.613 34.3635 190.921 32.7346C190.137 32.538 189.382 32.3668 188.635 32.1577C186.769 31.6351 184.949 30.9914 183.422 29.599C183.352 29.5348 183.218 29.5577 183.113 29.54Z" fill="#FDFDFD"/>
<path d="M196.976 26.423C196.947 26.4555 196.898 26.4611 196.849 26.4667C196.851 26.4365 196.852 26.4062 196.884 26.3607C196.929 26.3624 196.943 26.3793 196.976 26.423Z" fill="black"/>
<path d="M209.471 17.554C209.472 17.5274 209.492 17.4846 209.519 17.4711C209.525 17.5004 209.49 17.5378 209.471 17.554Z" fill="#FDFDFD"/>
<path d="M196.182 48.3361L196.182 48.336C196.094 48.2006 195.97 48.152 195.933 48.1383C195.883 48.12 195.841 48.1138 195.821 48.1114C195.78 48.1063 195.746 48.1074 195.734 48.1078C195.703 48.109 195.676 48.1124 195.661 48.1145C195.626 48.1192 195.584 48.1264 195.542 48.1344C195.454 48.1508 195.334 48.1758 195.192 48.2068C194.906 48.2692 194.517 48.359 194.093 48.4612L192.99 48.7275L192.194 46.6274C191.932 45.9381 191.695 45.3006 191.524 44.8291C191.448 44.6192 191.385 44.4437 191.34 44.3118C191.384 44.2696 191.437 44.221 191.496 44.1667C191.725 43.9584 192.044 43.6819 192.396 43.3886C192.757 43.0884 193.087 42.8022 193.329 42.5818C193.449 42.4724 193.552 42.375 193.627 42.2983C193.664 42.2611 193.701 42.2213 193.732 42.1834C193.747 42.1655 193.769 42.1375 193.79 42.1039C193.801 42.0871 193.817 42.0595 193.832 42.0239C193.844 41.9955 193.873 41.9217 193.873 41.8231C193.873 41.7154 193.837 41.634 193.83 41.6181L193.829 41.6166C193.817 41.5877 193.804 41.5644 193.796 41.5509C193.779 41.5226 193.761 41.496 193.747 41.4755C193.716 41.4325 193.677 41.3806 193.632 41.3243C193.542 41.2099 193.414 41.0555 193.26 40.8737C192.951 40.5091 192.527 40.0226 192.062 39.5015L190.543 37.7994L190.956 35.6521C191.082 34.9927 191.198 34.3652 191.281 33.8849C191.323 33.6451 191.358 33.4401 191.382 33.2855C191.402 33.155 191.424 33.0083 191.424 32.9266C191.424 32.6094 191.183 32.4311 191.094 32.3704C190.971 32.286 190.811 32.2118 190.636 32.1419C190.277 31.9995 189.733 31.8298 188.97 31.6145C187.092 31.0847 186.013 30.6069 184.02 29.4127C183.923 29.3546 183.833 29.2964 183.757 29.2435C183.852 29.064 183.986 28.8284 184.134 28.58C184.444 28.0625 185.508 26.2622 186.499 24.58C187.231 23.3357 188.321 21.6475 189.243 20.288C189.391 20.0699 189.535 19.8608 189.671 19.6638C189.418 21.0573 189.271 22.6359 189.273 24.0008C189.273 24.1282 189.273 24.251 189.272 24.3684C189.27 24.7048 189.268 24.9971 189.289 25.2276C189.317 25.5524 189.396 25.8954 189.684 26.1561C189.943 26.3901 190.301 26.4884 190.67 26.5606C190.951 26.6155 191.31 26.6662 191.746 26.7278C191.904 26.7501 192.072 26.7739 192.25 26.7998C192.912 26.896 193.53 26.9741 193.993 27.0224C194.224 27.0464 194.422 27.0636 194.57 27.0717C194.643 27.0756 194.713 27.0779 194.772 27.0766C194.8 27.0759 194.837 27.0742 194.876 27.0689C194.895 27.0663 194.924 27.0616 194.957 27.0525C194.983 27.0453 195.049 27.0259 195.118 26.978C195.217 26.9096 195.36 26.7857 195.421 26.5814C195.486 26.3616 195.422 26.1673 195.348 26.0357C195.278 25.9109 195.177 25.8014 195.078 25.7075C194.975 25.6095 194.848 25.5042 194.701 25.3903C194.443 25.1906 194.302 25.0634 194.217 24.946C194.147 24.8504 194.107 24.7504 194.101 24.5792C194.094 24.3865 194.13 24.1111 194.236 23.6767C194.341 23.2469 194.503 22.698 194.727 21.9679L195.253 20.2524L196.101 21.1726C196.495 21.5997 196.873 22.0171 197.164 22.3451C197.309 22.5092 197.432 22.6496 197.523 22.757C197.569 22.8108 197.606 22.8548 197.633 22.8886C197.639 22.8954 197.644 22.9015 197.648 22.9068C197.645 22.9348 197.636 22.9841 197.614 23.063C197.545 23.3153 197.384 23.7259 197.078 24.4523C196.875 24.9321 196.698 25.3811 196.576 25.7193C196.516 25.887 196.466 26.0349 196.434 26.1485C196.418 26.2032 196.402 26.2633 196.393 26.3191C196.388 26.3451 196.382 26.3888 196.382 26.439C196.382 26.464 196.384 26.5062 196.395 26.5563C196.405 26.6002 196.432 26.6966 196.513 26.7882C196.602 26.8874 196.706 26.9258 196.764 26.9413C196.824 26.9573 196.875 26.9592 196.905 26.959C196.964 26.9587 197.014 26.9489 197.041 26.943C197.099 26.9302 197.159 26.9102 197.211 26.8916C197.318 26.8526 197.456 26.7941 197.611 26.724C197.923 26.5825 198.336 26.3782 198.778 26.145L200.125 25.4333L201.413 26.124C202.126 26.5064 202.602 26.7504 202.903 26.8734C203.037 26.9278 203.209 26.9912 203.374 26.9922C203.464 26.9928 203.633 26.9756 203.778 26.8415C203.931 26.7001 203.958 26.5228 203.958 26.4214C203.958 26.3611 203.946 26.3128 203.944 26.3026L203.944 26.3016C203.939 26.2835 203.935 26.2681 203.932 26.2583C203.926 26.2379 203.918 26.2176 203.912 26.2004C203.899 26.1649 203.882 26.1206 203.862 26.0712C203.822 25.9711 203.765 25.8347 203.696 25.6729C203.559 25.3486 203.369 24.9139 203.161 24.4464L202.539 23.0484L203.901 21.5214C204.305 21.0688 204.68 20.6697 204.968 20.383C204.976 20.408 204.984 20.4337 204.992 20.4599C205.133 20.9001 205.314 21.4934 205.502 22.1328C205.812 23.1851 206.099 24.1516 206.212 24.5247C206.193 24.5591 206.168 24.6021 206.135 24.6535C206.024 24.828 205.857 25.055 205.66 25.2871C205.445 25.5412 205.254 25.7867 205.12 25.9802C205.054 26.0748 204.993 26.1687 204.95 26.2505C204.93 26.2885 204.902 26.3452 204.882 26.4093C204.873 26.4401 204.858 26.4976 204.857 26.569C204.857 26.6336 204.867 26.7855 204.988 26.9213C205.08 27.0239 205.188 27.0587 205.213 27.0671L205.214 27.0672C205.255 27.0807 205.291 27.0866 205.311 27.0895C205.352 27.0955 205.391 27.0969 205.419 27.0974C205.476 27.0983 205.545 27.0956 205.617 27.0912C205.764 27.0822 205.963 27.0639 206.198 27.0385C206.67 26.9875 207.306 26.9059 207.994 26.806L210.48 26.4451L210.919 26.3812L210.908 25.937L210.834 23.1928C210.791 21.57 210.726 20.5977 210.585 19.7658C210.697 19.9268 210.814 20.0977 210.936 20.2774C211.836 21.6052 212.974 23.3846 213.994 25.0941C214.666 26.2179 215.293 27.2411 215.763 27.9847C215.997 28.3558 216.195 28.6607 216.34 28.8745C216.412 28.9804 216.476 29.0702 216.526 29.1363C216.527 29.137 216.527 29.1377 216.528 29.1384C216.523 29.1426 216.518 29.1468 216.513 29.1511C216.345 29.2956 216.093 29.4777 215.784 29.6769C215.167 30.0743 214.369 30.5089 213.656 30.8113C212.999 31.09 211.717 31.514 210.823 31.7462C210.366 31.865 209.946 31.977 209.636 32.0617C209.482 32.1039 209.353 32.1399 209.261 32.1669C209.215 32.1802 209.175 32.1923 209.144 32.2023C209.129 32.2071 209.111 32.2131 209.093 32.2197C209.085 32.2228 209.07 32.2284 209.054 32.236C209.045 32.2398 209.031 32.2466 209.014 32.256C209.003 32.2622 208.963 32.2845 208.92 32.3232C208.812 32.4213 208.78 32.5368 208.774 32.5608L208.773 32.5621C208.762 32.6024 208.759 32.6356 208.757 32.6512C208.754 32.6843 208.755 32.7119 208.755 32.7239C208.756 32.7517 208.758 32.7791 208.76 32.7991C208.765 32.8422 208.772 32.8974 208.782 32.9591C208.8 33.0846 208.829 33.2601 208.865 33.471C208.937 33.8939 209.042 34.4706 209.161 35.0996C209.279 35.7225 209.386 36.3359 209.464 36.8214C209.503 37.0644 209.534 37.2732 209.555 37.4339C209.565 37.5145 209.573 37.5806 209.578 37.6318C209.581 37.6574 209.583 37.6776 209.584 37.693C209.585 37.7074 209.585 37.7141 209.585 37.7151C209.585 37.7152 209.585 37.7152 209.585 37.7151C209.585 37.7142 209.585 37.7142 209.585 37.7153C209.582 37.726 209.56 37.8364 209.331 38.1562C209.095 38.4861 208.699 38.9602 208.065 39.6799L206.42 41.5465L206.077 41.9355L206.478 42.264L207.756 43.3106C208.103 43.5945 208.423 43.8689 208.658 44.0812C208.745 44.1594 208.818 44.2272 208.875 44.2828C208.867 44.3103 208.858 44.341 208.848 44.3751C208.784 44.5847 208.683 44.8861 208.544 45.2735C208.266 46.0464 207.85 47.1387 207.321 48.4766L207.22 48.7331L206.158 48.4655C205.743 48.3612 205.358 48.2724 205.069 48.2133C204.926 48.184 204.8 48.1607 204.705 48.1468C204.658 48.14 204.607 48.1337 204.56 48.1313C204.539 48.1303 204.5 48.129 204.457 48.1335C204.435 48.1357 204.396 48.1408 204.351 48.155C204.315 48.166 204.212 48.2012 204.122 48.3016C204.077 48.3519 204.052 48.4006 204.046 48.4129L204.046 48.4136C204.035 48.4334 204.028 48.4508 204.024 48.4618C204.015 48.4843 204.007 48.5064 204.001 48.5234C203.99 48.559 203.977 48.6022 203.964 48.6485C203.938 48.7427 203.905 48.8705 203.867 49.0211C203.792 49.3234 203.696 49.7296 203.598 50.1676C203.402 51.0384 203.179 52.0203 203.101 52.3498L203.05 52.5678H200.097H197.15L196.754 50.7474C196.621 50.1379 196.498 49.5799 196.407 49.1718C196.361 48.9679 196.323 48.8006 196.296 48.6826C196.282 48.6239 196.271 48.5758 196.262 48.541C196.258 48.524 196.254 48.5072 196.25 48.493C196.248 48.4864 196.245 48.476 196.242 48.4647C196.24 48.4594 196.237 48.4489 196.232 48.4362C196.23 48.4299 196.226 48.4192 196.22 48.4063C196.216 48.3969 196.203 48.3689 196.182 48.3361ZM197.65 22.876C197.65 22.8759 197.65 22.8778 197.65 22.8824C197.649 22.8785 197.649 22.8762 197.65 22.876Z" fill="#800080" stroke="black"/>
</g>
<g clip-path="url(#clip2_0_1)">
<path d="M183.113 507.54C183.113 507.364 183.113 507.188 183.142 507.005C183.314 506.79 183.47 506.592 183.598 506.373C184.841 504.238 186.024 502.055 187.339 499.977C188.35 498.38 189.526 496.914 190.629 495.39C190.686 495.419 190.742 495.449 190.798 495.478C189.941 498.2 189.715 500.993 189.932 503.88C191.554 504.11 193.151 504.336 194.749 504.561C194.779 504.478 194.809 504.395 194.839 504.312C194.676 504.17 194.52 504.012 194.347 503.887C193.368 503.177 193.292 502.298 193.745 501.134C194.25 499.835 194.582 498.452 195.014 497.024C196.07 498.205 197.056 499.334 198.072 500.428C198.356 500.733 198.369 500.961 198.197 501.338C197.746 502.327 197.339 503.341 196.884 504.361C196.852 504.406 196.851 504.436 196.849 504.467C196.898 504.461 196.947 504.455 197.034 504.434C197.965 503.922 198.851 503.407 199.758 502.944C199.959 502.841 200.271 502.835 200.47 502.936C201.279 503.347 202.063 503.82 202.86 504.261C203.004 504.341 203.166 504.381 203.445 504.487C202.856 503.161 202.339 501.999 201.857 500.916C203.004 499.634 204.108 498.4 205.238 497.138C205.763 498.913 206.302 500.711 206.815 502.519C206.853 502.656 206.74 502.897 206.635 503.025C206.225 503.525 205.79 503.999 205.364 504.482C205.389 504.518 205.414 504.555 205.438 504.592C207.063 504.348 208.688 504.105 210.301 503.863C210.499 500.977 210.285 498.234 209.471 495.554C209.49 495.538 209.525 495.5 209.563 495.506C210.488 496.681 211.458 497.785 212.242 499.034C213.804 501.524 215.262 504.095 216.771 506.627C216.844 506.75 216.997 506.815 217.113 506.907C217.113 507.083 217.113 507.259 217.087 507.441C215.314 508.946 213.289 509.729 211.177 510.28C210.56 510.441 209.937 510.576 209.301 510.726C209.615 512.384 209.931 513.979 210.207 515.584C210.247 515.816 210.16 516.16 210.017 516.334C209.431 517.05 208.803 517.722 208.185 518.405C207.761 518.872 207.329 519.33 206.89 519.803C207.779 520.551 208.581 521.212 209.363 521.901C209.47 521.995 209.561 522.272 209.514 522.397C208.886 524.077 208.232 525.745 207.583 527.422C206.555 527.168 205.566 526.925 204.539 526.672C204.194 528.196 203.85 529.711 203.509 531.217C201.221 531.217 198.994 531.217 196.718 531.217C196.376 529.711 196.034 528.202 195.688 526.676C194.634 526.932 193.638 527.173 192.625 527.419C191.936 525.618 191.266 523.867 190.594 522.109C191.505 521.343 192.385 520.602 193.312 519.822C192.257 518.645 191.237 517.494 190.202 516.361C189.993 516.132 189.923 515.938 189.991 515.599C190.32 513.986 190.613 512.364 190.921 510.735C190.137 510.538 189.382 510.367 188.635 510.158C186.769 509.635 184.949 508.991 183.422 507.599C183.352 507.535 183.218 507.558 183.113 507.54Z" fill="#FDFDFD"/>
<path d="M196.976 504.423C196.947 504.455 196.898 504.461 196.849 504.467C196.851 504.436 196.852 504.406 196.884 504.361C196.929 504.362 196.943 504.379 196.976 504.423Z" fill="black"/>
<path d="M209.471 495.554C209.472 495.527 209.492 495.485 209.519 495.471C209.525 495.5 209.49 495.538 209.471 495.554Z" fill="#FDFDFD"/>
<path d="M196.182 526.336L196.182 526.336C196.094 526.201 195.97 526.152 195.933 526.138C195.883 526.12 195.841 526.114 195.821 526.111C195.78 526.106 195.746 526.107 195.734 526.108C195.703 526.109 195.676 526.112 195.661 526.114C195.626 526.119 195.584 526.126 195.542 526.134C195.454 526.151 195.334 526.176 195.192 526.207C194.906 526.269 194.517 526.359 194.093 526.461L192.99 526.727L192.194 524.627C191.932 523.938 191.695 523.301 191.524 522.829C191.448 522.619 191.385 522.444 191.34 522.312C191.384 522.27 191.437 522.221 191.496 522.167C191.725 521.958 192.044 521.682 192.396 521.389C192.757 521.088 193.087 520.802 193.329 520.582C193.449 520.472 193.552 520.375 193.627 520.298C193.664 520.261 193.701 520.221 193.732 520.183C193.747 520.165 193.769 520.138 193.79 520.104C193.801 520.087 193.817 520.059 193.832 520.024C193.844 519.996 193.873 519.922 193.873 519.823C193.873 519.715 193.837 519.634 193.83 519.618L193.829 519.617C193.817 519.588 193.804 519.564 193.796 519.551C193.779 519.523 193.761 519.496 193.747 519.476C193.716 519.433 193.677 519.381 193.632 519.324C193.542 519.21 193.414 519.055 193.26 518.874C192.951 518.509 192.527 518.023 192.062 517.501L190.543 515.799L190.956 513.652C191.082 512.993 191.198 512.365 191.281 511.885C191.323 511.645 191.358 511.44 191.382 511.285C191.402 511.155 191.424 511.008 191.424 510.927C191.424 510.609 191.183 510.431 191.094 510.37C190.971 510.286 190.811 510.212 190.636 510.142C190.277 509.999 189.733 509.83 188.97 509.615C187.092 509.085 186.013 508.607 184.02 507.413C183.923 507.355 183.833 507.296 183.757 507.243C183.852 507.064 183.986 506.828 184.134 506.58C184.444 506.062 185.508 504.262 186.499 502.58C187.231 501.336 188.321 499.648 189.243 498.288C189.391 498.07 189.535 497.861 189.671 497.664C189.418 499.057 189.271 500.636 189.273 502.001C189.273 502.128 189.273 502.251 189.272 502.368C189.27 502.705 189.268 502.997 189.289 503.228C189.317 503.552 189.396 503.895 189.684 504.156C189.943 504.39 190.301 504.488 190.67 504.561C190.951 504.616 191.31 504.666 191.746 504.728C191.904 504.75 192.072 504.774 192.25 504.8C192.912 504.896 193.53 504.974 193.993 505.022C194.224 505.046 194.422 505.064 194.57 505.072C194.643 505.076 194.713 505.078 194.772 505.077C194.8 505.076 194.837 505.074 194.876 505.069C194.895 505.066 194.924 505.062 194.957 505.053C194.983 505.045 195.049 505.026 195.118 504.978C195.217 504.91 195.36 504.786 195.421 504.581C195.486 504.362 195.422 504.167 195.348 504.036C195.278 503.911 195.177 503.801 195.078 503.708C194.975 503.61 194.848 503.504 194.701 503.39C194.443 503.191 194.302 503.063 194.217 502.946C194.147 502.85 194.107 502.75 194.101 502.579C194.094 502.386 194.13 502.111 194.236 501.677C194.341 501.247 194.503 500.698 194.727 499.968L195.253 498.252L196.101 499.173C196.495 499.6 196.873 500.017 197.164 500.345C197.309 500.509 197.432 500.65 197.523 500.757C197.569 500.811 197.606 500.855 197.633 500.889C197.639 500.895 197.644 500.901 197.648 500.907C197.645 500.935 197.636 500.984 197.614 501.063C197.545 501.315 197.384 501.726 197.078 502.452C196.875 502.932 196.698 503.381 196.576 503.719C196.516 503.887 196.466 504.035 196.434 504.148C196.418 504.203 196.402 504.263 196.393 504.319C196.388 504.345 196.382 504.389 196.382 504.439C196.382 504.464 196.384 504.506 196.395 504.556C196.405 504.6 196.432 504.697 196.513 504.788C196.602 504.887 196.706 504.926 196.764 504.941C196.824 504.957 196.875 504.959 196.905 504.959C196.964 504.959 197.014 504.949 197.041 504.943C197.099 504.93 197.159 504.91 197.211 504.892C197.318 504.853 197.456 504.794 197.611 504.724C197.923 504.583 198.336 504.378 198.778 504.145L200.125 503.433L201.413 504.124C202.126 504.506 202.602 504.75 202.903 504.873C203.037 504.928 203.209 504.991 203.374 504.992C203.464 504.993 203.633 504.976 203.778 504.842C203.931 504.7 203.958 504.523 203.958 504.421C203.958 504.361 203.946 504.313 203.944 504.303L203.944 504.302C203.939 504.284 203.935 504.268 203.932 504.258C203.926 504.238 203.918 504.218 203.912 504.2C203.899 504.165 203.882 504.121 203.862 504.071C203.822 503.971 203.765 503.835 203.696 503.673C203.559 503.349 203.369 502.914 203.161 502.446L202.539 501.048L203.901 499.521C204.305 499.069 204.68 498.67 204.968 498.383C204.976 498.408 204.984 498.434 204.992 498.46C205.133 498.9 205.314 499.493 205.502 500.133C205.812 501.185 206.099 502.152 206.212 502.525C206.193 502.559 206.168 502.602 206.135 502.654C206.024 502.828 205.857 503.055 205.66 503.287C205.445 503.541 205.254 503.787 205.12 503.98C205.054 504.075 204.993 504.169 204.95 504.251C204.93 504.288 204.902 504.345 204.882 504.409C204.873 504.44 204.858 504.498 204.857 504.569C204.857 504.634 204.867 504.785 204.988 504.921C205.08 505.024 205.188 505.059 205.213 505.067L205.214 505.067C205.255 505.081 205.291 505.087 205.311 505.09C205.352 505.095 205.391 505.097 205.419 505.097C205.476 505.098 205.545 505.096 205.617 505.091C205.764 505.082 205.963 505.064 206.198 505.038C206.67 504.988 207.306 504.906 207.994 504.806L210.48 504.445L210.919 504.381L210.908 503.937L210.834 501.193C210.791 499.57 210.726 498.598 210.585 497.766C210.697 497.927 210.814 498.098 210.936 498.277C211.836 499.605 212.974 501.385 213.994 503.094C214.666 504.218 215.293 505.241 215.763 505.985C215.997 506.356 216.195 506.661 216.34 506.875C216.412 506.98 216.476 507.07 216.526 507.136C216.527 507.137 216.527 507.138 216.528 507.138C216.523 507.143 216.518 507.147 216.513 507.151C216.345 507.296 216.093 507.478 215.784 507.677C215.167 508.074 214.369 508.509 213.656 508.811C212.999 509.09 211.717 509.514 210.823 509.746C210.366 509.865 209.946 509.977 209.636 510.062C209.482 510.104 209.353 510.14 209.261 510.167C209.215 510.18 209.175 510.192 209.144 510.202C209.129 510.207 209.111 510.213 209.093 510.22C209.085 510.223 209.07 510.228 209.054 510.236C209.045 510.24 209.031 510.247 209.014 510.256C209.003 510.262 208.963 510.284 208.92 510.323C208.812 510.421 208.78 510.537 208.774 510.561L208.773 510.562C208.762 510.602 208.759 510.636 208.757 510.651C208.754 510.684 208.755 510.712 208.755 510.724C208.756 510.752 208.758 510.779 208.76 510.799C208.765 510.842 208.772 510.897 208.782 510.959C208.8 511.085 208.829 511.26 208.865 511.471C208.937 511.894 209.042 512.471 209.161 513.1C209.279 513.723 209.386 514.336 209.464 514.821C209.503 515.064 209.534 515.273 209.555 515.434C209.565 515.514 209.573 515.581 209.578 515.632C209.581 515.657 209.583 515.678 209.584 515.693C209.585 515.707 209.585 515.714 209.585 515.715C209.585 515.715 209.585 515.715 209.585 515.715C209.585 515.714 209.585 515.714 209.585 515.715C209.582 515.726 209.56 515.836 209.331 516.156C209.095 516.486 208.699 516.96 208.065 517.68L206.42 519.547L206.077 519.936L206.478 520.264L207.756 521.311C208.103 521.594 208.423 521.869 208.658 522.081C208.745 522.159 208.818 522.227 208.875 522.283C208.867 522.31 208.858 522.341 208.848 522.375C208.784 522.585 208.683 522.886 208.544 523.273C208.266 524.046 207.85 525.139 207.321 526.477L207.22 526.733L206.158 526.466C205.743 526.361 205.358 526.272 205.069 526.213C204.926 526.184 204.8 526.161 204.705 526.147C204.658 526.14 204.607 526.134 204.56 526.131C204.539 526.13 204.5 526.129 204.457 526.134C204.435 526.136 204.396 526.141 204.351 526.155C204.315 526.166 204.212 526.201 204.122 526.302C204.077 526.352 204.052 526.401 204.046 526.413L204.046 526.414C204.035 526.433 204.028 526.451 204.024 526.462C204.015 526.484 204.007 526.506 204.001 526.523C203.99 526.559 203.977 526.602 203.964 526.649C203.938 526.743 203.905 526.871 203.867 527.021C203.792 527.323 203.696 527.73 203.598 528.168C203.402 529.038 203.179 530.02 203.101 530.35L203.05 530.568H200.097H197.15L196.754 528.747C196.621 528.138 196.498 527.58 196.407 527.172C196.361 526.968 196.323 526.801 196.296 526.683C196.282 526.624 196.271 526.576 196.262 526.541C196.258 526.524 196.254 526.507 196.25 526.493C196.248 526.486 196.245 526.476 196.242 526.465C196.24 526.459 196.237 526.449 196.232 526.436C196.23 526.43 196.226 526.419 196.22 526.406C196.216 526.397 196.203 526.369 196.182 526.336ZM197.65 500.876C197.65 500.876 197.65 500.878 197.65 500.882C197.649 500.878 197.649 500.876 197.65 500.876Z" fill="#800080" stroke="black"/>
</g>
<g filter="url(#filter1_d_0_1)">
<mask id="path-15-outside-1_0_1" maskUnits="userSpaceOnUse" x="169" y="239" width="62" height="93" fill="black">
<rect fill="white" x="169" y="239" width="62" height="93"/>
<path d="M172.988 253.531C174.668 253.531 176.465 253.375 178.379 253.062C180.332 252.711 182.09 252.145 183.652 251.363C185.254 250.543 186.582 249.449 187.637 248.082C188.691 246.676 189.219 244.879 189.219 242.691H216.348V300.934C216.348 303.551 216.973 305.27 218.223 306.09C219.512 306.871 221.152 307.262 223.145 307.262H227.129V329H174.219V307.262H178.906C180.977 307.262 182.5 306.617 183.477 305.328C184.492 304 185 302.574 185 301.051V272.867H172.988V253.531Z"/>
</mask>
<path d="M172.988 253.531C174.668 253.531 176.465 253.375 178.379 253.062C180.332 252.711 182.09 252.145 183.652 251.363C185.254 250.543 186.582 249.449 187.637 248.082C188.691 246.676 189.219 244.879 189.219 242.691H216.348V300.934C216.348 303.551 216.973 305.27 218.223 306.09C219.512 306.871 221.152 307.262 223.145 307.262H227.129V329H174.219V307.262H178.906C180.977 307.262 182.5 306.617 183.477 305.328C184.492 304 185 302.574 185 301.051V272.867H172.988V253.531Z" fill="#b39ab1"/>
<path d="M172.988 253.531V250.531H169.988V253.531H172.988ZM178.379 253.062L178.862 256.023L178.886 256.019L178.91 256.015L178.379 253.062ZM183.652 251.363L184.994 254.047L185.007 254.04L185.02 254.033L183.652 251.363ZM187.637 248.082L190.012 249.914L190.025 249.898L190.037 249.882L187.637 248.082ZM189.219 242.691V239.691H186.219V242.691H189.219ZM216.348 242.691H219.348V239.691H216.348V242.691ZM218.223 306.09L216.577 308.598L216.622 308.628L216.668 308.655L218.223 306.09ZM227.129 307.262H230.129V304.262H227.129V307.262ZM227.129 329V332H230.129V329H227.129ZM174.219 329H171.219V332H174.219V329ZM174.219 307.262V304.262H171.219V307.262H174.219ZM183.477 305.328L181.093 303.506L181.085 303.517L183.477 305.328ZM185 272.867H188V269.867H185V272.867ZM172.988 272.867H169.988V275.867H172.988V272.867ZM172.988 256.531C174.852 256.531 176.812 256.358 178.862 256.023L177.896 250.102C176.117 250.392 174.484 250.531 172.988 250.531V256.531ZM178.91 256.015C181.107 255.62 183.144 254.972 184.994 254.047L182.311 248.68C181.036 249.317 179.557 249.802 177.847 250.11L178.91 256.015ZM185.02 254.033C186.998 253.02 188.676 251.647 190.012 249.914L185.261 246.25C184.488 247.252 183.51 248.066 182.285 248.693L185.02 254.033ZM190.037 249.882C191.568 247.841 192.219 245.367 192.219 242.691H186.219C186.219 244.391 185.815 245.511 185.237 246.282L190.037 249.882ZM189.219 245.691H216.348V239.691H189.219V245.691ZM213.348 242.691V300.934H219.348V242.691H213.348ZM213.348 300.934C213.348 303.809 214.003 306.909 216.577 308.598L219.869 303.582C219.866 303.58 219.862 303.577 219.856 303.571C219.849 303.564 219.835 303.55 219.816 303.524C219.777 303.471 219.709 303.361 219.636 303.16C219.482 302.738 219.348 302.031 219.348 300.934H213.348ZM216.668 308.655C218.554 309.798 220.776 310.262 223.145 310.262V304.262C221.529 304.262 220.47 303.944 219.778 303.524L216.668 308.655ZM223.145 310.262H227.129V304.262H223.145V310.262ZM224.129 307.262V329H230.129V307.262H224.129ZM227.129 326H174.219V332H227.129V326ZM177.219 329V307.262H171.219V329H177.219ZM174.219 310.262H178.906V304.262H174.219V310.262ZM178.906 310.262C181.627 310.262 184.17 309.381 185.868 307.14L181.085 303.517C180.83 303.853 180.326 304.262 178.906 304.262V310.262ZM185.86 307.15C187.234 305.353 188 303.298 188 301.051H182C182 301.851 181.75 302.647 181.093 303.506L185.86 307.15ZM188 301.051V272.867H182V301.051H188ZM185 269.867H172.988V275.867H185V269.867ZM175.988 272.867V253.531H169.988V272.867H175.988Z" fill="black" mask="url(#path-15-outside-1_0_1)"/>
<mask id="path-17-outside-2_0_1" maskUnits="userSpaceOnUse" x="341" y="21" width="34" height="51" fill="black">
<rect fill="white" x="341" y="21" width="34" height="51"/>
<path d="M343.594 29.75C344.49 29.75 345.448 29.6667 346.469 29.5C347.51 29.3125 348.448 29.0104 349.281 28.5938C350.135 28.1562 350.844 27.5729 351.406 26.8438C351.969 26.0938 352.25 25.1354 352.25 23.9688H366.719V55.0312C366.719 56.4271 367.052 57.3438 367.719 57.7812C368.406 58.1979 369.281 58.4062 370.344 58.4062H372.469V70H344.25V58.4062H346.75C347.854 58.4062 348.667 58.0625 349.188 57.375C349.729 56.6667 350 55.9062 350 55.0938V40.0625H343.594V29.75Z"/>
</mask>
<path d="M343.594 29.75C344.49 29.75 345.448 29.6667 346.469 29.5C347.51 29.3125 348.448 29.0104 349.281 28.5938C350.135 28.1562 350.844 27.5729 351.406 26.8438C351.969 26.0938 352.25 25.1354 352.25 23.9688H366.719V55.0312C366.719 56.4271 367.052 57.3438 367.719 57.7812C368.406 58.1979 369.281 58.4062 370.344 58.4062H372.469V70H344.25V58.4062H346.75C347.854 58.4062 348.667 58.0625 349.188 57.375C349.729 56.6667 350 55.9062 350 55.0938V40.0625H343.594V29.75Z" fill="#800080"/>
<path d="M343.594 29.75V27.75H341.594V29.75H343.594ZM346.469 29.5L346.791 31.4739L346.807 31.4712L346.823 31.4684L346.469 29.5ZM349.281 28.5938L350.176 30.3826L350.184 30.3783L350.193 30.3738L349.281 28.5938ZM351.406 26.8438L352.99 28.0654L352.998 28.0546L353.006 28.0438L351.406 26.8438ZM352.25 23.9688V21.9688H350.25V23.9688H352.25ZM366.719 23.9688H368.719V21.9688H366.719V23.9688ZM367.719 57.7812L366.621 59.4533L366.651 59.473L366.682 59.4916L367.719 57.7812ZM372.469 58.4062H374.469V56.4062H372.469V58.4062ZM372.469 70V72H374.469V70H372.469ZM344.25 70H342.25V72H344.25V70ZM344.25 58.4062V56.4062H342.25V58.4062H344.25ZM349.188 57.375L347.599 56.1601L347.593 56.1673L349.188 57.375ZM350 40.0625H352V38.0625H350V40.0625ZM343.594 40.0625H341.594V42.0625H343.594V40.0625ZM343.594 31.75C344.613 31.75 345.68 31.6553 346.791 31.4739L346.146 27.5261C345.216 27.678 344.367 27.75 343.594 27.75V31.75ZM346.823 31.4684C348.027 31.2516 349.15 30.8952 350.176 30.3826L348.387 26.8049C347.745 27.1256 346.993 27.3734 346.114 27.5316L346.823 31.4684ZM350.193 30.3738C351.298 29.8078 352.24 29.0378 352.99 28.0654L349.823 25.6221C349.448 26.108 348.973 26.5047 348.369 26.8137L350.193 30.3738ZM353.006 28.0438C353.886 26.8704 354.25 25.4606 354.25 23.9688H350.25C350.25 24.8102 350.051 25.3171 349.806 25.6437L353.006 28.0438ZM352.25 25.9688H366.719V21.9688H352.25V25.9688ZM364.719 23.9688V55.0312H368.719V23.9688H364.719ZM364.719 55.0312C364.719 56.5994 365.072 58.4367 366.621 59.4533L368.816 56.1092C368.918 56.1758 368.901 56.2276 368.848 56.0821C368.788 55.9153 368.719 55.5881 368.719 55.0312H364.719ZM366.682 59.4916C367.767 60.1494 369.03 60.4062 370.344 60.4062V56.4062C369.532 56.4062 369.045 56.2464 368.755 56.0709L366.682 59.4916ZM370.344 60.4062H372.469V56.4062H370.344V60.4062ZM370.469 58.4062V70H374.469V58.4062H370.469ZM372.469 68H344.25V72H372.469V68ZM346.25 70V58.4062H342.25V70H346.25ZM344.25 60.4062H346.75V56.4062H344.25V60.4062ZM346.75 60.4062C348.288 60.4062 349.78 59.9051 350.782 58.5827L347.593 56.1673C347.553 56.2199 347.421 56.4062 346.75 56.4062V60.4062ZM350.776 58.5899C351.557 57.5687 352 56.3886 352 55.0938H348C348 55.4239 347.901 55.7646 347.599 56.1601L350.776 58.5899ZM352 55.0938V40.0625H348V55.0938H352ZM350 38.0625H343.594V42.0625H350V38.0625ZM345.594 40.0625V29.75H341.594V40.0625H345.594Z" fill="black" mask="url(#path-17-outside-2_0_1)"/>
<mask id="path-19-outside-3_0_1" maskUnits="userSpaceOnUse" x="341" y="485" width="34" height="51" fill="black">
<rect fill="white" x="341" y="485" width="34" height="51"/>
<path d="M343.594 493.75C344.49 493.75 345.448 493.667 346.469 493.5C347.51 493.312 348.448 493.01 349.281 492.594C350.135 492.156 350.844 491.573 351.406 490.844C351.969 490.094 352.25 489.135 352.25 487.969H366.719V519.031C366.719 520.427 367.052 521.344 367.719 521.781C368.406 522.198 369.281 522.406 370.344 522.406H372.469V534H344.25V522.406H346.75C347.854 522.406 348.667 522.062 349.188 521.375C349.729 520.667 350 519.906 350 519.094V504.062H343.594V493.75Z"/>
</mask>
<path d="M343.594 493.75C344.49 493.75 345.448 493.667 346.469 493.5C347.51 493.312 348.448 493.01 349.281 492.594C350.135 492.156 350.844 491.573 351.406 490.844C351.969 490.094 352.25 489.135 352.25 487.969H366.719V519.031C366.719 520.427 367.052 521.344 367.719 521.781C368.406 522.198 369.281 522.406 370.344 522.406H372.469V534H344.25V522.406H346.75C347.854 522.406 348.667 522.062 349.188 521.375C349.729 520.667 350 519.906 350 519.094V504.062H343.594V493.75Z" fill="#800080"/>
<path d="M343.594 493.75V491.75H341.594V493.75H343.594ZM346.469 493.5L346.791 495.474L346.807 495.471L346.823 495.468L346.469 493.5ZM349.281 492.594L350.176 494.383L350.184 494.378L350.193 494.374L349.281 492.594ZM351.406 490.844L352.99 492.065L352.998 492.055L353.006 492.044L351.406 490.844ZM352.25 487.969V485.969H350.25V487.969H352.25ZM366.719 487.969H368.719V485.969H366.719V487.969ZM367.719 521.781L366.621 523.453L366.651 523.473L366.682 523.492L367.719 521.781ZM372.469 522.406H374.469V520.406H372.469V522.406ZM372.469 534V536H374.469V534H372.469ZM344.25 534H342.25V536H344.25V534ZM344.25 522.406V520.406H342.25V522.406H344.25ZM349.188 521.375L347.599 520.16L347.593 520.167L349.188 521.375ZM350 504.062H352V502.062H350V504.062ZM343.594 504.062H341.594V506.062H343.594V504.062ZM343.594 495.75C344.613 495.75 345.68 495.655 346.791 495.474L346.146 491.526C345.216 491.678 344.367 491.75 343.594 491.75V495.75ZM346.823 495.468C348.027 495.252 349.15 494.895 350.176 494.383L348.387 490.805C347.745 491.126 346.993 491.373 346.114 491.532L346.823 495.468ZM350.193 494.374C351.298 493.808 352.24 493.038 352.99 492.065L349.823 489.622C349.448 490.108 348.973 490.505 348.369 490.814L350.193 494.374ZM353.006 492.044C353.886 490.87 354.25 489.461 354.25 487.969H350.25C350.25 488.81 350.051 489.317 349.806 489.644L353.006 492.044ZM352.25 489.969H366.719V485.969H352.25V489.969ZM364.719 487.969V519.031H368.719V487.969H364.719ZM364.719 519.031C364.719 520.599 365.072 522.437 366.621 523.453L368.816 520.109C368.918 520.176 368.901 520.228 368.848 520.082C368.788 519.915 368.719 519.588 368.719 519.031H364.719ZM366.682 523.492C367.767 524.149 369.03 524.406 370.344 524.406V520.406C369.532 520.406 369.045 520.246 368.755 520.071L366.682 523.492ZM370.344 524.406H372.469V520.406H370.344V524.406ZM370.469 522.406V534H374.469V522.406H370.469ZM372.469 532H344.25V536H372.469V532ZM346.25 534V522.406H342.25V534H346.25ZM344.25 524.406H346.75V520.406H344.25V524.406ZM346.75 524.406C348.288 524.406 349.78 523.905 350.782 522.583L347.593 520.167C347.553 520.22 347.421 520.406 346.75 520.406V524.406ZM350.776 522.59C351.557 521.569 352 520.389 352 519.094H348C348 519.424 347.901 519.765 347.599 520.16L350.776 522.59ZM352 519.094V504.062H348V519.094H352ZM350 502.062H343.594V506.062H350V502.062ZM345.594 504.062V493.75H341.594V504.062H345.594Z" fill="black" mask="url(#path-19-outside-3_0_1)"/>
<mask id="path-21-outside-4_0_1" maskUnits="userSpaceOnUse" x="19" y="485" width="34" height="51" fill="black">
<rect fill="white" x="19" y="485" width="34" height="51"/>
<path d="M21.5938 493.75C22.4896 493.75 23.4479 493.667 24.4688 493.5C25.5104 493.312 26.4479 493.01 27.2812 492.594C28.1354 492.156 28.8438 491.573 29.4062 490.844C29.9688 490.094 30.25 489.135 30.25 487.969H44.7188V519.031C44.7188 520.427 45.0521 521.344 45.7188 521.781C46.4062 522.198 47.2812 522.406 48.3438 522.406H50.4688V534H22.25V522.406H24.75C25.8542 522.406 26.6667 522.062 27.1875 521.375C27.7292 520.667 28 519.906 28 519.094V504.062H21.5938V493.75Z"/>
</mask>
<path d="M21.5938 493.75C22.4896 493.75 23.4479 493.667 24.4688 493.5C25.5104 493.312 26.4479 493.01 27.2812 492.594C28.1354 492.156 28.8438 491.573 29.4062 490.844C29.9688 490.094 30.25 489.135 30.25 487.969H44.7188V519.031C44.7188 520.427 45.0521 521.344 45.7188 521.781C46.4062 522.198 47.2812 522.406 48.3438 522.406H50.4688V534H22.25V522.406H24.75C25.8542 522.406 26.6667 522.062 27.1875 521.375C27.7292 520.667 28 519.906 28 519.094V504.062H21.5938V493.75Z" fill="#800080"/>
<path d="M21.5938 493.75V491.75H19.5938V493.75H21.5938ZM24.4688 493.5L24.791 495.474L24.8071 495.471L24.8231 495.468L24.4688 493.5ZM27.2812 492.594L28.1757 494.383L28.1844 494.378L28.193 494.374L27.2812 492.594ZM29.4062 490.844L30.9898 492.065L30.9981 492.055L31.0063 492.044L29.4062 490.844ZM30.25 487.969V485.969H28.25V487.969H30.25ZM44.7188 487.969H46.7188V485.969H44.7188V487.969ZM45.7188 521.781L44.6214 523.453L44.6514 523.473L44.6821 523.492L45.7188 521.781ZM50.4688 522.406H52.4688V520.406H50.4688V522.406ZM50.4688 534V536H52.4688V534H50.4688ZM22.25 534H20.25V536H22.25V534ZM22.25 522.406V520.406H20.25V522.406H22.25ZM27.1875 521.375L25.5988 520.16L25.5933 520.167L27.1875 521.375ZM28 504.062H30V502.062H28V504.062ZM21.5938 504.062H19.5938V506.062H21.5938V504.062ZM21.5938 495.75C22.6125 495.75 23.6796 495.655 24.791 495.474L24.1465 491.526C23.2163 491.678 22.3666 491.75 21.5938 491.75V495.75ZM24.8231 495.468C26.0274 495.252 27.1504 494.895 28.1757 494.383L26.3868 490.805C25.7454 491.126 24.9935 491.373 24.1144 491.532L24.8231 495.468ZM28.193 494.374C29.2982 493.808 30.2396 493.038 30.9898 492.065L27.8227 489.622C27.4479 490.108 26.9726 490.505 26.3695 490.814L28.193 494.374ZM31.0063 492.044C31.8863 490.87 32.25 489.461 32.25 487.969H28.25C28.25 488.81 28.0512 489.317 27.8062 489.644L31.0063 492.044ZM30.25 489.969H44.7188V485.969H30.25V489.969ZM42.7188 487.969V519.031H46.7188V487.969H42.7188ZM42.7188 519.031C42.7188 520.599 43.0723 522.437 44.6214 523.453L46.8161 520.109C46.9176 520.176 46.9012 520.228 46.8483 520.082C46.7877 519.915 46.7188 519.588 46.7188 519.031H42.7188ZM44.6821 523.492C45.7675 524.149 47.0303 524.406 48.3438 524.406V520.406C47.5322 520.406 47.045 520.246 46.7554 520.071L44.6821 523.492ZM48.3438 524.406H50.4688V520.406H48.3438V524.406ZM48.4688 522.406V534H52.4688V522.406H48.4688ZM50.4688 532H22.25V536H50.4688V532ZM24.25 534V522.406H20.25V534H24.25ZM22.25 524.406H24.75V520.406H22.25V524.406ZM24.75 524.406C26.2876 524.406 27.7799 523.905 28.7817 522.583L25.5933 520.167C25.5534 520.22 25.4207 520.406 24.75 520.406V524.406ZM28.7762 522.59C29.5571 521.569 30 520.389 30 519.094H26C26 519.424 25.9012 519.765 25.5988 520.16L28.7762 522.59ZM30 519.094V504.062H26V519.094H30ZM28 502.062H21.5938V506.062H28V502.062ZM23.5938 504.062V493.75H19.5938V504.062H23.5938Z" fill="black" mask="url(#path-21-outside-4_0_1)"/>
<mask id="path-23-outside-5_0_1" maskUnits="userSpaceOnUse" x="19" y="21" width="34" height="51" fill="black">
<rect fill="white" x="19" y="21" width="34" height="51"/>
<path d="M21.5938 29.75C22.4896 29.75 23.4479 29.6667 24.4688 29.5C25.5104 29.3125 26.4479 29.0104 27.2812 28.5938C28.1354 28.1562 28.8438 27.5729 29.4062 26.8438C29.9688 26.0938 30.25 25.1354 30.25 23.9688H44.7188V55.0312C44.7188 56.4271 45.0521 57.3438 45.7188 57.7812C46.4062 58.1979 47.2812 58.4062 48.3438 58.4062H50.4688V70H22.25V58.4062H24.75C25.8542 58.4062 26.6667 58.0625 27.1875 57.375C27.7292 56.6667 28 55.9062 28 55.0938V40.0625H21.5938V29.75Z"/>
</mask>
<path d="M21.5938 29.75C22.4896 29.75 23.4479 29.6667 24.4688 29.5C25.5104 29.3125 26.4479 29.0104 27.2812 28.5938C28.1354 28.1562 28.8438 27.5729 29.4062 26.8438C29.9688 26.0938 30.25 25.1354 30.25 23.9688H44.7188V55.0312C44.7188 56.4271 45.0521 57.3438 45.7188 57.7812C46.4062 58.1979 47.2812 58.4062 48.3438 58.4062H50.4688V70H22.25V58.4062H24.75C25.8542 58.4062 26.6667 58.0625 27.1875 57.375C27.7292 56.6667 28 55.9062 28 55.0938V40.0625H21.5938V29.75Z" fill="#800080"/>
<path d="M21.5938 29.75V27.75H19.5938V29.75H21.5938ZM24.4688 29.5L24.791 31.4739L24.8071 31.4712L24.8231 31.4684L24.4688 29.5ZM27.2812 28.5938L28.1757 30.3826L28.1844 30.3783L28.193 30.3738L27.2812 28.5938ZM29.4062 26.8438L30.9898 28.0654L30.9981 28.0546L31.0063 28.0438L29.4062 26.8438ZM30.25 23.9688V21.9688H28.25V23.9688H30.25ZM44.7188 23.9688H46.7188V21.9688H44.7188V23.9688ZM45.7188 57.7812L44.6214 59.4533L44.6514 59.473L44.6821 59.4916L45.7188 57.7812ZM50.4688 58.4062H52.4688V56.4062H50.4688V58.4062ZM50.4688 70V72H52.4688V70H50.4688ZM22.25 70H20.25V72H22.25V70ZM22.25 58.4062V56.4062H20.25V58.4062H22.25ZM27.1875 57.375L25.5988 56.1601L25.5933 56.1673L27.1875 57.375ZM28 40.0625H30V38.0625H28V40.0625ZM21.5938 40.0625H19.5938V42.0625H21.5938V40.0625ZM21.5938 31.75C22.6125 31.75 23.6796 31.6553 24.791 31.4739L24.1465 27.5261C23.2163 27.678 22.3666 27.75 21.5938 27.75V31.75ZM24.8231 31.4684C26.0274 31.2516 27.1504 30.8952 28.1757 30.3826L26.3868 26.8049C25.7454 27.1256 24.9935 27.3734 24.1144 27.5316L24.8231 31.4684ZM28.193 30.3738C29.2982 29.8078 30.2396 29.0378 30.9898 28.0654L27.8227 25.6221C27.4479 26.108 26.9726 26.5047 26.3695 26.8137L28.193 30.3738ZM31.0063 28.0438C31.8863 26.8704 32.25 25.4606 32.25 23.9688H28.25C28.25 24.8102 28.0512 25.3171 27.8062 25.6437L31.0063 28.0438ZM30.25 25.9688H44.7188V21.9688H30.25V25.9688ZM42.7188 23.9688V55.0312H46.7188V23.9688H42.7188ZM42.7188 55.0312C42.7188 56.5994 43.0723 58.4367 44.6214 59.4533L46.8161 56.1092C46.9176 56.1758 46.9012 56.2276 46.8483 56.0821C46.7877 55.9153 46.7188 55.5881 46.7188 55.0312H42.7188ZM44.6821 59.4916C45.7675 60.1494 47.0303 60.4062 48.3438 60.4062V56.4062C47.5322 56.4062 47.045 56.2464 46.7554 56.0709L44.6821 59.4916ZM48.3438 60.4062H50.4688V56.4062H48.3438V60.4062ZM48.4688 58.4062V70H52.4688V58.4062H48.4688ZM50.4688 68H22.25V72H50.4688V68ZM24.25 70V58.4062H20.25V70H24.25ZM22.25 60.4062H24.75V56.4062H22.25V60.4062ZM24.75 60.4062C26.2876 60.4062 27.7799 59.9051 28.7817 58.5827L25.5933 56.1673C25.5534 56.2199 25.4207 56.4062 24.75 56.4062V60.4062ZM28.7762 58.5899C29.5571 57.5687 30 56.3886 30 55.0938H26C26 55.4239 25.9012 55.7646 25.5988 56.1601L28.7762 58.5899ZM30 55.0938V40.0625H26V55.0938H30ZM28 38.0625H21.5938V42.0625H28V38.0625ZM23.5938 40.0625V29.75H19.5938V40.0625H23.5938Z" fill="black" mask="url(#path-23-outside-5_0_1)"/>
</g>
<defs>
<filter id="filter0_d_0_1" x="24" y="92" width="352" height="394" filterUnits="userSpaceOnUse" color-interpolation-filters="sRGB">
<feFlood flood-opacity="0" result="BackgroundImageFix"/>
<feColorMatrix in="SourceAlpha" type="matrix" values="0 0 0 0 0 0 0 0 0 0 0 0 0 0 0 0 0 0 127 0" result="hardAlpha"/>
<feOffset dy="4"/>
<feGaussianBlur stdDeviation="2"/>
<feComposite in2="hardAlpha" operator="out"/>
<feColorMatrix type="matrix" values="0 0 0 0 0 0 0 0 0 0 0 0 0 0 0 0 0 0 0.25 0"/>
<feBlend mode="normal" in2="BackgroundImageFix" result="effect1_dropShadow_0_1"/>
<feBlend mode="normal" in="SourceGraphic" in2="effect1_dropShadow_0_1" result="shape"/>
</filter>
<filter id="filter1_d_0_1" x="17.5938" y="23.9688" width="358.875" height="518.031" filterUnits="userSpaceOnUse" color-interpolation-filters="sRGB">
<feFlood flood-opacity="0" result="BackgroundImageFix"/>
<feColorMatrix in="SourceAlpha" type="matrix" values="0 0 0 0 0 0 0 0 0 0 0 0 0 0 0 0 0 0 127 0" result="hardAlpha"/>
<feOffset dy="4"/>
<feGaussianBlur stdDeviation="2"/>
<feComposite in2="hardAlpha" operator="out"/>
<feColorMatrix type="matrix" values="0 0 0 0 0 0 0 0 0 0 0 0 0 0 0 0 0 0 0.25 0"/>
<feBlend mode="normal" in2="BackgroundImageFix" result="effect1_dropShadow_0_1"/>
<feBlend mode="normal" in="SourceGraphic" in2="effect1_dropShadow_0_1" result="shape"/>
</filter>
<clipPath id="clip0_0_1">
<rect width="344" height="386" fill="white" transform="translate(28 92)"/>
</clipPath>
<clipPath id="clip1_0_1">
<rect width="34" height="38" fill="white" transform="translate(183 17)"/>
</clipPath>
<clipPath id="clip2_0_1">
<rect width="34" height="38" fill="white" transform="translate(183 495)"/>
</clipPath>
</defs>
</svg>
