<svg width="400" height="550" viewBox="0 0 400 550" fill="none" xmlns="http://www.w3.org/2000/svg">
<path d="M0.5 0.5H0.914507H1.82745H2.73883H3.64866H4.55695H5.46369H6.36891H7.27259H8.17475H9.0754H9.97453H10.8722H11.7683H12.6629H13.5561H14.4478H15.338H16.2267H17.114H17.9998H18.8842H19.7672H20.6487H21.5287H22.4074H23.2846H24.1604H25.0349H25.9079H26.7795H27.6497H28.5186H29.3861H30.2522H31.1169H31.9803H32.8424H33.7031H34.5624H35.4205H36.2772H37.1326H37.9866H38.8394H39.6909H40.541H41.3899H42.2375H43.0838H43.9289H44.7727H45.6152H46.4565H47.2965H48.1353H48.9729H49.8092H50.6443H51.4782H52.3109H53.1424H53.9727H54.8018H55.6297H56.4565H57.282H58.1064H58.9297H59.7518H60.5727H61.3925H62.2112H63.0287H63.8451H64.6604H65.4746H66.2877H67.0997H67.9106H68.7204H69.5291H70.3367H71.1433H71.9488H72.7533H73.5567H74.3591H75.1604H75.9607H76.76H77.5583H78.3555H79.1518H79.947H80.7412H81.5345H82.3268H83.1181H83.9084H84.6978H85.4862H86.2737H87.0602H87.8458H88.6304H89.4141H90.1969H90.9788H91.7598H92.5399H93.3191H94.0973H94.8747H95.6513H96.4269H97.2017H97.9757H98.7487H99.521H100.292H101.063H101.833H102.602H103.37H104.137H104.903H105.669H106.434H107.198H107.961H108.724H109.486H110.247H111.007H111.767H112.525H113.283H114.041H114.797H115.553H116.308H117.063H117.816H118.57H119.322H120.074H120.825H121.575H122.325H123.074H123.822H124.57H125.317H126.063H126.809H127.554H128.299H129.043H129.786H130.529H131.271H132.013H132.754H133.495H134.234H134.974H135.713H136.451H137.189H137.926H138.662H139.399H140.134H140.869H141.604H142.338H143.072H143.805H144.537H145.27H146.001H146.733H147.463H148.194H148.924H149.653H150.382H151.111H151.839H152.567H153.294H154.021H154.748H155.474H156.2H156.925H157.65H158.375H159.1H159.824H160.547H161.271H161.994H162.716H163.439H164.161H164.882H165.604H166.325H167.046H167.766H168.487H169.207H169.927H170.646H171.365H172.084H172.803H173.522H174.24H174.958H175.676H176.394H177.111H177.828H178.546H179.262H179.979H180.696H181.412H182.128H182.844H183.56H184.276H184.992H185.707H186.423H187.138H187.853H188.568H189.283H189.998H190.713H191.427H192.142H192.857H193.571H194.286H195H195.714H196.429H197.143H197.857H198.572H199.286H200H200.714H201.428H202.143H202.857H203.571H204.286H205H205.714H206.429H207.143H207.858H208.573H209.287H210.002H210.717H211.432H212.147H212.862H213.577H214.293H215.008H215.724H216.44H217.156H217.872H218.588H219.304H220.021H220.738H221.454H222.172H222.889H223.606H224.324H225.042H225.76H226.478H227.197H227.916H228.635H229.354H230.073H230.793H231.513H232.234H232.954H233.675H234.396H235.118H235.839H236.561H237.284H238.006H238.729H239.453H240.176H240.9H241.625H242.35H243.075H243.8H244.526H245.252H245.979H246.706H247.433H248.161H248.889H249.618H250.347H251.076H251.806H252.537H253.267H253.999H254.73H255.463H256.195H256.928H257.662H258.396H259.131H259.866H260.601H261.338H262.074H262.811H263.549H264.287H265.026H265.766H266.505H267.246H267.987H268.729H269.471H270.214H270.957H271.701H272.446H273.191H273.937H274.683H275.43H276.178H276.926H277.675H278.425H279.175H279.926H280.678H281.43H282.184H282.937H283.692H284.447H285.203H285.959H286.717H287.475H288.233H288.993H289.753H290.514H291.276H292.039H292.802H293.566H294.331H295.097H295.863H296.63H297.398H298.167H298.937H299.708H300.479H301.251H302.024H302.798H303.573H304.349H305.125H305.903H306.681H307.46H308.24H309.021H309.803H310.586H311.37H312.154H312.94H313.726H314.514H315.302H316.092H316.882H317.673H318.465H319.259H320.053H320.848H321.644H322.442H323.24H324.039H324.84H325.641H326.443H327.247H328.051H328.857H329.663H330.471H331.28H332.089H332.9H333.712H334.525H335.34H336.155H336.971H337.789H338.607H339.427H340.248H341.07H341.894H342.718H343.544H344.37H345.198H346.027H346.858H347.689H348.522H349.356H350.191H351.027H351.865H352.703H353.543H354.385H355.227H356.071H356.916H357.762H358.61H359.459H360.309H361.161H362.013H362.867H363.723H364.58H365.438H366.297H367.158H368.02H368.883H369.748H370.614H371.481H372.35H373.221H374.092H374.965H375.84H376.715H377.593H378.471H379.351H380.233H381.116H382H382.886H383.773H384.662H385.552H386.444H387.337H388.232H389.128H390.025H390.925H391.825H392.727H393.631H394.536H395.443H396.351H397.261H398.173H399.085H399.5V549.5H0.5V0.5Z" fill="white" stroke="black"/>
<rect x="20" y="55" width="360" height="440" fill="white"/>
<g clip-path="url(#clip0_0_1)" filter="url(#filter0_d_0_1)">
<path d="M29.1467 219.38C29.1467 217.593 29.1467 215.806 29.4394 213.946C31.1775 211.76 32.7565 209.746 34.0476 207.521C46.6304 185.836 58.5915 163.661 71.8993 142.553C82.1262 126.333 94.0318 111.445 105.191 95.964C105.761 96.2606 106.331 96.5573 106.901 96.8539C98.2263 124.505 95.9401 152.878 98.1346 182.204C114.546 184.535 130.707 186.83 146.868 189.125C147.174 188.281 147.481 187.438 147.787 186.595C146.129 185.145 144.557 183.547 142.8 182.269C132.896 175.065 132.135 166.136 136.715 154.312C141.826 141.118 145.186 127.069 149.557 112.563C160.24 124.558 170.216 136.023 180.497 147.133C183.364 150.232 183.502 152.548 181.759 156.38C177.19 166.424 173.079 176.73 168.478 187.085C168.154 187.547 168.138 187.855 168.122 188.162C168.617 188.105 169.112 188.048 169.988 187.828C179.411 182.625 188.375 177.393 197.554 172.692C199.584 171.652 202.739 171.591 204.754 172.617C212.941 176.787 220.871 181.588 228.934 186.071C230.394 186.882 232.032 187.29 234.853 188.368C228.892 174.904 223.662 163.093 218.792 152.095C230.394 139.075 241.568 126.534 252.992 113.715C258.304 131.747 263.76 150.013 268.947 168.374C269.34 169.765 268.193 172.217 267.127 173.522C262.982 178.596 258.581 183.407 254.276 188.315C254.525 188.687 254.774 189.058 255.022 189.43C271.462 186.957 287.902 184.484 304.225 182.029C306.223 152.715 304.063 124.847 295.827 97.6277C296.021 97.4629 296.371 97.0835 296.76 97.1362C306.111 109.072 315.924 120.286 323.856 132.98C339.659 158.271 354.411 184.388 369.681 210.102C370.426 211.357 371.973 212.012 373.147 212.947C373.147 214.734 373.147 216.521 372.884 218.371C354.938 233.659 334.456 241.616 313.084 247.216C306.839 248.853 300.537 250.218 294.106 251.744C297.285 268.582 300.482 284.789 303.269 301.085C303.674 303.451 302.793 306.938 301.345 308.712C295.415 315.977 289.063 322.811 282.811 329.742C278.525 334.494 274.148 339.144 269.713 343.946C278.706 351.544 286.822 358.256 294.733 365.259C295.81 366.212 296.732 369.028 296.261 370.295C289.906 387.361 283.292 404.305 276.721 421.334C266.32 418.764 256.319 416.292 245.926 413.723C242.43 429.201 238.955 444.591 235.501 459.885C212.349 459.885 189.819 459.885 166.792 459.885C163.338 444.596 159.873 429.26 156.372 413.76C145.707 416.36 135.633 418.815 125.383 421.313C118.409 403.01 111.635 385.232 104.829 367.373C114.05 359.585 122.956 352.062 132.332 344.143C121.659 332.181 111.342 320.493 100.87 308.983C98.7568 306.661 98.0402 304.689 98.7374 301.247C102.058 284.857 105.028 268.377 108.141 251.83C100.21 249.833 92.5695 248.094 85.0151 245.97C66.1366 240.662 47.7181 234.124 32.2694 219.979C31.5574 219.327 30.2023 219.56 29.1467 219.38Z" fill="#FDFDFD"/>
<path d="M169.409 187.718C169.112 188.048 168.617 188.105 168.122 188.162C168.138 187.855 168.154 187.547 168.478 187.085C168.927 187.103 169.07 187.274 169.409 187.718Z" fill="black"/>
<path d="M295.827 97.6277C295.836 97.3575 296.039 96.9224 296.306 96.7855C296.371 97.0835 296.021 97.4629 295.827 97.6277Z" fill="#FDFDFD"/>
<path d="M157.967 412.534L157.196 413.034L157.967 412.534C157.79 412.261 157.541 412.161 157.461 412.132C157.356 412.094 157.266 412.08 157.22 412.074C157.124 412.062 157.037 412.064 156.988 412.066C156.88 412.07 156.756 412.084 156.637 412.1C156.389 412.134 156.05 412.192 155.64 412.269C154.814 412.425 153.643 412.669 152.217 412.981C149.361 413.607 145.456 414.512 141.189 415.545L126.55 419.092L117.223 394.399C114.574 387.385 112.169 380.89 110.43 376.077C109.56 373.671 108.858 371.688 108.375 370.274C108.133 369.565 107.948 369.006 107.826 368.61C107.795 368.509 107.768 368.421 107.746 368.345C107.897 368.164 108.128 367.913 108.442 367.593C109.093 366.929 110.044 366.024 111.231 364.939C113.601 362.772 116.872 359.923 120.472 356.916C124.088 353.895 127.379 351.028 129.77 348.841C130.965 347.749 131.944 346.818 132.629 346.118C132.969 345.77 133.252 345.464 133.455 345.217C133.555 345.095 133.652 344.966 133.73 344.841C133.769 344.778 133.815 344.698 133.854 344.605C133.887 344.526 133.949 344.361 133.949 344.15C133.949 343.917 133.869 343.731 133.846 343.678L133.845 343.676C133.808 343.591 133.765 343.51 133.725 343.443C133.646 343.305 133.54 343.146 133.419 342.975C133.176 342.629 132.827 342.169 132.39 341.616C131.515 340.506 130.256 338.977 128.71 337.144C125.616 333.474 121.351 328.56 116.663 323.285L99.9568 304.49L104.508 280.696C105.786 274.016 106.948 267.665 107.791 262.814C108.212 260.389 108.554 258.335 108.791 256.8C109.021 255.314 109.17 254.214 109.17 253.78C109.17 252.789 108.404 252.048 107.603 251.498C106.733 250.9 105.455 250.278 103.757 249.601C100.347 248.24 95.0163 246.565 87.2976 244.379C67.8972 238.883 56.6576 233.87 36.236 221.587C34.5771 220.589 33.0712 219.565 31.9853 218.725C31.4397 218.303 31.0196 217.942 30.7428 217.665C30.6828 217.605 30.6332 217.553 30.593 217.508C30.6521 217.351 30.7396 217.144 30.8575 216.884C31.1262 216.294 31.5257 215.495 32.0301 214.539C33.0371 212.63 34.4402 210.14 35.995 207.532C39.1203 202.29 49.8785 184.017 59.9017 166.925C67.3724 154.186 78.4456 136.96 87.8092 123.107C92.4911 116.181 96.7383 110.109 99.8889 105.868C101.249 104.038 102.395 102.562 103.278 101.51C103.217 101.843 103.148 102.204 103.073 102.589C102.637 104.829 101.991 107.872 101.239 111.174C97.6719 126.848 95.5033 146.573 95.5284 163.107C95.5305 164.52 95.5233 165.839 95.5165 167.069C95.4981 170.401 95.4834 173.083 95.6688 175.221C95.9251 178.176 96.5784 180.375 98.3461 181.98C100.056 183.532 102.66 184.382 106.382 185.112C109.115 185.648 112.582 186.14 116.937 186.758C118.558 186.988 120.302 187.235 122.177 187.509C128.829 188.48 135.023 189.266 139.645 189.749C141.954 189.991 143.882 190.158 145.282 190.234C145.98 190.272 146.565 190.289 147.008 190.279C147.227 190.274 147.434 190.262 147.612 190.237C147.701 190.225 147.8 190.208 147.9 190.18C147.987 190.156 148.143 190.106 148.299 189.998C148.964 189.537 149.547 188.952 149.78 188.165C150.021 187.348 149.821 186.54 149.398 185.785C148.982 185.043 148.304 184.261 147.411 183.409C146.509 182.55 145.341 181.575 143.899 180.454C141.295 178.429 139.442 176.827 138.202 175.113C136.994 173.442 136.347 171.632 136.256 169.139C136.163 166.603 136.646 163.362 137.739 158.855C138.831 154.357 140.51 148.672 142.77 141.268L150.158 117.055L163.536 131.618C167.537 135.973 171.376 140.233 174.339 143.587C177.331 146.976 179.363 149.368 179.814 150.037C180.317 150.783 180.561 151.807 179.774 154.673C178.985 157.541 177.248 161.967 174.171 169.287C172.142 174.114 170.381 178.605 169.177 181.955C168.576 183.627 168.109 185.029 167.818 186.053C167.673 186.56 167.564 187.001 167.506 187.345C167.477 187.513 167.455 187.695 167.455 187.866C167.455 187.951 167.461 188.066 167.489 188.189C167.513 188.3 167.574 188.511 167.748 188.706C167.936 188.917 168.158 189.003 168.297 189.04C168.44 189.078 168.569 189.084 168.661 189.084C168.844 189.083 169.03 189.051 169.19 189.016C169.518 188.943 169.931 188.812 170.396 188.642C171.337 188.3 172.623 187.756 174.151 187.06C177.215 185.665 181.323 183.629 185.739 181.287L201.28 173.044L216.212 181.086C223.468 184.993 228.09 187.363 230.906 188.516C232.279 189.079 233.367 189.416 234.162 189.421C234.575 189.424 235.077 189.338 235.473 188.972C235.884 188.591 235.983 188.091 235.983 187.702C235.983 187.566 235.956 187.45 235.947 187.412C235.933 187.353 235.917 187.294 235.9 187.24C235.867 187.13 235.821 186.998 235.768 186.85C235.66 186.553 235.505 186.152 235.31 185.664C234.919 184.686 234.357 183.329 233.665 181.696C232.28 178.428 230.372 174.033 228.274 169.3L220.912 152.689L236.44 135.211C240.819 130.283 244.901 125.945 247.947 122.926C249.474 121.414 250.724 120.248 251.616 119.508C251.799 119.355 251.962 119.225 252.105 119.117C252.238 119.467 252.399 119.915 252.585 120.453C253.049 121.788 253.66 123.65 254.377 125.904C255.809 130.412 257.653 136.468 259.565 142.985C263.311 155.758 266.68 167.145 267.153 168.635C267.15 168.659 267.144 168.697 267.131 168.752C267.09 168.92 267.006 169.162 266.864 169.481C266.581 170.116 266.117 170.951 265.495 171.933C264.255 173.892 262.444 176.347 260.364 178.816C258.246 181.329 256.399 183.719 255.128 185.552C254.496 186.464 253.99 187.261 253.665 187.877C253.505 188.179 253.367 188.479 253.286 188.75C253.247 188.882 253.206 189.057 253.204 189.247C253.202 189.423 253.232 189.763 253.495 190.058C253.69 190.276 253.925 190.357 254.003 190.382C254.114 190.418 254.222 190.438 254.307 190.45C254.48 190.475 254.682 190.486 254.891 190.49C255.317 190.497 255.891 190.476 256.584 190.434C257.975 190.349 259.922 190.17 262.276 189.914C266.988 189.403 273.373 188.581 280.297 187.572L305.446 183.906L306.325 183.778L306.301 182.89L305.562 155.014C305 133.837 304.079 123.924 301.713 113.987C300.867 110.436 300.149 107.158 299.673 104.738C299.535 104.038 299.418 103.413 299.324 102.877C300.147 103.772 301.227 105.092 302.533 106.794C305.453 110.601 309.425 116.221 314.003 123.001C323.158 136.556 334.708 154.696 345.075 172.126C351.853 183.522 358.179 193.884 362.911 201.4C365.277 205.157 367.249 208.209 368.681 210.326C369.396 211.382 369.986 212.218 370.427 212.796C370.645 213.081 370.842 213.324 371.009 213.502C371.09 213.589 371.187 213.685 371.291 213.767C371.343 213.808 371.419 213.862 371.514 213.911C371.593 213.951 371.763 214.028 371.989 214.034C372.014 214.046 372.083 214.095 372.179 214.252C372.331 214.503 372.458 214.913 372.458 215.414C372.458 215.413 372.458 215.413 372.457 215.415C372.456 215.425 372.445 215.507 372.357 215.682C372.262 215.87 372.103 216.111 371.865 216.405C371.389 216.993 370.667 217.708 369.714 218.528C367.813 220.164 365.099 222.126 361.894 224.2C355.485 228.346 347.206 232.875 339.747 236.05C332.874 238.975 319.711 243.342 310.527 245.739C305.915 246.942 301.678 248.075 298.568 248.929C297.014 249.357 295.737 249.715 294.834 249.98C294.384 250.112 294.02 250.222 293.759 250.306C293.629 250.348 293.515 250.387 293.423 250.421C293.379 250.438 293.327 250.458 293.277 250.481L293.275 250.482C293.257 250.49 293.11 250.554 292.977 250.675C292.758 250.874 292.693 251.11 292.679 251.163L292.678 251.165C292.654 251.252 292.646 251.326 292.642 251.368C292.634 251.455 292.634 251.538 292.636 251.598C292.64 251.727 292.653 251.885 292.671 252.058C292.708 252.411 292.774 252.905 292.864 253.516C293.044 254.744 293.327 256.49 293.691 258.621C294.419 262.887 295.472 268.72 296.676 275.093C297.878 281.454 298.97 287.724 299.761 292.7C300.157 295.189 300.477 297.349 300.697 299.034C300.921 300.743 301.034 301.9 301.034 302.422C301.034 303.751 300.265 305.696 297.706 309.28C295.181 312.818 291.051 317.774 284.639 325.079L267.995 344.039L267.313 344.816L268.111 345.472L281.046 356.103C284.594 359.019 287.881 361.85 290.319 364.06C291.538 365.166 292.537 366.11 293.247 366.827C293.603 367.186 293.875 367.479 294.064 367.7C294.137 367.787 294.193 367.856 294.233 367.909C294.232 367.921 294.231 367.934 294.229 367.948C294.214 368.104 294.176 368.334 294.109 368.647C293.975 369.27 293.741 370.14 293.404 371.256C292.732 373.483 291.675 376.62 290.261 380.577C287.436 388.487 283.207 399.629 277.847 413.237L275.51 419.17L261.309 415.579C257.159 414.53 253.32 413.642 250.476 413.058C249.056 412.766 247.871 412.547 247.014 412.422C246.59 412.36 246.222 412.317 245.938 412.303C245.8 412.296 245.647 412.294 245.504 412.309C245.433 412.316 245.332 412.33 245.222 412.365C245.133 412.392 244.913 412.47 244.726 412.68C244.628 412.791 244.57 412.904 244.549 412.945C244.519 413.004 244.493 413.064 244.472 413.116C244.43 413.222 244.386 413.348 244.341 413.484C244.251 413.759 244.142 414.131 244.017 414.58C243.766 415.482 243.441 416.738 243.065 418.253C242.313 421.286 241.351 425.382 240.36 429.809C238.38 438.652 236.116 448.644 235.33 452.012L234.077 457.373H200.982H167.9L163.19 435.671C161.848 429.485 160.604 423.826 159.682 419.69C159.221 417.622 158.84 415.934 158.567 414.75C158.43 414.159 158.32 413.691 158.24 413.363C158.2 413.2 158.166 413.066 158.139 412.967C158.126 412.919 158.113 412.87 158.1 412.828C158.093 412.807 158.084 412.778 158.072 412.747C158.071 412.743 158.036 412.641 157.967 412.534ZM30.4544 217.331C30.455 217.331 30.4589 217.337 30.4647 217.348C30.4568 217.336 30.4539 217.33 30.4544 217.331ZM30.5182 217.733C30.5171 217.739 30.5162 217.743 30.5161 217.743C30.5159 217.743 30.5165 217.74 30.5182 217.733Z" fill="#800080" stroke="black" stroke-width="2"/>
</g>
<g clip-path="url(#clip1_0_1)">
<path d="M183.113 29.54C183.113 29.3641 183.113 29.1881 183.142 29.005C183.314 28.7899 183.47 28.5916 183.598 28.3725C184.841 26.2377 186.024 24.0547 187.339 21.9767C188.35 20.3799 189.526 18.9142 190.629 17.3902C190.686 17.4194 190.742 17.4486 190.798 17.4778C189.941 20.2 189.715 22.9932 189.932 25.8802C191.554 26.1096 193.151 26.3356 194.749 26.5615C194.779 26.4785 194.809 26.3954 194.839 26.3124C194.676 26.1697 194.52 26.0124 194.347 25.8866C193.368 25.1773 193.292 24.2983 193.745 23.1344C194.25 21.8354 194.582 20.4524 195.014 19.0244C196.07 20.2052 197.056 21.3339 198.072 22.4276C198.356 22.7326 198.369 22.9607 198.197 23.3379C197.746 24.3267 197.339 25.3413 196.884 26.3607C196.852 26.4062 196.851 26.4365 196.849 26.4667C196.898 26.4611 196.947 26.4555 197.034 26.4338C197.965 25.9216 198.851 25.4066 199.758 24.9438C199.959 24.8414 200.271 24.8354 200.47 24.9364C201.279 25.3469 202.063 25.8196 202.86 26.2608C203.004 26.3407 203.166 26.3809 203.445 26.487C202.856 25.1615 202.339 23.9988 201.857 22.916C203.004 21.6343 204.108 20.3997 205.238 19.1377C205.763 20.9129 206.302 22.7111 206.815 24.5187C206.853 24.6556 206.74 24.897 206.635 25.0255C206.225 25.525 205.79 25.9986 205.364 26.4818C205.389 26.5184 205.414 26.555 205.438 26.5915C207.063 26.3481 208.688 26.1046 210.301 25.8629C210.499 22.9772 210.285 20.2336 209.471 17.554C209.49 17.5378 209.525 17.5004 209.563 17.5056C210.488 18.6807 211.458 19.7847 212.242 21.0343C213.804 23.5241 215.262 26.0952 216.771 28.6266C216.844 28.7501 216.997 28.8147 217.113 28.9067C217.113 29.0826 217.113 29.2585 217.087 29.4406C215.314 30.9457 213.289 31.729 211.177 32.2803C210.56 32.4415 209.937 32.5759 209.301 32.7261C209.615 34.3837 209.931 35.9792 210.207 37.5835C210.247 37.8165 210.16 38.1597 210.017 38.3343C209.431 39.0496 208.803 39.7223 208.185 40.4046C207.761 40.8725 207.329 41.3302 206.89 41.803C207.779 42.551 208.581 43.2117 209.363 43.9011C209.47 43.995 209.561 44.2722 209.514 44.3969C208.886 46.077 208.232 47.7451 207.583 49.4215C206.555 49.1684 205.566 48.9251 204.539 48.6722C204.194 50.196 203.85 51.7111 203.509 53.2167C201.221 53.2167 198.994 53.2167 196.718 53.2167C196.376 51.7115 196.034 50.2018 195.688 48.6759C194.634 48.9318 193.638 49.1735 192.625 49.4194C191.936 47.6176 191.266 45.8674 190.594 44.1093C191.505 43.3426 192.385 42.602 193.312 41.8224C192.257 40.6448 191.237 39.4941 190.202 38.361C189.993 38.1324 189.923 37.9383 189.991 37.5994C190.32 35.9859 190.613 34.3635 190.921 32.7346C190.137 32.538 189.382 32.3668 188.635 32.1577C186.769 31.6351 184.949 30.9914 183.422 29.599C183.352 29.5348 183.218 29.5577 183.113 29.54Z" fill="#FDFDFD"/>
<path d="M196.976 26.423C196.947 26.4555 196.898 26.4611 196.849 26.4667C196.851 26.4365 196.852 26.4062 196.884 26.3607C196.929 26.3624 196.943 26.3793 196.976 26.423Z" fill="black"/>
<path d="M209.471 17.554C209.472 17.5274 209.492 17.4846 209.519 17.4711C209.525 17.5004 209.49 17.5378 209.471 17.554Z" fill="#FDFDFD"/>
<path d="M196.182 48.3361L196.182 48.336C196.094 48.2006 195.97 48.152 195.933 48.1383C195.883 48.12 195.841 48.1138 195.821 48.1114C195.78 48.1063 195.746 48.1074 195.734 48.1078C195.703 48.109 195.676 48.1124 195.661 48.1145C195.626 48.1192 195.584 48.1264 195.542 48.1344C195.454 48.1508 195.334 48.1758 195.192 48.2068C194.906 48.2692 194.517 48.359 194.093 48.4612L192.99 48.7275L192.194 46.6274C191.932 45.9381 191.695 45.3006 191.524 44.8291C191.448 44.6192 191.385 44.4437 191.34 44.3118C191.384 44.2696 191.437 44.221 191.496 44.1667C191.725 43.9584 192.044 43.6819 192.396 43.3886C192.757 43.0884 193.087 42.8022 193.329 42.5818C193.449 42.4724 193.552 42.375 193.627 42.2983C193.664 42.2611 193.701 42.2213 193.732 42.1834C193.747 42.1655 193.769 42.1375 193.79 42.1039C193.801 42.0871 193.817 42.0595 193.832 42.0239C193.844 41.9955 193.873 41.9217 193.873 41.8231C193.873 41.7154 193.837 41.634 193.83 41.6181L193.829 41.6166C193.817 41.5877 193.804 41.5644 193.796 41.5509C193.779 41.5226 193.761 41.496 193.747 41.4755C193.716 41.4325 193.677 41.3806 193.632 41.3243C193.542 41.2099 193.414 41.0555 193.26 40.8737C192.951 40.5091 192.527 40.0226 192.062 39.5015L190.543 37.7994L190.956 35.6521C191.082 34.9927 191.198 34.3652 191.281 33.8849C191.323 33.6451 191.358 33.4401 191.382 33.2855C191.402 33.155 191.424 33.0083 191.424 32.9266C191.424 32.6094 191.183 32.4311 191.094 32.3704C190.971 32.286 190.811 32.2118 190.636 32.1419C190.277 31.9995 189.733 31.8298 188.97 31.6145C187.092 31.0847 186.013 30.6069 184.02 29.4127C183.923 29.3546 183.833 29.2964 183.757 29.2435C183.852 29.064 183.986 28.8284 184.134 28.58C184.444 28.0625 185.508 26.2622 186.499 24.58C187.231 23.3357 188.321 21.6475 189.243 20.288C189.391 20.0699 189.535 19.8608 189.671 19.6638C189.418 21.0573 189.271 22.6359 189.273 24.0008C189.273 24.1282 189.273 24.251 189.272 24.3684C189.27 24.7048 189.268 24.9971 189.289 25.2276C189.317 25.5524 189.396 25.8954 189.684 26.1561C189.943 26.3901 190.301 26.4884 190.67 26.5606C190.951 26.6155 191.31 26.6662 191.746 26.7278C191.904 26.7501 192.072 26.7739 192.25 26.7998C192.912 26.896 193.53 26.9741 193.993 27.0224C194.224 27.0464 194.422 27.0636 194.57 27.0717C194.643 27.0756 194.713 27.0779 194.772 27.0766C194.8 27.0759 194.837 27.0742 194.876 27.0689C194.895 27.0663 194.924 27.0616 194.957 27.0525C194.983 27.0453 195.049 27.0259 195.118 26.978C195.217 26.9096 195.36 26.7857 195.421 26.5814C195.486 26.3616 195.422 26.1673 195.348 26.0357C195.278 25.9109 195.177 25.8014 195.078 25.7075C194.975 25.6095 194.848 25.5042 194.701 25.3903C194.443 25.1906 194.302 25.0634 194.217 24.946C194.147 24.8504 194.107 24.7504 194.101 24.5792C194.094 24.3865 194.13 24.1111 194.236 23.6767C194.341 23.2469 194.503 22.698 194.727 21.9679L195.253 20.2524L196.101 21.1726C196.495 21.5997 196.873 22.0171 197.164 22.3451C197.309 22.5092 197.432 22.6496 197.523 22.757C197.569 22.8108 197.606 22.8548 197.633 22.8886C197.639 22.8954 197.644 22.9015 197.648 22.9068C197.645 22.9348 197.636 22.9841 197.614 23.063C197.545 23.3153 197.384 23.7259 197.078 24.4523C196.875 24.9321 196.698 25.3811 196.576 25.7193C196.516 25.887 196.466 26.0349 196.434 26.1485C196.418 26.2032 196.402 26.2633 196.393 26.3191C196.388 26.3451 196.382 26.3888 196.382 26.439C196.382 26.464 196.384 26.5062 196.395 26.5563C196.405 26.6002 196.432 26.6966 196.513 26.7882C196.602 26.8874 196.706 26.9258 196.764 26.9413C196.824 26.9573 196.875 26.9592 196.905 26.959C196.964 26.9587 197.014 26.9489 197.041 26.943C197.099 26.9302 197.159 26.9102 197.211 26.8916C197.318 26.8526 197.456 26.7941 197.611 26.724C197.923 26.5825 198.336 26.3782 198.778 26.145L200.125 25.4333L201.413 26.124C202.126 26.5064 202.602 26.7504 202.903 26.8734C203.037 26.9278 203.209 26.9912 203.374 26.9922C203.464 26.9928 203.633 26.9756 203.778 26.8415C203.931 26.7001 203.958 26.5228 203.958 26.4214C203.958 26.3611 203.946 26.3128 203.944 26.3026L203.944 26.3016C203.939 26.2835 203.935 26.2681 203.932 26.2583C203.926 26.2379 203.918 26.2176 203.912 26.2004C203.899 26.1649 203.882 26.1206 203.862 26.0712C203.822 25.9711 203.765 25.8347 203.696 25.6729C203.559 25.3486 203.369 24.9139 203.161 24.4464L202.539 23.0484L203.901 21.5214C204.305 21.0688 204.68 20.6697 204.968 20.383C204.976 20.408 204.984 20.4337 204.992 20.4599C205.133 20.9001 205.314 21.4934 205.502 22.1328C205.812 23.1851 206.099 24.1516 206.212 24.5247C206.193 24.5591 206.168 24.6021 206.135 24.6535C206.024 24.828 205.857 25.055 205.66 25.2871C205.445 25.5412 205.254 25.7867 205.12 25.9802C205.054 26.0748 204.993 26.1687 204.95 26.2505C204.93 26.2885 204.902 26.3452 204.882 26.4093C204.873 26.4401 204.858 26.4976 204.857 26.569C204.857 26.6336 204.867 26.7855 204.988 26.9213C205.08 27.0239 205.188 27.0587 205.213 27.0671L205.214 27.0672C205.255 27.0807 205.291 27.0866 205.311 27.0895C205.352 27.0955 205.391 27.0969 205.419 27.0974C205.476 27.0983 205.545 27.0956 205.617 27.0912C205.764 27.0822 205.963 27.0639 206.198 27.0385C206.67 26.9875 207.306 26.9059 207.994 26.806L210.48 26.4451L210.919 26.3812L210.908 25.937L210.834 23.1928C210.791 21.57 210.726 20.5977 210.585 19.7658C210.697 19.9268 210.814 20.0977 210.936 20.2774C211.836 21.6052 212.974 23.3846 213.994 25.0941C214.666 26.2179 215.293 27.2411 215.763 27.9847C215.997 28.3558 216.195 28.6607 216.34 28.8745C216.412 28.9804 216.476 29.0702 216.526 29.1363C216.527 29.137 216.527 29.1377 216.528 29.1384C216.523 29.1426 216.518 29.1468 216.513 29.1511C216.345 29.2956 216.093 29.4777 215.784 29.6769C215.167 30.0743 214.369 30.5089 213.656 30.8113C212.999 31.09 211.717 31.514 210.823 31.7462C210.366 31.865 209.946 31.977 209.636 32.0617C209.482 32.1039 209.353 32.1399 209.261 32.1669C209.215 32.1802 209.175 32.1923 209.144 32.2023C209.129 32.2071 209.111 32.2131 209.093 32.2197C209.085 32.2228 209.07 32.2284 209.054 32.236C209.045 32.2398 209.031 32.2466 209.014 32.256C209.003 32.2622 208.963 32.2845 208.92 32.3232C208.812 32.4213 208.78 32.5368 208.774 32.5608L208.773 32.5621C208.762 32.6024 208.759 32.6356 208.757 32.6512C208.754 32.6843 208.755 32.7119 208.755 32.7239C208.756 32.7517 208.758 32.7791 208.76 32.7991C208.765 32.8422 208.772 32.8974 208.782 32.9591C208.8 33.0846 208.829 33.2601 208.865 33.471C208.937 33.8939 209.042 34.4706 209.161 35.0996C209.279 35.7225 209.386 36.3359 209.464 36.8214C209.503 37.0644 209.534 37.2732 209.555 37.4339C209.565 37.5145 209.573 37.5806 209.578 37.6318C209.581 37.6574 209.583 37.6776 209.584 37.693C209.585 37.7074 209.585 37.7141 209.585 37.7151C209.585 37.7152 209.585 37.7152 209.585 37.7151C209.585 37.7142 209.585 37.7142 209.585 37.7153C209.582 37.726 209.56 37.8364 209.331 38.1562C209.095 38.4861 208.699 38.9602 208.065 39.6799L206.42 41.5465L206.077 41.9355L206.478 42.264L207.756 43.3106C208.103 43.5945 208.423 43.8689 208.658 44.0812C208.745 44.1594 208.818 44.2272 208.875 44.2828C208.867 44.3103 208.858 44.341 208.848 44.3751C208.784 44.5847 208.683 44.8861 208.544 45.2735C208.266 46.0464 207.85 47.1387 207.321 48.4766L207.22 48.7331L206.158 48.4655C205.743 48.3612 205.358 48.2724 205.069 48.2133C204.926 48.184 204.8 48.1607 204.705 48.1468C204.658 48.14 204.607 48.1337 204.56 48.1313C204.539 48.1303 204.5 48.129 204.457 48.1335C204.435 48.1357 204.396 48.1408 204.351 48.155C204.315 48.166 204.212 48.2012 204.122 48.3016C204.077 48.3519 204.052 48.4006 204.046 48.4129L204.046 48.4136C204.035 48.4334 204.028 48.4508 204.024 48.4618C204.015 48.4843 204.007 48.5064 204.001 48.5234C203.99 48.559 203.977 48.6022 203.964 48.6485C203.938 48.7427 203.905 48.8705 203.867 49.0211C203.792 49.3234 203.696 49.7296 203.598 50.1676C203.402 51.0384 203.179 52.0203 203.101 52.3498L203.05 52.5678H200.097H197.15L196.754 50.7474C196.621 50.1379 196.498 49.5799 196.407 49.1718C196.361 48.9679 196.323 48.8006 196.296 48.6826C196.282 48.6239 196.271 48.5758 196.262 48.541C196.258 48.524 196.254 48.5072 196.25 48.493C196.248 48.4864 196.245 48.476 196.242 48.4647C196.24 48.4594 196.237 48.4489 196.232 48.4362C196.23 48.4299 196.226 48.4192 196.22 48.4063C196.216 48.3969 196.203 48.3689 196.182 48.3361ZM197.65 22.876C197.65 22.8759 197.65 22.8778 197.65 22.8824C197.649 22.8785 197.649 22.8762 197.65 22.876Z" fill="#800080" stroke="black"/>
</g>
<g clip-path="url(#clip2_0_1)">
<path d="M183.113 507.54C183.113 507.364 183.113 507.188 183.142 507.005C183.314 506.79 183.47 506.592 183.598 506.373C184.841 504.238 186.024 502.055 187.339 499.977C188.35 498.38 189.526 496.914 190.629 495.39C190.686 495.419 190.742 495.449 190.798 495.478C189.941 498.2 189.715 500.993 189.932 503.88C191.554 504.11 193.151 504.336 194.749 504.561C194.779 504.478 194.809 504.395 194.839 504.312C194.676 504.17 194.52 504.012 194.347 503.887C193.368 503.177 193.292 502.298 193.745 501.134C194.25 499.835 194.582 498.452 195.014 497.024C196.07 498.205 197.056 499.334 198.072 500.428C198.356 500.733 198.369 500.961 198.197 501.338C197.746 502.327 197.339 503.341 196.884 504.361C196.852 504.406 196.851 504.436 196.849 504.467C196.898 504.461 196.947 504.455 197.034 504.434C197.965 503.922 198.851 503.407 199.758 502.944C199.959 502.841 200.271 502.835 200.47 502.936C201.279 503.347 202.063 503.82 202.86 504.261C203.004 504.341 203.166 504.381 203.445 504.487C202.856 503.161 202.339 501.999 201.857 500.916C203.004 499.634 204.108 498.4 205.238 497.138C205.763 498.913 206.302 500.711 206.815 502.519C206.853 502.656 206.74 502.897 206.635 503.025C206.225 503.525 205.79 503.999 205.364 504.482C205.389 504.518 205.414 504.555 205.438 504.592C207.063 504.348 208.688 504.105 210.301 503.863C210.499 500.977 210.285 498.234 209.471 495.554C209.49 495.538 209.525 495.5 209.563 495.506C210.488 496.681 211.458 497.785 212.242 499.034C213.804 501.524 215.262 504.095 216.771 506.627C216.844 506.75 216.997 506.815 217.113 506.907C217.113 507.083 217.113 507.259 217.087 507.441C215.314 508.946 213.289 509.729 211.177 510.28C210.56 510.441 209.937 510.576 209.301 510.726C209.615 512.384 209.931 513.979 210.207 515.584C210.247 515.816 210.16 516.16 210.017 516.334C209.431 517.05 208.803 517.722 208.185 518.405C207.761 518.872 207.329 519.33 206.89 519.803C207.779 520.551 208.581 521.212 209.363 521.901C209.47 521.995 209.561 522.272 209.514 522.397C208.886 524.077 208.232 525.745 207.583 527.422C206.555 527.168 205.566 526.925 204.539 526.672C204.194 528.196 203.85 529.711 203.509 531.217C201.221 531.217 198.994 531.217 196.718 531.217C196.376 529.711 196.034 528.202 195.688 526.676C194.634 526.932 193.638 527.173 192.625 527.419C191.936 525.618 191.266 523.867 190.594 522.109C191.505 521.343 192.385 520.602 193.312 519.822C192.257 518.645 191.237 517.494 190.202 516.361C189.993 516.132 189.923 515.938 189.991 515.599C190.32 513.986 190.613 512.364 190.921 510.735C190.137 510.538 189.382 510.367 188.635 510.158C186.769 509.635 184.949 508.991 183.422 507.599C183.352 507.535 183.218 507.558 183.113 507.54Z" fill="#FDFDFD"/>
<path d="M196.976 504.423C196.947 504.455 196.898 504.461 196.849 504.467C196.851 504.436 196.852 504.406 196.884 504.361C196.929 504.362 196.943 504.379 196.976 504.423Z" fill="black"/>
<path d="M209.471 495.554C209.472 495.527 209.492 495.485 209.519 495.471C209.525 495.5 209.49 495.538 209.471 495.554Z" fill="#FDFDFD"/>
<path d="M196.182 526.336L196.182 526.336C196.094 526.201 195.97 526.152 195.933 526.138C195.883 526.12 195.841 526.114 195.821 526.111C195.78 526.106 195.746 526.107 195.734 526.108C195.703 526.109 195.676 526.112 195.661 526.114C195.626 526.119 195.584 526.126 195.542 526.134C195.454 526.151 195.334 526.176 195.192 526.207C194.906 526.269 194.517 526.359 194.093 526.461L192.99 526.727L192.194 524.627C191.932 523.938 191.695 523.301 191.524 522.829C191.448 522.619 191.385 522.444 191.34 522.312C191.384 522.27 191.437 522.221 191.496 522.167C191.725 521.958 192.044 521.682 192.396 521.389C192.757 521.088 193.087 520.802 193.329 520.582C193.449 520.472 193.552 520.375 193.627 520.298C193.664 520.261 193.701 520.221 193.732 520.183C193.747 520.165 193.769 520.138 193.79 520.104C193.801 520.087 193.817 520.059 193.832 520.024C193.844 519.996 193.873 519.922 193.873 519.823C193.873 519.715 193.837 519.634 193.83 519.618L193.829 519.617C193.817 519.588 193.804 519.564 193.796 519.551C193.779 519.523 193.761 519.496 193.747 519.476C193.716 519.433 193.677 519.381 193.632 519.324C193.542 519.21 193.414 519.055 193.26 518.874C192.951 518.509 192.527 518.023 192.062 517.501L190.543 515.799L190.956 513.652C191.082 512.993 191.198 512.365 191.281 511.885C191.323 511.645 191.358 511.44 191.382 511.285C191.402 511.155 191.424 511.008 191.424 510.927C191.424 510.609 191.183 510.431 191.094 510.37C190.971 510.286 190.811 510.212 190.636 510.142C190.277 509.999 189.733 509.83 188.97 509.615C187.092 509.085 186.013 508.607 184.02 507.413C183.923 507.355 183.833 507.296 183.757 507.243C183.852 507.064 183.986 506.828 184.134 506.58C184.444 506.062 185.508 504.262 186.499 502.58C187.231 501.336 188.321 499.648 189.243 498.288C189.391 498.07 189.535 497.861 189.671 497.664C189.418 499.057 189.271 500.636 189.273 502.001C189.273 502.128 189.273 502.251 189.272 502.368C189.27 502.705 189.268 502.997 189.289 503.228C189.317 503.552 189.396 503.895 189.684 504.156C189.943 504.39 190.301 504.488 190.67 504.561C190.951 504.616 191.31 504.666 191.746 504.728C191.904 504.75 192.072 504.774 192.25 504.8C192.912 504.896 193.53 504.974 193.993 505.022C194.224 505.046 194.422 505.064 194.57 505.072C194.643 505.076 194.713 505.078 194.772 505.077C194.8 505.076 194.837 505.074 194.876 505.069C194.895 505.066 194.924 505.062 194.957 505.053C194.983 505.045 195.049 505.026 195.118 504.978C195.217 504.91 195.36 504.786 195.421 504.581C195.486 504.362 195.422 504.167 195.348 504.036C195.278 503.911 195.177 503.801 195.078 503.708C194.975 503.61 194.848 503.504 194.701 503.39C194.443 503.191 194.302 503.063 194.217 502.946C194.147 502.85 194.107 502.75 194.101 502.579C194.094 502.386 194.13 502.111 194.236 501.677C194.341 501.247 194.503 500.698 194.727 499.968L195.253 498.252L196.101 499.173C196.495 499.6 196.873 500.017 197.164 500.345C197.309 500.509 197.432 500.65 197.523 500.757C197.569 500.811 197.606 500.855 197.633 500.889C197.639 500.895 197.644 500.901 197.648 500.907C197.645 500.935 197.636 500.984 197.614 501.063C197.545 501.315 197.384 501.726 197.078 502.452C196.875 502.932 196.698 503.381 196.576 503.719C196.516 503.887 196.466 504.035 196.434 504.148C196.418 504.203 196.402 504.263 196.393 504.319C196.388 504.345 196.382 504.389 196.382 504.439C196.382 504.464 196.384 504.506 196.395 504.556C196.405 504.6 196.432 504.697 196.513 504.788C196.602 504.887 196.706 504.926 196.764 504.941C196.824 504.957 196.875 504.959 196.905 504.959C196.964 504.959 197.014 504.949 197.041 504.943C197.099 504.93 197.159 504.91 197.211 504.892C197.318 504.853 197.456 504.794 197.611 504.724C197.923 504.583 198.336 504.378 198.778 504.145L200.125 503.433L201.413 504.124C202.126 504.506 202.602 504.75 202.903 504.873C203.037 504.928 203.209 504.991 203.374 504.992C203.464 504.993 203.633 504.976 203.778 504.842C203.931 504.7 203.958 504.523 203.958 504.421C203.958 504.361 203.946 504.313 203.944 504.303L203.944 504.302C203.939 504.284 203.935 504.268 203.932 504.258C203.926 504.238 203.918 504.218 203.912 504.2C203.899 504.165 203.882 504.121 203.862 504.071C203.822 503.971 203.765 503.835 203.696 503.673C203.559 503.349 203.369 502.914 203.161 502.446L202.539 501.048L203.901 499.521C204.305 499.069 204.68 498.67 204.968 498.383C204.976 498.408 204.984 498.434 204.992 498.46C205.133 498.9 205.314 499.493 205.502 500.133C205.812 501.185 206.099 502.152 206.212 502.525C206.193 502.559 206.168 502.602 206.135 502.654C206.024 502.828 205.857 503.055 205.66 503.287C205.445 503.541 205.254 503.787 205.12 503.98C205.054 504.075 204.993 504.169 204.95 504.251C204.93 504.288 204.902 504.345 204.882 504.409C204.873 504.44 204.858 504.498 204.857 504.569C204.857 504.634 204.867 504.785 204.988 504.921C205.08 505.024 205.188 505.059 205.213 505.067L205.214 505.067C205.255 505.081 205.291 505.087 205.311 505.09C205.352 505.095 205.391 505.097 205.419 505.097C205.476 505.098 205.545 505.096 205.617 505.091C205.764 505.082 205.963 505.064 206.198 505.038C206.67 504.988 207.306 504.906 207.994 504.806L210.48 504.445L210.919 504.381L210.908 503.937L210.834 501.193C210.791 499.57 210.726 498.598 210.585 497.766C210.697 497.927 210.814 498.098 210.936 498.277C211.836 499.605 212.974 501.385 213.994 503.094C214.666 504.218 215.293 505.241 215.763 505.985C215.997 506.356 216.195 506.661 216.34 506.875C216.412 506.98 216.476 507.07 216.526 507.136C216.527 507.137 216.527 507.138 216.528 507.138C216.523 507.143 216.518 507.147 216.513 507.151C216.345 507.296 216.093 507.478 215.784 507.677C215.167 508.074 214.369 508.509 213.656 508.811C212.999 509.09 211.717 509.514 210.823 509.746C210.366 509.865 209.946 509.977 209.636 510.062C209.482 510.104 209.353 510.14 209.261 510.167C209.215 510.18 209.175 510.192 209.144 510.202C209.129 510.207 209.111 510.213 209.093 510.22C209.085 510.223 209.07 510.228 209.054 510.236C209.045 510.24 209.031 510.247 209.014 510.256C209.003 510.262 208.963 510.284 208.92 510.323C208.812 510.421 208.78 510.537 208.774 510.561L208.773 510.562C208.762 510.602 208.759 510.636 208.757 510.651C208.754 510.684 208.755 510.712 208.755 510.724C208.756 510.752 208.758 510.779 208.76 510.799C208.765 510.842 208.772 510.897 208.782 510.959C208.8 511.085 208.829 511.26 208.865 511.471C208.937 511.894 209.042 512.471 209.161 513.1C209.279 513.723 209.386 514.336 209.464 514.821C209.503 515.064 209.534 515.273 209.555 515.434C209.565 515.514 209.573 515.581 209.578 515.632C209.581 515.657 209.583 515.678 209.584 515.693C209.585 515.707 209.585 515.714 209.585 515.715C209.585 515.715 209.585 515.715 209.585 515.715C209.585 515.714 209.585 515.714 209.585 515.715C209.582 515.726 209.56 515.836 209.331 516.156C209.095 516.486 208.699 516.96 208.065 517.68L206.42 519.547L206.077 519.936L206.478 520.264L207.756 521.311C208.103 521.594 208.423 521.869 208.658 522.081C208.745 522.159 208.818 522.227 208.875 522.283C208.867 522.31 208.858 522.341 208.848 522.375C208.784 522.585 208.683 522.886 208.544 523.273C208.266 524.046 207.85 525.139 207.321 526.477L207.22 526.733L206.158 526.466C205.743 526.361 205.358 526.272 205.069 526.213C204.926 526.184 204.8 526.161 204.705 526.147C204.658 526.14 204.607 526.134 204.56 526.131C204.539 526.13 204.5 526.129 204.457 526.134C204.435 526.136 204.396 526.141 204.351 526.155C204.315 526.166 204.212 526.201 204.122 526.302C204.077 526.352 204.052 526.401 204.046 526.413L204.046 526.414C204.035 526.433 204.028 526.451 204.024 526.462C204.015 526.484 204.007 526.506 204.001 526.523C203.99 526.559 203.977 526.602 203.964 526.649C203.938 526.743 203.905 526.871 203.867 527.021C203.792 527.323 203.696 527.73 203.598 528.168C203.402 529.038 203.179 530.02 203.101 530.35L203.05 530.568H200.097H197.15L196.754 528.747C196.621 528.138 196.498 527.58 196.407 527.172C196.361 526.968 196.323 526.801 196.296 526.683C196.282 526.624 196.271 526.576 196.262 526.541C196.258 526.524 196.254 526.507 196.25 526.493C196.248 526.486 196.245 526.476 196.242 526.465C196.24 526.459 196.237 526.449 196.232 526.436C196.23 526.43 196.226 526.419 196.22 526.406C196.216 526.397 196.203 526.369 196.182 526.336ZM197.65 500.876C197.65 500.876 197.65 500.878 197.65 500.882C197.649 500.878 197.649 500.876 197.65 500.876Z" fill="#800080" stroke="black"/>
</g>
<g filter="url(#filter1_d_0_1)">
<mask id="path-15-outside-1_0_1" maskUnits="userSpaceOnUse" x="135" y="239" width="149" height="93" fill="black">
<rect fill="white" x="135" y="239" width="149" height="93"/>
<path d="M138.988 253.531C140.668 253.531 142.465 253.375 144.379 253.062C146.332 252.711 148.09 252.145 149.652 251.363C151.254 250.543 152.582 249.449 153.637 248.082C154.691 246.676 155.219 244.879 155.219 242.691H182.348V300.934C182.348 303.551 182.973 305.27 184.223 306.09C185.512 306.871 187.152 307.262 189.145 307.262H193.129V329H140.219V307.262H144.906C146.977 307.262 148.5 306.617 149.477 305.328C150.492 304 151 302.574 151 301.051V272.867H138.988V253.531ZM197.348 282.301L235.141 242.691H267.66V287.34H280.844V300.055H267.66V302.105C267.66 303.473 267.758 304.508 267.953 305.211C268.148 305.875 268.48 306.363 268.949 306.676C269.457 306.988 270.062 307.164 270.766 307.203C271.508 307.242 272.348 307.262 273.285 307.262H276.039V329H226.762V307.262H230.219C232.289 307.262 233.617 306.812 234.203 305.914C234.828 304.977 235.141 303.746 235.141 302.223V300.055H197.348V282.301ZM213.285 287.34H235.141V263.961L213.285 287.34Z"/>
</mask>
<path d="M138.988 253.531C140.668 253.531 142.465 253.375 144.379 253.062C146.332 252.711 148.09 252.145 149.652 251.363C151.254 250.543 152.582 249.449 153.637 248.082C154.691 246.676 155.219 244.879 155.219 242.691H182.348V300.934C182.348 303.551 182.973 305.27 184.223 306.09C185.512 306.871 187.152 307.262 189.145 307.262H193.129V329H140.219V307.262H144.906C146.977 307.262 148.5 306.617 149.477 305.328C150.492 304 151 302.574 151 301.051V272.867H138.988V253.531ZM197.348 282.301L235.141 242.691H267.66V287.34H280.844V300.055H267.66V302.105C267.66 303.473 267.758 304.508 267.953 305.211C268.148 305.875 268.48 306.363 268.949 306.676C269.457 306.988 270.062 307.164 270.766 307.203C271.508 307.242 272.348 307.262 273.285 307.262H276.039V329H226.762V307.262H230.219C232.289 307.262 233.617 306.812 234.203 305.914C234.828 304.977 235.141 303.746 235.141 302.223V300.055H197.348V282.301ZM213.285 287.34H235.141V263.961L213.285 287.34Z" fill="#b39ab1"/>
<path d="M138.988 253.531V250.531H135.988V253.531H138.988ZM144.379 253.062L144.862 256.023L144.886 256.019L144.91 256.015L144.379 253.062ZM149.652 251.363L150.994 254.047L151.007 254.04L151.02 254.033L149.652 251.363ZM153.637 248.082L156.012 249.914L156.025 249.898L156.037 249.882L153.637 248.082ZM155.219 242.691V239.691H152.219V242.691H155.219ZM182.348 242.691H185.348V239.691H182.348V242.691ZM184.223 306.09L182.577 308.598L182.622 308.628L182.668 308.655L184.223 306.09ZM193.129 307.262H196.129V304.262H193.129V307.262ZM193.129 329V332H196.129V329H193.129ZM140.219 329H137.219V332H140.219V329ZM140.219 307.262V304.262H137.219V307.262H140.219ZM149.477 305.328L147.093 303.506L147.085 303.517L149.477 305.328ZM151 272.867H154V269.867H151V272.867ZM138.988 272.867H135.988V275.867H138.988V272.867ZM138.988 256.531C140.852 256.531 142.812 256.358 144.862 256.023L143.896 250.102C142.117 250.392 140.484 250.531 138.988 250.531V256.531ZM144.91 256.015C147.107 255.62 149.144 254.972 150.994 254.047L148.311 248.68C147.036 249.317 145.557 249.802 143.847 250.11L144.91 256.015ZM151.02 254.033C152.998 253.02 154.676 251.647 156.012 249.914L151.261 246.25C150.488 247.252 149.51 248.066 148.285 248.693L151.02 254.033ZM156.037 249.882C157.568 247.841 158.219 245.367 158.219 242.691H152.219C152.219 244.391 151.815 245.511 151.237 246.282L156.037 249.882ZM155.219 245.691H182.348V239.691H155.219V245.691ZM179.348 242.691V300.934H185.348V242.691H179.348ZM179.348 300.934C179.348 303.809 180.003 306.909 182.577 308.598L185.869 303.582C185.866 303.58 185.862 303.577 185.856 303.571C185.849 303.564 185.835 303.55 185.816 303.524C185.777 303.471 185.709 303.361 185.636 303.16C185.482 302.738 185.348 302.031 185.348 300.934H179.348ZM182.668 308.655C184.554 309.798 186.776 310.262 189.145 310.262V304.262C187.529 304.262 186.47 303.944 185.778 303.524L182.668 308.655ZM189.145 310.262H193.129V304.262H189.145V310.262ZM190.129 307.262V329H196.129V307.262H190.129ZM193.129 326H140.219V332H193.129V326ZM143.219 329V307.262H137.219V329H143.219ZM140.219 310.262H144.906V304.262H140.219V310.262ZM144.906 310.262C147.627 310.262 150.17 309.381 151.868 307.14L147.085 303.517C146.83 303.853 146.326 304.262 144.906 304.262V310.262ZM151.86 307.15C153.234 305.353 154 303.298 154 301.051H148C148 301.851 147.75 302.647 147.093 303.506L151.86 307.15ZM154 301.051V272.867H148V301.051H154ZM151 269.867H138.988V275.867H151V269.867ZM141.988 272.867V253.531H135.988V272.867H141.988ZM197.348 282.301L195.177 280.23L194.348 281.099V282.301H197.348ZM235.141 242.691V239.691H233.857L232.97 240.62L235.141 242.691ZM267.66 242.691H270.66V239.691H267.66V242.691ZM267.66 287.34H264.66V290.34H267.66V287.34ZM280.844 287.34H283.844V284.34H280.844V287.34ZM280.844 300.055V303.055H283.844V300.055H280.844ZM267.66 300.055V297.055H264.66V300.055H267.66ZM267.953 305.211L265.063 306.014L265.069 306.036L265.075 306.057L267.953 305.211ZM268.949 306.676L267.285 309.172L267.33 309.202L267.377 309.231L268.949 306.676ZM270.766 307.203L270.599 310.199L270.608 310.199L270.766 307.203ZM276.039 307.262H279.039V304.262H276.039V307.262ZM276.039 329V332H279.039V329H276.039ZM226.762 329H223.762V332H226.762V329ZM226.762 307.262V304.262H223.762V307.262H226.762ZM234.203 305.914L231.707 304.25L231.699 304.263L231.69 304.275L234.203 305.914ZM235.141 300.055H238.141V297.055H235.141V300.055ZM197.348 300.055H194.348V303.055H197.348V300.055ZM213.285 287.34L211.094 285.291L206.374 290.34H213.285V287.34ZM235.141 287.34V290.34H238.141V287.34H235.141ZM235.141 263.961H238.141V256.359L232.949 261.912L235.141 263.961ZM199.518 284.372L237.311 244.762L232.97 240.62L195.177 280.23L199.518 284.372ZM235.141 245.691H267.66V239.691H235.141V245.691ZM264.66 242.691V287.34H270.66V242.691H264.66ZM267.66 290.34H280.844V284.34H267.66V290.34ZM277.844 287.34V300.055H283.844V287.34H277.844ZM280.844 297.055H267.66V303.055H280.844V297.055ZM264.66 300.055V302.105H270.66V300.055H264.66ZM264.66 302.105C264.66 303.551 264.757 304.913 265.063 306.014L270.844 304.408C270.759 304.103 270.66 303.394 270.66 302.105H264.66ZM265.075 306.057C265.422 307.237 266.106 308.386 267.285 309.172L270.613 304.18C270.716 304.248 270.789 304.328 270.829 304.388C270.866 304.442 270.856 304.448 270.831 304.364L265.075 306.057ZM267.377 309.231C268.38 309.848 269.488 310.137 270.599 310.199L270.932 304.208C270.637 304.191 270.534 304.128 270.522 304.121L267.377 309.231ZM270.608 310.199C271.414 310.241 272.308 310.262 273.285 310.262V304.262C272.387 304.262 271.602 304.243 270.923 304.207L270.608 310.199ZM273.285 310.262H276.039V304.262H273.285V310.262ZM273.039 307.262V329H279.039V307.262H273.039ZM276.039 326H226.762V332H276.039V326ZM229.762 329V307.262H223.762V329H229.762ZM226.762 310.262H230.219V304.262H226.762V310.262ZM230.219 310.262C232.41 310.262 235.221 309.844 236.716 307.553L231.69 304.275C231.864 304.008 232.03 304.007 231.806 304.083C231.562 304.166 231.068 304.262 230.219 304.262V310.262ZM236.699 307.578C237.75 306.002 238.141 304.135 238.141 302.223H232.141C232.141 303.357 231.906 303.951 231.707 304.25L236.699 307.578ZM238.141 302.223V300.055H232.141V302.223H238.141ZM235.141 297.055H197.348V303.055H235.141V297.055ZM200.348 300.055V282.301H194.348V300.055H200.348ZM213.285 290.34H235.141V284.34H213.285V290.34ZM238.141 287.34V263.961H232.141V287.34H238.141ZM232.949 261.912L211.094 285.291L215.477 289.389L237.332 266.01L232.949 261.912Z" fill="black" mask="url(#path-15-outside-1_0_1)"/>
<mask id="path-17-outside-2_0_1" maskUnits="userSpaceOnUse" x="303" y="21" width="81" height="51" fill="black">
<rect fill="white" x="303" y="21" width="81" height="51"/>
<path d="M305.594 29.75C306.49 29.75 307.448 29.6667 308.469 29.5C309.51 29.3125 310.448 29.0104 311.281 28.5938C312.135 28.1562 312.844 27.5729 313.406 26.8438C313.969 26.0938 314.25 25.1354 314.25 23.9688H328.719V55.0312C328.719 56.4271 329.052 57.3438 329.719 57.7812C330.406 58.1979 331.281 58.4062 332.344 58.4062H334.469V70H306.25V58.4062H308.75C309.854 58.4062 310.667 58.0625 311.188 57.375C311.729 56.6667 312 55.9062 312 55.0938V40.0625H305.594V29.75ZM336.719 45.0938L356.875 23.9688H374.219V47.7812H381.25V54.5625H374.219V55.6562C374.219 56.3854 374.271 56.9375 374.375 57.3125C374.479 57.6667 374.656 57.9271 374.906 58.0938C375.177 58.2604 375.5 58.3542 375.875 58.375C376.271 58.3958 376.719 58.4062 377.219 58.4062H378.688V70H352.406V58.4062H354.25C355.354 58.4062 356.062 58.1667 356.375 57.6875C356.708 57.1875 356.875 56.5312 356.875 55.7188V54.5625H336.719V45.0938ZM345.219 47.7812H356.875V35.3125L345.219 47.7812Z"/>
</mask>
<path d="M305.594 29.75C306.49 29.75 307.448 29.6667 308.469 29.5C309.51 29.3125 310.448 29.0104 311.281 28.5938C312.135 28.1562 312.844 27.5729 313.406 26.8438C313.969 26.0938 314.25 25.1354 314.25 23.9688H328.719V55.0312C328.719 56.4271 329.052 57.3438 329.719 57.7812C330.406 58.1979 331.281 58.4062 332.344 58.4062H334.469V70H306.25V58.4062H308.75C309.854 58.4062 310.667 58.0625 311.188 57.375C311.729 56.6667 312 55.9062 312 55.0938V40.0625H305.594V29.75ZM336.719 45.0938L356.875 23.9688H374.219V47.7812H381.25V54.5625H374.219V55.6562C374.219 56.3854 374.271 56.9375 374.375 57.3125C374.479 57.6667 374.656 57.9271 374.906 58.0938C375.177 58.2604 375.5 58.3542 375.875 58.375C376.271 58.3958 376.719 58.4062 377.219 58.4062H378.688V70H352.406V58.4062H354.25C355.354 58.4062 356.062 58.1667 356.375 57.6875C356.708 57.1875 356.875 56.5312 356.875 55.7188V54.5625H336.719V45.0938ZM345.219 47.7812H356.875V35.3125L345.219 47.7812Z" fill="#800080"/>
<path d="M305.594 29.75V27.75H303.594V29.75H305.594ZM308.469 29.5L308.791 31.4739L308.807 31.4712L308.823 31.4684L308.469 29.5ZM311.281 28.5938L312.176 30.3826L312.184 30.3783L312.193 30.3738L311.281 28.5938ZM313.406 26.8438L314.99 28.0654L314.998 28.0546L315.006 28.0438L313.406 26.8438ZM314.25 23.9688V21.9688H312.25V23.9688H314.25ZM328.719 23.9688H330.719V21.9688H328.719V23.9688ZM329.719 57.7812L328.621 59.4533L328.651 59.473L328.682 59.4916L329.719 57.7812ZM334.469 58.4062H336.469V56.4062H334.469V58.4062ZM334.469 70V72H336.469V70H334.469ZM306.25 70H304.25V72H306.25V70ZM306.25 58.4062V56.4062H304.25V58.4062H306.25ZM311.188 57.375L309.599 56.1601L309.593 56.1673L311.188 57.375ZM312 40.0625H314V38.0625H312V40.0625ZM305.594 40.0625H303.594V42.0625H305.594V40.0625ZM305.594 31.75C306.613 31.75 307.68 31.6553 308.791 31.4739L308.146 27.5261C307.216 27.678 306.367 27.75 305.594 27.75V31.75ZM308.823 31.4684C310.027 31.2516 311.15 30.8952 312.176 30.3826L310.387 26.8049C309.745 27.1256 308.993 27.3734 308.114 27.5316L308.823 31.4684ZM312.193 30.3738C313.298 29.8078 314.24 29.0378 314.99 28.0654L311.823 25.6221C311.448 26.108 310.973 26.5047 310.369 26.8137L312.193 30.3738ZM315.006 28.0438C315.886 26.8704 316.25 25.4606 316.25 23.9688H312.25C312.25 24.8102 312.051 25.3171 311.806 25.6437L315.006 28.0438ZM314.25 25.9688H328.719V21.9688H314.25V25.9688ZM326.719 23.9688V55.0312H330.719V23.9688H326.719ZM326.719 55.0312C326.719 56.5994 327.072 58.4367 328.621 59.4533L330.816 56.1092C330.918 56.1758 330.901 56.2276 330.848 56.0821C330.788 55.9153 330.719 55.5881 330.719 55.0312H326.719ZM328.682 59.4916C329.767 60.1494 331.03 60.4062 332.344 60.4062V56.4062C331.532 56.4062 331.045 56.2464 330.755 56.0709L328.682 59.4916ZM332.344 60.4062H334.469V56.4062H332.344V60.4062ZM332.469 58.4062V70H336.469V58.4062H332.469ZM334.469 68H306.25V72H334.469V68ZM308.25 70V58.4062H304.25V70H308.25ZM306.25 60.4062H308.75V56.4062H306.25V60.4062ZM308.75 60.4062C310.288 60.4062 311.78 59.9051 312.782 58.5827L309.593 56.1673C309.553 56.2199 309.421 56.4062 308.75 56.4062V60.4062ZM312.776 58.5899C313.557 57.5687 314 56.3886 314 55.0938H310C310 55.4239 309.901 55.7646 309.599 56.1601L312.776 58.5899ZM314 55.0938V40.0625H310V55.0938H314ZM312 38.0625H305.594V42.0625H312V38.0625ZM307.594 40.0625V29.75H303.594V40.0625H307.594ZM336.719 45.0938L335.272 43.7131L334.719 44.2927V45.0938H336.719ZM356.875 23.9688V21.9688H356.019L355.428 22.5881L356.875 23.9688ZM374.219 23.9688H376.219V21.9688H374.219V23.9688ZM374.219 47.7812H372.219V49.7812H374.219V47.7812ZM381.25 47.7812H383.25V45.7812H381.25V47.7812ZM381.25 54.5625V56.5625H383.25V54.5625H381.25ZM374.219 54.5625V52.5625H372.219V54.5625H374.219ZM374.375 57.3125L372.448 57.8478L372.452 57.8623L372.456 57.8768L374.375 57.3125ZM374.906 58.0938L373.797 59.7579L373.827 59.778L373.858 59.7971L374.906 58.0938ZM375.875 58.375L375.764 60.3719L375.77 60.3722L375.875 58.375ZM378.688 58.4062H380.688V56.4062H378.688V58.4062ZM378.688 70V72H380.688V70H378.688ZM352.406 70H350.406V72H352.406V70ZM352.406 58.4062V56.4062H350.406V58.4062H352.406ZM356.375 57.6875L354.711 56.5781L354.705 56.5865L354.7 56.595L356.375 57.6875ZM356.875 54.5625H358.875V52.5625H356.875V54.5625ZM336.719 54.5625H334.719V56.5625H336.719V54.5625ZM345.219 47.7812L343.758 46.4154L340.611 49.7812H345.219V47.7812ZM356.875 47.7812V49.7812H358.875V47.7812H356.875ZM356.875 35.3125H358.875V30.2444L355.414 33.9467L356.875 35.3125ZM338.166 46.4744L358.322 25.3494L355.428 22.5881L335.272 43.7131L338.166 46.4744ZM356.875 25.9688H374.219V21.9688H356.875V25.9688ZM372.219 23.9688V47.7812H376.219V23.9688H372.219ZM374.219 49.7812H381.25V45.7812H374.219V49.7812ZM379.25 47.7812V54.5625H383.25V47.7812H379.25ZM381.25 52.5625H374.219V56.5625H381.25V52.5625ZM372.219 54.5625V55.6562H376.219V54.5625H372.219ZM372.219 55.6562C372.219 56.438 372.27 57.2074 372.448 57.8478L376.302 56.7772C376.272 56.6676 376.219 56.3329 376.219 55.6562H372.219ZM372.456 57.8768C372.662 58.5746 373.073 59.2753 373.797 59.7579L376.016 56.4296C376.115 56.4962 376.19 56.5762 376.24 56.6488C376.286 56.7171 376.297 56.7593 376.294 56.7482L372.456 57.8768ZM373.858 59.7971C374.459 60.167 375.117 60.336 375.764 60.3719L375.986 56.3781C375.932 56.3751 375.909 56.3684 375.909 56.3684C375.909 56.3683 375.914 56.3697 375.922 56.3735C375.931 56.3773 375.942 56.3828 375.954 56.3904L373.858 59.7971ZM375.77 60.3722C376.208 60.3953 376.692 60.4062 377.219 60.4062V56.4062C376.745 56.4062 376.333 56.3964 375.98 56.3778L375.77 60.3722ZM377.219 60.4062H378.688V56.4062H377.219V60.4062ZM376.688 58.4062V70H380.688V58.4062H376.688ZM378.688 68H352.406V72H378.688V68ZM354.406 70V58.4062H350.406V70H354.406ZM352.406 60.4062H354.25V56.4062H352.406V60.4062ZM354.25 60.4062C355.435 60.4062 357.132 60.188 358.05 58.78L354.7 56.595C354.855 56.3571 355.029 56.3116 354.969 56.332C354.938 56.3423 354.867 56.362 354.742 56.3786C354.618 56.395 354.456 56.4062 354.25 56.4062V60.4062ZM358.039 58.7969C358.656 57.8713 358.875 56.7905 358.875 55.7188H354.875C354.875 56.272 354.76 56.5037 354.711 56.5781L358.039 58.7969ZM358.875 55.7188V54.5625H354.875V55.7188H358.875ZM356.875 52.5625H336.719V56.5625H356.875V52.5625ZM338.719 54.5625V45.0938H334.719V54.5625H338.719ZM345.219 49.7812H356.875V45.7812H345.219V49.7812ZM358.875 47.7812V35.3125H354.875V47.7812H358.875ZM355.414 33.9467L343.758 46.4154L346.68 49.1471L358.336 36.6783L355.414 33.9467Z" fill="black" mask="url(#path-17-outside-2_0_1)"/>
<mask id="path-19-outside-3_0_1" maskUnits="userSpaceOnUse" x="303" y="485" width="81" height="51" fill="black">
<rect fill="white" x="303" y="485" width="81" height="51"/>
<path d="M305.594 493.75C306.49 493.75 307.448 493.667 308.469 493.5C309.51 493.312 310.448 493.01 311.281 492.594C312.135 492.156 312.844 491.573 313.406 490.844C313.969 490.094 314.25 489.135 314.25 487.969H328.719V519.031C328.719 520.427 329.052 521.344 329.719 521.781C330.406 522.198 331.281 522.406 332.344 522.406H334.469V534H306.25V522.406H308.75C309.854 522.406 310.667 522.062 311.188 521.375C311.729 520.667 312 519.906 312 519.094V504.062H305.594V493.75ZM336.719 509.094L356.875 487.969H374.219V511.781H381.25V518.562H374.219V519.656C374.219 520.385 374.271 520.938 374.375 521.312C374.479 521.667 374.656 521.927 374.906 522.094C375.177 522.26 375.5 522.354 375.875 522.375C376.271 522.396 376.719 522.406 377.219 522.406H378.688V534H352.406V522.406H354.25C355.354 522.406 356.062 522.167 356.375 521.688C356.708 521.188 356.875 520.531 356.875 519.719V518.562H336.719V509.094ZM345.219 511.781H356.875V499.312L345.219 511.781Z"/>
</mask>
<path d="M305.594 493.75C306.49 493.75 307.448 493.667 308.469 493.5C309.51 493.312 310.448 493.01 311.281 492.594C312.135 492.156 312.844 491.573 313.406 490.844C313.969 490.094 314.25 489.135 314.25 487.969H328.719V519.031C328.719 520.427 329.052 521.344 329.719 521.781C330.406 522.198 331.281 522.406 332.344 522.406H334.469V534H306.25V522.406H308.75C309.854 522.406 310.667 522.062 311.188 521.375C311.729 520.667 312 519.906 312 519.094V504.062H305.594V493.75ZM336.719 509.094L356.875 487.969H374.219V511.781H381.25V518.562H374.219V519.656C374.219 520.385 374.271 520.938 374.375 521.312C374.479 521.667 374.656 521.927 374.906 522.094C375.177 522.26 375.5 522.354 375.875 522.375C376.271 522.396 376.719 522.406 377.219 522.406H378.688V534H352.406V522.406H354.25C355.354 522.406 356.062 522.167 356.375 521.688C356.708 521.188 356.875 520.531 356.875 519.719V518.562H336.719V509.094ZM345.219 511.781H356.875V499.312L345.219 511.781Z" fill="#800080"/>
<path d="M305.594 493.75V491.75H303.594V493.75H305.594ZM308.469 493.5L308.791 495.474L308.807 495.471L308.823 495.468L308.469 493.5ZM311.281 492.594L312.176 494.383L312.184 494.378L312.193 494.374L311.281 492.594ZM313.406 490.844L314.99 492.065L314.998 492.055L315.006 492.044L313.406 490.844ZM314.25 487.969V485.969H312.25V487.969H314.25ZM328.719 487.969H330.719V485.969H328.719V487.969ZM329.719 521.781L328.621 523.453L328.651 523.473L328.682 523.492L329.719 521.781ZM334.469 522.406H336.469V520.406H334.469V522.406ZM334.469 534V536H336.469V534H334.469ZM306.25 534H304.25V536H306.25V534ZM306.25 522.406V520.406H304.25V522.406H306.25ZM311.188 521.375L309.599 520.16L309.593 520.167L311.188 521.375ZM312 504.062H314V502.062H312V504.062ZM305.594 504.062H303.594V506.062H305.594V504.062ZM305.594 495.75C306.613 495.75 307.68 495.655 308.791 495.474L308.146 491.526C307.216 491.678 306.367 491.75 305.594 491.75V495.75ZM308.823 495.468C310.027 495.252 311.15 494.895 312.176 494.383L310.387 490.805C309.745 491.126 308.993 491.373 308.114 491.532L308.823 495.468ZM312.193 494.374C313.298 493.808 314.24 493.038 314.99 492.065L311.823 489.622C311.448 490.108 310.973 490.505 310.369 490.814L312.193 494.374ZM315.006 492.044C315.886 490.87 316.25 489.461 316.25 487.969H312.25C312.25 488.81 312.051 489.317 311.806 489.644L315.006 492.044ZM314.25 489.969H328.719V485.969H314.25V489.969ZM326.719 487.969V519.031H330.719V487.969H326.719ZM326.719 519.031C326.719 520.599 327.072 522.437 328.621 523.453L330.816 520.109C330.918 520.176 330.901 520.228 330.848 520.082C330.788 519.915 330.719 519.588 330.719 519.031H326.719ZM328.682 523.492C329.767 524.149 331.03 524.406 332.344 524.406V520.406C331.532 520.406 331.045 520.246 330.755 520.071L328.682 523.492ZM332.344 524.406H334.469V520.406H332.344V524.406ZM332.469 522.406V534H336.469V522.406H332.469ZM334.469 532H306.25V536H334.469V532ZM308.25 534V522.406H304.25V534H308.25ZM306.25 524.406H308.75V520.406H306.25V524.406ZM308.75 524.406C310.288 524.406 311.78 523.905 312.782 522.583L309.593 520.167C309.553 520.22 309.421 520.406 308.75 520.406V524.406ZM312.776 522.59C313.557 521.569 314 520.389 314 519.094H310C310 519.424 309.901 519.765 309.599 520.16L312.776 522.59ZM314 519.094V504.062H310V519.094H314ZM312 502.062H305.594V506.062H312V502.062ZM307.594 504.062V493.75H303.594V504.062H307.594ZM336.719 509.094L335.272 507.713L334.719 508.293V509.094H336.719ZM356.875 487.969V485.969H356.019L355.428 486.588L356.875 487.969ZM374.219 487.969H376.219V485.969H374.219V487.969ZM374.219 511.781H372.219V513.781H374.219V511.781ZM381.25 511.781H383.25V509.781H381.25V511.781ZM381.25 518.562V520.562H383.25V518.562H381.25ZM374.219 518.562V516.562H372.219V518.562H374.219ZM374.375 521.312L372.448 521.848L372.452 521.862L372.456 521.877L374.375 521.312ZM374.906 522.094L373.797 523.758L373.827 523.778L373.858 523.797L374.906 522.094ZM375.875 522.375L375.764 524.372L375.77 524.372L375.875 522.375ZM378.688 522.406H380.688V520.406H378.688V522.406ZM378.688 534V536H380.688V534H378.688ZM352.406 534H350.406V536H352.406V534ZM352.406 522.406V520.406H350.406V522.406H352.406ZM356.375 521.688L354.711 520.578L354.705 520.587L354.7 520.595L356.375 521.688ZM356.875 518.562H358.875V516.562H356.875V518.562ZM336.719 518.562H334.719V520.562H336.719V518.562ZM345.219 511.781L343.758 510.415L340.611 513.781H345.219V511.781ZM356.875 511.781V513.781H358.875V511.781H356.875ZM356.875 499.312H358.875V494.244L355.414 497.947L356.875 499.312ZM338.166 510.474L358.322 489.349L355.428 486.588L335.272 507.713L338.166 510.474ZM356.875 489.969H374.219V485.969H356.875V489.969ZM372.219 487.969V511.781H376.219V487.969H372.219ZM374.219 513.781H381.25V509.781H374.219V513.781ZM379.25 511.781V518.562H383.25V511.781H379.25ZM381.25 516.562H374.219V520.562H381.25V516.562ZM372.219 518.562V519.656H376.219V518.562H372.219ZM372.219 519.656C372.219 520.438 372.27 521.207 372.448 521.848L376.302 520.777C376.272 520.668 376.219 520.333 376.219 519.656H372.219ZM372.456 521.877C372.662 522.575 373.073 523.275 373.797 523.758L376.016 520.43C376.115 520.496 376.19 520.576 376.24 520.649C376.286 520.717 376.297 520.759 376.294 520.748L372.456 521.877ZM373.858 523.797C374.459 524.167 375.117 524.336 375.764 524.372L375.986 520.378C375.932 520.375 375.909 520.368 375.909 520.368C375.909 520.368 375.914 520.37 375.922 520.374C375.931 520.377 375.942 520.383 375.954 520.39L373.858 523.797ZM375.77 524.372C376.208 524.395 376.692 524.406 377.219 524.406V520.406C376.745 520.406 376.333 520.396 375.98 520.378L375.77 524.372ZM377.219 524.406H378.688V520.406H377.219V524.406ZM376.688 522.406V534H380.688V522.406H376.688ZM378.688 532H352.406V536H378.688V532ZM354.406 534V522.406H350.406V534H354.406ZM352.406 524.406H354.25V520.406H352.406V524.406ZM354.25 524.406C355.435 524.406 357.132 524.188 358.05 522.78L354.7 520.595C354.855 520.357 355.029 520.312 354.969 520.332C354.938 520.342 354.867 520.362 354.742 520.379C354.618 520.395 354.456 520.406 354.25 520.406V524.406ZM358.039 522.797C358.656 521.871 358.875 520.791 358.875 519.719H354.875C354.875 520.272 354.76 520.504 354.711 520.578L358.039 522.797ZM358.875 519.719V518.562H354.875V519.719H358.875ZM356.875 516.562H336.719V520.562H356.875V516.562ZM338.719 518.562V509.094H334.719V518.562H338.719ZM345.219 513.781H356.875V509.781H345.219V513.781ZM358.875 511.781V499.312H354.875V511.781H358.875ZM355.414 497.947L343.758 510.415L346.68 513.147L358.336 500.678L355.414 497.947Z" fill="black" mask="url(#path-19-outside-3_0_1)"/>
<mask id="path-21-outside-4_0_1" maskUnits="userSpaceOnUse" x="19" y="485" width="81" height="51" fill="black">
<rect fill="white" x="19" y="485" width="81" height="51"/>
<path d="M21.5938 493.75C22.4896 493.75 23.4479 493.667 24.4688 493.5C25.5104 493.312 26.4479 493.01 27.2812 492.594C28.1354 492.156 28.8438 491.573 29.4062 490.844C29.9688 490.094 30.25 489.135 30.25 487.969H44.7188V519.031C44.7188 520.427 45.0521 521.344 45.7188 521.781C46.4062 522.198 47.2812 522.406 48.3438 522.406H50.4688V534H22.25V522.406H24.75C25.8542 522.406 26.6667 522.062 27.1875 521.375C27.7292 520.667 28 519.906 28 519.094V504.062H21.5938V493.75ZM52.7188 509.094L72.875 487.969H90.2188V511.781H97.25V518.562H90.2188V519.656C90.2188 520.385 90.2708 520.938 90.375 521.312C90.4792 521.667 90.6562 521.927 90.9062 522.094C91.1771 522.26 91.5 522.354 91.875 522.375C92.2708 522.396 92.7188 522.406 93.2188 522.406H94.6875V534H68.4062V522.406H70.25C71.3542 522.406 72.0625 522.167 72.375 521.688C72.7083 521.188 72.875 520.531 72.875 519.719V518.562H52.7188V509.094ZM61.2188 511.781H72.875V499.312L61.2188 511.781Z"/>
</mask>
<path d="M21.5938 493.75C22.4896 493.75 23.4479 493.667 24.4688 493.5C25.5104 493.312 26.4479 493.01 27.2812 492.594C28.1354 492.156 28.8438 491.573 29.4062 490.844C29.9688 490.094 30.25 489.135 30.25 487.969H44.7188V519.031C44.7188 520.427 45.0521 521.344 45.7188 521.781C46.4062 522.198 47.2812 522.406 48.3438 522.406H50.4688V534H22.25V522.406H24.75C25.8542 522.406 26.6667 522.062 27.1875 521.375C27.7292 520.667 28 519.906 28 519.094V504.062H21.5938V493.75ZM52.7188 509.094L72.875 487.969H90.2188V511.781H97.25V518.562H90.2188V519.656C90.2188 520.385 90.2708 520.938 90.375 521.312C90.4792 521.667 90.6562 521.927 90.9062 522.094C91.1771 522.26 91.5 522.354 91.875 522.375C92.2708 522.396 92.7188 522.406 93.2188 522.406H94.6875V534H68.4062V522.406H70.25C71.3542 522.406 72.0625 522.167 72.375 521.688C72.7083 521.188 72.875 520.531 72.875 519.719V518.562H52.7188V509.094ZM61.2188 511.781H72.875V499.312L61.2188 511.781Z" fill="#800080"/>
<path d="M21.5938 493.75V491.75H19.5938V493.75H21.5938ZM24.4688 493.5L24.791 495.474L24.8071 495.471L24.8231 495.468L24.4688 493.5ZM27.2812 492.594L28.1757 494.383L28.1844 494.378L28.193 494.374L27.2812 492.594ZM29.4062 490.844L30.9898 492.065L30.9981 492.055L31.0063 492.044L29.4062 490.844ZM30.25 487.969V485.969H28.25V487.969H30.25ZM44.7188 487.969H46.7188V485.969H44.7188V487.969ZM45.7188 521.781L44.6214 523.453L44.6514 523.473L44.6821 523.492L45.7188 521.781ZM50.4688 522.406H52.4688V520.406H50.4688V522.406ZM50.4688 534V536H52.4688V534H50.4688ZM22.25 534H20.25V536H22.25V534ZM22.25 522.406V520.406H20.25V522.406H22.25ZM27.1875 521.375L25.5988 520.16L25.5933 520.167L27.1875 521.375ZM28 504.062H30V502.062H28V504.062ZM21.5938 504.062H19.5938V506.062H21.5938V504.062ZM21.5938 495.75C22.6125 495.75 23.6796 495.655 24.791 495.474L24.1465 491.526C23.2163 491.678 22.3666 491.75 21.5938 491.75V495.75ZM24.8231 495.468C26.0274 495.252 27.1504 494.895 28.1757 494.383L26.3868 490.805C25.7454 491.126 24.9935 491.373 24.1144 491.532L24.8231 495.468ZM28.193 494.374C29.2982 493.808 30.2396 493.038 30.9898 492.065L27.8227 489.622C27.4479 490.108 26.9726 490.505 26.3695 490.814L28.193 494.374ZM31.0063 492.044C31.8863 490.87 32.25 489.461 32.25 487.969H28.25C28.25 488.81 28.0512 489.317 27.8062 489.644L31.0063 492.044ZM30.25 489.969H44.7188V485.969H30.25V489.969ZM42.7188 487.969V519.031H46.7188V487.969H42.7188ZM42.7188 519.031C42.7188 520.599 43.0723 522.437 44.6214 523.453L46.8161 520.109C46.9176 520.176 46.9012 520.228 46.8483 520.082C46.7877 519.915 46.7188 519.588 46.7188 519.031H42.7188ZM44.6821 523.492C45.7675 524.149 47.0303 524.406 48.3438 524.406V520.406C47.5322 520.406 47.045 520.246 46.7554 520.071L44.6821 523.492ZM48.3438 524.406H50.4688V520.406H48.3438V524.406ZM48.4688 522.406V534H52.4688V522.406H48.4688ZM50.4688 532H22.25V536H50.4688V532ZM24.25 534V522.406H20.25V534H24.25ZM22.25 524.406H24.75V520.406H22.25V524.406ZM24.75 524.406C26.2876 524.406 27.7799 523.905 28.7817 522.583L25.5933 520.167C25.5534 520.22 25.4207 520.406 24.75 520.406V524.406ZM28.7762 522.59C29.5571 521.569 30 520.389 30 519.094H26C26 519.424 25.9012 519.765 25.5988 520.16L28.7762 522.59ZM30 519.094V504.062H26V519.094H30ZM28 502.062H21.5938V506.062H28V502.062ZM23.5938 504.062V493.75H19.5938V504.062H23.5938ZM52.7188 509.094L51.2717 507.713L50.7188 508.293V509.094H52.7188ZM72.875 487.969V485.969H72.0189L71.428 486.588L72.875 487.969ZM90.2188 487.969H92.2188V485.969H90.2188V487.969ZM90.2188 511.781H88.2188V513.781H90.2188V511.781ZM97.25 511.781H99.25V509.781H97.25V511.781ZM97.25 518.562V520.562H99.25V518.562H97.25ZM90.2188 518.562V516.562H88.2188V518.562H90.2188ZM90.375 521.312L88.448 521.848L88.452 521.862L88.4563 521.877L90.375 521.312ZM90.9062 522.094L89.7968 523.758L89.8271 523.778L89.8581 523.797L90.9062 522.094ZM91.875 522.375L91.7641 524.372L91.7699 524.372L91.875 522.375ZM94.6875 522.406H96.6875V520.406H94.6875V522.406ZM94.6875 534V536H96.6875V534H94.6875ZM68.4062 534H66.4062V536H68.4062V534ZM68.4062 522.406V520.406H66.4062V522.406H68.4062ZM72.375 521.688L70.7109 520.578L70.7053 520.587L70.6998 520.595L72.375 521.688ZM72.875 518.562H74.875V516.562H72.875V518.562ZM52.7188 518.562H50.7188V520.562H52.7188V518.562ZM61.2188 511.781L59.7577 510.415L56.6113 513.781H61.2188V511.781ZM72.875 511.781V513.781H74.875V511.781H72.875ZM72.875 499.312H74.875V494.244L71.414 497.947L72.875 499.312ZM54.1658 510.474L74.322 489.349L71.428 486.588L51.2717 507.713L54.1658 510.474ZM72.875 489.969H90.2188V485.969H72.875V489.969ZM88.2188 487.969V511.781H92.2188V487.969H88.2188ZM90.2188 513.781H97.25V509.781H90.2188V513.781ZM95.25 511.781V518.562H99.25V511.781H95.25ZM97.25 516.562H90.2188V520.562H97.25V516.562ZM88.2188 518.562V519.656H92.2188V518.562H88.2188ZM88.2188 519.656C88.2188 520.438 88.2701 521.207 88.448 521.848L92.302 520.777C92.2716 520.668 92.2188 520.333 92.2188 519.656H88.2188ZM88.4563 521.877C88.6615 522.575 89.073 523.275 89.7968 523.758L92.0157 520.43C92.1155 520.496 92.1904 520.576 92.2398 520.649C92.2862 520.717 92.297 520.759 92.2937 520.748L88.4563 521.877ZM89.8581 523.797C90.4592 524.167 91.1172 524.336 91.7641 524.372L91.9859 520.378C91.9324 520.375 91.9093 520.368 91.9092 520.368C91.9091 520.368 91.9139 520.37 91.9225 520.374C91.9311 520.377 91.9421 520.383 91.9544 520.39L89.8581 523.797ZM91.7699 524.372C92.2084 524.395 92.6923 524.406 93.2188 524.406V520.406C92.7452 520.406 92.3333 520.396 91.9801 520.378L91.7699 524.372ZM93.2188 524.406H94.6875V520.406H93.2188V524.406ZM92.6875 522.406V534H96.6875V522.406H92.6875ZM94.6875 532H68.4062V536H94.6875V532ZM70.4062 534V522.406H66.4062V534H70.4062ZM68.4062 524.406H70.25V520.406H68.4062V524.406ZM70.25 524.406C71.4351 524.406 73.132 524.188 74.0502 522.78L70.6998 520.595C70.8549 520.357 71.029 520.312 70.9686 520.332C70.9381 520.342 70.8668 520.362 70.7418 520.379C70.6178 520.395 70.4557 520.406 70.25 520.406V524.406ZM74.0391 522.797C74.6562 521.871 74.875 520.791 74.875 519.719H70.875C70.875 520.272 70.7605 520.504 70.7109 520.578L74.0391 522.797ZM74.875 519.719V518.562H70.875V519.719H74.875ZM72.875 516.562H52.7188V520.562H72.875V516.562ZM54.7188 518.562V509.094H50.7188V518.562H54.7188ZM61.2188 513.781H72.875V509.781H61.2188V513.781ZM74.875 511.781V499.312H70.875V511.781H74.875ZM71.414 497.947L59.7577 510.415L62.6798 513.147L74.336 500.678L71.414 497.947Z" fill="black" mask="url(#path-21-outside-4_0_1)"/>
<mask id="path-23-outside-5_0_1" maskUnits="userSpaceOnUse" x="19" y="21" width="81" height="51" fill="black">
<rect fill="white" x="19" y="21" width="81" height="51"/>
<path d="M21.5938 29.75C22.4896 29.75 23.4479 29.6667 24.4688 29.5C25.5104 29.3125 26.4479 29.0104 27.2812 28.5938C28.1354 28.1562 28.8438 27.5729 29.4062 26.8438C29.9688 26.0938 30.25 25.1354 30.25 23.9688H44.7188V55.0312C44.7188 56.4271 45.0521 57.3438 45.7188 57.7812C46.4062 58.1979 47.2812 58.4062 48.3438 58.4062H50.4688V70H22.25V58.4062H24.75C25.8542 58.4062 26.6667 58.0625 27.1875 57.375C27.7292 56.6667 28 55.9062 28 55.0938V40.0625H21.5938V29.75ZM52.7188 45.0938L72.875 23.9688H90.2188V47.7812H97.25V54.5625H90.2188V55.6562C90.2188 56.3854 90.2708 56.9375 90.375 57.3125C90.4792 57.6667 90.6562 57.9271 90.9062 58.0938C91.1771 58.2604 91.5 58.3542 91.875 58.375C92.2708 58.3958 92.7188 58.4062 93.2188 58.4062H94.6875V70H68.4062V58.4062H70.25C71.3542 58.4062 72.0625 58.1667 72.375 57.6875C72.7083 57.1875 72.875 56.5312 72.875 55.7188V54.5625H52.7188V45.0938ZM61.2188 47.7812H72.875V35.3125L61.2188 47.7812Z"/>
</mask>
<path d="M21.5938 29.75C22.4896 29.75 23.4479 29.6667 24.4688 29.5C25.5104 29.3125 26.4479 29.0104 27.2812 28.5938C28.1354 28.1562 28.8438 27.5729 29.4062 26.8438C29.9688 26.0938 30.25 25.1354 30.25 23.9688H44.7188V55.0312C44.7188 56.4271 45.0521 57.3438 45.7188 57.7812C46.4062 58.1979 47.2812 58.4062 48.3438 58.4062H50.4688V70H22.25V58.4062H24.75C25.8542 58.4062 26.6667 58.0625 27.1875 57.375C27.7292 56.6667 28 55.9062 28 55.0938V40.0625H21.5938V29.75ZM52.7188 45.0938L72.875 23.9688H90.2188V47.7812H97.25V54.5625H90.2188V55.6562C90.2188 56.3854 90.2708 56.9375 90.375 57.3125C90.4792 57.6667 90.6562 57.9271 90.9062 58.0938C91.1771 58.2604 91.5 58.3542 91.875 58.375C92.2708 58.3958 92.7188 58.4062 93.2188 58.4062H94.6875V70H68.4062V58.4062H70.25C71.3542 58.4062 72.0625 58.1667 72.375 57.6875C72.7083 57.1875 72.875 56.5312 72.875 55.7188V54.5625H52.7188V45.0938ZM61.2188 47.7812H72.875V35.3125L61.2188 47.7812Z" fill="#800080"/>
<path d="M21.5938 29.75V27.75H19.5938V29.75H21.5938ZM24.4688 29.5L24.791 31.4739L24.8071 31.4712L24.8231 31.4684L24.4688 29.5ZM27.2812 28.5938L28.1757 30.3826L28.1844 30.3783L28.193 30.3738L27.2812 28.5938ZM29.4062 26.8438L30.9898 28.0654L30.9981 28.0546L31.0063 28.0438L29.4062 26.8438ZM30.25 23.9688V21.9688H28.25V23.9688H30.25ZM44.7188 23.9688H46.7188V21.9688H44.7188V23.9688ZM45.7188 57.7812L44.6214 59.4533L44.6514 59.473L44.6821 59.4916L45.7188 57.7812ZM50.4688 58.4062H52.4688V56.4062H50.4688V58.4062ZM50.4688 70V72H52.4688V70H50.4688ZM22.25 70H20.25V72H22.25V70ZM22.25 58.4062V56.4062H20.25V58.4062H22.25ZM27.1875 57.375L25.5988 56.1601L25.5933 56.1673L27.1875 57.375ZM28 40.0625H30V38.0625H28V40.0625ZM21.5938 40.0625H19.5938V42.0625H21.5938V40.0625ZM21.5938 31.75C22.6125 31.75 23.6796 31.6553 24.791 31.4739L24.1465 27.5261C23.2163 27.678 22.3666 27.75 21.5938 27.75V31.75ZM24.8231 31.4684C26.0274 31.2516 27.1504 30.8952 28.1757 30.3826L26.3868 26.8049C25.7454 27.1256 24.9935 27.3734 24.1144 27.5316L24.8231 31.4684ZM28.193 30.3738C29.2982 29.8078 30.2396 29.0378 30.9898 28.0654L27.8227 25.6221C27.4479 26.108 26.9726 26.5047 26.3695 26.8137L28.193 30.3738ZM31.0063 28.0438C31.8863 26.8704 32.25 25.4606 32.25 23.9688H28.25C28.25 24.8102 28.0512 25.3171 27.8062 25.6437L31.0063 28.0438ZM30.25 25.9688H44.7188V21.9688H30.25V25.9688ZM42.7188 23.9688V55.0312H46.7188V23.9688H42.7188ZM42.7188 55.0312C42.7188 56.5994 43.0723 58.4367 44.6214 59.4533L46.8161 56.1092C46.9176 56.1758 46.9012 56.2276 46.8483 56.0821C46.7877 55.9153 46.7188 55.5881 46.7188 55.0312H42.7188ZM44.6821 59.4916C45.7675 60.1494 47.0303 60.4062 48.3438 60.4062V56.4062C47.5322 56.4062 47.045 56.2464 46.7554 56.0709L44.6821 59.4916ZM48.3438 60.4062H50.4688V56.4062H48.3438V60.4062ZM48.4688 58.4062V70H52.4688V58.4062H48.4688ZM50.4688 68H22.25V72H50.4688V68ZM24.25 70V58.4062H20.25V70H24.25ZM22.25 60.4062H24.75V56.4062H22.25V60.4062ZM24.75 60.4062C26.2876 60.4062 27.7799 59.9051 28.7817 58.5827L25.5933 56.1673C25.5534 56.2199 25.4207 56.4062 24.75 56.4062V60.4062ZM28.7762 58.5899C29.5571 57.5687 30 56.3886 30 55.0938H26C26 55.4239 25.9012 55.7646 25.5988 56.1601L28.7762 58.5899ZM30 55.0938V40.0625H26V55.0938H30ZM28 38.0625H21.5938V42.0625H28V38.0625ZM23.5938 40.0625V29.75H19.5938V40.0625H23.5938ZM52.7188 45.0938L51.2717 43.7131L50.7188 44.2927V45.0938H52.7188ZM72.875 23.9688V21.9688H72.0189L71.428 22.5881L72.875 23.9688ZM90.2188 23.9688H92.2188V21.9688H90.2188V23.9688ZM90.2188 47.7812H88.2188V49.7812H90.2188V47.7812ZM97.25 47.7812H99.25V45.7812H97.25V47.7812ZM97.25 54.5625V56.5625H99.25V54.5625H97.25ZM90.2188 54.5625V52.5625H88.2188V54.5625H90.2188ZM90.375 57.3125L88.448 57.8478L88.452 57.8623L88.4563 57.8768L90.375 57.3125ZM90.9062 58.0938L89.7968 59.7579L89.8271 59.778L89.8581 59.7971L90.9062 58.0938ZM91.875 58.375L91.7641 60.3719L91.7699 60.3722L91.875 58.375ZM94.6875 58.4062H96.6875V56.4062H94.6875V58.4062ZM94.6875 70V72H96.6875V70H94.6875ZM68.4062 70H66.4062V72H68.4062V70ZM68.4062 58.4062V56.4062H66.4062V58.4062H68.4062ZM72.375 57.6875L70.7109 56.5781L70.7053 56.5865L70.6998 56.595L72.375 57.6875ZM72.875 54.5625H74.875V52.5625H72.875V54.5625ZM52.7188 54.5625H50.7188V56.5625H52.7188V54.5625ZM61.2188 47.7812L59.7577 46.4154L56.6113 49.7812H61.2188V47.7812ZM72.875 47.7812V49.7812H74.875V47.7812H72.875ZM72.875 35.3125H74.875V30.2444L71.414 33.9467L72.875 35.3125ZM54.1658 46.4744L74.322 25.3494L71.428 22.5881L51.2717 43.7131L54.1658 46.4744ZM72.875 25.9688H90.2188V21.9688H72.875V25.9688ZM88.2188 23.9688V47.7812H92.2188V23.9688H88.2188ZM90.2188 49.7812H97.25V45.7812H90.2188V49.7812ZM95.25 47.7812V54.5625H99.25V47.7812H95.25ZM97.25 52.5625H90.2188V56.5625H97.25V52.5625ZM88.2188 54.5625V55.6562H92.2188V54.5625H88.2188ZM88.2188 55.6562C88.2188 56.438 88.2701 57.2074 88.448 57.8478L92.302 56.7772C92.2716 56.6676 92.2188 56.3329 92.2188 55.6562H88.2188ZM88.4563 57.8768C88.6615 58.5746 89.073 59.2753 89.7968 59.7579L92.0157 56.4296C92.1155 56.4962 92.1904 56.5762 92.2398 56.6488C92.2862 56.7171 92.297 56.7593 92.2937 56.7482L88.4563 57.8768ZM89.8581 59.7971C90.4592 60.167 91.1172 60.336 91.7641 60.3719L91.9859 56.3781C91.9324 56.3751 91.9093 56.3684 91.9092 56.3684C91.9091 56.3683 91.9139 56.3697 91.9225 56.3735C91.9311 56.3773 91.9421 56.3828 91.9544 56.3904L89.8581 59.7971ZM91.7699 60.3722C92.2084 60.3953 92.6923 60.4062 93.2188 60.4062V56.4062C92.7452 56.4062 92.3333 56.3964 91.9801 56.3778L91.7699 60.3722ZM93.2188 60.4062H94.6875V56.4062H93.2188V60.4062ZM92.6875 58.4062V70H96.6875V58.4062H92.6875ZM94.6875 68H68.4062V72H94.6875V68ZM70.4062 70V58.4062H66.4062V70H70.4062ZM68.4062 60.4062H70.25V56.4062H68.4062V60.4062ZM70.25 60.4062C71.4351 60.4062 73.132 60.188 74.0502 58.78L70.6998 56.595C70.8549 56.3571 71.029 56.3116 70.9686 56.332C70.9381 56.3423 70.8668 56.362 70.7418 56.3786C70.6178 56.395 70.4557 56.4062 70.25 56.4062V60.4062ZM74.0391 58.7969C74.6562 57.8713 74.875 56.7905 74.875 55.7188H70.875C70.875 56.272 70.7605 56.5037 70.7109 56.5781L74.0391 58.7969ZM74.875 55.7188V54.5625H70.875V55.7188H74.875ZM72.875 52.5625H52.7188V56.5625H72.875V52.5625ZM54.7188 54.5625V45.0938H50.7188V54.5625H54.7188ZM61.2188 49.7812H72.875V45.7812H61.2188V49.7812ZM74.875 47.7812V35.3125H70.875V47.7812H74.875ZM71.414 33.9467L59.7577 46.4154L62.6798 49.1471L74.336 36.6783L71.414 33.9467Z" fill="black" mask="url(#path-23-outside-5_0_1)"/>
</g>
<defs>
<filter id="filter0_d_0_1" x="24" y="92" width="352" height="394" filterUnits="userSpaceOnUse" color-interpolation-filters="sRGB">
<feFlood flood-opacity="0" result="BackgroundImageFix"/>
<feColorMatrix in="SourceAlpha" type="matrix" values="0 0 0 0 0 0 0 0 0 0 0 0 0 0 0 0 0 0 127 0" result="hardAlpha"/>
<feOffset dy="4"/>
<feGaussianBlur stdDeviation="2"/>
<feComposite in2="hardAlpha" operator="out"/>
<feColorMatrix type="matrix" values="0 0 0 0 0 0 0 0 0 0 0 0 0 0 0 0 0 0 0.25 0"/>
<feBlend mode="normal" in2="BackgroundImageFix" result="effect1_dropShadow_0_1"/>
<feBlend mode="normal" in="SourceGraphic" in2="effect1_dropShadow_0_1" result="shape"/>
</filter>
<filter id="filter1_d_0_1" x="17.5938" y="23.9688" width="367.656" height="518.031" filterUnits="userSpaceOnUse" color-interpolation-filters="sRGB">
<feFlood flood-opacity="0" result="BackgroundImageFix"/>
<feColorMatrix in="SourceAlpha" type="matrix" values="0 0 0 0 0 0 0 0 0 0 0 0 0 0 0 0 0 0 127 0" result="hardAlpha"/>
<feOffset dy="4"/>
<feGaussianBlur stdDeviation="2"/>
<feComposite in2="hardAlpha" operator="out"/>
<feColorMatrix type="matrix" values="0 0 0 0 0 0 0 0 0 0 0 0 0 0 0 0 0 0 0.25 0"/>
<feBlend mode="normal" in2="BackgroundImageFix" result="effect1_dropShadow_0_1"/>
<feBlend mode="normal" in="SourceGraphic" in2="effect1_dropShadow_0_1" result="shape"/>
</filter>
<clipPath id="clip0_0_1">
<rect width="344" height="386" fill="white" transform="translate(28 92)"/>
</clipPath>
<clipPath id="clip1_0_1">
<rect width="34" height="38" fill="white" transform="translate(183 17)"/>
</clipPath>
<clipPath id="clip2_0_1">
<rect width="34" height="38" fill="white" transform="translate(183 495)"/>
</clipPath>
</defs>
</svg>
