<svg width="400" height="550" viewBox="0 0 400 550" fill="none" xmlns="http://www.w3.org/2000/svg">
<path d="M0.5 0.5H0.914507H1.82745H2.73883H3.64866H4.55695H5.46369H6.36891H7.27259H8.17475H9.0754H9.97453H10.8722H11.7683H12.6629H13.5561H14.4478H15.338H16.2267H17.114H17.9998H18.8842H19.7672H20.6487H21.5287H22.4074H23.2846H24.1604H25.0349H25.9079H26.7795H27.6497H28.5186H29.3861H30.2522H31.1169H31.9803H32.8424H33.7031H34.5624H35.4205H36.2772H37.1326H37.9866H38.8394H39.6909H40.541H41.3899H42.2375H43.0838H43.9289H44.7727H45.6152H46.4565H47.2965H48.1353H48.9729H49.8092H50.6443H51.4782H52.3109H53.1424H53.9727H54.8018H55.6297H56.4565H57.282H58.1064H58.9297H59.7518H60.5727H61.3925H62.2112H63.0287H63.8451H64.6604H65.4746H66.2877H67.0997H67.9106H68.7204H69.5291H70.3367H71.1433H71.9488H72.7533H73.5567H74.3591H75.1604H75.9607H76.76H77.5583H78.3555H79.1518H79.947H80.7412H81.5345H82.3268H83.1181H83.9084H84.6978H85.4862H86.2737H87.0602H87.8458H88.6304H89.4141H90.1969H90.9788H91.7598H92.5399H93.3191H94.0973H94.8747H95.6513H96.4269H97.2017H97.9757H98.7487H99.521H100.292H101.063H101.833H102.602H103.37H104.137H104.903H105.669H106.434H107.198H107.961H108.724H109.486H110.247H111.007H111.767H112.525H113.283H114.041H114.797H115.553H116.308H117.063H117.816H118.57H119.322H120.074H120.825H121.575H122.325H123.074H123.822H124.57H125.317H126.063H126.809H127.554H128.299H129.043H129.786H130.529H131.271H132.013H132.754H133.495H134.234H134.974H135.713H136.451H137.189H137.926H138.662H139.399H140.134H140.869H141.604H142.338H143.072H143.805H144.537H145.27H146.001H146.733H147.463H148.194H148.924H149.653H150.382H151.111H151.839H152.567H153.294H154.021H154.748H155.474H156.2H156.925H157.65H158.375H159.1H159.824H160.547H161.271H161.994H162.716H163.439H164.161H164.882H165.604H166.325H167.046H167.766H168.487H169.207H169.927H170.646H171.365H172.084H172.803H173.522H174.24H174.958H175.676H176.394H177.111H177.828H178.546H179.262H179.979H180.696H181.412H182.128H182.844H183.56H184.276H184.992H185.707H186.423H187.138H187.853H188.568H189.283H189.998H190.713H191.427H192.142H192.857H193.571H194.286H195H195.714H196.429H197.143H197.857H198.572H199.286H200H200.714H201.428H202.143H202.857H203.571H204.286H205H205.714H206.429H207.143H207.858H208.573H209.287H210.002H210.717H211.432H212.147H212.862H213.577H214.293H215.008H215.724H216.44H217.156H217.872H218.588H219.304H220.021H220.738H221.454H222.172H222.889H223.606H224.324H225.042H225.76H226.478H227.197H227.916H228.635H229.354H230.073H230.793H231.513H232.234H232.954H233.675H234.396H235.118H235.839H236.561H237.284H238.006H238.729H239.453H240.176H240.9H241.625H242.35H243.075H243.8H244.526H245.252H245.979H246.706H247.433H248.161H248.889H249.618H250.347H251.076H251.806H252.537H253.267H253.999H254.73H255.463H256.195H256.928H257.662H258.396H259.131H259.866H260.601H261.338H262.074H262.811H263.549H264.287H265.026H265.766H266.505H267.246H267.987H268.729H269.471H270.214H270.957H271.701H272.446H273.191H273.937H274.683H275.43H276.178H276.926H277.675H278.425H279.175H279.926H280.678H281.43H282.184H282.937H283.692H284.447H285.203H285.959H286.717H287.475H288.233H288.993H289.753H290.514H291.276H292.039H292.802H293.566H294.331H295.097H295.863H296.63H297.398H298.167H298.937H299.708H300.479H301.251H302.024H302.798H303.573H304.349H305.125H305.903H306.681H307.46H308.24H309.021H309.803H310.586H311.37H312.154H312.94H313.726H314.514H315.302H316.092H316.882H317.673H318.465H319.259H320.053H320.848H321.644H322.442H323.24H324.039H324.84H325.641H326.443H327.247H328.051H328.857H329.663H330.471H331.28H332.089H332.9H333.712H334.525H335.34H336.155H336.971H337.789H338.607H339.427H340.248H341.07H341.894H342.718H343.544H344.37H345.198H346.027H346.858H347.689H348.522H349.356H350.191H351.027H351.865H352.703H353.543H354.385H355.227H356.071H356.916H357.762H358.61H359.459H360.309H361.161H362.013H362.867H363.723H364.58H365.438H366.297H367.158H368.02H368.883H369.748H370.614H371.481H372.35H373.221H374.092H374.965H375.84H376.715H377.593H378.471H379.351H380.233H381.116H382H382.886H383.773H384.662H385.552H386.444H387.337H388.232H389.128H390.025H390.925H391.825H392.727H393.631H394.536H395.443H396.351H397.261H398.173H399.085H399.5V549.5H0.5V0.5Z" fill="white" stroke="black"/>
<rect x="20" y="55" width="360" height="440" fill="white"/>
<g clip-path="url(#clip0_0_1)" filter="url(#filter0_d_0_1)">
<path d="M29.1467 219.38C29.1467 217.593 29.1467 215.806 29.4394 213.946C31.1775 211.76 32.7565 209.746 34.0476 207.521C46.6304 185.836 58.5915 163.661 71.8993 142.553C82.1262 126.333 94.0318 111.445 105.191 95.964C105.761 96.2606 106.331 96.5573 106.901 96.8539C98.2263 124.505 95.9401 152.878 98.1346 182.204C114.546 184.535 130.707 186.83 146.868 189.125C147.174 188.281 147.481 187.438 147.787 186.595C146.129 185.145 144.557 183.547 142.8 182.269C132.896 175.065 132.135 166.136 136.715 154.312C141.826 141.118 145.186 127.069 149.557 112.563C160.24 124.558 170.216 136.023 180.497 147.133C183.364 150.232 183.502 152.548 181.759 156.38C177.19 166.424 173.079 176.73 168.478 187.085C168.154 187.547 168.138 187.855 168.122 188.162C168.617 188.105 169.112 188.048 169.988 187.828C179.411 182.625 188.375 177.393 197.554 172.692C199.584 171.652 202.739 171.591 204.754 172.617C212.941 176.787 220.871 181.588 228.934 186.071C230.394 186.882 232.032 187.29 234.853 188.368C228.892 174.904 223.662 163.093 218.792 152.095C230.394 139.075 241.568 126.534 252.992 113.715C258.304 131.747 263.76 150.013 268.947 168.374C269.34 169.765 268.193 172.217 267.127 173.522C262.982 178.596 258.581 183.407 254.276 188.315C254.525 188.687 254.774 189.058 255.022 189.43C271.462 186.957 287.902 184.484 304.225 182.029C306.223 152.715 304.063 124.847 295.827 97.6277C296.021 97.4629 296.371 97.0835 296.76 97.1362C306.111 109.072 315.924 120.286 323.856 132.98C339.659 158.271 354.411 184.388 369.681 210.102C370.426 211.357 371.973 212.012 373.147 212.947C373.147 214.734 373.147 216.521 372.884 218.371C354.938 233.659 334.456 241.616 313.084 247.216C306.839 248.853 300.537 250.218 294.106 251.744C297.285 268.582 300.482 284.789 303.269 301.085C303.674 303.451 302.793 306.938 301.345 308.712C295.415 315.977 289.063 322.811 282.811 329.742C278.525 334.494 274.148 339.144 269.713 343.946C278.706 351.544 286.822 358.256 294.733 365.259C295.81 366.212 296.732 369.028 296.261 370.295C289.906 387.361 283.292 404.305 276.721 421.334C266.32 418.764 256.319 416.292 245.926 413.723C242.43 429.201 238.955 444.591 235.501 459.885C212.349 459.885 189.819 459.885 166.792 459.885C163.338 444.596 159.873 429.26 156.372 413.76C145.707 416.36 135.633 418.815 125.383 421.313C118.409 403.01 111.635 385.232 104.829 367.373C114.05 359.585 122.956 352.062 132.332 344.143C121.659 332.181 111.342 320.493 100.87 308.983C98.7568 306.661 98.0402 304.689 98.7374 301.247C102.058 284.857 105.028 268.377 108.141 251.83C100.21 249.833 92.5695 248.094 85.0151 245.97C66.1366 240.662 47.7181 234.124 32.2694 219.979C31.5574 219.327 30.2023 219.56 29.1467 219.38Z" fill="#FDFDFD"/>
<path d="M169.409 187.718C169.112 188.048 168.617 188.105 168.122 188.162C168.138 187.855 168.154 187.547 168.478 187.085C168.927 187.103 169.07 187.274 169.409 187.718Z" fill="black"/>
<path d="M295.827 97.6277C295.836 97.3575 296.039 96.9224 296.306 96.7855C296.371 97.0835 296.021 97.4629 295.827 97.6277Z" fill="#FDFDFD"/>
<path d="M157.967 412.534L157.196 413.034L157.967 412.534C157.79 412.261 157.541 412.161 157.461 412.132C157.356 412.094 157.266 412.08 157.22 412.074C157.124 412.062 157.037 412.064 156.988 412.066C156.88 412.07 156.756 412.084 156.637 412.1C156.389 412.134 156.05 412.192 155.64 412.269C154.814 412.425 153.643 412.669 152.217 412.981C149.361 413.607 145.456 414.512 141.189 415.545L126.55 419.092L117.223 394.399C114.574 387.385 112.169 380.89 110.43 376.077C109.56 373.671 108.858 371.688 108.375 370.274C108.133 369.565 107.948 369.006 107.826 368.61C107.795 368.509 107.768 368.421 107.746 368.345C107.897 368.164 108.128 367.913 108.442 367.593C109.093 366.929 110.044 366.024 111.231 364.939C113.601 362.772 116.872 359.923 120.472 356.916C124.088 353.895 127.379 351.028 129.77 348.841C130.965 347.749 131.944 346.818 132.629 346.118C132.969 345.77 133.252 345.464 133.455 345.217C133.555 345.095 133.652 344.966 133.73 344.841C133.769 344.778 133.815 344.698 133.854 344.605C133.887 344.526 133.949 344.361 133.949 344.15C133.949 343.917 133.869 343.731 133.846 343.678L133.845 343.676C133.808 343.591 133.765 343.51 133.725 343.443C133.646 343.305 133.54 343.146 133.419 342.975C133.176 342.629 132.827 342.169 132.39 341.616C131.515 340.506 130.256 338.977 128.71 337.144C125.616 333.474 121.351 328.56 116.663 323.285L99.9568 304.49L104.508 280.696C105.786 274.016 106.948 267.665 107.791 262.814C108.212 260.389 108.554 258.335 108.791 256.8C109.021 255.314 109.17 254.214 109.17 253.78C109.17 252.789 108.404 252.048 107.603 251.498C106.733 250.9 105.455 250.278 103.757 249.601C100.347 248.24 95.0163 246.565 87.2976 244.379C67.8972 238.883 56.6576 233.87 36.236 221.587C34.5771 220.589 33.0712 219.565 31.9853 218.725C31.4397 218.303 31.0196 217.942 30.7428 217.665C30.6828 217.605 30.6332 217.553 30.593 217.508C30.6521 217.351 30.7396 217.144 30.8575 216.884C31.1262 216.294 31.5257 215.495 32.0301 214.539C33.0371 212.63 34.4402 210.14 35.995 207.532C39.1203 202.29 49.8785 184.017 59.9017 166.925C67.3724 154.186 78.4456 136.96 87.8092 123.107C92.4911 116.181 96.7383 110.109 99.8889 105.868C101.249 104.038 102.395 102.562 103.278 101.51C103.217 101.843 103.148 102.204 103.073 102.589C102.637 104.829 101.991 107.872 101.239 111.174C97.6719 126.848 95.5033 146.573 95.5284 163.107C95.5305 164.52 95.5233 165.839 95.5165 167.069C95.4981 170.401 95.4834 173.083 95.6688 175.221C95.9251 178.176 96.5784 180.375 98.3461 181.98C100.056 183.532 102.66 184.382 106.382 185.112C109.115 185.648 112.582 186.14 116.937 186.758C118.558 186.988 120.302 187.235 122.177 187.509C128.829 188.48 135.023 189.266 139.645 189.749C141.954 189.991 143.882 190.158 145.282 190.234C145.98 190.272 146.565 190.289 147.008 190.279C147.227 190.274 147.434 190.262 147.612 190.237C147.701 190.225 147.8 190.208 147.9 190.18C147.987 190.156 148.143 190.106 148.299 189.998C148.964 189.537 149.547 188.952 149.78 188.165C150.021 187.348 149.821 186.54 149.398 185.785C148.982 185.043 148.304 184.261 147.411 183.409C146.509 182.55 145.341 181.575 143.899 180.454C141.295 178.429 139.442 176.827 138.202 175.113C136.994 173.442 136.347 171.632 136.256 169.139C136.163 166.603 136.646 163.362 137.739 158.855C138.831 154.357 140.51 148.672 142.77 141.268L150.158 117.055L163.536 131.618C167.537 135.973 171.376 140.233 174.339 143.587C177.331 146.976 179.363 149.368 179.814 150.037C180.317 150.783 180.561 151.807 179.774 154.673C178.985 157.541 177.248 161.967 174.171 169.287C172.142 174.114 170.381 178.605 169.177 181.955C168.576 183.627 168.109 185.029 167.818 186.053C167.673 186.56 167.564 187.001 167.506 187.345C167.477 187.513 167.455 187.695 167.455 187.866C167.455 187.951 167.461 188.066 167.489 188.189C167.513 188.3 167.574 188.511 167.748 188.706C167.936 188.917 168.158 189.003 168.297 189.04C168.44 189.078 168.569 189.084 168.661 189.084C168.844 189.083 169.03 189.051 169.19 189.016C169.518 188.943 169.931 188.812 170.396 188.642C171.337 188.3 172.623 187.756 174.151 187.06C177.215 185.665 181.323 183.629 185.739 181.287L201.28 173.044L216.212 181.086C223.468 184.993 228.09 187.363 230.906 188.516C232.279 189.079 233.367 189.416 234.162 189.421C234.575 189.424 235.077 189.338 235.473 188.972C235.884 188.591 235.983 188.091 235.983 187.702C235.983 187.566 235.956 187.45 235.947 187.412C235.933 187.353 235.917 187.294 235.9 187.24C235.867 187.13 235.821 186.998 235.768 186.85C235.66 186.553 235.505 186.152 235.31 185.664C234.919 184.686 234.357 183.329 233.665 181.696C232.28 178.428 230.372 174.033 228.274 169.3L220.912 152.689L236.44 135.211C240.819 130.283 244.901 125.945 247.947 122.926C249.474 121.414 250.724 120.248 251.616 119.508C251.799 119.355 251.962 119.225 252.105 119.117C252.238 119.467 252.399 119.915 252.585 120.453C253.049 121.788 253.66 123.65 254.377 125.904C255.809 130.412 257.653 136.468 259.565 142.985C263.311 155.758 266.68 167.145 267.153 168.635C267.15 168.659 267.144 168.697 267.131 168.752C267.09 168.92 267.006 169.162 266.864 169.481C266.581 170.116 266.117 170.951 265.495 171.933C264.255 173.892 262.444 176.347 260.364 178.816C258.246 181.329 256.399 183.719 255.128 185.552C254.496 186.464 253.99 187.261 253.665 187.877C253.505 188.179 253.367 188.479 253.286 188.75C253.247 188.882 253.206 189.057 253.204 189.247C253.202 189.423 253.232 189.763 253.495 190.058C253.69 190.276 253.925 190.357 254.003 190.382C254.114 190.418 254.222 190.438 254.307 190.45C254.48 190.475 254.682 190.486 254.891 190.49C255.317 190.497 255.891 190.476 256.584 190.434C257.975 190.349 259.922 190.17 262.276 189.914C266.988 189.403 273.373 188.581 280.297 187.572L305.446 183.906L306.325 183.778L306.301 182.89L305.562 155.014C305 133.837 304.079 123.924 301.713 113.987C300.867 110.436 300.149 107.158 299.673 104.738C299.535 104.038 299.418 103.413 299.324 102.877C300.147 103.772 301.227 105.092 302.533 106.794C305.453 110.601 309.425 116.221 314.003 123.001C323.158 136.556 334.708 154.696 345.075 172.126C351.853 183.522 358.179 193.884 362.911 201.4C365.277 205.157 367.249 208.209 368.681 210.326C369.396 211.382 369.986 212.218 370.427 212.796C370.645 213.081 370.842 213.324 371.009 213.502C371.09 213.589 371.187 213.685 371.291 213.767C371.343 213.808 371.419 213.862 371.514 213.911C371.593 213.951 371.763 214.028 371.989 214.034C372.014 214.046 372.083 214.095 372.179 214.252C372.331 214.503 372.458 214.913 372.458 215.414C372.458 215.413 372.458 215.413 372.457 215.415C372.456 215.425 372.445 215.507 372.357 215.682C372.262 215.87 372.103 216.111 371.865 216.405C371.389 216.993 370.667 217.708 369.714 218.528C367.813 220.164 365.099 222.126 361.894 224.2C355.485 228.346 347.206 232.875 339.747 236.05C332.874 238.975 319.711 243.342 310.527 245.739C305.915 246.942 301.678 248.075 298.568 248.929C297.014 249.357 295.737 249.715 294.834 249.98C294.384 250.112 294.02 250.222 293.759 250.306C293.629 250.348 293.515 250.387 293.423 250.421C293.379 250.438 293.327 250.458 293.277 250.481L293.275 250.482C293.257 250.49 293.11 250.554 292.977 250.675C292.758 250.874 292.693 251.11 292.679 251.163L292.678 251.165C292.654 251.252 292.646 251.326 292.642 251.368C292.634 251.455 292.634 251.538 292.636 251.598C292.64 251.727 292.653 251.885 292.671 252.058C292.708 252.411 292.774 252.905 292.864 253.516C293.044 254.744 293.327 256.49 293.691 258.621C294.419 262.887 295.472 268.72 296.676 275.093C297.878 281.454 298.97 287.724 299.761 292.7C300.157 295.189 300.477 297.349 300.697 299.034C300.921 300.743 301.034 301.9 301.034 302.422C301.034 303.751 300.265 305.696 297.706 309.28C295.181 312.818 291.051 317.774 284.639 325.079L267.995 344.039L267.313 344.816L268.111 345.472L281.046 356.103C284.594 359.019 287.881 361.85 290.319 364.06C291.538 365.166 292.537 366.11 293.247 366.827C293.603 367.186 293.875 367.479 294.064 367.7C294.137 367.787 294.193 367.856 294.233 367.909C294.232 367.921 294.231 367.934 294.229 367.948C294.214 368.104 294.176 368.334 294.109 368.647C293.975 369.27 293.741 370.14 293.404 371.256C292.732 373.483 291.675 376.62 290.261 380.577C287.436 388.487 283.207 399.629 277.847 413.237L275.51 419.17L261.309 415.579C257.159 414.53 253.32 413.642 250.476 413.058C249.056 412.766 247.871 412.547 247.014 412.422C246.59 412.36 246.222 412.317 245.938 412.303C245.8 412.296 245.647 412.294 245.504 412.309C245.433 412.316 245.332 412.33 245.222 412.365C245.133 412.392 244.913 412.47 244.726 412.68C244.628 412.791 244.57 412.904 244.549 412.945C244.519 413.004 244.493 413.064 244.472 413.116C244.43 413.222 244.386 413.348 244.341 413.484C244.251 413.759 244.142 414.131 244.017 414.58C243.766 415.482 243.441 416.738 243.065 418.253C242.313 421.286 241.351 425.382 240.36 429.809C238.38 438.652 236.116 448.644 235.33 452.012L234.077 457.373H200.982H167.9L163.19 435.671C161.848 429.485 160.604 423.826 159.682 419.69C159.221 417.622 158.84 415.934 158.567 414.75C158.43 414.159 158.32 413.691 158.24 413.363C158.2 413.2 158.166 413.066 158.139 412.967C158.126 412.919 158.113 412.87 158.1 412.828C158.093 412.807 158.084 412.778 158.072 412.747C158.071 412.743 158.036 412.641 157.967 412.534ZM30.4544 217.331C30.455 217.331 30.4589 217.337 30.4647 217.348C30.4568 217.336 30.4539 217.33 30.4544 217.331ZM30.5182 217.733C30.5171 217.739 30.5162 217.743 30.5161 217.743C30.5159 217.743 30.5165 217.74 30.5182 217.733Z" fill="#800080" stroke="black" stroke-width="2"/>
</g>
<g clip-path="url(#clip1_0_1)">
<path d="M183.113 29.54C183.113 29.3641 183.113 29.1881 183.142 29.005C183.314 28.7899 183.47 28.5916 183.598 28.3725C184.841 26.2377 186.024 24.0547 187.339 21.9767C188.35 20.3799 189.526 18.9142 190.629 17.3902C190.686 17.4194 190.742 17.4486 190.798 17.4778C189.941 20.2 189.715 22.9932 189.932 25.8802C191.554 26.1096 193.151 26.3356 194.749 26.5615C194.779 26.4785 194.809 26.3954 194.839 26.3124C194.676 26.1697 194.52 26.0124 194.347 25.8866C193.368 25.1773 193.292 24.2983 193.745 23.1344C194.25 21.8354 194.582 20.4524 195.014 19.0244C196.07 20.2052 197.056 21.3339 198.072 22.4276C198.356 22.7326 198.369 22.9607 198.197 23.3379C197.746 24.3267 197.339 25.3413 196.884 26.3607C196.852 26.4062 196.851 26.4365 196.849 26.4667C196.898 26.4611 196.947 26.4555 197.034 26.4338C197.965 25.9216 198.851 25.4066 199.758 24.9438C199.959 24.8414 200.271 24.8354 200.47 24.9364C201.279 25.3469 202.063 25.8196 202.86 26.2608C203.004 26.3407 203.166 26.3809 203.445 26.487C202.856 25.1615 202.339 23.9988 201.857 22.916C203.004 21.6343 204.108 20.3997 205.238 19.1377C205.763 20.9129 206.302 22.7111 206.815 24.5187C206.853 24.6556 206.74 24.897 206.635 25.0255C206.225 25.525 205.79 25.9986 205.364 26.4818C205.389 26.5184 205.414 26.555 205.438 26.5915C207.063 26.3481 208.688 26.1046 210.301 25.8629C210.499 22.9772 210.285 20.2336 209.471 17.554C209.49 17.5378 209.525 17.5004 209.563 17.5056C210.488 18.6807 211.458 19.7847 212.242 21.0343C213.804 23.5241 215.262 26.0952 216.771 28.6266C216.844 28.7501 216.997 28.8147 217.113 28.9067C217.113 29.0826 217.113 29.2585 217.087 29.4406C215.314 30.9457 213.289 31.729 211.177 32.2803C210.56 32.4415 209.937 32.5759 209.301 32.7261C209.615 34.3837 209.931 35.9792 210.207 37.5835C210.247 37.8165 210.16 38.1597 210.017 38.3343C209.431 39.0496 208.803 39.7223 208.185 40.4046C207.761 40.8725 207.329 41.3302 206.89 41.803C207.779 42.551 208.581 43.2117 209.363 43.9011C209.47 43.995 209.561 44.2722 209.514 44.3969C208.886 46.077 208.232 47.7451 207.583 49.4215C206.555 49.1684 205.566 48.9251 204.539 48.6722C204.194 50.196 203.85 51.7111 203.509 53.2167C201.221 53.2167 198.994 53.2167 196.718 53.2167C196.376 51.7115 196.034 50.2018 195.688 48.6759C194.634 48.9318 193.638 49.1735 192.625 49.4194C191.936 47.6176 191.266 45.8674 190.594 44.1093C191.505 43.3426 192.385 42.602 193.312 41.8224C192.257 40.6448 191.237 39.4941 190.202 38.361C189.993 38.1324 189.923 37.9383 189.991 37.5994C190.32 35.9859 190.613 34.3635 190.921 32.7346C190.137 32.538 189.382 32.3668 188.635 32.1577C186.769 31.6351 184.949 30.9914 183.422 29.599C183.352 29.5348 183.218 29.5577 183.113 29.54Z" fill="#FDFDFD"/>
<path d="M196.976 26.423C196.947 26.4555 196.898 26.4611 196.849 26.4667C196.851 26.4365 196.852 26.4062 196.884 26.3607C196.929 26.3624 196.943 26.3793 196.976 26.423Z" fill="black"/>
<path d="M209.471 17.554C209.472 17.5274 209.492 17.4846 209.519 17.4711C209.525 17.5004 209.49 17.5378 209.471 17.554Z" fill="#FDFDFD"/>
<path d="M196.182 48.3361L196.182 48.336C196.094 48.2006 195.97 48.152 195.933 48.1383C195.883 48.12 195.841 48.1138 195.821 48.1114C195.78 48.1063 195.746 48.1074 195.734 48.1078C195.703 48.109 195.676 48.1124 195.661 48.1145C195.626 48.1192 195.584 48.1264 195.542 48.1344C195.454 48.1508 195.334 48.1758 195.192 48.2068C194.906 48.2692 194.517 48.359 194.093 48.4612L192.99 48.7275L192.194 46.6274C191.932 45.9381 191.695 45.3006 191.524 44.8291C191.448 44.6192 191.385 44.4437 191.34 44.3118C191.384 44.2696 191.437 44.221 191.496 44.1667C191.725 43.9584 192.044 43.6819 192.396 43.3886C192.757 43.0884 193.087 42.8022 193.329 42.5818C193.449 42.4724 193.552 42.375 193.627 42.2983C193.664 42.2611 193.701 42.2213 193.732 42.1834C193.747 42.1655 193.769 42.1375 193.79 42.1039C193.801 42.0871 193.817 42.0595 193.832 42.0239C193.844 41.9955 193.873 41.9217 193.873 41.8231C193.873 41.7154 193.837 41.634 193.83 41.6181L193.829 41.6166C193.817 41.5877 193.804 41.5644 193.796 41.5509C193.779 41.5226 193.761 41.496 193.747 41.4755C193.716 41.4325 193.677 41.3806 193.632 41.3243C193.542 41.2099 193.414 41.0555 193.26 40.8737C192.951 40.5091 192.527 40.0226 192.062 39.5015L190.543 37.7994L190.956 35.6521C191.082 34.9927 191.198 34.3652 191.281 33.8849C191.323 33.6451 191.358 33.4401 191.382 33.2855C191.402 33.155 191.424 33.0083 191.424 32.9266C191.424 32.6094 191.183 32.4311 191.094 32.3704C190.971 32.286 190.811 32.2118 190.636 32.1419C190.277 31.9995 189.733 31.8298 188.97 31.6145C187.092 31.0847 186.013 30.6069 184.02 29.4127C183.923 29.3546 183.833 29.2964 183.757 29.2435C183.852 29.064 183.986 28.8284 184.134 28.58C184.444 28.0625 185.508 26.2622 186.499 24.58C187.231 23.3357 188.321 21.6475 189.243 20.288C189.391 20.0699 189.535 19.8608 189.671 19.6638C189.418 21.0573 189.271 22.6359 189.273 24.0008C189.273 24.1282 189.273 24.251 189.272 24.3684C189.27 24.7048 189.268 24.9971 189.289 25.2276C189.317 25.5524 189.396 25.8954 189.684 26.1561C189.943 26.3901 190.301 26.4884 190.67 26.5606C190.951 26.6155 191.31 26.6662 191.746 26.7278C191.904 26.7501 192.072 26.7739 192.25 26.7998C192.912 26.896 193.53 26.9741 193.993 27.0224C194.224 27.0464 194.422 27.0636 194.57 27.0717C194.643 27.0756 194.713 27.0779 194.772 27.0766C194.8 27.0759 194.837 27.0742 194.876 27.0689C194.895 27.0663 194.924 27.0616 194.957 27.0525C194.983 27.0453 195.049 27.0259 195.118 26.978C195.217 26.9096 195.36 26.7857 195.421 26.5814C195.486 26.3616 195.422 26.1673 195.348 26.0357C195.278 25.9109 195.177 25.8014 195.078 25.7075C194.975 25.6095 194.848 25.5042 194.701 25.3903C194.443 25.1906 194.302 25.0634 194.217 24.946C194.147 24.8504 194.107 24.7504 194.101 24.5792C194.094 24.3865 194.13 24.1111 194.236 23.6767C194.341 23.2469 194.503 22.698 194.727 21.9679L195.253 20.2524L196.101 21.1726C196.495 21.5997 196.873 22.0171 197.164 22.3451C197.309 22.5092 197.432 22.6496 197.523 22.757C197.569 22.8108 197.606 22.8548 197.633 22.8886C197.639 22.8954 197.644 22.9015 197.648 22.9068C197.645 22.9348 197.636 22.9841 197.614 23.063C197.545 23.3153 197.384 23.7259 197.078 24.4523C196.875 24.9321 196.698 25.3811 196.576 25.7193C196.516 25.887 196.466 26.0349 196.434 26.1485C196.418 26.2032 196.402 26.2633 196.393 26.3191C196.388 26.3451 196.382 26.3888 196.382 26.439C196.382 26.464 196.384 26.5062 196.395 26.5563C196.405 26.6002 196.432 26.6966 196.513 26.7882C196.602 26.8874 196.706 26.9258 196.764 26.9413C196.824 26.9573 196.875 26.9592 196.905 26.959C196.964 26.9587 197.014 26.9489 197.041 26.943C197.099 26.9302 197.159 26.9102 197.211 26.8916C197.318 26.8526 197.456 26.7941 197.611 26.724C197.923 26.5825 198.336 26.3782 198.778 26.145L200.125 25.4333L201.413 26.124C202.126 26.5064 202.602 26.7504 202.903 26.8734C203.037 26.9278 203.209 26.9912 203.374 26.9922C203.464 26.9928 203.633 26.9756 203.778 26.8415C203.931 26.7001 203.958 26.5228 203.958 26.4214C203.958 26.3611 203.946 26.3128 203.944 26.3026L203.944 26.3016C203.939 26.2835 203.935 26.2681 203.932 26.2583C203.926 26.2379 203.918 26.2176 203.912 26.2004C203.899 26.1649 203.882 26.1206 203.862 26.0712C203.822 25.9711 203.765 25.8347 203.696 25.6729C203.559 25.3486 203.369 24.9139 203.161 24.4464L202.539 23.0484L203.901 21.5214C204.305 21.0688 204.68 20.6697 204.968 20.383C204.976 20.408 204.984 20.4337 204.992 20.4599C205.133 20.9001 205.314 21.4934 205.502 22.1328C205.812 23.1851 206.099 24.1516 206.212 24.5247C206.193 24.5591 206.168 24.6021 206.135 24.6535C206.024 24.828 205.857 25.055 205.66 25.2871C205.445 25.5412 205.254 25.7867 205.12 25.9802C205.054 26.0748 204.993 26.1687 204.95 26.2505C204.93 26.2885 204.902 26.3452 204.882 26.4093C204.873 26.4401 204.858 26.4976 204.857 26.569C204.857 26.6336 204.867 26.7855 204.988 26.9213C205.08 27.0239 205.188 27.0587 205.213 27.0671L205.214 27.0672C205.255 27.0807 205.291 27.0866 205.311 27.0895C205.352 27.0955 205.391 27.0969 205.419 27.0974C205.476 27.0983 205.545 27.0956 205.617 27.0912C205.764 27.0822 205.963 27.0639 206.198 27.0385C206.67 26.9875 207.306 26.9059 207.994 26.806L210.48 26.4451L210.919 26.3812L210.908 25.937L210.834 23.1928C210.791 21.57 210.726 20.5977 210.585 19.7658C210.697 19.9268 210.814 20.0977 210.936 20.2774C211.836 21.6052 212.974 23.3846 213.994 25.0941C214.666 26.2179 215.293 27.2411 215.763 27.9847C215.997 28.3558 216.195 28.6607 216.34 28.8745C216.412 28.9804 216.476 29.0702 216.526 29.1363C216.527 29.137 216.527 29.1377 216.528 29.1384C216.523 29.1426 216.518 29.1468 216.513 29.1511C216.345 29.2956 216.093 29.4777 215.784 29.6769C215.167 30.0743 214.369 30.5089 213.656 30.8113C212.999 31.09 211.717 31.514 210.823 31.7462C210.366 31.865 209.946 31.977 209.636 32.0617C209.482 32.1039 209.353 32.1399 209.261 32.1669C209.215 32.1802 209.175 32.1923 209.144 32.2023C209.129 32.2071 209.111 32.2131 209.093 32.2197C209.085 32.2228 209.07 32.2284 209.054 32.236C209.045 32.2398 209.031 32.2466 209.014 32.256C209.003 32.2622 208.963 32.2845 208.92 32.3232C208.812 32.4213 208.78 32.5368 208.774 32.5608L208.773 32.5621C208.762 32.6024 208.759 32.6356 208.757 32.6512C208.754 32.6843 208.755 32.7119 208.755 32.7239C208.756 32.7517 208.758 32.7791 208.76 32.7991C208.765 32.8422 208.772 32.8974 208.782 32.9591C208.8 33.0846 208.829 33.2601 208.865 33.471C208.937 33.8939 209.042 34.4706 209.161 35.0996C209.279 35.7225 209.386 36.3359 209.464 36.8214C209.503 37.0644 209.534 37.2732 209.555 37.4339C209.565 37.5145 209.573 37.5806 209.578 37.6318C209.581 37.6574 209.583 37.6776 209.584 37.693C209.585 37.7074 209.585 37.7141 209.585 37.7151C209.585 37.7152 209.585 37.7152 209.585 37.7151C209.585 37.7142 209.585 37.7142 209.585 37.7153C209.582 37.726 209.56 37.8364 209.331 38.1562C209.095 38.4861 208.699 38.9602 208.065 39.6799L206.42 41.5465L206.077 41.9355L206.478 42.264L207.756 43.3106C208.103 43.5945 208.423 43.8689 208.658 44.0812C208.745 44.1594 208.818 44.2272 208.875 44.2828C208.867 44.3103 208.858 44.341 208.848 44.3751C208.784 44.5847 208.683 44.8861 208.544 45.2735C208.266 46.0464 207.85 47.1387 207.321 48.4766L207.22 48.7331L206.158 48.4655C205.743 48.3612 205.358 48.2724 205.069 48.2133C204.926 48.184 204.8 48.1607 204.705 48.1468C204.658 48.14 204.607 48.1337 204.56 48.1313C204.539 48.1303 204.5 48.129 204.457 48.1335C204.435 48.1357 204.396 48.1408 204.351 48.155C204.315 48.166 204.212 48.2012 204.122 48.3016C204.077 48.3519 204.052 48.4006 204.046 48.4129L204.046 48.4136C204.035 48.4334 204.028 48.4508 204.024 48.4618C204.015 48.4843 204.007 48.5064 204.001 48.5234C203.99 48.559 203.977 48.6022 203.964 48.6485C203.938 48.7427 203.905 48.8705 203.867 49.0211C203.792 49.3234 203.696 49.7296 203.598 50.1676C203.402 51.0384 203.179 52.0203 203.101 52.3498L203.05 52.5678H200.097H197.15L196.754 50.7474C196.621 50.1379 196.498 49.5799 196.407 49.1718C196.361 48.9679 196.323 48.8006 196.296 48.6826C196.282 48.6239 196.271 48.5758 196.262 48.541C196.258 48.524 196.254 48.5072 196.25 48.493C196.248 48.4864 196.245 48.476 196.242 48.4647C196.24 48.4594 196.237 48.4489 196.232 48.4362C196.23 48.4299 196.226 48.4192 196.22 48.4063C196.216 48.3969 196.203 48.3689 196.182 48.3361ZM197.65 22.876C197.65 22.8759 197.65 22.8778 197.65 22.8824C197.649 22.8785 197.649 22.8762 197.65 22.876Z" fill="#800080" stroke="black"/>
</g>
<g clip-path="url(#clip2_0_1)">
<path d="M183.113 507.54C183.113 507.364 183.113 507.188 183.142 507.005C183.314 506.79 183.47 506.592 183.598 506.373C184.841 504.238 186.024 502.055 187.339 499.977C188.35 498.38 189.526 496.914 190.629 495.39C190.686 495.419 190.742 495.449 190.798 495.478C189.941 498.2 189.715 500.993 189.932 503.88C191.554 504.11 193.151 504.336 194.749 504.561C194.779 504.478 194.809 504.395 194.839 504.312C194.676 504.17 194.52 504.012 194.347 503.887C193.368 503.177 193.292 502.298 193.745 501.134C194.25 499.835 194.582 498.452 195.014 497.024C196.07 498.205 197.056 499.334 198.072 500.428C198.356 500.733 198.369 500.961 198.197 501.338C197.746 502.327 197.339 503.341 196.884 504.361C196.852 504.406 196.851 504.436 196.849 504.467C196.898 504.461 196.947 504.455 197.034 504.434C197.965 503.922 198.851 503.407 199.758 502.944C199.959 502.841 200.271 502.835 200.47 502.936C201.279 503.347 202.063 503.82 202.86 504.261C203.004 504.341 203.166 504.381 203.445 504.487C202.856 503.161 202.339 501.999 201.857 500.916C203.004 499.634 204.108 498.4 205.238 497.138C205.763 498.913 206.302 500.711 206.815 502.519C206.853 502.656 206.74 502.897 206.635 503.025C206.225 503.525 205.79 503.999 205.364 504.482C205.389 504.518 205.414 504.555 205.438 504.592C207.063 504.348 208.688 504.105 210.301 503.863C210.499 500.977 210.285 498.234 209.471 495.554C209.49 495.538 209.525 495.5 209.563 495.506C210.488 496.681 211.458 497.785 212.242 499.034C213.804 501.524 215.262 504.095 216.771 506.627C216.844 506.75 216.997 506.815 217.113 506.907C217.113 507.083 217.113 507.259 217.087 507.441C215.314 508.946 213.289 509.729 211.177 510.28C210.56 510.441 209.937 510.576 209.301 510.726C209.615 512.384 209.931 513.979 210.207 515.584C210.247 515.816 210.16 516.16 210.017 516.334C209.431 517.05 208.803 517.722 208.185 518.405C207.761 518.872 207.329 519.33 206.89 519.803C207.779 520.551 208.581 521.212 209.363 521.901C209.47 521.995 209.561 522.272 209.514 522.397C208.886 524.077 208.232 525.745 207.583 527.422C206.555 527.168 205.566 526.925 204.539 526.672C204.194 528.196 203.85 529.711 203.509 531.217C201.221 531.217 198.994 531.217 196.718 531.217C196.376 529.711 196.034 528.202 195.688 526.676C194.634 526.932 193.638 527.173 192.625 527.419C191.936 525.618 191.266 523.867 190.594 522.109C191.505 521.343 192.385 520.602 193.312 519.822C192.257 518.645 191.237 517.494 190.202 516.361C189.993 516.132 189.923 515.938 189.991 515.599C190.32 513.986 190.613 512.364 190.921 510.735C190.137 510.538 189.382 510.367 188.635 510.158C186.769 509.635 184.949 508.991 183.422 507.599C183.352 507.535 183.218 507.558 183.113 507.54Z" fill="#FDFDFD"/>
<path d="M196.976 504.423C196.947 504.455 196.898 504.461 196.849 504.467C196.851 504.436 196.852 504.406 196.884 504.361C196.929 504.362 196.943 504.379 196.976 504.423Z" fill="black"/>
<path d="M209.471 495.554C209.472 495.527 209.492 495.485 209.519 495.471C209.525 495.5 209.49 495.538 209.471 495.554Z" fill="#FDFDFD"/>
<path d="M196.182 526.336L196.182 526.336C196.094 526.201 195.97 526.152 195.933 526.138C195.883 526.12 195.841 526.114 195.821 526.111C195.78 526.106 195.746 526.107 195.734 526.108C195.703 526.109 195.676 526.112 195.661 526.114C195.626 526.119 195.584 526.126 195.542 526.134C195.454 526.151 195.334 526.176 195.192 526.207C194.906 526.269 194.517 526.359 194.093 526.461L192.99 526.727L192.194 524.627C191.932 523.938 191.695 523.301 191.524 522.829C191.448 522.619 191.385 522.444 191.34 522.312C191.384 522.27 191.437 522.221 191.496 522.167C191.725 521.958 192.044 521.682 192.396 521.389C192.757 521.088 193.087 520.802 193.329 520.582C193.449 520.472 193.552 520.375 193.627 520.298C193.664 520.261 193.701 520.221 193.732 520.183C193.747 520.165 193.769 520.138 193.79 520.104C193.801 520.087 193.817 520.059 193.832 520.024C193.844 519.996 193.873 519.922 193.873 519.823C193.873 519.715 193.837 519.634 193.83 519.618L193.829 519.617C193.817 519.588 193.804 519.564 193.796 519.551C193.779 519.523 193.761 519.496 193.747 519.476C193.716 519.433 193.677 519.381 193.632 519.324C193.542 519.21 193.414 519.055 193.26 518.874C192.951 518.509 192.527 518.023 192.062 517.501L190.543 515.799L190.956 513.652C191.082 512.993 191.198 512.365 191.281 511.885C191.323 511.645 191.358 511.44 191.382 511.285C191.402 511.155 191.424 511.008 191.424 510.927C191.424 510.609 191.183 510.431 191.094 510.37C190.971 510.286 190.811 510.212 190.636 510.142C190.277 509.999 189.733 509.83 188.97 509.615C187.092 509.085 186.013 508.607 184.02 507.413C183.923 507.355 183.833 507.296 183.757 507.243C183.852 507.064 183.986 506.828 184.134 506.58C184.444 506.062 185.508 504.262 186.499 502.58C187.231 501.336 188.321 499.648 189.243 498.288C189.391 498.07 189.535 497.861 189.671 497.664C189.418 499.057 189.271 500.636 189.273 502.001C189.273 502.128 189.273 502.251 189.272 502.368C189.27 502.705 189.268 502.997 189.289 503.228C189.317 503.552 189.396 503.895 189.684 504.156C189.943 504.39 190.301 504.488 190.67 504.561C190.951 504.616 191.31 504.666 191.746 504.728C191.904 504.75 192.072 504.774 192.25 504.8C192.912 504.896 193.53 504.974 193.993 505.022C194.224 505.046 194.422 505.064 194.57 505.072C194.643 505.076 194.713 505.078 194.772 505.077C194.8 505.076 194.837 505.074 194.876 505.069C194.895 505.066 194.924 505.062 194.957 505.053C194.983 505.045 195.049 505.026 195.118 504.978C195.217 504.91 195.36 504.786 195.421 504.581C195.486 504.362 195.422 504.167 195.348 504.036C195.278 503.911 195.177 503.801 195.078 503.708C194.975 503.61 194.848 503.504 194.701 503.39C194.443 503.191 194.302 503.063 194.217 502.946C194.147 502.85 194.107 502.75 194.101 502.579C194.094 502.386 194.13 502.111 194.236 501.677C194.341 501.247 194.503 500.698 194.727 499.968L195.253 498.252L196.101 499.173C196.495 499.6 196.873 500.017 197.164 500.345C197.309 500.509 197.432 500.65 197.523 500.757C197.569 500.811 197.606 500.855 197.633 500.889C197.639 500.895 197.644 500.901 197.648 500.907C197.645 500.935 197.636 500.984 197.614 501.063C197.545 501.315 197.384 501.726 197.078 502.452C196.875 502.932 196.698 503.381 196.576 503.719C196.516 503.887 196.466 504.035 196.434 504.148C196.418 504.203 196.402 504.263 196.393 504.319C196.388 504.345 196.382 504.389 196.382 504.439C196.382 504.464 196.384 504.506 196.395 504.556C196.405 504.6 196.432 504.697 196.513 504.788C196.602 504.887 196.706 504.926 196.764 504.941C196.824 504.957 196.875 504.959 196.905 504.959C196.964 504.959 197.014 504.949 197.041 504.943C197.099 504.93 197.159 504.91 197.211 504.892C197.318 504.853 197.456 504.794 197.611 504.724C197.923 504.583 198.336 504.378 198.778 504.145L200.125 503.433L201.413 504.124C202.126 504.506 202.602 504.75 202.903 504.873C203.037 504.928 203.209 504.991 203.374 504.992C203.464 504.993 203.633 504.976 203.778 504.842C203.931 504.7 203.958 504.523 203.958 504.421C203.958 504.361 203.946 504.313 203.944 504.303L203.944 504.302C203.939 504.284 203.935 504.268 203.932 504.258C203.926 504.238 203.918 504.218 203.912 504.2C203.899 504.165 203.882 504.121 203.862 504.071C203.822 503.971 203.765 503.835 203.696 503.673C203.559 503.349 203.369 502.914 203.161 502.446L202.539 501.048L203.901 499.521C204.305 499.069 204.68 498.67 204.968 498.383C204.976 498.408 204.984 498.434 204.992 498.46C205.133 498.9 205.314 499.493 205.502 500.133C205.812 501.185 206.099 502.152 206.212 502.525C206.193 502.559 206.168 502.602 206.135 502.654C206.024 502.828 205.857 503.055 205.66 503.287C205.445 503.541 205.254 503.787 205.12 503.98C205.054 504.075 204.993 504.169 204.95 504.251C204.93 504.288 204.902 504.345 204.882 504.409C204.873 504.44 204.858 504.498 204.857 504.569C204.857 504.634 204.867 504.785 204.988 504.921C205.08 505.024 205.188 505.059 205.213 505.067L205.214 505.067C205.255 505.081 205.291 505.087 205.311 505.09C205.352 505.095 205.391 505.097 205.419 505.097C205.476 505.098 205.545 505.096 205.617 505.091C205.764 505.082 205.963 505.064 206.198 505.038C206.67 504.988 207.306 504.906 207.994 504.806L210.48 504.445L210.919 504.381L210.908 503.937L210.834 501.193C210.791 499.57 210.726 498.598 210.585 497.766C210.697 497.927 210.814 498.098 210.936 498.277C211.836 499.605 212.974 501.385 213.994 503.094C214.666 504.218 215.293 505.241 215.763 505.985C215.997 506.356 216.195 506.661 216.34 506.875C216.412 506.98 216.476 507.07 216.526 507.136C216.527 507.137 216.527 507.138 216.528 507.138C216.523 507.143 216.518 507.147 216.513 507.151C216.345 507.296 216.093 507.478 215.784 507.677C215.167 508.074 214.369 508.509 213.656 508.811C212.999 509.09 211.717 509.514 210.823 509.746C210.366 509.865 209.946 509.977 209.636 510.062C209.482 510.104 209.353 510.14 209.261 510.167C209.215 510.18 209.175 510.192 209.144 510.202C209.129 510.207 209.111 510.213 209.093 510.22C209.085 510.223 209.07 510.228 209.054 510.236C209.045 510.24 209.031 510.247 209.014 510.256C209.003 510.262 208.963 510.284 208.92 510.323C208.812 510.421 208.78 510.537 208.774 510.561L208.773 510.562C208.762 510.602 208.759 510.636 208.757 510.651C208.754 510.684 208.755 510.712 208.755 510.724C208.756 510.752 208.758 510.779 208.76 510.799C208.765 510.842 208.772 510.897 208.782 510.959C208.8 511.085 208.829 511.26 208.865 511.471C208.937 511.894 209.042 512.471 209.161 513.1C209.279 513.723 209.386 514.336 209.464 514.821C209.503 515.064 209.534 515.273 209.555 515.434C209.565 515.514 209.573 515.581 209.578 515.632C209.581 515.657 209.583 515.678 209.584 515.693C209.585 515.707 209.585 515.714 209.585 515.715C209.585 515.715 209.585 515.715 209.585 515.715C209.585 515.714 209.585 515.714 209.585 515.715C209.582 515.726 209.56 515.836 209.331 516.156C209.095 516.486 208.699 516.96 208.065 517.68L206.42 519.547L206.077 519.936L206.478 520.264L207.756 521.311C208.103 521.594 208.423 521.869 208.658 522.081C208.745 522.159 208.818 522.227 208.875 522.283C208.867 522.31 208.858 522.341 208.848 522.375C208.784 522.585 208.683 522.886 208.544 523.273C208.266 524.046 207.85 525.139 207.321 526.477L207.22 526.733L206.158 526.466C205.743 526.361 205.358 526.272 205.069 526.213C204.926 526.184 204.8 526.161 204.705 526.147C204.658 526.14 204.607 526.134 204.56 526.131C204.539 526.13 204.5 526.129 204.457 526.134C204.435 526.136 204.396 526.141 204.351 526.155C204.315 526.166 204.212 526.201 204.122 526.302C204.077 526.352 204.052 526.401 204.046 526.413L204.046 526.414C204.035 526.433 204.028 526.451 204.024 526.462C204.015 526.484 204.007 526.506 204.001 526.523C203.99 526.559 203.977 526.602 203.964 526.649C203.938 526.743 203.905 526.871 203.867 527.021C203.792 527.323 203.696 527.73 203.598 528.168C203.402 529.038 203.179 530.02 203.101 530.35L203.05 530.568H200.097H197.15L196.754 528.747C196.621 528.138 196.498 527.58 196.407 527.172C196.361 526.968 196.323 526.801 196.296 526.683C196.282 526.624 196.271 526.576 196.262 526.541C196.258 526.524 196.254 526.507 196.25 526.493C196.248 526.486 196.245 526.476 196.242 526.465C196.24 526.459 196.237 526.449 196.232 526.436C196.23 526.43 196.226 526.419 196.22 526.406C196.216 526.397 196.203 526.369 196.182 526.336ZM197.65 500.876C197.65 500.876 197.65 500.878 197.65 500.882C197.649 500.878 197.649 500.876 197.65 500.876Z" fill="#800080" stroke="black"/>
</g>
<g filter="url(#filter1_d_0_1)">
<mask id="path-15-outside-1_0_1" maskUnits="userSpaceOnUse" x="160" y="248" width="81" height="94" fill="black">
<rect fill="white" x="160" y="248" width="81" height="94"/>
<path d="M237.117 252.691C237.117 258.004 236.434 262.75 235.066 266.93C233.699 271.07 232 275.055 229.969 278.883C227.938 282.711 225.711 286.578 223.289 290.484C220.906 294.352 218.699 298.609 216.668 303.258C214.637 307.867 212.938 313.082 211.57 318.902C210.203 324.684 209.52 331.383 209.52 339H177C177 332.672 177.488 327.184 178.465 322.535C179.48 317.848 180.867 313.688 182.625 310.055C184.383 306.383 186.473 303.121 188.895 300.27C191.355 297.379 194.012 294.605 196.863 291.949C199.715 289.254 202.703 286.5 205.828 283.688C208.992 280.875 212.176 277.75 215.379 274.312L214.91 273.844C213.23 275.367 211.512 276.578 209.754 277.477C207.996 278.336 206.16 278.766 204.246 278.766C202.957 278.766 201.531 278.609 199.969 278.297C198.406 277.984 196.863 277.613 195.34 277.184C193.816 276.715 192.449 276.324 191.238 276.012C190.066 275.699 189.246 275.543 188.777 275.543C187.957 275.543 187.137 275.641 186.316 275.836C185.535 276.031 184.793 276.539 184.09 277.359C183.426 278.141 182.898 279.293 182.508 280.816C182.117 282.34 181.922 284.41 181.922 287.027H163.816V252.691H181.922V258.141C182.898 256.461 184.383 254.938 186.375 253.57C188.367 252.203 191.277 251.52 195.105 251.52C197.371 251.52 199.539 251.793 201.609 252.34C203.68 252.848 205.672 253.395 207.586 253.98C209.5 254.566 211.336 255.113 213.094 255.621C214.891 256.09 216.492 256.324 217.898 256.324C219.188 256.324 220.457 255.992 221.707 255.328C222.957 254.625 223.777 253.746 224.168 252.691H237.117Z"/>
</mask>
<path d="M237.117 252.691C237.117 258.004 236.434 262.75 235.066 266.93C233.699 271.07 232 275.055 229.969 278.883C227.938 282.711 225.711 286.578 223.289 290.484C220.906 294.352 218.699 298.609 216.668 303.258C214.637 307.867 212.938 313.082 211.57 318.902C210.203 324.684 209.52 331.383 209.52 339H177C177 332.672 177.488 327.184 178.465 322.535C179.48 317.848 180.867 313.688 182.625 310.055C184.383 306.383 186.473 303.121 188.895 300.27C191.355 297.379 194.012 294.605 196.863 291.949C199.715 289.254 202.703 286.5 205.828 283.688C208.992 280.875 212.176 277.75 215.379 274.312L214.91 273.844C213.23 275.367 211.512 276.578 209.754 277.477C207.996 278.336 206.16 278.766 204.246 278.766C202.957 278.766 201.531 278.609 199.969 278.297C198.406 277.984 196.863 277.613 195.34 277.184C193.816 276.715 192.449 276.324 191.238 276.012C190.066 275.699 189.246 275.543 188.777 275.543C187.957 275.543 187.137 275.641 186.316 275.836C185.535 276.031 184.793 276.539 184.09 277.359C183.426 278.141 182.898 279.293 182.508 280.816C182.117 282.34 181.922 284.41 181.922 287.027H163.816V252.691H181.922V258.141C182.898 256.461 184.383 254.938 186.375 253.57C188.367 252.203 191.277 251.52 195.105 251.52C197.371 251.52 199.539 251.793 201.609 252.34C203.68 252.848 205.672 253.395 207.586 253.98C209.5 254.566 211.336 255.113 213.094 255.621C214.891 256.09 216.492 256.324 217.898 256.324C219.188 256.324 220.457 255.992 221.707 255.328C222.957 254.625 223.777 253.746 224.168 252.691H237.117Z" fill="#b39ab1"/>
<path d="M237.117 252.691H240.117V249.691H237.117V252.691ZM235.066 266.93L237.915 267.87L237.918 267.862L235.066 266.93ZM229.969 278.883L227.319 277.477L229.969 278.883ZM223.289 290.484L220.739 288.904L220.735 288.911L223.289 290.484ZM216.668 303.258L219.413 304.468L219.417 304.459L216.668 303.258ZM211.57 318.902L214.49 319.593L214.491 319.588L211.57 318.902ZM209.52 339V342H212.52V339H209.52ZM177 339H174V342H177V339ZM178.465 322.535L175.533 321.9L175.531 321.909L175.529 321.918L178.465 322.535ZM182.625 310.055L185.326 311.361L185.331 311.35L182.625 310.055ZM188.895 300.27L186.61 298.325L186.608 298.327L188.895 300.27ZM196.863 291.949L198.908 294.144L198.916 294.137L198.924 294.129L196.863 291.949ZM205.828 283.688L203.835 281.445L203.828 281.451L203.821 281.458L205.828 283.688ZM215.379 274.312L217.574 276.358L219.548 274.239L217.5 272.191L215.379 274.312ZM214.91 273.844L217.031 271.722L215.011 269.702L212.895 271.622L214.91 273.844ZM209.754 277.477L211.072 280.172L211.095 280.16L211.119 280.148L209.754 277.477ZM195.34 277.184L194.458 280.051L194.491 280.061L194.525 280.071L195.34 277.184ZM191.238 276.012L190.465 278.91L190.477 278.914L190.489 278.917L191.238 276.012ZM186.316 275.836L185.622 272.918L185.605 272.921L185.589 272.926L186.316 275.836ZM184.09 277.359L181.812 275.407L181.804 275.416L184.09 277.359ZM181.922 287.027V290.027H184.922V287.027H181.922ZM163.816 287.027H160.816V290.027H163.816V287.027ZM163.816 252.691V249.691H160.816V252.691H163.816ZM181.922 252.691H184.922V249.691H181.922V252.691ZM181.922 258.141H178.922V269.269L184.515 259.648L181.922 258.141ZM201.609 252.34L200.843 255.24L200.869 255.247L200.895 255.253L201.609 252.34ZM213.094 255.621L212.261 258.503L212.299 258.514L212.336 258.524L213.094 255.621ZM221.707 255.328L223.114 257.977L223.146 257.961L223.178 257.943L221.707 255.328ZM224.168 252.691V249.691H222.08L221.355 251.649L224.168 252.691ZM234.117 252.691C234.117 257.751 233.466 262.174 232.215 265.997L237.918 267.862C239.401 263.326 240.117 258.257 240.117 252.691H234.117ZM232.218 265.989C230.903 269.97 229.27 273.799 227.319 277.477L232.619 280.289C234.73 276.311 236.495 272.17 237.915 267.87L232.218 265.989ZM227.319 277.477C225.321 281.242 223.128 285.051 220.739 288.904L225.839 292.065C228.294 288.105 230.554 284.18 232.619 280.289L227.319 277.477ZM220.735 288.911C218.271 292.91 216 297.294 213.919 302.057L219.417 304.459C221.398 299.925 223.542 295.793 225.843 292.058L220.735 288.911ZM213.923 302.048C211.805 306.854 210.052 312.249 208.65 318.216L214.491 319.588C215.823 313.915 217.469 308.88 219.413 304.468L213.923 302.048ZM208.651 318.212C207.218 324.272 206.52 331.212 206.52 339H212.52C212.52 331.554 213.189 325.095 214.49 319.593L208.651 318.212ZM209.52 336H177V342H209.52V336ZM180 339C180 332.815 180.478 327.543 181.401 323.152L175.529 321.918C174.498 326.824 174 332.528 174 339H180ZM181.397 323.17C182.371 318.673 183.688 314.745 185.325 311.361L179.925 308.748C178.046 312.63 176.59 317.022 175.533 321.9L181.397 323.17ZM185.331 311.35C186.987 307.891 188.94 304.85 191.181 302.212L186.608 298.327C184.005 301.392 181.779 304.875 179.919 308.759L185.331 311.35ZM191.179 302.214C193.563 299.414 196.139 296.724 198.908 294.144L194.818 289.754C191.885 292.487 189.148 295.344 186.61 298.325L191.179 302.214ZM198.924 294.129C201.757 291.452 204.727 288.715 207.835 285.917L203.821 281.458C200.679 284.285 197.673 287.056 194.803 289.769L198.924 294.129ZM207.821 285.93C211.063 283.048 214.313 279.857 217.574 276.358L213.184 272.267C210.038 275.643 206.922 278.702 203.835 281.445L207.821 285.93ZM217.5 272.191L217.031 271.722L212.789 275.965L213.258 276.434L217.5 272.191ZM212.895 271.622C211.383 272.993 209.879 274.044 208.389 274.805L211.119 280.148C213.145 279.113 215.078 277.741 216.926 276.066L212.895 271.622ZM208.436 274.781C207.079 275.445 205.693 275.766 204.246 275.766V281.766C206.627 281.766 208.913 281.227 211.072 280.172L208.436 274.781ZM204.246 275.766C203.194 275.766 201.969 275.638 200.557 275.355L199.38 281.239C201.093 281.581 202.72 281.766 204.246 281.766V275.766ZM200.557 275.355C199.07 275.058 197.603 274.705 196.154 274.296L194.525 280.071C196.124 280.522 197.742 280.911 199.38 281.239L200.557 275.355ZM196.222 274.316C194.666 273.837 193.253 273.433 191.988 273.107L190.489 278.917C191.645 279.215 192.967 279.592 194.458 280.051L196.222 274.316ZM192.011 273.113C190.863 272.807 189.689 272.543 188.777 272.543V278.543C188.732 278.543 188.838 278.542 189.183 278.607C189.498 278.667 189.921 278.765 190.465 278.91L192.011 273.113ZM188.777 272.543C187.717 272.543 186.663 272.67 185.622 272.918L187.011 278.754C187.61 278.612 188.198 278.543 188.777 278.543V272.543ZM185.589 272.926C184.029 273.316 182.784 274.273 181.812 275.407L186.368 279.312C186.802 278.805 187.042 278.747 187.044 278.746L185.589 272.926ZM181.804 275.416C180.73 276.681 180.051 278.32 179.602 280.071L185.414 281.562C185.746 280.266 186.122 279.601 186.376 279.302L181.804 275.416ZM179.602 280.071C179.121 281.946 178.922 284.301 178.922 287.027H184.922C184.922 284.519 185.113 282.734 185.414 281.562L179.602 280.071ZM181.922 284.027H163.816V290.027H181.922V284.027ZM166.816 287.027V252.691H160.816V287.027H166.816ZM163.816 255.691H181.922V249.691H163.816V255.691ZM178.922 252.691V258.141H184.922V252.691H178.922ZM184.515 259.648C185.221 258.435 186.36 257.219 188.073 256.044L184.677 251.097C182.406 252.656 180.576 254.487 179.328 256.633L184.515 259.648ZM188.073 256.044C189.351 255.167 191.557 254.52 195.105 254.52V248.52C190.997 248.52 187.384 249.24 184.677 251.097L188.073 256.044ZM195.105 254.52C197.127 254.52 199.037 254.763 200.843 255.24L202.376 249.439C200.041 248.823 197.615 248.52 195.105 248.52V254.52ZM200.895 255.253C202.914 255.749 204.851 256.281 206.708 256.849L208.464 251.112C206.493 250.508 204.446 249.947 202.324 249.426L200.895 255.253ZM206.708 256.849C208.636 257.439 210.487 257.991 212.261 258.503L213.926 252.739C212.185 252.236 210.364 251.694 208.464 251.112L206.708 256.849ZM212.336 258.524C214.307 259.038 216.17 259.324 217.898 259.324V253.324C216.814 253.324 215.475 253.142 213.851 252.718L212.336 258.524ZM217.898 259.324C219.725 259.324 221.474 258.849 223.114 257.977L220.3 252.679C219.44 253.136 218.65 253.324 217.898 253.324V259.324ZM223.178 257.943C224.873 256.989 226.282 255.621 226.981 253.733L221.355 251.649C221.273 251.871 221.041 252.261 220.236 252.713L223.178 257.943ZM224.168 255.691H237.117V249.691H224.168V255.691Z" fill="black" mask="url(#path-15-outside-1_0_1)"/>
<mask id="path-17-outside-2_0_1" maskUnits="userSpaceOnUse" x="340" y="21" width="45" height="51" fill="black">
<rect fill="white" x="340" y="21" width="45" height="51"/>
<path d="M382.062 23.9688C382.062 26.8021 381.698 29.3333 380.969 31.5625C380.24 33.7708 379.333 35.8958 378.25 37.9375C377.167 39.9792 375.979 42.0417 374.688 44.125C373.417 46.1875 372.24 48.4583 371.156 50.9375C370.073 53.3958 369.167 56.1771 368.438 59.2812C367.708 62.3646 367.344 65.9375 367.344 70H350C350 66.625 350.26 63.6979 350.781 61.2188C351.323 58.7188 352.062 56.5 353 54.5625C353.938 52.6042 355.052 50.8646 356.344 49.3438C357.656 47.8021 359.073 46.3229 360.594 44.9062C362.115 43.4688 363.708 42 365.375 40.5C367.062 39 368.76 37.3333 370.469 35.5L370.219 35.25C369.323 36.0625 368.406 36.7083 367.469 37.1875C366.531 37.6458 365.552 37.875 364.531 37.875C363.844 37.875 363.083 37.7917 362.25 37.625C361.417 37.4583 360.594 37.2604 359.781 37.0312C358.969 36.7812 358.24 36.5729 357.594 36.4062C356.969 36.2396 356.531 36.1562 356.281 36.1562C355.844 36.1562 355.406 36.2083 354.969 36.3125C354.552 36.4167 354.156 36.6875 353.781 37.125C353.427 37.5417 353.146 38.1562 352.938 38.9688C352.729 39.7812 352.625 40.8854 352.625 42.2812H342.969V23.9688H352.625V26.875C353.146 25.9792 353.938 25.1667 355 24.4375C356.062 23.7083 357.615 23.3438 359.656 23.3438C360.865 23.3438 362.021 23.4896 363.125 23.7812C364.229 24.0521 365.292 24.3438 366.312 24.6562C367.333 24.9688 368.312 25.2604 369.25 25.5312C370.208 25.7812 371.062 25.9062 371.812 25.9062C372.5 25.9062 373.177 25.7292 373.844 25.375C374.51 25 374.948 24.5312 375.156 23.9688H382.062Z"/>
</mask>
<path d="M382.062 23.9688C382.062 26.8021 381.698 29.3333 380.969 31.5625C380.24 33.7708 379.333 35.8958 378.25 37.9375C377.167 39.9792 375.979 42.0417 374.688 44.125C373.417 46.1875 372.24 48.4583 371.156 50.9375C370.073 53.3958 369.167 56.1771 368.438 59.2812C367.708 62.3646 367.344 65.9375 367.344 70H350C350 66.625 350.26 63.6979 350.781 61.2188C351.323 58.7188 352.062 56.5 353 54.5625C353.938 52.6042 355.052 50.8646 356.344 49.3438C357.656 47.8021 359.073 46.3229 360.594 44.9062C362.115 43.4688 363.708 42 365.375 40.5C367.062 39 368.76 37.3333 370.469 35.5L370.219 35.25C369.323 36.0625 368.406 36.7083 367.469 37.1875C366.531 37.6458 365.552 37.875 364.531 37.875C363.844 37.875 363.083 37.7917 362.25 37.625C361.417 37.4583 360.594 37.2604 359.781 37.0312C358.969 36.7812 358.24 36.5729 357.594 36.4062C356.969 36.2396 356.531 36.1562 356.281 36.1562C355.844 36.1562 355.406 36.2083 354.969 36.3125C354.552 36.4167 354.156 36.6875 353.781 37.125C353.427 37.5417 353.146 38.1562 352.938 38.9688C352.729 39.7812 352.625 40.8854 352.625 42.2812H342.969V23.9688H352.625V26.875C353.146 25.9792 353.938 25.1667 355 24.4375C356.062 23.7083 357.615 23.3438 359.656 23.3438C360.865 23.3438 362.021 23.4896 363.125 23.7812C364.229 24.0521 365.292 24.3438 366.312 24.6562C367.333 24.9688 368.312 25.2604 369.25 25.5312C370.208 25.7812 371.062 25.9062 371.812 25.9062C372.5 25.9062 373.177 25.7292 373.844 25.375C374.51 25 374.948 24.5312 375.156 23.9688H382.062Z" fill="#800080"/>
<path d="M382.062 23.9688H384.062V21.9688H382.062V23.9688ZM380.969 31.5625L382.868 32.1896L382.87 32.1843L380.969 31.5625ZM378.25 37.9375L376.483 37.0001L378.25 37.9375ZM374.688 44.125L372.988 43.0711L372.985 43.0758L374.688 44.125ZM371.156 50.9375L372.986 51.744L372.989 51.7383L371.156 50.9375ZM368.438 59.2812L370.384 59.7415L370.385 59.7386L368.438 59.2812ZM367.344 70V72H369.344V70H367.344ZM350 70H348V72H350V70ZM350.781 61.2188L348.827 60.7952L348.824 60.8076L350.781 61.2188ZM353 54.5625L354.8 55.4336L354.804 55.4261L353 54.5625ZM356.344 49.3438L354.821 48.0473L354.819 48.0491L356.344 49.3438ZM360.594 44.9062L361.957 46.3697L361.962 46.3647L361.968 46.3597L360.594 44.9062ZM365.375 40.5L364.046 39.0052L364.037 39.0134L365.375 40.5ZM370.469 35.5L371.932 36.8635L373.248 35.451L371.883 34.0858L370.469 35.5ZM370.219 35.25L371.633 33.8358L370.286 32.4889L368.875 33.7686L370.219 35.25ZM367.469 37.1875L368.347 38.9843L368.363 38.9765L368.379 38.9684L367.469 37.1875ZM359.781 37.0312L359.193 38.9428L359.216 38.9497L359.238 38.9561L359.781 37.0312ZM357.594 36.4062L357.078 38.3387L357.086 38.3408L357.094 38.3428L357.594 36.4062ZM354.969 36.3125L354.506 34.3669L354.495 34.3695L354.484 34.3722L354.969 36.3125ZM353.781 37.125L352.263 35.8234L352.257 35.8297L353.781 37.125ZM352.625 42.2812V44.2812H354.625V42.2812H352.625ZM342.969 42.2812H340.969V44.2812H342.969V42.2812ZM342.969 23.9688V21.9688H340.969V23.9688H342.969ZM352.625 23.9688H354.625V21.9688H352.625V23.9688ZM352.625 26.875H350.625V34.2941L354.354 27.8802L352.625 26.875ZM363.125 23.7812L362.614 25.7149L362.631 25.7195L362.649 25.7237L363.125 23.7812ZM369.25 25.5312L368.695 27.4527L368.72 27.4599L368.745 27.4665L369.25 25.5312ZM373.844 25.375L374.782 27.1412L374.803 27.1299L374.824 27.1182L373.844 25.375ZM375.156 23.9688V21.9688H373.764L373.281 23.2741L375.156 23.9688ZM380.062 23.9688C380.062 26.6333 379.719 28.949 379.068 30.9407L382.87 32.1843C383.676 29.7177 384.062 26.9708 384.062 23.9688H380.062ZM379.07 30.9354C378.376 33.0374 377.513 35.0586 376.483 37.0001L380.017 38.8749C381.153 36.7331 382.104 34.5042 382.868 32.1896L379.07 30.9354ZM376.483 37.0001C375.422 38.9999 374.257 41.0236 372.988 43.0711L376.387 45.1789C377.701 43.0598 378.911 40.9584 380.017 38.8749L376.483 37.0001ZM372.985 43.0758C371.66 45.2266 370.44 47.5815 369.324 50.1367L372.989 51.7383C374.039 49.3351 375.174 47.1484 376.39 45.1742L372.985 43.0758ZM369.326 50.131C368.185 52.7204 367.243 55.6215 366.49 58.8239L370.385 59.7386C371.091 56.7327 371.961 54.0713 372.986 51.744L369.326 50.131ZM366.491 58.821C365.718 62.0905 365.344 65.8236 365.344 70H369.344C369.344 66.0514 369.699 62.6387 370.384 59.7415L366.491 58.821ZM367.344 68H350V72H367.344V68ZM352 70C352 66.7207 352.254 63.9378 352.739 61.6299L348.824 60.8076C348.267 63.458 348 66.5293 348 70H352ZM352.736 61.6423C353.25 59.2689 353.943 57.2048 354.8 55.4336L351.2 53.6914C350.182 55.7952 349.396 58.1686 348.827 60.7952L352.736 61.6423ZM354.804 55.4261C355.674 53.6093 356.697 52.0172 357.868 50.6384L354.819 48.0491C353.407 49.7119 352.201 51.599 351.196 53.6989L354.804 55.4261ZM357.867 50.6402C359.128 49.1588 360.491 47.7352 361.957 46.3697L359.231 43.4428C357.655 44.9106 356.185 46.4454 354.821 48.0473L357.867 50.6402ZM361.968 46.3597C363.476 44.9342 365.058 43.4765 366.713 41.9866L364.037 39.0134C362.359 40.5235 360.753 42.0033 359.22 43.4528L361.968 46.3597ZM366.704 41.9948C368.443 40.4489 370.185 38.7377 371.932 36.8635L369.006 34.1365C367.335 35.9289 365.682 37.5511 364.046 39.0052L366.704 41.9948ZM371.883 34.0858L371.633 33.8358L368.805 36.6642L369.055 36.9142L371.883 34.0858ZM368.875 33.7686C368.091 34.4798 367.318 35.0186 366.559 35.4066L368.379 38.9684C369.495 38.3981 370.555 37.6452 371.562 36.7314L368.875 33.7686ZM366.59 35.3907C365.92 35.7184 365.241 35.875 364.531 35.875V39.875C365.863 39.875 367.142 39.5732 368.347 38.9843L366.59 35.3907ZM364.531 35.875C364.002 35.875 363.375 35.8105 362.642 35.6638L361.858 39.5862C362.791 39.7729 363.686 39.875 364.531 39.875V35.875ZM362.642 35.6638C361.859 35.5072 361.087 35.3214 360.324 35.1064L359.238 38.9561C360.101 39.1994 360.974 39.4094 361.858 39.5862L362.642 35.6638ZM360.369 35.1197C359.535 34.863 358.776 34.6458 358.094 34.4697L357.094 38.3428C357.703 38.5001 358.402 38.6995 359.193 38.9428L360.369 35.1197ZM358.109 34.4738C357.5 34.3113 356.827 34.1562 356.281 34.1562V38.1562C356.22 38.1562 356.248 38.1501 356.423 38.1834C356.578 38.213 356.794 38.2628 357.078 38.3387L358.109 34.4738ZM356.281 34.1562C355.683 34.1562 355.091 34.2276 354.506 34.3669L355.432 38.2581C355.722 38.1891 356.004 38.1562 356.281 38.1562V34.1562ZM354.484 34.3722C353.548 34.6062 352.817 35.1769 352.263 35.8234L355.3 38.4266C355.496 38.1981 355.556 38.2271 355.454 38.2528L354.484 34.3722ZM352.257 35.8297C351.63 36.5683 351.247 37.5076 351 38.472L354.875 39.4655C355.044 38.8049 355.225 38.515 355.305 38.4203L352.257 35.8297ZM351 38.472C350.732 39.5184 350.625 40.8129 350.625 42.2812H354.625C354.625 40.958 354.726 40.0441 354.875 39.4655L351 38.472ZM352.625 40.2812H342.969V44.2812H352.625V40.2812ZM344.969 42.2812V23.9688H340.969V42.2812H344.969ZM342.969 25.9688H352.625V21.9688H342.969V25.9688ZM350.625 23.9688V26.875H354.625V23.9688H350.625ZM354.354 27.8802C354.694 27.2952 355.255 26.6878 356.132 26.0865L353.868 22.7885C352.62 23.6455 351.598 24.6631 350.896 25.8698L354.354 27.8802ZM356.132 26.0865C356.718 25.684 357.801 25.3438 359.656 25.3438V21.3438C357.428 21.3438 355.407 21.7327 353.868 22.7885L356.132 26.0865ZM359.656 25.3438C360.702 25.3438 361.686 25.4698 362.614 25.7149L363.636 21.8476C362.356 21.5094 361.027 21.3438 359.656 21.3438V25.3438ZM362.649 25.7237C363.718 25.9861 364.745 26.2679 365.727 26.5686L366.898 22.7439C365.839 22.4196 364.74 22.1181 363.601 21.8388L362.649 25.7237ZM365.727 26.5686C366.757 26.884 367.746 27.1787 368.695 27.4527L369.805 23.6098C368.879 23.3422 367.91 23.0535 366.898 22.7439L365.727 26.5686ZM368.745 27.4665C369.819 27.7466 370.848 27.9062 371.812 27.9062V23.9062C371.277 23.9062 370.598 23.8159 369.755 23.596L368.745 27.4665ZM371.812 27.9062C372.858 27.9062 373.855 27.6335 374.782 27.1412L372.905 23.6088C372.499 23.8248 372.142 23.9062 371.812 23.9062V27.9062ZM374.824 27.1182C375.788 26.5763 376.618 25.7814 377.032 24.6634L373.281 23.2741C373.278 23.2811 373.233 23.4237 372.863 23.6318L374.824 27.1182ZM375.156 25.9688H382.062V21.9688H375.156V25.9688Z" fill="black" mask="url(#path-17-outside-2_0_1)"/>
<mask id="path-19-outside-3_0_1" maskUnits="userSpaceOnUse" x="340" y="485" width="45" height="51" fill="black">
<rect fill="white" x="340" y="485" width="45" height="51"/>
<path d="M382.062 487.969C382.062 490.802 381.698 493.333 380.969 495.562C380.24 497.771 379.333 499.896 378.25 501.938C377.167 503.979 375.979 506.042 374.688 508.125C373.417 510.188 372.24 512.458 371.156 514.938C370.073 517.396 369.167 520.177 368.438 523.281C367.708 526.365 367.344 529.938 367.344 534H350C350 530.625 350.26 527.698 350.781 525.219C351.323 522.719 352.062 520.5 353 518.562C353.938 516.604 355.052 514.865 356.344 513.344C357.656 511.802 359.073 510.323 360.594 508.906C362.115 507.469 363.708 506 365.375 504.5C367.062 503 368.76 501.333 370.469 499.5L370.219 499.25C369.323 500.062 368.406 500.708 367.469 501.188C366.531 501.646 365.552 501.875 364.531 501.875C363.844 501.875 363.083 501.792 362.25 501.625C361.417 501.458 360.594 501.26 359.781 501.031C358.969 500.781 358.24 500.573 357.594 500.406C356.969 500.24 356.531 500.156 356.281 500.156C355.844 500.156 355.406 500.208 354.969 500.312C354.552 500.417 354.156 500.688 353.781 501.125C353.427 501.542 353.146 502.156 352.938 502.969C352.729 503.781 352.625 504.885 352.625 506.281H342.969V487.969H352.625V490.875C353.146 489.979 353.938 489.167 355 488.438C356.062 487.708 357.615 487.344 359.656 487.344C360.865 487.344 362.021 487.49 363.125 487.781C364.229 488.052 365.292 488.344 366.312 488.656C367.333 488.969 368.312 489.26 369.25 489.531C370.208 489.781 371.062 489.906 371.812 489.906C372.5 489.906 373.177 489.729 373.844 489.375C374.51 489 374.948 488.531 375.156 487.969H382.062Z"/>
</mask>
<path d="M382.062 487.969C382.062 490.802 381.698 493.333 380.969 495.562C380.24 497.771 379.333 499.896 378.25 501.938C377.167 503.979 375.979 506.042 374.688 508.125C373.417 510.188 372.24 512.458 371.156 514.938C370.073 517.396 369.167 520.177 368.438 523.281C367.708 526.365 367.344 529.938 367.344 534H350C350 530.625 350.26 527.698 350.781 525.219C351.323 522.719 352.062 520.5 353 518.562C353.938 516.604 355.052 514.865 356.344 513.344C357.656 511.802 359.073 510.323 360.594 508.906C362.115 507.469 363.708 506 365.375 504.5C367.062 503 368.76 501.333 370.469 499.5L370.219 499.25C369.323 500.062 368.406 500.708 367.469 501.188C366.531 501.646 365.552 501.875 364.531 501.875C363.844 501.875 363.083 501.792 362.25 501.625C361.417 501.458 360.594 501.26 359.781 501.031C358.969 500.781 358.24 500.573 357.594 500.406C356.969 500.24 356.531 500.156 356.281 500.156C355.844 500.156 355.406 500.208 354.969 500.312C354.552 500.417 354.156 500.688 353.781 501.125C353.427 501.542 353.146 502.156 352.938 502.969C352.729 503.781 352.625 504.885 352.625 506.281H342.969V487.969H352.625V490.875C353.146 489.979 353.938 489.167 355 488.438C356.062 487.708 357.615 487.344 359.656 487.344C360.865 487.344 362.021 487.49 363.125 487.781C364.229 488.052 365.292 488.344 366.312 488.656C367.333 488.969 368.312 489.26 369.25 489.531C370.208 489.781 371.062 489.906 371.812 489.906C372.5 489.906 373.177 489.729 373.844 489.375C374.51 489 374.948 488.531 375.156 487.969H382.062Z" fill="#800080"/>
<path d="M382.062 487.969H384.062V485.969H382.062V487.969ZM380.969 495.562L382.868 496.19L382.87 496.184L380.969 495.562ZM378.25 501.938L376.483 501L378.25 501.938ZM374.688 508.125L372.988 507.071L372.985 507.076L374.688 508.125ZM371.156 514.938L372.986 515.744L372.989 515.738L371.156 514.938ZM368.438 523.281L370.384 523.742L370.385 523.739L368.438 523.281ZM367.344 534V536H369.344V534H367.344ZM350 534H348V536H350V534ZM350.781 525.219L348.827 524.795L348.824 524.808L350.781 525.219ZM353 518.562L354.8 519.434L354.804 519.426L353 518.562ZM356.344 513.344L354.821 512.047L354.819 512.049L356.344 513.344ZM360.594 508.906L361.957 510.37L361.962 510.365L361.968 510.36L360.594 508.906ZM365.375 504.5L364.046 503.005L364.037 503.013L365.375 504.5ZM370.469 499.5L371.932 500.863L373.248 499.451L371.883 498.086L370.469 499.5ZM370.219 499.25L371.633 497.836L370.286 496.489L368.875 497.769L370.219 499.25ZM367.469 501.188L368.347 502.984L368.363 502.976L368.379 502.968L367.469 501.188ZM359.781 501.031L359.193 502.943L359.216 502.95L359.238 502.956L359.781 501.031ZM357.594 500.406L357.078 502.339L357.086 502.341L357.094 502.343L357.594 500.406ZM354.969 500.312L354.506 498.367L354.495 498.369L354.484 498.372L354.969 500.312ZM353.781 501.125L352.263 499.823L352.257 499.83L353.781 501.125ZM352.625 506.281V508.281H354.625V506.281H352.625ZM342.969 506.281H340.969V508.281H342.969V506.281ZM342.969 487.969V485.969H340.969V487.969H342.969ZM352.625 487.969H354.625V485.969H352.625V487.969ZM352.625 490.875H350.625V498.294L354.354 491.88L352.625 490.875ZM363.125 487.781L362.614 489.715L362.631 489.719L362.649 489.724L363.125 487.781ZM369.25 489.531L368.695 491.453L368.72 491.46L368.745 491.466L369.25 489.531ZM373.844 489.375L374.782 491.141L374.803 491.13L374.824 491.118L373.844 489.375ZM375.156 487.969V485.969H373.764L373.281 487.274L375.156 487.969ZM380.062 487.969C380.062 490.633 379.719 492.949 379.068 494.941L382.87 496.184C383.676 493.718 384.062 490.971 384.062 487.969H380.062ZM379.07 494.935C378.376 497.037 377.513 499.059 376.483 501L380.017 502.875C381.153 500.733 382.104 498.504 382.868 496.19L379.07 494.935ZM376.483 501C375.422 503 374.257 505.024 372.988 507.071L376.387 509.179C377.701 507.06 378.911 504.958 380.017 502.875L376.483 501ZM372.985 507.076C371.66 509.227 370.44 511.582 369.324 514.137L372.989 515.738C374.039 513.335 375.174 511.148 376.39 509.174L372.985 507.076ZM369.326 514.131C368.185 516.72 367.243 519.621 366.49 522.824L370.385 523.739C371.091 520.733 371.961 518.071 372.986 515.744L369.326 514.131ZM366.491 522.821C365.718 526.09 365.344 529.824 365.344 534H369.344C369.344 530.051 369.699 526.639 370.384 523.742L366.491 522.821ZM367.344 532H350V536H367.344V532ZM352 534C352 530.721 352.254 527.938 352.739 525.63L348.824 524.808C348.267 527.458 348 530.529 348 534H352ZM352.736 525.642C353.25 523.269 353.943 521.205 354.8 519.434L351.2 517.691C350.182 519.795 349.396 522.169 348.827 524.795L352.736 525.642ZM354.804 519.426C355.674 517.609 356.697 516.017 357.868 514.638L354.819 512.049C353.407 513.712 352.201 515.599 351.196 517.699L354.804 519.426ZM357.867 514.64C359.128 513.159 360.491 511.735 361.957 510.37L359.231 507.443C357.655 508.911 356.185 510.445 354.821 512.047L357.867 514.64ZM361.968 510.36C363.476 508.934 365.058 507.476 366.713 505.987L364.037 503.013C362.359 504.524 360.753 506.003 359.22 507.453L361.968 510.36ZM366.704 505.995C368.443 504.449 370.185 502.738 371.932 500.863L369.006 498.137C367.335 499.929 365.682 501.551 364.046 503.005L366.704 505.995ZM371.883 498.086L371.633 497.836L368.805 500.664L369.055 500.914L371.883 498.086ZM368.875 497.769C368.091 498.48 367.318 499.019 366.559 499.407L368.379 502.968C369.495 502.398 370.555 501.645 371.562 500.731L368.875 497.769ZM366.59 499.391C365.92 499.718 365.241 499.875 364.531 499.875V503.875C365.863 503.875 367.142 503.573 368.347 502.984L366.59 499.391ZM364.531 499.875C364.002 499.875 363.375 499.81 362.642 499.664L361.858 503.586C362.791 503.773 363.686 503.875 364.531 503.875V499.875ZM362.642 499.664C361.859 499.507 361.087 499.321 360.324 499.106L359.238 502.956C360.101 503.199 360.974 503.409 361.858 503.586L362.642 499.664ZM360.369 499.12C359.535 498.863 358.776 498.646 358.094 498.47L357.094 502.343C357.703 502.5 358.402 502.7 359.193 502.943L360.369 499.12ZM358.109 498.474C357.5 498.311 356.827 498.156 356.281 498.156V502.156C356.22 502.156 356.248 502.15 356.423 502.183C356.578 502.213 356.794 502.263 357.078 502.339L358.109 498.474ZM356.281 498.156C355.683 498.156 355.091 498.228 354.506 498.367L355.432 502.258C355.722 502.189 356.004 502.156 356.281 502.156V498.156ZM354.484 498.372C353.548 498.606 352.817 499.177 352.263 499.823L355.3 502.427C355.496 502.198 355.556 502.227 355.454 502.253L354.484 498.372ZM352.257 499.83C351.63 500.568 351.247 501.508 351 502.472L354.875 503.466C355.044 502.805 355.225 502.515 355.305 502.42L352.257 499.83ZM351 502.472C350.732 503.518 350.625 504.813 350.625 506.281H354.625C354.625 504.958 354.726 504.044 354.875 503.466L351 502.472ZM352.625 504.281H342.969V508.281H352.625V504.281ZM344.969 506.281V487.969H340.969V506.281H344.969ZM342.969 489.969H352.625V485.969H342.969V489.969ZM350.625 487.969V490.875H354.625V487.969H350.625ZM354.354 491.88C354.694 491.295 355.255 490.688 356.132 490.087L353.868 486.788C352.62 487.646 351.598 488.663 350.896 489.87L354.354 491.88ZM356.132 490.087C356.718 489.684 357.801 489.344 359.656 489.344V485.344C357.428 485.344 355.407 485.733 353.868 486.788L356.132 490.087ZM359.656 489.344C360.702 489.344 361.686 489.47 362.614 489.715L363.636 485.848C362.356 485.509 361.027 485.344 359.656 485.344V489.344ZM362.649 489.724C363.718 489.986 364.745 490.268 365.727 490.569L366.898 486.744C365.839 486.42 364.74 486.118 363.601 485.839L362.649 489.724ZM365.727 490.569C366.757 490.884 367.746 491.179 368.695 491.453L369.805 487.61C368.879 487.342 367.91 487.054 366.898 486.744L365.727 490.569ZM368.745 491.466C369.819 491.747 370.848 491.906 371.812 491.906V487.906C371.277 487.906 370.598 487.816 369.755 487.596L368.745 491.466ZM371.812 491.906C372.858 491.906 373.855 491.634 374.782 491.141L372.905 487.609C372.499 487.825 372.142 487.906 371.812 487.906V491.906ZM374.824 491.118C375.788 490.576 376.618 489.781 377.032 488.663L373.281 487.274C373.278 487.281 373.233 487.424 372.863 487.632L374.824 491.118ZM375.156 489.969H382.062V485.969H375.156V489.969Z" fill="black" mask="url(#path-19-outside-3_0_1)"/>
<mask id="path-21-outside-4_0_1" maskUnits="userSpaceOnUse" x="18" y="485" width="45" height="51" fill="black">
<rect fill="white" x="18" y="485" width="45" height="51"/>
<path d="M60.0625 487.969C60.0625 490.802 59.6979 493.333 58.9688 495.562C58.2396 497.771 57.3333 499.896 56.25 501.938C55.1667 503.979 53.9792 506.042 52.6875 508.125C51.4167 510.188 50.2396 512.458 49.1562 514.938C48.0729 517.396 47.1667 520.177 46.4375 523.281C45.7083 526.365 45.3438 529.938 45.3438 534H28C28 530.625 28.2604 527.698 28.7812 525.219C29.3229 522.719 30.0625 520.5 31 518.562C31.9375 516.604 33.0521 514.865 34.3438 513.344C35.6562 511.802 37.0729 510.323 38.5938 508.906C40.1146 507.469 41.7083 506 43.375 504.5C45.0625 503 46.7604 501.333 48.4688 499.5L48.2188 499.25C47.3229 500.062 46.4062 500.708 45.4688 501.188C44.5312 501.646 43.5521 501.875 42.5312 501.875C41.8438 501.875 41.0833 501.792 40.25 501.625C39.4167 501.458 38.5938 501.26 37.7812 501.031C36.9688 500.781 36.2396 500.573 35.5938 500.406C34.9688 500.24 34.5312 500.156 34.2812 500.156C33.8438 500.156 33.4062 500.208 32.9688 500.312C32.5521 500.417 32.1562 500.688 31.7812 501.125C31.4271 501.542 31.1458 502.156 30.9375 502.969C30.7292 503.781 30.625 504.885 30.625 506.281H20.9688V487.969H30.625V490.875C31.1458 489.979 31.9375 489.167 33 488.438C34.0625 487.708 35.6146 487.344 37.6562 487.344C38.8646 487.344 40.0208 487.49 41.125 487.781C42.2292 488.052 43.2917 488.344 44.3125 488.656C45.3333 488.969 46.3125 489.26 47.25 489.531C48.2083 489.781 49.0625 489.906 49.8125 489.906C50.5 489.906 51.1771 489.729 51.8438 489.375C52.5104 489 52.9479 488.531 53.1562 487.969H60.0625Z"/>
</mask>
<path d="M60.0625 487.969C60.0625 490.802 59.6979 493.333 58.9688 495.562C58.2396 497.771 57.3333 499.896 56.25 501.938C55.1667 503.979 53.9792 506.042 52.6875 508.125C51.4167 510.188 50.2396 512.458 49.1562 514.938C48.0729 517.396 47.1667 520.177 46.4375 523.281C45.7083 526.365 45.3438 529.938 45.3438 534H28C28 530.625 28.2604 527.698 28.7812 525.219C29.3229 522.719 30.0625 520.5 31 518.562C31.9375 516.604 33.0521 514.865 34.3438 513.344C35.6562 511.802 37.0729 510.323 38.5938 508.906C40.1146 507.469 41.7083 506 43.375 504.5C45.0625 503 46.7604 501.333 48.4688 499.5L48.2188 499.25C47.3229 500.062 46.4062 500.708 45.4688 501.188C44.5312 501.646 43.5521 501.875 42.5312 501.875C41.8438 501.875 41.0833 501.792 40.25 501.625C39.4167 501.458 38.5938 501.26 37.7812 501.031C36.9688 500.781 36.2396 500.573 35.5938 500.406C34.9688 500.24 34.5312 500.156 34.2812 500.156C33.8438 500.156 33.4062 500.208 32.9688 500.312C32.5521 500.417 32.1562 500.688 31.7812 501.125C31.4271 501.542 31.1458 502.156 30.9375 502.969C30.7292 503.781 30.625 504.885 30.625 506.281H20.9688V487.969H30.625V490.875C31.1458 489.979 31.9375 489.167 33 488.438C34.0625 487.708 35.6146 487.344 37.6562 487.344C38.8646 487.344 40.0208 487.49 41.125 487.781C42.2292 488.052 43.2917 488.344 44.3125 488.656C45.3333 488.969 46.3125 489.26 47.25 489.531C48.2083 489.781 49.0625 489.906 49.8125 489.906C50.5 489.906 51.1771 489.729 51.8438 489.375C52.5104 489 52.9479 488.531 53.1562 487.969H60.0625Z" fill="#800080"/>
<path d="M60.0625 487.969H62.0625V485.969H60.0625V487.969ZM58.9688 495.562L60.8679 496.19L60.8696 496.184L58.9688 495.562ZM56.25 501.938L54.4833 501L56.25 501.938ZM52.6875 508.125L50.9877 507.071L50.9848 507.076L52.6875 508.125ZM49.1562 514.938L50.9864 515.744L50.9889 515.738L49.1562 514.938ZM46.4375 523.281L48.3838 523.742L48.3845 523.739L46.4375 523.281ZM45.3438 534V536H47.3438V534H45.3438ZM28 534H26V536H28V534ZM28.7812 525.219L26.8266 524.795L26.824 524.808L28.7812 525.219ZM31 518.562L32.8003 519.434L32.8039 519.426L31 518.562ZM34.3438 513.344L32.8209 512.047L32.8194 512.049L34.3438 513.344ZM38.5938 508.906L39.957 510.37L39.9623 510.365L39.9676 510.36L38.5938 508.906ZM43.375 504.5L42.0462 503.005L42.0371 503.013L43.375 504.5ZM48.4688 499.5L49.932 500.863L51.2481 499.451L49.883 498.086L48.4688 499.5ZM48.2188 499.25L49.633 497.836L48.2861 496.489L46.8751 497.769L48.2188 499.25ZM45.4688 501.188L46.3472 502.984L46.3631 502.976L46.379 502.968L45.4688 501.188ZM37.7812 501.031L37.1931 502.943L37.2156 502.95L37.2383 502.956L37.7812 501.031ZM35.5938 500.406L35.0784 502.339L35.0862 502.341L35.094 502.343L35.5938 500.406ZM32.9688 500.312L32.5055 498.367L32.4946 498.369L32.4837 498.372L32.9688 500.312ZM31.7812 501.125L30.2627 499.823L30.2574 499.83L31.7812 501.125ZM30.625 506.281V508.281H32.625V506.281H30.625ZM20.9688 506.281H18.9688V508.281H20.9688V506.281ZM20.9688 487.969V485.969H18.9688V487.969H20.9688ZM30.625 487.969H32.625V485.969H30.625V487.969ZM30.625 490.875H28.625V498.294L32.354 491.88L30.625 490.875ZM41.125 487.781L40.6142 489.715L40.6313 489.719L40.6486 489.724L41.125 487.781ZM47.25 489.531L46.6949 491.453L46.7199 491.46L46.7452 491.466L47.25 489.531ZM51.8438 489.375L52.7821 491.141L52.8033 491.13L52.8243 491.118L51.8438 489.375ZM53.1562 487.969V485.969H51.7642L51.2808 487.274L53.1562 487.969ZM58.0625 487.969C58.0625 490.633 57.7194 492.949 57.0679 494.941L60.8696 496.184C61.6765 493.718 62.0625 490.971 62.0625 487.969H58.0625ZM57.0696 494.935C56.3755 497.037 55.5135 499.059 54.4833 501L58.0167 502.875C59.1532 500.733 60.1036 498.504 60.8679 496.19L57.0696 494.935ZM54.4833 501C53.4222 503 52.2572 505.024 50.9877 507.071L54.3873 509.179C55.7012 507.06 56.9112 504.958 58.0167 502.875L54.4833 501ZM50.9848 507.076C49.6596 509.227 48.4401 511.582 47.3236 514.137L50.9889 515.738C52.0391 513.335 53.1737 511.148 54.3902 509.174L50.9848 507.076ZM47.3261 514.131C46.185 516.72 45.2427 519.621 44.4905 522.824L48.3845 523.739C49.0906 520.733 49.9609 518.071 50.9864 515.744L47.3261 514.131ZM44.4912 522.821C43.718 526.09 43.3438 529.824 43.3438 534H47.3438C47.3438 530.051 47.6987 526.639 48.3838 523.742L44.4912 522.821ZM45.3438 532H28V536H45.3438V532ZM30 534C30 530.721 30.2537 527.938 30.7385 525.63L26.824 524.808C26.2672 527.458 26 530.529 26 534H30ZM30.7359 525.642C31.2501 523.269 31.9433 521.205 32.8003 519.434L29.1997 517.691C28.1817 519.795 27.3957 522.169 26.8266 524.795L30.7359 525.642ZM32.8039 519.426C33.6737 517.609 34.6971 516.017 35.8681 514.638L32.8194 512.049C31.407 513.712 30.2013 515.599 29.1961 517.699L32.8039 519.426ZM35.8666 514.64C37.1279 513.159 38.491 511.735 39.957 510.37L37.2305 507.443C35.6548 508.911 34.1846 510.445 32.8209 512.047L35.8666 514.64ZM39.9676 510.36C41.4758 508.934 43.0575 507.476 44.7129 505.987L42.0371 503.013C40.3592 504.524 38.7534 506.003 37.2199 507.453L39.9676 510.36ZM44.7037 505.995C46.4429 504.449 48.1855 502.738 49.932 500.863L47.0055 498.137C45.3354 499.929 43.6821 501.551 42.0463 503.005L44.7037 505.995ZM49.883 498.086L49.633 497.836L46.8045 500.664L47.0545 500.914L49.883 498.086ZM46.8751 497.769C46.091 498.48 45.3177 499.019 44.5585 499.407L46.379 502.968C47.4948 502.398 48.5549 501.645 49.5624 500.731L46.8751 497.769ZM44.5903 499.391C43.9201 499.718 43.2407 499.875 42.5312 499.875V503.875C43.8635 503.875 45.1424 503.573 46.3472 502.984L44.5903 499.391ZM42.5312 499.875C42.002 499.875 41.3753 499.81 40.6422 499.664L39.8578 503.586C40.7913 503.773 41.6855 503.875 42.5312 503.875V499.875ZM40.6422 499.664C39.8592 499.507 39.0866 499.321 38.3242 499.106L37.2383 502.956C38.1009 503.199 38.9741 503.409 39.8578 503.586L40.6422 499.664ZM38.3694 499.12C37.5351 498.863 36.7757 498.646 36.0935 498.47L35.094 502.343C35.7034 502.5 36.4024 502.7 37.1931 502.943L38.3694 499.12ZM36.1091 498.474C35.4997 498.311 34.8265 498.156 34.2812 498.156V502.156C34.2196 502.156 34.2477 502.15 34.4227 502.183C34.5781 502.213 34.7937 502.263 35.0784 502.339L36.1091 498.474ZM34.2812 498.156C33.6834 498.156 33.0905 498.228 32.5055 498.367L33.432 502.258C33.722 502.189 34.0041 502.156 34.2812 502.156V498.156ZM32.4837 498.372C31.5477 498.606 30.8169 499.177 30.2627 499.823L33.2998 502.427C33.4956 502.198 33.5565 502.227 33.4538 502.253L32.4837 498.372ZM30.2574 499.83C29.6296 500.568 29.2474 501.508 29.0002 502.472L32.8748 503.466C33.0442 502.805 33.2246 502.515 33.3051 502.42L30.2574 499.83ZM29.0002 502.472C28.7319 503.518 28.625 504.813 28.625 506.281H32.625C32.625 504.958 32.7265 504.044 32.8748 503.466L29.0002 502.472ZM30.625 504.281H20.9688V508.281H30.625V504.281ZM22.9688 506.281V487.969H18.9688V506.281H22.9688ZM20.9688 489.969H30.625V485.969H20.9688V489.969ZM28.625 487.969V490.875H32.625V487.969H28.625ZM32.354 491.88C32.6942 491.295 33.2555 490.688 34.1317 490.087L31.8683 486.788C30.6195 487.646 29.5975 488.663 28.896 489.87L32.354 491.88ZM34.1317 490.087C34.7182 489.684 35.8012 489.344 37.6562 489.344V485.344C35.4279 485.344 33.4068 485.733 31.8683 486.788L34.1317 490.087ZM37.6562 489.344C38.7022 489.344 39.6861 489.47 40.6142 489.715L41.6358 485.848C40.3555 485.509 39.027 485.344 37.6562 485.344V489.344ZM40.6486 489.724C41.7185 489.986 42.7445 490.268 43.7271 490.569L44.8979 486.744C43.8388 486.42 42.7399 486.118 41.6014 485.839L40.6486 489.724ZM43.7271 490.569C44.7571 490.884 45.7464 491.179 46.6949 491.453L47.8051 487.61C46.8786 487.342 45.9096 487.054 44.8979 486.744L43.7271 490.569ZM46.7452 491.466C47.8191 491.747 48.8478 491.906 49.8125 491.906V487.906C49.2772 487.906 48.5976 487.816 47.7548 487.596L46.7452 491.466ZM49.8125 491.906C50.8584 491.906 51.8554 491.634 52.7821 491.141L50.9054 487.609C50.4988 487.825 50.1416 487.906 49.8125 487.906V491.906ZM52.8243 491.118C53.7876 490.576 54.6177 489.781 55.0317 488.663L51.2808 487.274C51.2782 487.281 51.2332 487.424 50.8632 487.632L52.8243 491.118ZM53.1562 489.969H60.0625V485.969H53.1562V489.969Z" fill="black" mask="url(#path-21-outside-4_0_1)"/>
<mask id="path-23-outside-5_0_1" maskUnits="userSpaceOnUse" x="18" y="21" width="45" height="51" fill="black">
<rect fill="white" x="18" y="21" width="45" height="51"/>
<path d="M60.0625 23.9688C60.0625 26.8021 59.6979 29.3333 58.9688 31.5625C58.2396 33.7708 57.3333 35.8958 56.25 37.9375C55.1667 39.9792 53.9792 42.0417 52.6875 44.125C51.4167 46.1875 50.2396 48.4583 49.1562 50.9375C48.0729 53.3958 47.1667 56.1771 46.4375 59.2812C45.7083 62.3646 45.3438 65.9375 45.3438 70H28C28 66.625 28.2604 63.6979 28.7812 61.2188C29.3229 58.7188 30.0625 56.5 31 54.5625C31.9375 52.6042 33.0521 50.8646 34.3438 49.3438C35.6562 47.8021 37.0729 46.3229 38.5938 44.9062C40.1146 43.4688 41.7083 42 43.375 40.5C45.0625 39 46.7604 37.3333 48.4688 35.5L48.2188 35.25C47.3229 36.0625 46.4062 36.7083 45.4688 37.1875C44.5312 37.6458 43.5521 37.875 42.5312 37.875C41.8438 37.875 41.0833 37.7917 40.25 37.625C39.4167 37.4583 38.5938 37.2604 37.7812 37.0312C36.9688 36.7812 36.2396 36.5729 35.5938 36.4062C34.9688 36.2396 34.5312 36.1562 34.2812 36.1562C33.8438 36.1562 33.4062 36.2083 32.9688 36.3125C32.5521 36.4167 32.1562 36.6875 31.7812 37.125C31.4271 37.5417 31.1458 38.1562 30.9375 38.9688C30.7292 39.7812 30.625 40.8854 30.625 42.2812H20.9688V23.9688H30.625V26.875C31.1458 25.9792 31.9375 25.1667 33 24.4375C34.0625 23.7083 35.6146 23.3438 37.6562 23.3438C38.8646 23.3438 40.0208 23.4896 41.125 23.7812C42.2292 24.0521 43.2917 24.3438 44.3125 24.6562C45.3333 24.9688 46.3125 25.2604 47.25 25.5312C48.2083 25.7812 49.0625 25.9062 49.8125 25.9062C50.5 25.9062 51.1771 25.7292 51.8438 25.375C52.5104 25 52.9479 24.5312 53.1562 23.9688H60.0625Z"/>
</mask>
<path d="M60.0625 23.9688C60.0625 26.8021 59.6979 29.3333 58.9688 31.5625C58.2396 33.7708 57.3333 35.8958 56.25 37.9375C55.1667 39.9792 53.9792 42.0417 52.6875 44.125C51.4167 46.1875 50.2396 48.4583 49.1562 50.9375C48.0729 53.3958 47.1667 56.1771 46.4375 59.2812C45.7083 62.3646 45.3438 65.9375 45.3438 70H28C28 66.625 28.2604 63.6979 28.7812 61.2188C29.3229 58.7188 30.0625 56.5 31 54.5625C31.9375 52.6042 33.0521 50.8646 34.3438 49.3438C35.6562 47.8021 37.0729 46.3229 38.5938 44.9062C40.1146 43.4688 41.7083 42 43.375 40.5C45.0625 39 46.7604 37.3333 48.4688 35.5L48.2188 35.25C47.3229 36.0625 46.4062 36.7083 45.4688 37.1875C44.5312 37.6458 43.5521 37.875 42.5312 37.875C41.8438 37.875 41.0833 37.7917 40.25 37.625C39.4167 37.4583 38.5938 37.2604 37.7812 37.0312C36.9688 36.7812 36.2396 36.5729 35.5938 36.4062C34.9688 36.2396 34.5312 36.1562 34.2812 36.1562C33.8438 36.1562 33.4062 36.2083 32.9688 36.3125C32.5521 36.4167 32.1562 36.6875 31.7812 37.125C31.4271 37.5417 31.1458 38.1562 30.9375 38.9688C30.7292 39.7812 30.625 40.8854 30.625 42.2812H20.9688V23.9688H30.625V26.875C31.1458 25.9792 31.9375 25.1667 33 24.4375C34.0625 23.7083 35.6146 23.3438 37.6562 23.3438C38.8646 23.3438 40.0208 23.4896 41.125 23.7812C42.2292 24.0521 43.2917 24.3438 44.3125 24.6562C45.3333 24.9688 46.3125 25.2604 47.25 25.5312C48.2083 25.7812 49.0625 25.9062 49.8125 25.9062C50.5 25.9062 51.1771 25.7292 51.8438 25.375C52.5104 25 52.9479 24.5312 53.1562 23.9688H60.0625Z" fill="#800080"/>
<path d="M60.0625 23.9688H62.0625V21.9688H60.0625V23.9688ZM58.9688 31.5625L60.8679 32.1896L60.8696 32.1843L58.9688 31.5625ZM56.25 37.9375L54.4833 37.0001L56.25 37.9375ZM52.6875 44.125L50.9877 43.0711L50.9848 43.0758L52.6875 44.125ZM49.1562 50.9375L50.9864 51.744L50.9889 51.7383L49.1562 50.9375ZM46.4375 59.2812L48.3838 59.7415L48.3845 59.7386L46.4375 59.2812ZM45.3438 70V72H47.3438V70H45.3438ZM28 70H26V72H28V70ZM28.7812 61.2188L26.8266 60.7952L26.824 60.8076L28.7812 61.2188ZM31 54.5625L32.8003 55.4336L32.8039 55.4261L31 54.5625ZM34.3438 49.3438L32.8209 48.0473L32.8194 48.0491L34.3438 49.3438ZM38.5938 44.9062L39.957 46.3697L39.9623 46.3647L39.9676 46.3597L38.5938 44.9062ZM43.375 40.5L42.0462 39.0052L42.0371 39.0134L43.375 40.5ZM48.4688 35.5L49.932 36.8635L51.2481 35.451L49.883 34.0858L48.4688 35.5ZM48.2188 35.25L49.633 33.8358L48.2861 32.4889L46.8751 33.7686L48.2188 35.25ZM45.4688 37.1875L46.3472 38.9843L46.3631 38.9765L46.379 38.9684L45.4688 37.1875ZM37.7812 37.0312L37.1931 38.9428L37.2156 38.9497L37.2383 38.9561L37.7812 37.0312ZM35.5938 36.4062L35.0784 38.3387L35.0862 38.3408L35.094 38.3428L35.5938 36.4062ZM32.9688 36.3125L32.5055 34.3669L32.4946 34.3695L32.4837 34.3722L32.9688 36.3125ZM31.7812 37.125L30.2627 35.8234L30.2574 35.8297L31.7812 37.125ZM30.625 42.2812V44.2812H32.625V42.2812H30.625ZM20.9688 42.2812H18.9688V44.2812H20.9688V42.2812ZM20.9688 23.9688V21.9688H18.9688V23.9688H20.9688ZM30.625 23.9688H32.625V21.9688H30.625V23.9688ZM30.625 26.875H28.625V34.2941L32.354 27.8802L30.625 26.875ZM41.125 23.7812L40.6142 25.7149L40.6313 25.7195L40.6486 25.7237L41.125 23.7812ZM47.25 25.5312L46.6949 27.4527L46.7199 27.4599L46.7452 27.4665L47.25 25.5312ZM51.8438 25.375L52.7821 27.1412L52.8033 27.1299L52.8243 27.1182L51.8438 25.375ZM53.1562 23.9688V21.9688H51.7642L51.2808 23.2741L53.1562 23.9688ZM58.0625 23.9688C58.0625 26.6333 57.7194 28.949 57.0679 30.9407L60.8696 32.1843C61.6765 29.7177 62.0625 26.9708 62.0625 23.9688H58.0625ZM57.0696 30.9354C56.3755 33.0374 55.5135 35.0586 54.4833 37.0001L58.0167 38.8749C59.1532 36.7331 60.1036 34.5042 60.8679 32.1896L57.0696 30.9354ZM54.4833 37.0001C53.4222 38.9999 52.2572 41.0236 50.9877 43.0711L54.3873 45.1789C55.7012 43.0598 56.9112 40.9584 58.0167 38.8749L54.4833 37.0001ZM50.9848 43.0758C49.6596 45.2266 48.4401 47.5815 47.3236 50.1367L50.9889 51.7383C52.0391 49.3351 53.1737 47.1484 54.3902 45.1742L50.9848 43.0758ZM47.3261 50.131C46.185 52.7204 45.2427 55.6215 44.4905 58.8239L48.3845 59.7386C49.0906 56.7327 49.9609 54.0713 50.9864 51.744L47.3261 50.131ZM44.4912 58.821C43.718 62.0905 43.3438 65.8236 43.3438 70H47.3438C47.3438 66.0514 47.6987 62.6387 48.3838 59.7415L44.4912 58.821ZM45.3438 68H28V72H45.3438V68ZM30 70C30 66.7207 30.2537 63.9378 30.7385 61.6299L26.824 60.8076C26.2672 63.458 26 66.5293 26 70H30ZM30.7359 61.6423C31.2501 59.2689 31.9433 57.2048 32.8003 55.4336L29.1997 53.6914C28.1817 55.7952 27.3957 58.1686 26.8266 60.7952L30.7359 61.6423ZM32.8039 55.4261C33.6737 53.6093 34.6971 52.0172 35.8681 50.6384L32.8194 48.0491C31.407 49.7119 30.2013 51.599 29.1961 53.6989L32.8039 55.4261ZM35.8666 50.6402C37.1279 49.1588 38.491 47.7352 39.957 46.3697L37.2305 43.4428C35.6548 44.9106 34.1846 46.4454 32.8209 48.0473L35.8666 50.6402ZM39.9676 46.3597C41.4758 44.9342 43.0575 43.4765 44.7129 41.9866L42.0371 39.0134C40.3592 40.5235 38.7534 42.0033 37.2199 43.4528L39.9676 46.3597ZM44.7037 41.9948C46.4429 40.4489 48.1855 38.7377 49.932 36.8635L47.0055 34.1365C45.3354 35.9289 43.6821 37.5511 42.0463 39.0052L44.7037 41.9948ZM49.883 34.0858L49.633 33.8358L46.8045 36.6642L47.0545 36.9142L49.883 34.0858ZM46.8751 33.7686C46.091 34.4798 45.3177 35.0186 44.5585 35.4066L46.379 38.9684C47.4948 38.3981 48.5549 37.6452 49.5624 36.7314L46.8751 33.7686ZM44.5903 35.3907C43.9201 35.7184 43.2407 35.875 42.5312 35.875V39.875C43.8635 39.875 45.1424 39.5732 46.3472 38.9843L44.5903 35.3907ZM42.5312 35.875C42.002 35.875 41.3753 35.8105 40.6422 35.6638L39.8578 39.5862C40.7913 39.7729 41.6855 39.875 42.5312 39.875V35.875ZM40.6422 35.6638C39.8592 35.5072 39.0866 35.3214 38.3242 35.1064L37.2383 38.9561C38.1009 39.1994 38.9741 39.4094 39.8578 39.5862L40.6422 35.6638ZM38.3694 35.1197C37.5351 34.863 36.7757 34.6458 36.0935 34.4697L35.094 38.3428C35.7034 38.5001 36.4024 38.6995 37.1931 38.9428L38.3694 35.1197ZM36.1091 34.4738C35.4997 34.3113 34.8265 34.1562 34.2812 34.1562V38.1562C34.2196 38.1562 34.2477 38.1501 34.4227 38.1834C34.5781 38.213 34.7937 38.2628 35.0784 38.3387L36.1091 34.4738ZM34.2812 34.1562C33.6834 34.1562 33.0905 34.2276 32.5055 34.3669L33.432 38.2581C33.722 38.1891 34.0041 38.1562 34.2812 38.1562V34.1562ZM32.4837 34.3722C31.5477 34.6062 30.8169 35.1769 30.2627 35.8234L33.2998 38.4266C33.4956 38.1981 33.5565 38.2271 33.4538 38.2528L32.4837 34.3722ZM30.2574 35.8297C29.6296 36.5683 29.2474 37.5076 29.0002 38.472L32.8748 39.4655C33.0442 38.8049 33.2246 38.515 33.3051 38.4203L30.2574 35.8297ZM29.0002 38.472C28.7319 39.5184 28.625 40.8129 28.625 42.2812H32.625C32.625 40.958 32.7265 40.0441 32.8748 39.4655L29.0002 38.472ZM30.625 40.2812H20.9688V44.2812H30.625V40.2812ZM22.9688 42.2812V23.9688H18.9688V42.2812H22.9688ZM20.9688 25.9688H30.625V21.9688H20.9688V25.9688ZM28.625 23.9688V26.875H32.625V23.9688H28.625ZM32.354 27.8802C32.6942 27.2952 33.2555 26.6878 34.1317 26.0865L31.8683 22.7885C30.6195 23.6455 29.5975 24.6631 28.896 25.8698L32.354 27.8802ZM34.1317 26.0865C34.7182 25.684 35.8012 25.3438 37.6562 25.3438V21.3438C35.4279 21.3438 33.4068 21.7327 31.8683 22.7885L34.1317 26.0865ZM37.6562 25.3438C38.7022 25.3438 39.6861 25.4698 40.6142 25.7149L41.6358 21.8476C40.3555 21.5094 39.027 21.3438 37.6562 21.3438V25.3438ZM40.6486 25.7237C41.7185 25.9861 42.7445 26.2679 43.7271 26.5686L44.8979 22.7439C43.8388 22.4196 42.7399 22.1181 41.6014 21.8388L40.6486 25.7237ZM43.7271 26.5686C44.7571 26.884 45.7464 27.1787 46.6949 27.4527L47.8051 23.6098C46.8786 23.3422 45.9096 23.0535 44.8979 22.7439L43.7271 26.5686ZM46.7452 27.4665C47.8191 27.7466 48.8478 27.9062 49.8125 27.9062V23.9062C49.2772 23.9062 48.5976 23.8159 47.7548 23.596L46.7452 27.4665ZM49.8125 27.9062C50.8584 27.9062 51.8554 27.6335 52.7821 27.1412L50.9054 23.6088C50.4988 23.8248 50.1416 23.9062 49.8125 23.9062V27.9062ZM52.8243 27.1182C53.7876 26.5763 54.6177 25.7814 55.0317 24.6634L51.2808 23.2741C51.2782 23.2811 51.2332 23.4237 50.8632 23.6318L52.8243 27.1182ZM53.1562 25.9688H60.0625V21.9688H53.1562V25.9688Z" fill="black" mask="url(#path-23-outside-5_0_1)"/>
</g>
<defs>
<filter id="filter0_d_0_1" x="24" y="92" width="352" height="394" filterUnits="userSpaceOnUse" color-interpolation-filters="sRGB">
<feFlood flood-opacity="0" result="BackgroundImageFix"/>
<feColorMatrix in="SourceAlpha" type="matrix" values="0 0 0 0 0 0 0 0 0 0 0 0 0 0 0 0 0 0 127 0" result="hardAlpha"/>
<feOffset dy="4"/>
<feGaussianBlur stdDeviation="2"/>
<feComposite in2="hardAlpha" operator="out"/>
<feColorMatrix type="matrix" values="0 0 0 0 0 0 0 0 0 0 0 0 0 0 0 0 0 0 0.25 0"/>
<feBlend mode="normal" in2="BackgroundImageFix" result="effect1_dropShadow_0_1"/>
<feBlend mode="normal" in="SourceGraphic" in2="effect1_dropShadow_0_1" result="shape"/>
</filter>
<filter id="filter1_d_0_1" x="16.9688" y="23.3438" width="369.094" height="518.656" filterUnits="userSpaceOnUse" color-interpolation-filters="sRGB">
<feFlood flood-opacity="0" result="BackgroundImageFix"/>
<feColorMatrix in="SourceAlpha" type="matrix" values="0 0 0 0 0 0 0 0 0 0 0 0 0 0 0 0 0 0 127 0" result="hardAlpha"/>
<feOffset dy="4"/>
<feGaussianBlur stdDeviation="2"/>
<feComposite in2="hardAlpha" operator="out"/>
<feColorMatrix type="matrix" values="0 0 0 0 0 0 0 0 0 0 0 0 0 0 0 0 0 0 0.25 0"/>
<feBlend mode="normal" in2="BackgroundImageFix" result="effect1_dropShadow_0_1"/>
<feBlend mode="normal" in="SourceGraphic" in2="effect1_dropShadow_0_1" result="shape"/>
</filter>
<clipPath id="clip0_0_1">
<rect width="344" height="386" fill="white" transform="translate(28 92)"/>
</clipPath>
<clipPath id="clip1_0_1">
<rect width="34" height="38" fill="white" transform="translate(183 17)"/>
</clipPath>
<clipPath id="clip2_0_1">
<rect width="34" height="38" fill="white" transform="translate(183 495)"/>
</clipPath>
</defs>
</svg>
