<svg width="400" height="550" viewBox="0 0 400 550" fill="none" xmlns="http://www.w3.org/2000/svg">
<path d="M0.5 0.5H0.914507H1.82745H2.73883H3.64866H4.55695H5.46369H6.36891H7.27259H8.17475H9.0754H9.97453H10.8722H11.7683H12.6629H13.5561H14.4478H15.338H16.2267H17.114H17.9998H18.8842H19.7672H20.6487H21.5287H22.4074H23.2846H24.1604H25.0349H25.9079H26.7795H27.6497H28.5186H29.3861H30.2522H31.1169H31.9803H32.8424H33.7031H34.5624H35.4205H36.2772H37.1326H37.9866H38.8394H39.6909H40.541H41.3899H42.2375H43.0838H43.9289H44.7727H45.6152H46.4565H47.2965H48.1353H48.9729H49.8092H50.6443H51.4782H52.3109H53.1424H53.9727H54.8018H55.6297H56.4565H57.282H58.1064H58.9297H59.7518H60.5727H61.3925H62.2112H63.0287H63.8451H64.6604H65.4746H66.2877H67.0997H67.9106H68.7204H69.5291H70.3367H71.1433H71.9488H72.7533H73.5567H74.3591H75.1604H75.9607H76.76H77.5583H78.3555H79.1518H79.947H80.7412H81.5345H82.3268H83.1181H83.9084H84.6978H85.4862H86.2737H87.0602H87.8458H88.6304H89.4141H90.1969H90.9788H91.7598H92.5399H93.3191H94.0973H94.8747H95.6513H96.4269H97.2017H97.9757H98.7487H99.521H100.292H101.063H101.833H102.602H103.37H104.137H104.903H105.669H106.434H107.198H107.961H108.724H109.486H110.247H111.007H111.767H112.525H113.283H114.041H114.797H115.553H116.308H117.063H117.816H118.57H119.322H120.074H120.825H121.575H122.325H123.074H123.822H124.57H125.317H126.063H126.809H127.554H128.299H129.043H129.786H130.529H131.271H132.013H132.754H133.495H134.234H134.974H135.713H136.451H137.189H137.926H138.662H139.399H140.134H140.869H141.604H142.338H143.072H143.805H144.537H145.27H146.001H146.733H147.463H148.194H148.924H149.653H150.382H151.111H151.839H152.567H153.294H154.021H154.748H155.474H156.2H156.925H157.65H158.375H159.1H159.824H160.547H161.271H161.994H162.716H163.439H164.161H164.882H165.604H166.325H167.046H167.766H168.487H169.207H169.927H170.646H171.365H172.084H172.803H173.522H174.24H174.958H175.676H176.394H177.111H177.828H178.546H179.262H179.979H180.696H181.412H182.128H182.844H183.56H184.276H184.992H185.707H186.423H187.138H187.853H188.568H189.283H189.998H190.713H191.427H192.142H192.857H193.571H194.286H195H195.714H196.429H197.143H197.857H198.572H199.286H200H200.714H201.428H202.143H202.857H203.571H204.286H205H205.714H206.429H207.143H207.858H208.573H209.287H210.002H210.717H211.432H212.147H212.862H213.577H214.293H215.008H215.724H216.44H217.156H217.872H218.588H219.304H220.021H220.738H221.454H222.172H222.889H223.606H224.324H225.042H225.76H226.478H227.197H227.916H228.635H229.354H230.073H230.793H231.513H232.234H232.954H233.675H234.396H235.118H235.839H236.561H237.284H238.006H238.729H239.453H240.176H240.9H241.625H242.35H243.075H243.8H244.526H245.252H245.979H246.706H247.433H248.161H248.889H249.618H250.347H251.076H251.806H252.537H253.267H253.999H254.73H255.463H256.195H256.928H257.662H258.396H259.131H259.866H260.601H261.338H262.074H262.811H263.549H264.287H265.026H265.766H266.505H267.246H267.987H268.729H269.471H270.214H270.957H271.701H272.446H273.191H273.937H274.683H275.43H276.178H276.926H277.675H278.425H279.175H279.926H280.678H281.43H282.184H282.937H283.692H284.447H285.203H285.959H286.717H287.475H288.233H288.993H289.753H290.514H291.276H292.039H292.802H293.566H294.331H295.097H295.863H296.63H297.398H298.167H298.937H299.708H300.479H301.251H302.024H302.798H303.573H304.349H305.125H305.903H306.681H307.46H308.24H309.021H309.803H310.586H311.37H312.154H312.94H313.726H314.514H315.302H316.092H316.882H317.673H318.465H319.259H320.053H320.848H321.644H322.442H323.24H324.039H324.84H325.641H326.443H327.247H328.051H328.857H329.663H330.471H331.28H332.089H332.9H333.712H334.525H335.34H336.155H336.971H337.789H338.607H339.427H340.248H341.07H341.894H342.718H343.544H344.37H345.198H346.027H346.858H347.689H348.522H349.356H350.191H351.027H351.865H352.703H353.543H354.385H355.227H356.071H356.916H357.762H358.61H359.459H360.309H361.161H362.013H362.867H363.723H364.58H365.438H366.297H367.158H368.02H368.883H369.748H370.614H371.481H372.35H373.221H374.092H374.965H375.84H376.715H377.593H378.471H379.351H380.233H381.116H382H382.886H383.773H384.662H385.552H386.444H387.337H388.232H389.128H390.025H390.925H391.825H392.727H393.631H394.536H395.443H396.351H397.261H398.173H399.085H399.5V549.5H0.5V0.5Z" fill="white" stroke="black"/>
<rect x="20" y="55" width="360" height="440" fill="white"/>
<g clip-path="url(#clip0_0_1)" filter="url(#filter0_d_0_1)">
<path d="M29.1467 219.38C29.1467 217.593 29.1467 215.806 29.4394 213.946C31.1775 211.76 32.7565 209.746 34.0476 207.521C46.6304 185.836 58.5915 163.661 71.8993 142.553C82.1262 126.333 94.0318 111.445 105.191 95.964C105.761 96.2606 106.331 96.5573 106.901 96.8539C98.2263 124.505 95.9401 152.878 98.1346 182.204C114.546 184.535 130.707 186.83 146.868 189.125C147.174 188.281 147.481 187.438 147.787 186.595C146.129 185.145 144.557 183.547 142.8 182.269C132.896 175.065 132.135 166.136 136.715 154.312C141.826 141.118 145.186 127.069 149.557 112.563C160.24 124.558 170.216 136.023 180.497 147.133C183.364 150.232 183.502 152.548 181.759 156.38C177.19 166.424 173.079 176.73 168.478 187.085C168.154 187.547 168.138 187.855 168.122 188.162C168.617 188.105 169.112 188.048 169.988 187.828C179.411 182.625 188.375 177.393 197.554 172.692C199.584 171.652 202.739 171.591 204.754 172.617C212.941 176.787 220.871 181.588 228.934 186.071C230.394 186.882 232.032 187.29 234.853 188.368C228.892 174.904 223.662 163.093 218.792 152.095C230.394 139.075 241.568 126.534 252.992 113.715C258.304 131.747 263.76 150.013 268.947 168.374C269.34 169.765 268.193 172.217 267.127 173.522C262.982 178.596 258.581 183.407 254.276 188.315C254.525 188.687 254.774 189.058 255.022 189.43C271.462 186.957 287.902 184.484 304.225 182.029C306.223 152.715 304.063 124.847 295.827 97.6277C296.021 97.4629 296.371 97.0835 296.76 97.1362C306.111 109.072 315.924 120.286 323.856 132.98C339.659 158.271 354.411 184.388 369.681 210.102C370.426 211.357 371.973 212.012 373.147 212.947C373.147 214.734 373.147 216.521 372.884 218.371C354.938 233.659 334.456 241.616 313.084 247.216C306.839 248.853 300.537 250.218 294.106 251.744C297.285 268.582 300.482 284.789 303.269 301.085C303.674 303.451 302.793 306.938 301.345 308.712C295.415 315.977 289.063 322.811 282.811 329.742C278.525 334.494 274.148 339.144 269.713 343.946C278.706 351.544 286.822 358.256 294.733 365.259C295.81 366.212 296.732 369.028 296.261 370.295C289.906 387.361 283.292 404.305 276.721 421.334C266.32 418.764 256.319 416.292 245.926 413.723C242.43 429.201 238.955 444.591 235.501 459.885C212.349 459.885 189.819 459.885 166.792 459.885C163.338 444.596 159.873 429.26 156.372 413.76C145.707 416.36 135.633 418.815 125.383 421.313C118.409 403.01 111.635 385.232 104.829 367.373C114.05 359.585 122.956 352.062 132.332 344.143C121.659 332.181 111.342 320.493 100.87 308.983C98.7568 306.661 98.0402 304.689 98.7374 301.247C102.058 284.857 105.028 268.377 108.141 251.83C100.21 249.833 92.5695 248.094 85.0151 245.97C66.1366 240.662 47.7181 234.124 32.2694 219.979C31.5574 219.327 30.2023 219.56 29.1467 219.38Z" fill="#FDFDFD"/>
<path d="M169.409 187.718C169.112 188.048 168.617 188.105 168.122 188.162C168.138 187.855 168.154 187.547 168.478 187.085C168.927 187.103 169.07 187.274 169.409 187.718Z" fill="black"/>
<path d="M295.827 97.6277C295.836 97.3575 296.039 96.9224 296.306 96.7855C296.371 97.0835 296.021 97.4629 295.827 97.6277Z" fill="#FDFDFD"/>
<path d="M157.967 412.534L157.196 413.034L157.967 412.534C157.79 412.261 157.541 412.161 157.461 412.132C157.356 412.094 157.266 412.08 157.22 412.074C157.124 412.062 157.037 412.064 156.988 412.066C156.88 412.07 156.756 412.084 156.637 412.1C156.389 412.134 156.05 412.192 155.64 412.269C154.814 412.425 153.643 412.669 152.217 412.981C149.361 413.607 145.456 414.512 141.189 415.545L126.55 419.092L117.223 394.399C114.574 387.385 112.169 380.89 110.43 376.077C109.56 373.671 108.858 371.688 108.375 370.274C108.133 369.565 107.948 369.006 107.826 368.61C107.795 368.509 107.768 368.421 107.746 368.345C107.897 368.164 108.128 367.913 108.442 367.593C109.093 366.929 110.044 366.024 111.231 364.939C113.601 362.772 116.872 359.923 120.472 356.916C124.088 353.895 127.379 351.028 129.77 348.841C130.965 347.749 131.944 346.818 132.629 346.118C132.969 345.77 133.252 345.464 133.455 345.217C133.555 345.095 133.652 344.966 133.73 344.841C133.769 344.778 133.815 344.698 133.854 344.605C133.887 344.526 133.949 344.361 133.949 344.15C133.949 343.917 133.869 343.731 133.846 343.678L133.845 343.676C133.808 343.591 133.765 343.51 133.725 343.443C133.646 343.305 133.54 343.146 133.419 342.975C133.176 342.629 132.827 342.169 132.39 341.616C131.515 340.506 130.256 338.977 128.71 337.144C125.616 333.474 121.351 328.56 116.663 323.285L99.9568 304.49L104.508 280.696C105.786 274.016 106.948 267.665 107.791 262.814C108.212 260.389 108.554 258.335 108.791 256.8C109.021 255.314 109.17 254.214 109.17 253.78C109.17 252.789 108.404 252.048 107.603 251.498C106.733 250.9 105.455 250.278 103.757 249.601C100.347 248.24 95.0163 246.565 87.2976 244.379C67.8972 238.883 56.6576 233.87 36.236 221.587C34.5771 220.589 33.0712 219.565 31.9853 218.725C31.4397 218.303 31.0196 217.942 30.7428 217.665C30.6828 217.605 30.6332 217.553 30.593 217.508C30.6521 217.351 30.7396 217.144 30.8575 216.884C31.1262 216.294 31.5257 215.495 32.0301 214.539C33.0371 212.63 34.4402 210.14 35.995 207.532C39.1203 202.29 49.8785 184.017 59.9017 166.925C67.3724 154.186 78.4456 136.96 87.8092 123.107C92.4911 116.181 96.7383 110.109 99.8889 105.868C101.249 104.038 102.395 102.562 103.278 101.51C103.217 101.843 103.148 102.204 103.073 102.589C102.637 104.829 101.991 107.872 101.239 111.174C97.6719 126.848 95.5033 146.573 95.5284 163.107C95.5305 164.52 95.5233 165.839 95.5165 167.069C95.4981 170.401 95.4834 173.083 95.6688 175.221C95.9251 178.176 96.5784 180.375 98.3461 181.98C100.056 183.532 102.66 184.382 106.382 185.112C109.115 185.648 112.582 186.14 116.937 186.758C118.558 186.988 120.302 187.235 122.177 187.509C128.829 188.48 135.023 189.266 139.645 189.749C141.954 189.991 143.882 190.158 145.282 190.234C145.98 190.272 146.565 190.289 147.008 190.279C147.227 190.274 147.434 190.262 147.612 190.237C147.701 190.225 147.8 190.208 147.9 190.18C147.987 190.156 148.143 190.106 148.299 189.998C148.964 189.537 149.547 188.952 149.78 188.165C150.021 187.348 149.821 186.54 149.398 185.785C148.982 185.043 148.304 184.261 147.411 183.409C146.509 182.55 145.341 181.575 143.899 180.454C141.295 178.429 139.442 176.827 138.202 175.113C136.994 173.442 136.347 171.632 136.256 169.139C136.163 166.603 136.646 163.362 137.739 158.855C138.831 154.357 140.51 148.672 142.77 141.268L150.158 117.055L163.536 131.618C167.537 135.973 171.376 140.233 174.339 143.587C177.331 146.976 179.363 149.368 179.814 150.037C180.317 150.783 180.561 151.807 179.774 154.673C178.985 157.541 177.248 161.967 174.171 169.287C172.142 174.114 170.381 178.605 169.177 181.955C168.576 183.627 168.109 185.029 167.818 186.053C167.673 186.56 167.564 187.001 167.506 187.345C167.477 187.513 167.455 187.695 167.455 187.866C167.455 187.951 167.461 188.066 167.489 188.189C167.513 188.3 167.574 188.511 167.748 188.706C167.936 188.917 168.158 189.003 168.297 189.04C168.44 189.078 168.569 189.084 168.661 189.084C168.844 189.083 169.03 189.051 169.19 189.016C169.518 188.943 169.931 188.812 170.396 188.642C171.337 188.3 172.623 187.756 174.151 187.06C177.215 185.665 181.323 183.629 185.739 181.287L201.28 173.044L216.212 181.086C223.468 184.993 228.09 187.363 230.906 188.516C232.279 189.079 233.367 189.416 234.162 189.421C234.575 189.424 235.077 189.338 235.473 188.972C235.884 188.591 235.983 188.091 235.983 187.702C235.983 187.566 235.956 187.45 235.947 187.412C235.933 187.353 235.917 187.294 235.9 187.24C235.867 187.13 235.821 186.998 235.768 186.85C235.66 186.553 235.505 186.152 235.31 185.664C234.919 184.686 234.357 183.329 233.665 181.696C232.28 178.428 230.372 174.033 228.274 169.3L220.912 152.689L236.44 135.211C240.819 130.283 244.901 125.945 247.947 122.926C249.474 121.414 250.724 120.248 251.616 119.508C251.799 119.355 251.962 119.225 252.105 119.117C252.238 119.467 252.399 119.915 252.585 120.453C253.049 121.788 253.66 123.65 254.377 125.904C255.809 130.412 257.653 136.468 259.565 142.985C263.311 155.758 266.68 167.145 267.153 168.635C267.15 168.659 267.144 168.697 267.131 168.752C267.09 168.92 267.006 169.162 266.864 169.481C266.581 170.116 266.117 170.951 265.495 171.933C264.255 173.892 262.444 176.347 260.364 178.816C258.246 181.329 256.399 183.719 255.128 185.552C254.496 186.464 253.99 187.261 253.665 187.877C253.505 188.179 253.367 188.479 253.286 188.75C253.247 188.882 253.206 189.057 253.204 189.247C253.202 189.423 253.232 189.763 253.495 190.058C253.69 190.276 253.925 190.357 254.003 190.382C254.114 190.418 254.222 190.438 254.307 190.45C254.48 190.475 254.682 190.486 254.891 190.49C255.317 190.497 255.891 190.476 256.584 190.434C257.975 190.349 259.922 190.17 262.276 189.914C266.988 189.403 273.373 188.581 280.297 187.572L305.446 183.906L306.325 183.778L306.301 182.89L305.562 155.014C305 133.837 304.079 123.924 301.713 113.987C300.867 110.436 300.149 107.158 299.673 104.738C299.535 104.038 299.418 103.413 299.324 102.877C300.147 103.772 301.227 105.092 302.533 106.794C305.453 110.601 309.425 116.221 314.003 123.001C323.158 136.556 334.708 154.696 345.075 172.126C351.853 183.522 358.179 193.884 362.911 201.4C365.277 205.157 367.249 208.209 368.681 210.326C369.396 211.382 369.986 212.218 370.427 212.796C370.645 213.081 370.842 213.324 371.009 213.502C371.09 213.589 371.187 213.685 371.291 213.767C371.343 213.808 371.419 213.862 371.514 213.911C371.593 213.951 371.763 214.028 371.989 214.034C372.014 214.046 372.083 214.095 372.179 214.252C372.331 214.503 372.458 214.913 372.458 215.414C372.458 215.413 372.458 215.413 372.457 215.415C372.456 215.425 372.445 215.507 372.357 215.682C372.262 215.87 372.103 216.111 371.865 216.405C371.389 216.993 370.667 217.708 369.714 218.528C367.813 220.164 365.099 222.126 361.894 224.2C355.485 228.346 347.206 232.875 339.747 236.05C332.874 238.975 319.711 243.342 310.527 245.739C305.915 246.942 301.678 248.075 298.568 248.929C297.014 249.357 295.737 249.715 294.834 249.98C294.384 250.112 294.02 250.222 293.759 250.306C293.629 250.348 293.515 250.387 293.423 250.421C293.379 250.438 293.327 250.458 293.277 250.481L293.275 250.482C293.257 250.49 293.11 250.554 292.977 250.675C292.758 250.874 292.693 251.11 292.679 251.163L292.678 251.165C292.654 251.252 292.646 251.326 292.642 251.368C292.634 251.455 292.634 251.538 292.636 251.598C292.64 251.727 292.653 251.885 292.671 252.058C292.708 252.411 292.774 252.905 292.864 253.516C293.044 254.744 293.327 256.49 293.691 258.621C294.419 262.887 295.472 268.72 296.676 275.093C297.878 281.454 298.97 287.724 299.761 292.7C300.157 295.189 300.477 297.349 300.697 299.034C300.921 300.743 301.034 301.9 301.034 302.422C301.034 303.751 300.265 305.696 297.706 309.28C295.181 312.818 291.051 317.774 284.639 325.079L267.995 344.039L267.313 344.816L268.111 345.472L281.046 356.103C284.594 359.019 287.881 361.85 290.319 364.06C291.538 365.166 292.537 366.11 293.247 366.827C293.603 367.186 293.875 367.479 294.064 367.7C294.137 367.787 294.193 367.856 294.233 367.909C294.232 367.921 294.231 367.934 294.229 367.948C294.214 368.104 294.176 368.334 294.109 368.647C293.975 369.27 293.741 370.14 293.404 371.256C292.732 373.483 291.675 376.62 290.261 380.577C287.436 388.487 283.207 399.629 277.847 413.237L275.51 419.17L261.309 415.579C257.159 414.53 253.32 413.642 250.476 413.058C249.056 412.766 247.871 412.547 247.014 412.422C246.59 412.36 246.222 412.317 245.938 412.303C245.8 412.296 245.647 412.294 245.504 412.309C245.433 412.316 245.332 412.33 245.222 412.365C245.133 412.392 244.913 412.47 244.726 412.68C244.628 412.791 244.57 412.904 244.549 412.945C244.519 413.004 244.493 413.064 244.472 413.116C244.43 413.222 244.386 413.348 244.341 413.484C244.251 413.759 244.142 414.131 244.017 414.58C243.766 415.482 243.441 416.738 243.065 418.253C242.313 421.286 241.351 425.382 240.36 429.809C238.38 438.652 236.116 448.644 235.33 452.012L234.077 457.373H200.982H167.9L163.19 435.671C161.848 429.485 160.604 423.826 159.682 419.69C159.221 417.622 158.84 415.934 158.567 414.75C158.43 414.159 158.32 413.691 158.24 413.363C158.2 413.2 158.166 413.066 158.139 412.967C158.126 412.919 158.113 412.87 158.1 412.828C158.093 412.807 158.084 412.778 158.072 412.747C158.071 412.743 158.036 412.641 157.967 412.534ZM30.4544 217.331C30.455 217.331 30.4589 217.337 30.4647 217.348C30.4568 217.336 30.4539 217.33 30.4544 217.331ZM30.5182 217.733C30.5171 217.739 30.5162 217.743 30.5161 217.743C30.5159 217.743 30.5165 217.74 30.5182 217.733Z" fill="#800080" stroke="black" stroke-width="2"/>
</g>
<g clip-path="url(#clip1_0_1)">
<path d="M183.113 29.54C183.113 29.3641 183.113 29.1881 183.142 29.005C183.314 28.7899 183.47 28.5916 183.598 28.3725C184.841 26.2377 186.024 24.0547 187.339 21.9767C188.35 20.3799 189.526 18.9142 190.629 17.3902C190.686 17.4194 190.742 17.4486 190.798 17.4778C189.941 20.2 189.715 22.9932 189.932 25.8802C191.554 26.1096 193.151 26.3356 194.749 26.5615C194.779 26.4785 194.809 26.3954 194.839 26.3124C194.676 26.1697 194.52 26.0124 194.347 25.8866C193.368 25.1773 193.292 24.2983 193.745 23.1344C194.25 21.8354 194.582 20.4524 195.014 19.0244C196.07 20.2052 197.056 21.3339 198.072 22.4276C198.356 22.7326 198.369 22.9607 198.197 23.3379C197.746 24.3267 197.339 25.3413 196.884 26.3607C196.852 26.4062 196.851 26.4365 196.849 26.4667C196.898 26.4611 196.947 26.4555 197.034 26.4338C197.965 25.9216 198.851 25.4066 199.758 24.9438C199.959 24.8414 200.271 24.8354 200.47 24.9364C201.279 25.3469 202.063 25.8196 202.86 26.2608C203.004 26.3407 203.166 26.3809 203.445 26.487C202.856 25.1615 202.339 23.9988 201.857 22.916C203.004 21.6343 204.108 20.3997 205.238 19.1377C205.763 20.9129 206.302 22.7111 206.815 24.5187C206.853 24.6556 206.74 24.897 206.635 25.0255C206.225 25.525 205.79 25.9986 205.364 26.4818C205.389 26.5184 205.414 26.555 205.438 26.5915C207.063 26.3481 208.688 26.1046 210.301 25.8629C210.499 22.9772 210.285 20.2336 209.471 17.554C209.49 17.5378 209.525 17.5004 209.563 17.5056C210.488 18.6807 211.458 19.7847 212.242 21.0343C213.804 23.5241 215.262 26.0952 216.771 28.6266C216.844 28.7501 216.997 28.8147 217.113 28.9067C217.113 29.0826 217.113 29.2585 217.087 29.4406C215.314 30.9457 213.289 31.729 211.177 32.2803C210.56 32.4415 209.937 32.5759 209.301 32.7261C209.615 34.3837 209.931 35.9792 210.207 37.5835C210.247 37.8165 210.16 38.1597 210.017 38.3343C209.431 39.0496 208.803 39.7223 208.185 40.4046C207.761 40.8725 207.329 41.3302 206.89 41.803C207.779 42.551 208.581 43.2117 209.363 43.9011C209.47 43.995 209.561 44.2722 209.514 44.3969C208.886 46.077 208.232 47.7451 207.583 49.4215C206.555 49.1684 205.566 48.9251 204.539 48.6722C204.194 50.196 203.85 51.7111 203.509 53.2167C201.221 53.2167 198.994 53.2167 196.718 53.2167C196.376 51.7115 196.034 50.2018 195.688 48.6759C194.634 48.9318 193.638 49.1735 192.625 49.4194C191.936 47.6176 191.266 45.8674 190.594 44.1093C191.505 43.3426 192.385 42.602 193.312 41.8224C192.257 40.6448 191.237 39.4941 190.202 38.361C189.993 38.1324 189.923 37.9383 189.991 37.5994C190.32 35.9859 190.613 34.3635 190.921 32.7346C190.137 32.538 189.382 32.3668 188.635 32.1577C186.769 31.6351 184.949 30.9914 183.422 29.599C183.352 29.5348 183.218 29.5577 183.113 29.54Z" fill="#FDFDFD"/>
<path d="M196.976 26.423C196.947 26.4555 196.898 26.4611 196.849 26.4667C196.851 26.4365 196.852 26.4062 196.884 26.3607C196.929 26.3624 196.943 26.3793 196.976 26.423Z" fill="black"/>
<path d="M209.471 17.554C209.472 17.5274 209.492 17.4846 209.519 17.4711C209.525 17.5004 209.49 17.5378 209.471 17.554Z" fill="#FDFDFD"/>
<path d="M196.182 48.3361L196.182 48.336C196.094 48.2006 195.97 48.152 195.933 48.1383C195.883 48.12 195.841 48.1138 195.821 48.1114C195.78 48.1063 195.746 48.1074 195.734 48.1078C195.703 48.109 195.676 48.1124 195.661 48.1145C195.626 48.1192 195.584 48.1264 195.542 48.1344C195.454 48.1508 195.334 48.1758 195.192 48.2068C194.906 48.2692 194.517 48.359 194.093 48.4612L192.99 48.7275L192.194 46.6274C191.932 45.9381 191.695 45.3006 191.524 44.8291C191.448 44.6192 191.385 44.4437 191.34 44.3118C191.384 44.2696 191.437 44.221 191.496 44.1667C191.725 43.9584 192.044 43.6819 192.396 43.3886C192.757 43.0884 193.087 42.8022 193.329 42.5818C193.449 42.4724 193.552 42.375 193.627 42.2983C193.664 42.2611 193.701 42.2213 193.732 42.1834C193.747 42.1655 193.769 42.1375 193.79 42.1039C193.801 42.0871 193.817 42.0595 193.832 42.0239C193.844 41.9955 193.873 41.9217 193.873 41.8231C193.873 41.7154 193.837 41.634 193.83 41.6181L193.829 41.6166C193.817 41.5877 193.804 41.5644 193.796 41.5509C193.779 41.5226 193.761 41.496 193.747 41.4755C193.716 41.4325 193.677 41.3806 193.632 41.3243C193.542 41.2099 193.414 41.0555 193.26 40.8737C192.951 40.5091 192.527 40.0226 192.062 39.5015L190.543 37.7994L190.956 35.6521C191.082 34.9927 191.198 34.3652 191.281 33.8849C191.323 33.6451 191.358 33.4401 191.382 33.2855C191.402 33.155 191.424 33.0083 191.424 32.9266C191.424 32.6094 191.183 32.4311 191.094 32.3704C190.971 32.286 190.811 32.2118 190.636 32.1419C190.277 31.9995 189.733 31.8298 188.97 31.6145C187.092 31.0847 186.013 30.6069 184.02 29.4127C183.923 29.3546 183.833 29.2964 183.757 29.2435C183.852 29.064 183.986 28.8284 184.134 28.58C184.444 28.0625 185.508 26.2622 186.499 24.58C187.231 23.3357 188.321 21.6475 189.243 20.288C189.391 20.0699 189.535 19.8608 189.671 19.6638C189.418 21.0573 189.271 22.6359 189.273 24.0008C189.273 24.1282 189.273 24.251 189.272 24.3684C189.27 24.7048 189.268 24.9971 189.289 25.2276C189.317 25.5524 189.396 25.8954 189.684 26.1561C189.943 26.3901 190.301 26.4884 190.67 26.5606C190.951 26.6155 191.31 26.6662 191.746 26.7278C191.904 26.7501 192.072 26.7739 192.25 26.7998C192.912 26.896 193.53 26.9741 193.993 27.0224C194.224 27.0464 194.422 27.0636 194.57 27.0717C194.643 27.0756 194.713 27.0779 194.772 27.0766C194.8 27.0759 194.837 27.0742 194.876 27.0689C194.895 27.0663 194.924 27.0616 194.957 27.0525C194.983 27.0453 195.049 27.0259 195.118 26.978C195.217 26.9096 195.36 26.7857 195.421 26.5814C195.486 26.3616 195.422 26.1673 195.348 26.0357C195.278 25.9109 195.177 25.8014 195.078 25.7075C194.975 25.6095 194.848 25.5042 194.701 25.3903C194.443 25.1906 194.302 25.0634 194.217 24.946C194.147 24.8504 194.107 24.7504 194.101 24.5792C194.094 24.3865 194.13 24.1111 194.236 23.6767C194.341 23.2469 194.503 22.698 194.727 21.9679L195.253 20.2524L196.101 21.1726C196.495 21.5997 196.873 22.0171 197.164 22.3451C197.309 22.5092 197.432 22.6496 197.523 22.757C197.569 22.8108 197.606 22.8548 197.633 22.8886C197.639 22.8954 197.644 22.9015 197.648 22.9068C197.645 22.9348 197.636 22.9841 197.614 23.063C197.545 23.3153 197.384 23.7259 197.078 24.4523C196.875 24.9321 196.698 25.3811 196.576 25.7193C196.516 25.887 196.466 26.0349 196.434 26.1485C196.418 26.2032 196.402 26.2633 196.393 26.3191C196.388 26.3451 196.382 26.3888 196.382 26.439C196.382 26.464 196.384 26.5062 196.395 26.5563C196.405 26.6002 196.432 26.6966 196.513 26.7882C196.602 26.8874 196.706 26.9258 196.764 26.9413C196.824 26.9573 196.875 26.9592 196.905 26.959C196.964 26.9587 197.014 26.9489 197.041 26.943C197.099 26.9302 197.159 26.9102 197.211 26.8916C197.318 26.8526 197.456 26.7941 197.611 26.724C197.923 26.5825 198.336 26.3782 198.778 26.145L200.125 25.4333L201.413 26.124C202.126 26.5064 202.602 26.7504 202.903 26.8734C203.037 26.9278 203.209 26.9912 203.374 26.9922C203.464 26.9928 203.633 26.9756 203.778 26.8415C203.931 26.7001 203.958 26.5228 203.958 26.4214C203.958 26.3611 203.946 26.3128 203.944 26.3026L203.944 26.3016C203.939 26.2835 203.935 26.2681 203.932 26.2583C203.926 26.2379 203.918 26.2176 203.912 26.2004C203.899 26.1649 203.882 26.1206 203.862 26.0712C203.822 25.9711 203.765 25.8347 203.696 25.6729C203.559 25.3486 203.369 24.9139 203.161 24.4464L202.539 23.0484L203.901 21.5214C204.305 21.0688 204.68 20.6697 204.968 20.383C204.976 20.408 204.984 20.4337 204.992 20.4599C205.133 20.9001 205.314 21.4934 205.502 22.1328C205.812 23.1851 206.099 24.1516 206.212 24.5247C206.193 24.5591 206.168 24.6021 206.135 24.6535C206.024 24.828 205.857 25.055 205.66 25.2871C205.445 25.5412 205.254 25.7867 205.12 25.9802C205.054 26.0748 204.993 26.1687 204.95 26.2505C204.93 26.2885 204.902 26.3452 204.882 26.4093C204.873 26.4401 204.858 26.4976 204.857 26.569C204.857 26.6336 204.867 26.7855 204.988 26.9213C205.08 27.0239 205.188 27.0587 205.213 27.0671L205.214 27.0672C205.255 27.0807 205.291 27.0866 205.311 27.0895C205.352 27.0955 205.391 27.0969 205.419 27.0974C205.476 27.0983 205.545 27.0956 205.617 27.0912C205.764 27.0822 205.963 27.0639 206.198 27.0385C206.67 26.9875 207.306 26.9059 207.994 26.806L210.48 26.4451L210.919 26.3812L210.908 25.937L210.834 23.1928C210.791 21.57 210.726 20.5977 210.585 19.7658C210.697 19.9268 210.814 20.0977 210.936 20.2774C211.836 21.6052 212.974 23.3846 213.994 25.0941C214.666 26.2179 215.293 27.2411 215.763 27.9847C215.997 28.3558 216.195 28.6607 216.34 28.8745C216.412 28.9804 216.476 29.0702 216.526 29.1363C216.527 29.137 216.527 29.1377 216.528 29.1384C216.523 29.1426 216.518 29.1468 216.513 29.1511C216.345 29.2956 216.093 29.4777 215.784 29.6769C215.167 30.0743 214.369 30.5089 213.656 30.8113C212.999 31.09 211.717 31.514 210.823 31.7462C210.366 31.865 209.946 31.977 209.636 32.0617C209.482 32.1039 209.353 32.1399 209.261 32.1669C209.215 32.1802 209.175 32.1923 209.144 32.2023C209.129 32.2071 209.111 32.2131 209.093 32.2197C209.085 32.2228 209.07 32.2284 209.054 32.236C209.045 32.2398 209.031 32.2466 209.014 32.256C209.003 32.2622 208.963 32.2845 208.92 32.3232C208.812 32.4213 208.78 32.5368 208.774 32.5608L208.773 32.5621C208.762 32.6024 208.759 32.6356 208.757 32.6512C208.754 32.6843 208.755 32.7119 208.755 32.7239C208.756 32.7517 208.758 32.7791 208.76 32.7991C208.765 32.8422 208.772 32.8974 208.782 32.9591C208.8 33.0846 208.829 33.2601 208.865 33.471C208.937 33.8939 209.042 34.4706 209.161 35.0996C209.279 35.7225 209.386 36.3359 209.464 36.8214C209.503 37.0644 209.534 37.2732 209.555 37.4339C209.565 37.5145 209.573 37.5806 209.578 37.6318C209.581 37.6574 209.583 37.6776 209.584 37.693C209.585 37.7074 209.585 37.7141 209.585 37.7151C209.585 37.7152 209.585 37.7152 209.585 37.7151C209.585 37.7142 209.585 37.7142 209.585 37.7153C209.582 37.726 209.56 37.8364 209.331 38.1562C209.095 38.4861 208.699 38.9602 208.065 39.6799L206.42 41.5465L206.077 41.9355L206.478 42.264L207.756 43.3106C208.103 43.5945 208.423 43.8689 208.658 44.0812C208.745 44.1594 208.818 44.2272 208.875 44.2828C208.867 44.3103 208.858 44.341 208.848 44.3751C208.784 44.5847 208.683 44.8861 208.544 45.2735C208.266 46.0464 207.85 47.1387 207.321 48.4766L207.22 48.7331L206.158 48.4655C205.743 48.3612 205.358 48.2724 205.069 48.2133C204.926 48.184 204.8 48.1607 204.705 48.1468C204.658 48.14 204.607 48.1337 204.56 48.1313C204.539 48.1303 204.5 48.129 204.457 48.1335C204.435 48.1357 204.396 48.1408 204.351 48.155C204.315 48.166 204.212 48.2012 204.122 48.3016C204.077 48.3519 204.052 48.4006 204.046 48.4129L204.046 48.4136C204.035 48.4334 204.028 48.4508 204.024 48.4618C204.015 48.4843 204.007 48.5064 204.001 48.5234C203.99 48.559 203.977 48.6022 203.964 48.6485C203.938 48.7427 203.905 48.8705 203.867 49.0211C203.792 49.3234 203.696 49.7296 203.598 50.1676C203.402 51.0384 203.179 52.0203 203.101 52.3498L203.05 52.5678H200.097H197.15L196.754 50.7474C196.621 50.1379 196.498 49.5799 196.407 49.1718C196.361 48.9679 196.323 48.8006 196.296 48.6826C196.282 48.6239 196.271 48.5758 196.262 48.541C196.258 48.524 196.254 48.5072 196.25 48.493C196.248 48.4864 196.245 48.476 196.242 48.4647C196.24 48.4594 196.237 48.4489 196.232 48.4362C196.23 48.4299 196.226 48.4192 196.22 48.4063C196.216 48.3969 196.203 48.3689 196.182 48.3361ZM197.65 22.876C197.65 22.8759 197.65 22.8778 197.65 22.8824C197.649 22.8785 197.649 22.8762 197.65 22.876Z" fill="#800080" stroke="black"/>
</g>
<g clip-path="url(#clip2_0_1)">
<path d="M183.113 507.54C183.113 507.364 183.113 507.188 183.142 507.005C183.314 506.79 183.47 506.592 183.598 506.373C184.841 504.238 186.024 502.055 187.339 499.977C188.35 498.38 189.526 496.914 190.629 495.39C190.686 495.419 190.742 495.449 190.798 495.478C189.941 498.2 189.715 500.993 189.932 503.88C191.554 504.11 193.151 504.336 194.749 504.561C194.779 504.478 194.809 504.395 194.839 504.312C194.676 504.17 194.52 504.012 194.347 503.887C193.368 503.177 193.292 502.298 193.745 501.134C194.25 499.835 194.582 498.452 195.014 497.024C196.07 498.205 197.056 499.334 198.072 500.428C198.356 500.733 198.369 500.961 198.197 501.338C197.746 502.327 197.339 503.341 196.884 504.361C196.852 504.406 196.851 504.436 196.849 504.467C196.898 504.461 196.947 504.455 197.034 504.434C197.965 503.922 198.851 503.407 199.758 502.944C199.959 502.841 200.271 502.835 200.47 502.936C201.279 503.347 202.063 503.82 202.86 504.261C203.004 504.341 203.166 504.381 203.445 504.487C202.856 503.161 202.339 501.999 201.857 500.916C203.004 499.634 204.108 498.4 205.238 497.138C205.763 498.913 206.302 500.711 206.815 502.519C206.853 502.656 206.74 502.897 206.635 503.025C206.225 503.525 205.79 503.999 205.364 504.482C205.389 504.518 205.414 504.555 205.438 504.592C207.063 504.348 208.688 504.105 210.301 503.863C210.499 500.977 210.285 498.234 209.471 495.554C209.49 495.538 209.525 495.5 209.563 495.506C210.488 496.681 211.458 497.785 212.242 499.034C213.804 501.524 215.262 504.095 216.771 506.627C216.844 506.75 216.997 506.815 217.113 506.907C217.113 507.083 217.113 507.259 217.087 507.441C215.314 508.946 213.289 509.729 211.177 510.28C210.56 510.441 209.937 510.576 209.301 510.726C209.615 512.384 209.931 513.979 210.207 515.584C210.247 515.816 210.16 516.16 210.017 516.334C209.431 517.05 208.803 517.722 208.185 518.405C207.761 518.872 207.329 519.33 206.89 519.803C207.779 520.551 208.581 521.212 209.363 521.901C209.47 521.995 209.561 522.272 209.514 522.397C208.886 524.077 208.232 525.745 207.583 527.422C206.555 527.168 205.566 526.925 204.539 526.672C204.194 528.196 203.85 529.711 203.509 531.217C201.221 531.217 198.994 531.217 196.718 531.217C196.376 529.711 196.034 528.202 195.688 526.676C194.634 526.932 193.638 527.173 192.625 527.419C191.936 525.618 191.266 523.867 190.594 522.109C191.505 521.343 192.385 520.602 193.312 519.822C192.257 518.645 191.237 517.494 190.202 516.361C189.993 516.132 189.923 515.938 189.991 515.599C190.32 513.986 190.613 512.364 190.921 510.735C190.137 510.538 189.382 510.367 188.635 510.158C186.769 509.635 184.949 508.991 183.422 507.599C183.352 507.535 183.218 507.558 183.113 507.54Z" fill="#FDFDFD"/>
<path d="M196.976 504.423C196.947 504.455 196.898 504.461 196.849 504.467C196.851 504.436 196.852 504.406 196.884 504.361C196.929 504.362 196.943 504.379 196.976 504.423Z" fill="black"/>
<path d="M209.471 495.554C209.472 495.527 209.492 495.485 209.519 495.471C209.525 495.5 209.49 495.538 209.471 495.554Z" fill="#FDFDFD"/>
<path d="M196.182 526.336L196.182 526.336C196.094 526.201 195.97 526.152 195.933 526.138C195.883 526.12 195.841 526.114 195.821 526.111C195.78 526.106 195.746 526.107 195.734 526.108C195.703 526.109 195.676 526.112 195.661 526.114C195.626 526.119 195.584 526.126 195.542 526.134C195.454 526.151 195.334 526.176 195.192 526.207C194.906 526.269 194.517 526.359 194.093 526.461L192.99 526.727L192.194 524.627C191.932 523.938 191.695 523.301 191.524 522.829C191.448 522.619 191.385 522.444 191.34 522.312C191.384 522.27 191.437 522.221 191.496 522.167C191.725 521.958 192.044 521.682 192.396 521.389C192.757 521.088 193.087 520.802 193.329 520.582C193.449 520.472 193.552 520.375 193.627 520.298C193.664 520.261 193.701 520.221 193.732 520.183C193.747 520.165 193.769 520.138 193.79 520.104C193.801 520.087 193.817 520.059 193.832 520.024C193.844 519.996 193.873 519.922 193.873 519.823C193.873 519.715 193.837 519.634 193.83 519.618L193.829 519.617C193.817 519.588 193.804 519.564 193.796 519.551C193.779 519.523 193.761 519.496 193.747 519.476C193.716 519.433 193.677 519.381 193.632 519.324C193.542 519.21 193.414 519.055 193.26 518.874C192.951 518.509 192.527 518.023 192.062 517.501L190.543 515.799L190.956 513.652C191.082 512.993 191.198 512.365 191.281 511.885C191.323 511.645 191.358 511.44 191.382 511.285C191.402 511.155 191.424 511.008 191.424 510.927C191.424 510.609 191.183 510.431 191.094 510.37C190.971 510.286 190.811 510.212 190.636 510.142C190.277 509.999 189.733 509.83 188.97 509.615C187.092 509.085 186.013 508.607 184.02 507.413C183.923 507.355 183.833 507.296 183.757 507.243C183.852 507.064 183.986 506.828 184.134 506.58C184.444 506.062 185.508 504.262 186.499 502.58C187.231 501.336 188.321 499.648 189.243 498.288C189.391 498.07 189.535 497.861 189.671 497.664C189.418 499.057 189.271 500.636 189.273 502.001C189.273 502.128 189.273 502.251 189.272 502.368C189.27 502.705 189.268 502.997 189.289 503.228C189.317 503.552 189.396 503.895 189.684 504.156C189.943 504.39 190.301 504.488 190.67 504.561C190.951 504.616 191.31 504.666 191.746 504.728C191.904 504.75 192.072 504.774 192.25 504.8C192.912 504.896 193.53 504.974 193.993 505.022C194.224 505.046 194.422 505.064 194.57 505.072C194.643 505.076 194.713 505.078 194.772 505.077C194.8 505.076 194.837 505.074 194.876 505.069C194.895 505.066 194.924 505.062 194.957 505.053C194.983 505.045 195.049 505.026 195.118 504.978C195.217 504.91 195.36 504.786 195.421 504.581C195.486 504.362 195.422 504.167 195.348 504.036C195.278 503.911 195.177 503.801 195.078 503.708C194.975 503.61 194.848 503.504 194.701 503.39C194.443 503.191 194.302 503.063 194.217 502.946C194.147 502.85 194.107 502.75 194.101 502.579C194.094 502.386 194.13 502.111 194.236 501.677C194.341 501.247 194.503 500.698 194.727 499.968L195.253 498.252L196.101 499.173C196.495 499.6 196.873 500.017 197.164 500.345C197.309 500.509 197.432 500.65 197.523 500.757C197.569 500.811 197.606 500.855 197.633 500.889C197.639 500.895 197.644 500.901 197.648 500.907C197.645 500.935 197.636 500.984 197.614 501.063C197.545 501.315 197.384 501.726 197.078 502.452C196.875 502.932 196.698 503.381 196.576 503.719C196.516 503.887 196.466 504.035 196.434 504.148C196.418 504.203 196.402 504.263 196.393 504.319C196.388 504.345 196.382 504.389 196.382 504.439C196.382 504.464 196.384 504.506 196.395 504.556C196.405 504.6 196.432 504.697 196.513 504.788C196.602 504.887 196.706 504.926 196.764 504.941C196.824 504.957 196.875 504.959 196.905 504.959C196.964 504.959 197.014 504.949 197.041 504.943C197.099 504.93 197.159 504.91 197.211 504.892C197.318 504.853 197.456 504.794 197.611 504.724C197.923 504.583 198.336 504.378 198.778 504.145L200.125 503.433L201.413 504.124C202.126 504.506 202.602 504.75 202.903 504.873C203.037 504.928 203.209 504.991 203.374 504.992C203.464 504.993 203.633 504.976 203.778 504.842C203.931 504.7 203.958 504.523 203.958 504.421C203.958 504.361 203.946 504.313 203.944 504.303L203.944 504.302C203.939 504.284 203.935 504.268 203.932 504.258C203.926 504.238 203.918 504.218 203.912 504.2C203.899 504.165 203.882 504.121 203.862 504.071C203.822 503.971 203.765 503.835 203.696 503.673C203.559 503.349 203.369 502.914 203.161 502.446L202.539 501.048L203.901 499.521C204.305 499.069 204.68 498.67 204.968 498.383C204.976 498.408 204.984 498.434 204.992 498.46C205.133 498.9 205.314 499.493 205.502 500.133C205.812 501.185 206.099 502.152 206.212 502.525C206.193 502.559 206.168 502.602 206.135 502.654C206.024 502.828 205.857 503.055 205.66 503.287C205.445 503.541 205.254 503.787 205.12 503.98C205.054 504.075 204.993 504.169 204.95 504.251C204.93 504.288 204.902 504.345 204.882 504.409C204.873 504.44 204.858 504.498 204.857 504.569C204.857 504.634 204.867 504.785 204.988 504.921C205.08 505.024 205.188 505.059 205.213 505.067L205.214 505.067C205.255 505.081 205.291 505.087 205.311 505.09C205.352 505.095 205.391 505.097 205.419 505.097C205.476 505.098 205.545 505.096 205.617 505.091C205.764 505.082 205.963 505.064 206.198 505.038C206.67 504.988 207.306 504.906 207.994 504.806L210.48 504.445L210.919 504.381L210.908 503.937L210.834 501.193C210.791 499.57 210.726 498.598 210.585 497.766C210.697 497.927 210.814 498.098 210.936 498.277C211.836 499.605 212.974 501.385 213.994 503.094C214.666 504.218 215.293 505.241 215.763 505.985C215.997 506.356 216.195 506.661 216.34 506.875C216.412 506.98 216.476 507.07 216.526 507.136C216.527 507.137 216.527 507.138 216.528 507.138C216.523 507.143 216.518 507.147 216.513 507.151C216.345 507.296 216.093 507.478 215.784 507.677C215.167 508.074 214.369 508.509 213.656 508.811C212.999 509.09 211.717 509.514 210.823 509.746C210.366 509.865 209.946 509.977 209.636 510.062C209.482 510.104 209.353 510.14 209.261 510.167C209.215 510.18 209.175 510.192 209.144 510.202C209.129 510.207 209.111 510.213 209.093 510.22C209.085 510.223 209.07 510.228 209.054 510.236C209.045 510.24 209.031 510.247 209.014 510.256C209.003 510.262 208.963 510.284 208.92 510.323C208.812 510.421 208.78 510.537 208.774 510.561L208.773 510.562C208.762 510.602 208.759 510.636 208.757 510.651C208.754 510.684 208.755 510.712 208.755 510.724C208.756 510.752 208.758 510.779 208.76 510.799C208.765 510.842 208.772 510.897 208.782 510.959C208.8 511.085 208.829 511.26 208.865 511.471C208.937 511.894 209.042 512.471 209.161 513.1C209.279 513.723 209.386 514.336 209.464 514.821C209.503 515.064 209.534 515.273 209.555 515.434C209.565 515.514 209.573 515.581 209.578 515.632C209.581 515.657 209.583 515.678 209.584 515.693C209.585 515.707 209.585 515.714 209.585 515.715C209.585 515.715 209.585 515.715 209.585 515.715C209.585 515.714 209.585 515.714 209.585 515.715C209.582 515.726 209.56 515.836 209.331 516.156C209.095 516.486 208.699 516.96 208.065 517.68L206.42 519.547L206.077 519.936L206.478 520.264L207.756 521.311C208.103 521.594 208.423 521.869 208.658 522.081C208.745 522.159 208.818 522.227 208.875 522.283C208.867 522.31 208.858 522.341 208.848 522.375C208.784 522.585 208.683 522.886 208.544 523.273C208.266 524.046 207.85 525.139 207.321 526.477L207.22 526.733L206.158 526.466C205.743 526.361 205.358 526.272 205.069 526.213C204.926 526.184 204.8 526.161 204.705 526.147C204.658 526.14 204.607 526.134 204.56 526.131C204.539 526.13 204.5 526.129 204.457 526.134C204.435 526.136 204.396 526.141 204.351 526.155C204.315 526.166 204.212 526.201 204.122 526.302C204.077 526.352 204.052 526.401 204.046 526.413L204.046 526.414C204.035 526.433 204.028 526.451 204.024 526.462C204.015 526.484 204.007 526.506 204.001 526.523C203.99 526.559 203.977 526.602 203.964 526.649C203.938 526.743 203.905 526.871 203.867 527.021C203.792 527.323 203.696 527.73 203.598 528.168C203.402 529.038 203.179 530.02 203.101 530.35L203.05 530.568H200.097H197.15L196.754 528.747C196.621 528.138 196.498 527.58 196.407 527.172C196.361 526.968 196.323 526.801 196.296 526.683C196.282 526.624 196.271 526.576 196.262 526.541C196.258 526.524 196.254 526.507 196.25 526.493C196.248 526.486 196.245 526.476 196.242 526.465C196.24 526.459 196.237 526.449 196.232 526.436C196.23 526.43 196.226 526.419 196.22 526.406C196.216 526.397 196.203 526.369 196.182 526.336ZM197.65 500.876C197.65 500.876 197.65 500.878 197.65 500.882C197.649 500.878 197.649 500.876 197.65 500.876Z" fill="#800080" stroke="black"/>
</g>
<g filter="url(#filter1_d_0_1)">
<mask id="path-15-outside-1_0_1" maskUnits="userSpaceOnUse" x="154" y="245" width="92" height="97" fill="black">
<rect fill="white" x="154" y="245" width="92" height="97"/>
<path d="M199.883 248.52C204.609 248.52 209.258 248.891 213.828 249.633C218.438 250.336 222.559 251.586 226.191 253.383C229.863 255.18 232.812 257.582 235.039 260.59C237.266 263.598 238.379 267.367 238.379 271.898C238.379 277.367 236.836 281.82 233.75 285.258C230.703 288.695 226.172 290.844 220.156 291.703V292.348C226.719 292.895 232.012 294.887 236.035 298.324C240.098 301.762 242.129 306.762 242.129 313.324C242.129 316.137 241.465 319.027 240.137 321.996C238.809 324.926 236.523 327.621 233.281 330.082C230.039 332.504 225.684 334.496 220.215 336.059C214.746 337.621 207.812 338.402 199.414 338.402C191.25 338.402 184.453 337.621 179.023 336.059C173.633 334.496 169.355 332.504 166.191 330.082C163.066 327.621 160.859 324.926 159.57 321.996C158.281 319.027 157.637 316.137 157.637 313.324C157.637 306.762 159.648 301.762 163.672 298.324C167.734 294.887 173.047 292.895 179.609 292.348V291.703C173.594 290.844 169.023 288.695 165.898 285.258C162.773 281.82 161.211 277.367 161.211 271.898C161.211 267.367 162.266 263.598 164.375 260.59C166.523 257.582 169.375 255.18 172.93 253.383C176.484 251.586 180.605 250.336 185.293 249.633C189.98 248.891 194.844 248.52 199.883 248.52ZM199.883 298.676C196.836 298.676 194.59 299.672 193.145 301.664C191.699 303.656 190.977 306.293 190.977 309.574C190.977 312.855 191.699 315.551 193.145 317.66C194.59 319.73 196.836 320.766 199.883 320.766C202.93 320.766 205.176 319.73 206.621 317.66C208.066 315.551 208.789 312.855 208.789 309.574C208.789 306.293 208.066 303.656 206.621 301.664C205.176 299.672 202.93 298.676 199.883 298.676ZM199.766 265.57C197.188 265.57 195.312 266.469 194.141 268.266C193.008 270.062 192.441 272.445 192.441 275.414C192.441 278.266 193.008 280.648 194.141 282.562C195.312 284.438 197.188 285.375 199.766 285.375C202.383 285.375 204.277 284.438 205.449 282.562C206.621 280.648 207.207 278.266 207.207 275.414C207.207 272.445 206.621 270.062 205.449 268.266C204.277 266.469 202.383 265.57 199.766 265.57Z"/>
</mask>
<path d="M199.883 248.52C204.609 248.52 209.258 248.891 213.828 249.633C218.438 250.336 222.559 251.586 226.191 253.383C229.863 255.18 232.812 257.582 235.039 260.59C237.266 263.598 238.379 267.367 238.379 271.898C238.379 277.367 236.836 281.82 233.75 285.258C230.703 288.695 226.172 290.844 220.156 291.703V292.348C226.719 292.895 232.012 294.887 236.035 298.324C240.098 301.762 242.129 306.762 242.129 313.324C242.129 316.137 241.465 319.027 240.137 321.996C238.809 324.926 236.523 327.621 233.281 330.082C230.039 332.504 225.684 334.496 220.215 336.059C214.746 337.621 207.812 338.402 199.414 338.402C191.25 338.402 184.453 337.621 179.023 336.059C173.633 334.496 169.355 332.504 166.191 330.082C163.066 327.621 160.859 324.926 159.57 321.996C158.281 319.027 157.637 316.137 157.637 313.324C157.637 306.762 159.648 301.762 163.672 298.324C167.734 294.887 173.047 292.895 179.609 292.348V291.703C173.594 290.844 169.023 288.695 165.898 285.258C162.773 281.82 161.211 277.367 161.211 271.898C161.211 267.367 162.266 263.598 164.375 260.59C166.523 257.582 169.375 255.18 172.93 253.383C176.484 251.586 180.605 250.336 185.293 249.633C189.98 248.891 194.844 248.52 199.883 248.52ZM199.883 298.676C196.836 298.676 194.59 299.672 193.145 301.664C191.699 303.656 190.977 306.293 190.977 309.574C190.977 312.855 191.699 315.551 193.145 317.66C194.59 319.73 196.836 320.766 199.883 320.766C202.93 320.766 205.176 319.73 206.621 317.66C208.066 315.551 208.789 312.855 208.789 309.574C208.789 306.293 208.066 303.656 206.621 301.664C205.176 299.672 202.93 298.676 199.883 298.676ZM199.766 265.57C197.188 265.57 195.312 266.469 194.141 268.266C193.008 270.062 192.441 272.445 192.441 275.414C192.441 278.266 193.008 280.648 194.141 282.562C195.312 284.438 197.188 285.375 199.766 285.375C202.383 285.375 204.277 284.438 205.449 282.562C206.621 280.648 207.207 278.266 207.207 275.414C207.207 272.445 206.621 270.062 205.449 268.266C204.277 266.469 202.383 265.57 199.766 265.57Z" fill="#b39ab1"/>
<path d="M213.828 249.633L213.347 252.594L213.361 252.596L213.376 252.599L213.828 249.633ZM226.191 253.383L224.861 256.072L224.873 256.077L226.191 253.383ZM233.75 285.258L231.518 283.254L231.511 283.261L231.505 283.268L233.75 285.258ZM220.156 291.703L219.732 288.733L217.156 289.101V291.703H220.156ZM220.156 292.348H217.156V295.108L219.907 295.337L220.156 292.348ZM236.035 298.324L234.086 300.605L234.092 300.61L234.097 300.614L236.035 298.324ZM240.137 321.996L242.869 323.235L242.872 323.228L242.875 323.221L240.137 321.996ZM233.281 330.082L235.077 332.486L235.086 332.479L235.095 332.472L233.281 330.082ZM179.023 336.059L178.188 338.94L178.194 338.942L179.023 336.059ZM166.191 330.082L164.335 332.439L164.352 332.452L164.368 332.464L166.191 330.082ZM159.57 321.996L156.819 323.191L156.821 323.198L156.824 323.204L159.57 321.996ZM163.672 298.324L161.734 296.034L161.729 296.039L161.723 296.043L163.672 298.324ZM179.609 292.348L179.859 295.337L182.609 295.108V292.348H179.609ZM179.609 291.703H182.609V289.101L180.034 288.733L179.609 291.703ZM164.375 260.59L161.934 258.846L161.926 258.857L161.919 258.867L164.375 260.59ZM185.293 249.633L185.738 252.6L185.75 252.598L185.762 252.596L185.293 249.633ZM193.145 317.66L190.67 319.356L190.677 319.367L190.685 319.377L193.145 317.66ZM206.621 317.66L209.081 319.377L209.088 319.367L209.096 319.356L206.621 317.66ZM194.141 268.266L191.628 266.627L191.615 266.646L191.603 266.666L194.141 268.266ZM194.141 282.562L191.559 284.09L191.577 284.122L191.597 284.152L194.141 282.562ZM205.449 282.562L207.993 284.152L208.001 284.141L208.008 284.129L205.449 282.562ZM199.883 251.52C204.452 251.52 208.939 251.878 213.347 252.594L214.309 246.672C209.576 245.903 204.767 245.52 199.883 245.52V251.52ZM213.376 252.599C217.725 253.262 221.543 254.431 224.861 256.072L227.521 250.694C223.574 248.741 219.15 247.41 214.281 246.667L213.376 252.599ZM224.873 256.077C228.154 257.683 230.713 259.788 232.628 262.375L237.45 258.805C234.912 255.376 231.573 252.676 227.51 250.688L224.873 256.077ZM232.628 262.375C234.397 264.765 235.379 267.871 235.379 271.898H241.379C241.379 266.863 240.134 262.431 237.45 258.805L232.628 262.375ZM235.379 271.898C235.379 276.771 234.021 280.465 231.518 283.254L235.982 287.262C239.651 283.175 241.379 277.963 241.379 271.898H235.379ZM231.505 283.268C229.064 286.022 225.274 287.942 219.732 288.733L220.581 294.673C227.07 293.746 232.343 291.369 235.995 287.248L231.505 283.268ZM217.156 291.703V292.348H223.156V291.703H217.156ZM219.907 295.337C225.998 295.845 230.647 297.667 234.086 300.605L237.984 296.043C233.376 292.107 227.44 289.944 220.405 289.358L219.907 295.337ZM234.097 300.614C237.332 303.351 239.129 307.42 239.129 313.324H245.129C245.129 306.104 242.863 300.172 237.973 296.034L234.097 300.614ZM239.129 313.324C239.129 315.653 238.581 318.128 237.398 320.771L242.875 323.221C244.349 319.927 245.129 316.62 245.129 313.324H239.129ZM237.404 320.757C236.33 323.128 234.416 325.455 231.467 327.692L235.095 332.472C238.631 329.788 241.288 326.723 242.869 323.235L237.404 320.757ZM231.486 327.679C228.628 329.813 224.64 331.674 219.391 333.174L221.039 338.943C226.727 337.318 231.45 335.194 235.077 332.486L231.486 327.679ZM219.391 333.174C214.285 334.633 207.653 335.402 199.414 335.402V341.402C207.972 341.402 215.208 340.609 221.039 338.943L219.391 333.174ZM199.414 335.402C191.418 335.402 184.923 334.634 179.853 333.176L178.194 338.942C183.984 340.608 191.082 341.402 199.414 341.402V335.402ZM179.859 333.177C174.691 331.679 170.789 329.823 168.015 327.7L164.368 332.464C167.922 335.184 172.575 337.313 178.188 338.94L179.859 333.177ZM168.047 327.725C165.217 325.496 163.365 323.171 162.316 320.788L156.824 323.204C158.354 326.68 160.916 329.746 164.335 332.439L168.047 327.725ZM162.322 320.801C161.172 318.153 160.637 315.668 160.637 313.324H154.637C154.637 316.605 155.39 319.902 156.819 323.191L162.322 320.801ZM160.637 313.324C160.637 307.41 162.421 303.339 165.621 300.605L161.723 296.043C156.876 300.184 154.637 306.113 154.637 313.324H160.637ZM165.61 300.614C169.093 297.667 173.768 295.845 179.859 295.337L179.36 289.358C172.325 289.944 166.376 292.106 161.734 296.034L165.61 300.614ZM182.609 292.348V291.703H176.609V292.348H182.609ZM180.034 288.733C174.494 287.942 170.646 286.02 168.118 283.24L163.679 287.276C167.401 291.371 172.694 293.746 179.185 294.673L180.034 288.733ZM168.118 283.24C165.582 280.45 164.211 276.761 164.211 271.898H158.211C158.211 277.973 159.965 283.19 163.679 287.276L168.118 283.24ZM164.211 271.898C164.211 267.838 165.151 264.708 166.831 262.312L161.919 258.867C159.38 262.487 158.211 266.896 158.211 271.898H164.211ZM166.816 262.334C168.661 259.751 171.127 257.656 174.283 256.06L171.576 250.705C167.623 252.704 164.386 255.414 161.934 258.846L166.816 262.334ZM174.283 256.06C177.504 254.432 181.308 253.264 185.738 252.6L184.848 246.666C179.903 247.408 175.465 248.74 171.576 250.705L174.283 256.06ZM185.762 252.596C190.285 251.88 194.991 251.52 199.883 251.52V245.52C194.696 245.52 189.676 245.902 184.824 246.67L185.762 252.596ZM199.883 295.676C196.131 295.676 192.861 296.946 190.716 299.902L195.573 303.426C196.319 302.398 197.541 301.676 199.883 301.676V295.676ZM190.716 299.902C188.793 302.553 187.977 305.869 187.977 309.574H193.977C193.977 306.717 194.605 304.759 195.573 303.426L190.716 299.902ZM187.977 309.574C187.977 313.29 188.797 316.623 190.67 319.356L195.619 315.964C194.601 314.479 193.977 312.421 193.977 309.574H187.977ZM190.685 319.377C192.811 322.424 196.086 323.766 199.883 323.766V317.766C197.586 317.766 196.368 317.037 195.604 315.943L190.685 319.377ZM199.883 323.766C203.68 323.766 206.954 322.424 209.081 319.377L204.161 315.943C203.397 317.037 202.18 317.766 199.883 317.766V323.766ZM209.096 319.356C210.969 316.623 211.789 313.29 211.789 309.574H205.789C205.789 312.421 205.164 314.479 204.146 315.964L209.096 319.356ZM211.789 309.574C211.789 305.869 210.972 302.553 209.049 299.902L204.193 303.426C205.16 304.759 205.789 306.717 205.789 309.574H211.789ZM209.049 299.902C206.905 296.946 203.635 295.676 199.883 295.676V301.676C202.225 301.676 203.447 302.398 204.193 303.426L209.049 299.902ZM199.766 262.57C196.41 262.57 193.471 263.8 191.628 266.627L196.653 269.904C197.154 269.137 197.965 268.57 199.766 268.57V262.57ZM191.603 266.666C190.071 269.096 189.441 272.095 189.441 275.414H195.441C195.441 272.796 195.945 271.029 196.678 269.866L191.603 266.666ZM189.441 275.414C189.441 278.654 190.085 281.601 191.559 284.09L196.722 281.035C195.93 279.696 195.441 277.877 195.441 275.414H189.441ZM191.597 284.152C193.416 287.063 196.355 288.375 199.766 288.375V282.375C198.02 282.375 197.209 281.812 196.685 280.973L191.597 284.152ZM199.766 288.375C203.195 288.375 206.165 287.078 207.993 284.152L202.905 280.973C202.39 281.797 201.57 282.375 199.766 282.375V288.375ZM208.008 284.129C209.537 281.632 210.207 278.671 210.207 275.414H204.207C204.207 277.861 203.705 279.665 202.891 280.996L208.008 284.129ZM210.207 275.414C210.207 272.079 209.552 269.065 207.962 266.627L202.936 269.904C203.69 271.06 204.207 272.812 204.207 275.414H210.207ZM207.962 266.627C206.11 263.787 203.141 262.57 199.766 262.57V268.57C201.625 268.57 202.445 269.151 202.936 269.904L207.962 266.627Z" fill="black" mask="url(#path-15-outside-1_0_1)"/>
<mask id="path-17-outside-2_0_1" maskUnits="userSpaceOnUse" x="341" y="21" width="50" height="53" fill="black">
<rect fill="white" x="341" y="21" width="50" height="53"/>
<path d="M365.938 23.3438C368.458 23.3438 370.938 23.5417 373.375 23.9375C375.833 24.3125 378.031 24.9792 379.969 25.9375C381.927 26.8958 383.5 28.1771 384.688 29.7812C385.875 31.3854 386.469 33.3958 386.469 35.8125C386.469 38.7292 385.646 41.1042 384 42.9375C382.375 44.7708 379.958 45.9167 376.75 46.375V46.7188C380.25 47.0104 383.073 48.0729 385.219 49.9062C387.385 51.7396 388.469 54.4062 388.469 57.9062C388.469 59.4062 388.115 60.9479 387.406 62.5312C386.698 64.0938 385.479 65.5312 383.75 66.8438C382.021 68.1354 379.698 69.1979 376.781 70.0312C373.865 70.8646 370.167 71.2812 365.688 71.2812C361.333 71.2812 357.708 70.8646 354.812 70.0312C351.938 69.1979 349.656 68.1354 347.969 66.8438C346.302 65.5312 345.125 64.0938 344.438 62.5312C343.75 60.9479 343.406 59.4062 343.406 57.9062C343.406 54.4062 344.479 51.7396 346.625 49.9062C348.792 48.0729 351.625 47.0104 355.125 46.7188V46.375C351.917 45.9167 349.479 44.7708 347.812 42.9375C346.146 41.1042 345.312 38.7292 345.312 35.8125C345.312 33.3958 345.875 31.3854 347 29.7812C348.146 28.1771 349.667 26.8958 351.562 25.9375C353.458 24.9792 355.656 24.3125 358.156 23.9375C360.656 23.5417 363.25 23.3438 365.938 23.3438ZM365.938 50.0938C364.312 50.0938 363.115 50.625 362.344 51.6875C361.573 52.75 361.188 54.1562 361.188 55.9062C361.188 57.6562 361.573 59.0938 362.344 60.2188C363.115 61.3229 364.312 61.875 365.938 61.875C367.562 61.875 368.76 61.3229 369.531 60.2188C370.302 59.0938 370.688 57.6562 370.688 55.9062C370.688 54.1562 370.302 52.75 369.531 51.6875C368.76 50.625 367.562 50.0938 365.938 50.0938ZM365.875 32.4375C364.5 32.4375 363.5 32.9167 362.875 33.875C362.271 34.8333 361.969 36.1042 361.969 37.6875C361.969 39.2083 362.271 40.4792 362.875 41.5C363.5 42.5 364.5 43 365.875 43C367.271 43 368.281 42.5 368.906 41.5C369.531 40.4792 369.844 39.2083 369.844 37.6875C369.844 36.1042 369.531 34.8333 368.906 33.875C368.281 32.9167 367.271 32.4375 365.875 32.4375Z"/>
</mask>
<path d="M365.938 23.3438C368.458 23.3438 370.938 23.5417 373.375 23.9375C375.833 24.3125 378.031 24.9792 379.969 25.9375C381.927 26.8958 383.5 28.1771 384.688 29.7812C385.875 31.3854 386.469 33.3958 386.469 35.8125C386.469 38.7292 385.646 41.1042 384 42.9375C382.375 44.7708 379.958 45.9167 376.75 46.375V46.7188C380.25 47.0104 383.073 48.0729 385.219 49.9062C387.385 51.7396 388.469 54.4062 388.469 57.9062C388.469 59.4062 388.115 60.9479 387.406 62.5312C386.698 64.0938 385.479 65.5312 383.75 66.8438C382.021 68.1354 379.698 69.1979 376.781 70.0312C373.865 70.8646 370.167 71.2812 365.688 71.2812C361.333 71.2812 357.708 70.8646 354.812 70.0312C351.938 69.1979 349.656 68.1354 347.969 66.8438C346.302 65.5312 345.125 64.0938 344.438 62.5312C343.75 60.9479 343.406 59.4062 343.406 57.9062C343.406 54.4062 344.479 51.7396 346.625 49.9062C348.792 48.0729 351.625 47.0104 355.125 46.7188V46.375C351.917 45.9167 349.479 44.7708 347.812 42.9375C346.146 41.1042 345.312 38.7292 345.312 35.8125C345.312 33.3958 345.875 31.3854 347 29.7812C348.146 28.1771 349.667 26.8958 351.562 25.9375C353.458 24.9792 355.656 24.3125 358.156 23.9375C360.656 23.5417 363.25 23.3438 365.938 23.3438ZM365.938 50.0938C364.312 50.0938 363.115 50.625 362.344 51.6875C361.573 52.75 361.188 54.1562 361.188 55.9062C361.188 57.6562 361.573 59.0938 362.344 60.2188C363.115 61.3229 364.312 61.875 365.938 61.875C367.562 61.875 368.76 61.3229 369.531 60.2188C370.302 59.0938 370.688 57.6562 370.688 55.9062C370.688 54.1562 370.302 52.75 369.531 51.6875C368.76 50.625 367.562 50.0938 365.938 50.0938ZM365.875 32.4375C364.5 32.4375 363.5 32.9167 362.875 33.875C362.271 34.8333 361.969 36.1042 361.969 37.6875C361.969 39.2083 362.271 40.4792 362.875 41.5C363.5 42.5 364.5 43 365.875 43C367.271 43 368.281 42.5 368.906 41.5C369.531 40.4792 369.844 39.2083 369.844 37.6875C369.844 36.1042 369.531 34.8333 368.906 33.875C368.281 32.9167 367.271 32.4375 365.875 32.4375Z" fill="#800080"/>
<path d="M373.375 23.9375L373.054 25.9116L373.064 25.9132L373.073 25.9146L373.375 23.9375ZM379.969 25.9375L379.082 27.7302L379.09 27.7339L379.969 25.9375ZM384 42.9375L382.512 41.6014L382.503 41.6109L384 42.9375ZM376.75 46.375L376.467 44.3951L374.75 44.6404V46.375H376.75ZM376.75 46.7188H374.75V48.559L376.584 48.7118L376.75 46.7188ZM385.219 49.9062L383.92 51.4269L383.927 51.433L385.219 49.9062ZM387.406 62.5312L389.228 63.357L389.232 63.348L387.406 62.5312ZM383.75 66.8438L384.947 68.4461L384.953 68.4415L384.959 68.4368L383.75 66.8438ZM354.812 70.0312L354.256 71.9522L354.259 71.9533L354.812 70.0312ZM347.969 66.8438L346.731 68.415L346.742 68.4235L346.753 68.4319L347.969 66.8438ZM344.438 62.5312L342.603 63.3278L342.607 63.3367L344.438 62.5312ZM346.625 49.9062L345.333 48.3795L345.326 48.3857L346.625 49.9062ZM355.125 46.7188L355.291 48.7118L357.125 48.559V46.7188H355.125ZM355.125 46.375H357.125V44.6404L355.408 44.3951L355.125 46.375ZM347 29.7812L345.373 28.6188L345.368 28.6258L345.363 28.6329L347 29.7812ZM351.562 25.9375L350.66 24.1526L351.562 25.9375ZM358.156 23.9375L358.453 25.9154L358.461 25.9142L358.469 25.9129L358.156 23.9375ZM362.344 60.2188L360.694 61.3492L360.699 61.3564L360.704 61.3636L362.344 60.2188ZM369.531 60.2188L371.171 61.3636L371.176 61.3564L371.181 61.3492L369.531 60.2188ZM362.875 33.875L361.2 32.7825L361.191 32.7954L361.183 32.8084L362.875 33.875ZM362.875 41.5L361.154 42.5186L361.166 42.5395L361.179 42.56L362.875 41.5ZM368.906 41.5L370.602 42.56L370.607 42.5522L370.612 42.5443L368.906 41.5ZM365.938 25.3438C368.353 25.3438 370.725 25.5334 373.054 25.9116L373.696 21.9634C371.15 21.55 368.563 21.3438 365.938 21.3438V25.3438ZM373.073 25.9146C375.358 26.2632 377.354 26.8756 379.082 27.7302L380.855 24.1448C378.708 23.0827 376.308 22.3618 373.677 21.9604L373.073 25.9146ZM379.09 27.7339C380.787 28.5647 382.1 29.6479 383.08 30.9712L386.295 28.5913C384.9 26.7063 383.067 25.227 380.848 24.1411L379.09 27.7339ZM383.08 30.9712C383.963 32.1634 384.469 33.7318 384.469 35.8125H388.469C388.469 33.0599 387.787 30.6074 386.295 28.5913L383.08 30.9712ZM384.469 35.8125C384.469 38.3319 383.769 40.2007 382.512 41.6014L385.488 44.2736C387.522 42.0076 388.469 39.1265 388.469 35.8125H384.469ZM382.503 41.6109C381.282 42.9887 379.36 43.9819 376.467 44.3951L377.033 48.3549C380.557 47.8514 383.468 46.553 385.497 44.2641L382.503 41.6109ZM374.75 46.375V46.7188H378.75V46.375H374.75ZM376.584 48.7118C379.769 48.9773 382.163 49.9263 383.92 51.4268L386.518 48.3857C383.983 46.2195 380.731 45.0435 376.916 44.7257L376.584 48.7118ZM383.927 51.433C385.542 52.7993 386.469 54.845 386.469 57.9062H390.469C390.469 53.9675 389.229 50.6799 386.511 48.3795L383.927 51.433ZM386.469 57.9062C386.469 59.0841 386.192 60.3482 385.581 61.7145L389.232 63.348C390.037 61.5476 390.469 59.7284 390.469 57.9062H386.469ZM385.585 61.7055C385.045 62.8954 384.074 64.0869 382.541 65.2507L384.959 68.4368C386.884 66.9756 388.351 65.2921 389.228 63.357L385.585 61.7055ZM382.553 65.2414C381.08 66.3418 379.002 67.3166 376.232 68.1082L377.331 71.9543C380.393 71.0792 382.962 69.929 384.947 68.4461L382.553 65.2414ZM376.232 68.1082C373.557 68.8725 370.06 69.2812 365.688 69.2812V73.2812C370.273 73.2812 374.172 72.8567 377.331 71.9543L376.232 68.1082ZM365.688 69.2812C361.445 69.2812 358.021 68.8735 355.366 68.1092L354.259 71.9533C357.395 72.8557 361.222 73.2812 365.688 73.2812V69.2812ZM355.369 68.1103C352.643 67.32 350.612 66.3484 349.184 65.2556L346.753 68.4319C348.7 69.9225 351.232 71.0758 354.256 71.9522L355.369 68.1103ZM349.206 65.2725C347.736 64.1144 346.795 62.924 346.268 61.7258L342.607 63.3367C343.455 65.2635 344.869 66.9481 346.731 68.415L349.206 65.2725ZM346.272 61.7347C345.677 60.3651 345.406 59.0939 345.406 57.9062H341.406C341.406 59.7186 341.823 61.5308 342.603 63.3278L346.272 61.7347ZM345.406 57.9062C345.406 54.8386 346.327 52.7911 347.924 51.4268L345.326 48.3857C342.631 50.688 341.406 53.9739 341.406 57.9062H345.406ZM347.917 51.433C349.697 49.9265 352.106 48.9773 355.291 48.7118L354.959 44.7257C351.144 45.0436 347.886 46.2193 345.333 48.3795L347.917 51.433ZM357.125 46.7188V46.375H353.125V46.7188H357.125ZM355.408 44.3951C352.517 43.9821 350.561 42.9872 349.292 41.5922L346.333 44.2828C348.398 46.5544 351.317 47.8513 354.842 48.3549L355.408 44.3951ZM349.292 41.5922C348.018 40.1908 347.312 38.3252 347.312 35.8125H343.312C343.312 39.1331 344.273 42.0175 346.333 44.2828L349.292 41.5922ZM347.312 35.8125C347.312 33.7097 347.799 32.1258 348.637 30.9296L345.363 28.6329C343.951 30.6451 343.312 33.0819 343.312 35.8125H347.312ZM348.627 30.9437C349.571 29.6227 350.834 28.5465 352.465 27.7224L350.66 24.1526C348.499 25.2452 346.721 26.7314 345.373 28.6188L348.627 30.9437ZM352.465 27.7224C354.138 26.8765 356.125 26.2646 358.453 25.9154L357.86 21.9596C355.188 22.3604 352.779 23.0818 350.66 24.1526L352.465 27.7224ZM358.469 25.9129C360.859 25.5344 363.348 25.3438 365.938 25.3438V21.3438C363.152 21.3438 360.453 21.5489 357.843 21.9621L358.469 25.9129ZM365.938 48.0938C363.842 48.0938 361.962 48.8077 360.725 50.513L363.963 52.862C364.267 52.4423 364.783 52.0938 365.938 52.0938V48.0938ZM360.725 50.513C359.636 52.0146 359.188 53.8734 359.188 55.9062H363.188C363.188 54.4391 363.51 53.4854 363.963 52.862L360.725 50.513ZM359.188 55.9062C359.188 57.9459 359.638 59.8084 360.694 61.3492L363.994 59.0883C363.508 58.3791 363.188 57.3666 363.188 55.9062H359.188ZM360.704 61.3636C361.929 63.1183 363.813 63.875 365.938 63.875V59.875C364.812 59.875 364.3 59.5275 363.984 59.0739L360.704 61.3636ZM365.938 63.875C368.062 63.875 369.946 63.1183 371.171 61.3636L367.891 59.0739C367.575 59.5275 367.063 59.875 365.938 59.875V63.875ZM371.181 61.3492C372.237 59.8084 372.688 57.9459 372.688 55.9062H368.688C368.688 57.3666 368.367 58.3791 367.881 59.0883L371.181 61.3492ZM372.688 55.9062C372.688 53.8734 372.239 52.0146 371.15 50.513L367.912 52.862C368.365 53.4854 368.688 54.4391 368.688 55.9062H372.688ZM371.15 50.513C369.913 48.8077 368.033 48.0938 365.938 48.0938V52.0938C367.092 52.0938 367.608 52.4423 367.912 52.862L371.15 50.513ZM365.875 30.4375C363.981 30.4375 362.272 31.1378 361.2 32.7825L364.55 34.9675C364.728 34.6955 365.019 34.4375 365.875 34.4375V30.4375ZM361.183 32.8084C360.313 34.1891 359.969 35.8705 359.969 37.6875H363.969C363.969 36.3378 364.229 35.4775 364.567 34.9416L361.183 32.8084ZM359.969 37.6875C359.969 39.4675 360.322 41.1139 361.154 42.5186L364.596 40.4814C364.219 39.8444 363.969 38.9492 363.969 37.6875H359.969ZM361.179 42.56C362.235 44.2503 363.945 45 365.875 45V41C365.055 41 364.765 40.7497 364.571 40.44L361.179 42.56ZM365.875 45C367.812 45 369.54 44.2601 370.602 42.56L367.21 40.44C367.023 40.7399 366.729 41 365.875 41V45ZM370.612 42.5443C371.475 41.1346 371.844 39.4784 371.844 37.6875H367.844C367.844 38.9383 367.587 39.8238 367.201 40.4557L370.612 42.5443ZM371.844 37.6875C371.844 35.8599 371.485 34.1682 370.581 32.7825L367.231 34.9675C367.577 35.4984 367.844 36.3484 367.844 37.6875H371.844ZM370.581 32.7825C369.503 31.1286 367.776 30.4375 365.875 30.4375V34.4375C366.766 34.4375 367.06 34.7047 367.231 34.9675L370.581 32.7825Z" fill="black" mask="url(#path-17-outside-2_0_1)"/>
<mask id="path-19-outside-3_0_1" maskUnits="userSpaceOnUse" x="341" y="485" width="50" height="53" fill="black">
<rect fill="white" x="341" y="485" width="50" height="53"/>
<path d="M365.938 487.344C368.458 487.344 370.938 487.542 373.375 487.938C375.833 488.312 378.031 488.979 379.969 489.938C381.927 490.896 383.5 492.177 384.688 493.781C385.875 495.385 386.469 497.396 386.469 499.812C386.469 502.729 385.646 505.104 384 506.938C382.375 508.771 379.958 509.917 376.75 510.375V510.719C380.25 511.01 383.073 512.073 385.219 513.906C387.385 515.74 388.469 518.406 388.469 521.906C388.469 523.406 388.115 524.948 387.406 526.531C386.698 528.094 385.479 529.531 383.75 530.844C382.021 532.135 379.698 533.198 376.781 534.031C373.865 534.865 370.167 535.281 365.688 535.281C361.333 535.281 357.708 534.865 354.812 534.031C351.938 533.198 349.656 532.135 347.969 530.844C346.302 529.531 345.125 528.094 344.438 526.531C343.75 524.948 343.406 523.406 343.406 521.906C343.406 518.406 344.479 515.74 346.625 513.906C348.792 512.073 351.625 511.01 355.125 510.719V510.375C351.917 509.917 349.479 508.771 347.812 506.938C346.146 505.104 345.312 502.729 345.312 499.812C345.312 497.396 345.875 495.385 347 493.781C348.146 492.177 349.667 490.896 351.562 489.938C353.458 488.979 355.656 488.312 358.156 487.938C360.656 487.542 363.25 487.344 365.938 487.344ZM365.938 514.094C364.312 514.094 363.115 514.625 362.344 515.688C361.573 516.75 361.188 518.156 361.188 519.906C361.188 521.656 361.573 523.094 362.344 524.219C363.115 525.323 364.312 525.875 365.938 525.875C367.562 525.875 368.76 525.323 369.531 524.219C370.302 523.094 370.688 521.656 370.688 519.906C370.688 518.156 370.302 516.75 369.531 515.688C368.76 514.625 367.562 514.094 365.938 514.094ZM365.875 496.438C364.5 496.438 363.5 496.917 362.875 497.875C362.271 498.833 361.969 500.104 361.969 501.688C361.969 503.208 362.271 504.479 362.875 505.5C363.5 506.5 364.5 507 365.875 507C367.271 507 368.281 506.5 368.906 505.5C369.531 504.479 369.844 503.208 369.844 501.688C369.844 500.104 369.531 498.833 368.906 497.875C368.281 496.917 367.271 496.438 365.875 496.438Z"/>
</mask>
<path d="M365.938 487.344C368.458 487.344 370.938 487.542 373.375 487.938C375.833 488.312 378.031 488.979 379.969 489.938C381.927 490.896 383.5 492.177 384.688 493.781C385.875 495.385 386.469 497.396 386.469 499.812C386.469 502.729 385.646 505.104 384 506.938C382.375 508.771 379.958 509.917 376.75 510.375V510.719C380.25 511.01 383.073 512.073 385.219 513.906C387.385 515.74 388.469 518.406 388.469 521.906C388.469 523.406 388.115 524.948 387.406 526.531C386.698 528.094 385.479 529.531 383.75 530.844C382.021 532.135 379.698 533.198 376.781 534.031C373.865 534.865 370.167 535.281 365.688 535.281C361.333 535.281 357.708 534.865 354.812 534.031C351.938 533.198 349.656 532.135 347.969 530.844C346.302 529.531 345.125 528.094 344.438 526.531C343.75 524.948 343.406 523.406 343.406 521.906C343.406 518.406 344.479 515.74 346.625 513.906C348.792 512.073 351.625 511.01 355.125 510.719V510.375C351.917 509.917 349.479 508.771 347.812 506.938C346.146 505.104 345.312 502.729 345.312 499.812C345.312 497.396 345.875 495.385 347 493.781C348.146 492.177 349.667 490.896 351.562 489.938C353.458 488.979 355.656 488.312 358.156 487.938C360.656 487.542 363.25 487.344 365.938 487.344ZM365.938 514.094C364.312 514.094 363.115 514.625 362.344 515.688C361.573 516.75 361.188 518.156 361.188 519.906C361.188 521.656 361.573 523.094 362.344 524.219C363.115 525.323 364.312 525.875 365.938 525.875C367.562 525.875 368.76 525.323 369.531 524.219C370.302 523.094 370.688 521.656 370.688 519.906C370.688 518.156 370.302 516.75 369.531 515.688C368.76 514.625 367.562 514.094 365.938 514.094ZM365.875 496.438C364.5 496.438 363.5 496.917 362.875 497.875C362.271 498.833 361.969 500.104 361.969 501.688C361.969 503.208 362.271 504.479 362.875 505.5C363.5 506.5 364.5 507 365.875 507C367.271 507 368.281 506.5 368.906 505.5C369.531 504.479 369.844 503.208 369.844 501.688C369.844 500.104 369.531 498.833 368.906 497.875C368.281 496.917 367.271 496.438 365.875 496.438Z" fill="#800080"/>
<path d="M373.375 487.938L373.054 489.912L373.064 489.913L373.073 489.915L373.375 487.938ZM379.969 489.938L379.082 491.73L379.09 491.734L379.969 489.938ZM384 506.938L382.512 505.601L382.503 505.611L384 506.938ZM376.75 510.375L376.467 508.395L374.75 508.64V510.375H376.75ZM376.75 510.719H374.75V512.559L376.584 512.712L376.75 510.719ZM385.219 513.906L383.92 515.427L383.927 515.433L385.219 513.906ZM387.406 526.531L389.228 527.357L389.232 527.348L387.406 526.531ZM383.75 530.844L384.947 532.446L384.953 532.441L384.959 532.437L383.75 530.844ZM354.812 534.031L354.256 535.952L354.259 535.953L354.812 534.031ZM347.969 530.844L346.731 532.415L346.742 532.424L346.753 532.432L347.969 530.844ZM344.438 526.531L342.603 527.328L342.607 527.337L344.438 526.531ZM346.625 513.906L345.333 512.379L345.326 512.386L346.625 513.906ZM355.125 510.719L355.291 512.712L357.125 512.559V510.719H355.125ZM355.125 510.375H357.125V508.64L355.408 508.395L355.125 510.375ZM347 493.781L345.373 492.619L345.368 492.626L345.363 492.633L347 493.781ZM351.562 489.938L350.66 488.153L351.562 489.938ZM358.156 487.938L358.453 489.915L358.461 489.914L358.469 489.913L358.156 487.938ZM362.344 524.219L360.694 525.349L360.699 525.356L360.704 525.364L362.344 524.219ZM369.531 524.219L371.171 525.364L371.176 525.356L371.181 525.349L369.531 524.219ZM362.875 497.875L361.2 496.782L361.191 496.795L361.183 496.808L362.875 497.875ZM362.875 505.5L361.154 506.519L361.166 506.539L361.179 506.56L362.875 505.5ZM368.906 505.5L370.602 506.56L370.607 506.552L370.612 506.544L368.906 505.5ZM365.938 489.344C368.353 489.344 370.725 489.533 373.054 489.912L373.696 485.963C371.15 485.55 368.563 485.344 365.938 485.344V489.344ZM373.073 489.915C375.358 490.263 377.354 490.876 379.082 491.73L380.855 488.145C378.708 487.083 376.308 486.362 373.677 485.96L373.073 489.915ZM379.09 491.734C380.787 492.565 382.1 493.648 383.08 494.971L386.295 492.591C384.9 490.706 383.067 489.227 380.848 488.141L379.09 491.734ZM383.08 494.971C383.963 496.163 384.469 497.732 384.469 499.812H388.469C388.469 497.06 387.787 494.607 386.295 492.591L383.08 494.971ZM384.469 499.812C384.469 502.332 383.769 504.201 382.512 505.601L385.488 508.274C387.522 506.008 388.469 503.126 388.469 499.812H384.469ZM382.503 505.611C381.282 506.989 379.36 507.982 376.467 508.395L377.033 512.355C380.557 511.851 383.468 510.553 385.497 508.264L382.503 505.611ZM374.75 510.375V510.719H378.75V510.375H374.75ZM376.584 512.712C379.769 512.977 382.163 513.926 383.92 515.427L386.518 512.386C383.983 510.22 380.731 509.044 376.916 508.726L376.584 512.712ZM383.927 515.433C385.542 516.799 386.469 518.845 386.469 521.906H390.469C390.469 517.968 389.229 514.68 386.511 512.379L383.927 515.433ZM386.469 521.906C386.469 523.084 386.192 524.348 385.581 525.715L389.232 527.348C390.037 525.548 390.469 523.728 390.469 521.906H386.469ZM385.585 525.705C385.045 526.895 384.074 528.087 382.541 529.251L384.959 532.437C386.884 530.976 388.351 529.292 389.228 527.357L385.585 525.705ZM382.553 529.241C381.08 530.342 379.002 531.317 376.232 532.108L377.331 535.954C380.393 535.079 382.962 533.929 384.947 532.446L382.553 529.241ZM376.232 532.108C373.557 532.872 370.06 533.281 365.688 533.281V537.281C370.273 537.281 374.172 536.857 377.331 535.954L376.232 532.108ZM365.688 533.281C361.445 533.281 358.021 532.873 355.366 532.109L354.259 535.953C357.395 536.856 361.222 537.281 365.688 537.281V533.281ZM355.369 532.11C352.643 531.32 350.612 530.348 349.184 529.256L346.753 532.432C348.7 533.922 351.232 535.076 354.256 535.952L355.369 532.11ZM349.206 529.272C347.736 528.114 346.795 526.924 346.268 525.726L342.607 527.337C343.455 529.264 344.869 530.948 346.731 532.415L349.206 529.272ZM346.272 525.735C345.677 524.365 345.406 523.094 345.406 521.906H341.406C341.406 523.719 341.823 525.531 342.603 527.328L346.272 525.735ZM345.406 521.906C345.406 518.839 346.327 516.791 347.924 515.427L345.326 512.386C342.631 514.688 341.406 517.974 341.406 521.906H345.406ZM347.917 515.433C349.697 513.927 352.106 512.977 355.291 512.712L354.959 508.726C351.144 509.044 347.886 510.219 345.333 512.379L347.917 515.433ZM357.125 510.719V510.375H353.125V510.719H357.125ZM355.408 508.395C352.517 507.982 350.561 506.987 349.292 505.592L346.333 508.283C348.398 510.554 351.317 511.851 354.842 512.355L355.408 508.395ZM349.292 505.592C348.018 504.191 347.312 502.325 347.312 499.812H343.312C343.312 503.133 344.273 506.018 346.333 508.283L349.292 505.592ZM347.312 499.812C347.312 497.71 347.799 496.126 348.637 494.93L345.363 492.633C343.951 494.645 343.312 497.082 343.312 499.812H347.312ZM348.627 494.944C349.571 493.623 350.834 492.547 352.465 491.722L350.66 488.153C348.499 489.245 346.721 490.731 345.373 492.619L348.627 494.944ZM352.465 491.722C354.138 490.877 356.125 490.265 358.453 489.915L357.86 485.96C355.188 486.36 352.779 487.082 350.66 488.153L352.465 491.722ZM358.469 489.913C360.859 489.534 363.348 489.344 365.938 489.344V485.344C363.152 485.344 360.453 485.549 357.843 485.962L358.469 489.913ZM365.938 512.094C363.842 512.094 361.962 512.808 360.725 514.513L363.963 516.862C364.267 516.442 364.783 516.094 365.938 516.094V512.094ZM360.725 514.513C359.636 516.015 359.188 517.873 359.188 519.906H363.188C363.188 518.439 363.51 517.485 363.963 516.862L360.725 514.513ZM359.188 519.906C359.188 521.946 359.638 523.808 360.694 525.349L363.994 523.088C363.508 522.379 363.188 521.367 363.188 519.906H359.188ZM360.704 525.364C361.929 527.118 363.813 527.875 365.938 527.875V523.875C364.812 523.875 364.3 523.528 363.984 523.074L360.704 525.364ZM365.938 527.875C368.062 527.875 369.946 527.118 371.171 525.364L367.891 523.074C367.575 523.528 367.063 523.875 365.938 523.875V527.875ZM371.181 525.349C372.237 523.808 372.688 521.946 372.688 519.906H368.688C368.688 521.367 368.367 522.379 367.881 523.088L371.181 525.349ZM372.688 519.906C372.688 517.873 372.239 516.015 371.15 514.513L367.912 516.862C368.365 517.485 368.688 518.439 368.688 519.906H372.688ZM371.15 514.513C369.913 512.808 368.033 512.094 365.938 512.094V516.094C367.092 516.094 367.608 516.442 367.912 516.862L371.15 514.513ZM365.875 494.438C363.981 494.438 362.272 495.138 361.2 496.782L364.55 498.968C364.728 498.696 365.019 498.438 365.875 498.438V494.438ZM361.183 496.808C360.313 498.189 359.969 499.871 359.969 501.688H363.969C363.969 500.338 364.229 499.478 364.567 498.942L361.183 496.808ZM359.969 501.688C359.969 503.467 360.322 505.114 361.154 506.519L364.596 504.481C364.219 503.844 363.969 502.949 363.969 501.688H359.969ZM361.179 506.56C362.235 508.25 363.945 509 365.875 509V505C365.055 505 364.765 504.75 364.571 504.44L361.179 506.56ZM365.875 509C367.812 509 369.54 508.26 370.602 506.56L367.21 504.44C367.023 504.74 366.729 505 365.875 505V509ZM370.612 506.544C371.475 505.135 371.844 503.478 371.844 501.688H367.844C367.844 502.938 367.587 503.824 367.201 504.456L370.612 506.544ZM371.844 501.688C371.844 499.86 371.485 498.168 370.581 496.782L367.231 498.968C367.577 499.498 367.844 500.348 367.844 501.688H371.844ZM370.581 496.782C369.503 495.129 367.776 494.438 365.875 494.438V498.438C366.766 498.438 367.06 498.705 367.231 498.968L370.581 496.782Z" fill="black" mask="url(#path-19-outside-3_0_1)"/>
<mask id="path-21-outside-4_0_1" maskUnits="userSpaceOnUse" x="19" y="485" width="50" height="53" fill="black">
<rect fill="white" x="19" y="485" width="50" height="53"/>
<path d="M43.9375 487.344C46.4583 487.344 48.9375 487.542 51.375 487.938C53.8333 488.312 56.0312 488.979 57.9688 489.938C59.9271 490.896 61.5 492.177 62.6875 493.781C63.875 495.385 64.4688 497.396 64.4688 499.812C64.4688 502.729 63.6458 505.104 62 506.938C60.375 508.771 57.9583 509.917 54.75 510.375V510.719C58.25 511.01 61.0729 512.073 63.2188 513.906C65.3854 515.74 66.4688 518.406 66.4688 521.906C66.4688 523.406 66.1146 524.948 65.4062 526.531C64.6979 528.094 63.4792 529.531 61.75 530.844C60.0208 532.135 57.6979 533.198 54.7812 534.031C51.8646 534.865 48.1667 535.281 43.6875 535.281C39.3333 535.281 35.7083 534.865 32.8125 534.031C29.9375 533.198 27.6562 532.135 25.9688 530.844C24.3021 529.531 23.125 528.094 22.4375 526.531C21.75 524.948 21.4062 523.406 21.4062 521.906C21.4062 518.406 22.4792 515.74 24.625 513.906C26.7917 512.073 29.625 511.01 33.125 510.719V510.375C29.9167 509.917 27.4792 508.771 25.8125 506.938C24.1458 505.104 23.3125 502.729 23.3125 499.812C23.3125 497.396 23.875 495.385 25 493.781C26.1458 492.177 27.6667 490.896 29.5625 489.938C31.4583 488.979 33.6562 488.312 36.1562 487.938C38.6562 487.542 41.25 487.344 43.9375 487.344ZM43.9375 514.094C42.3125 514.094 41.1146 514.625 40.3438 515.688C39.5729 516.75 39.1875 518.156 39.1875 519.906C39.1875 521.656 39.5729 523.094 40.3438 524.219C41.1146 525.323 42.3125 525.875 43.9375 525.875C45.5625 525.875 46.7604 525.323 47.5312 524.219C48.3021 523.094 48.6875 521.656 48.6875 519.906C48.6875 518.156 48.3021 516.75 47.5312 515.688C46.7604 514.625 45.5625 514.094 43.9375 514.094ZM43.875 496.438C42.5 496.438 41.5 496.917 40.875 497.875C40.2708 498.833 39.9688 500.104 39.9688 501.688C39.9688 503.208 40.2708 504.479 40.875 505.5C41.5 506.5 42.5 507 43.875 507C45.2708 507 46.2812 506.5 46.9062 505.5C47.5312 504.479 47.8438 503.208 47.8438 501.688C47.8438 500.104 47.5312 498.833 46.9062 497.875C46.2812 496.917 45.2708 496.438 43.875 496.438Z"/>
</mask>
<path d="M43.9375 487.344C46.4583 487.344 48.9375 487.542 51.375 487.938C53.8333 488.312 56.0312 488.979 57.9688 489.938C59.9271 490.896 61.5 492.177 62.6875 493.781C63.875 495.385 64.4688 497.396 64.4688 499.812C64.4688 502.729 63.6458 505.104 62 506.938C60.375 508.771 57.9583 509.917 54.75 510.375V510.719C58.25 511.01 61.0729 512.073 63.2188 513.906C65.3854 515.74 66.4688 518.406 66.4688 521.906C66.4688 523.406 66.1146 524.948 65.4062 526.531C64.6979 528.094 63.4792 529.531 61.75 530.844C60.0208 532.135 57.6979 533.198 54.7812 534.031C51.8646 534.865 48.1667 535.281 43.6875 535.281C39.3333 535.281 35.7083 534.865 32.8125 534.031C29.9375 533.198 27.6562 532.135 25.9688 530.844C24.3021 529.531 23.125 528.094 22.4375 526.531C21.75 524.948 21.4062 523.406 21.4062 521.906C21.4062 518.406 22.4792 515.74 24.625 513.906C26.7917 512.073 29.625 511.01 33.125 510.719V510.375C29.9167 509.917 27.4792 508.771 25.8125 506.938C24.1458 505.104 23.3125 502.729 23.3125 499.812C23.3125 497.396 23.875 495.385 25 493.781C26.1458 492.177 27.6667 490.896 29.5625 489.938C31.4583 488.979 33.6562 488.312 36.1562 487.938C38.6562 487.542 41.25 487.344 43.9375 487.344ZM43.9375 514.094C42.3125 514.094 41.1146 514.625 40.3438 515.688C39.5729 516.75 39.1875 518.156 39.1875 519.906C39.1875 521.656 39.5729 523.094 40.3438 524.219C41.1146 525.323 42.3125 525.875 43.9375 525.875C45.5625 525.875 46.7604 525.323 47.5312 524.219C48.3021 523.094 48.6875 521.656 48.6875 519.906C48.6875 518.156 48.3021 516.75 47.5312 515.688C46.7604 514.625 45.5625 514.094 43.9375 514.094ZM43.875 496.438C42.5 496.438 41.5 496.917 40.875 497.875C40.2708 498.833 39.9688 500.104 39.9688 501.688C39.9688 503.208 40.2708 504.479 40.875 505.5C41.5 506.5 42.5 507 43.875 507C45.2708 507 46.2812 506.5 46.9062 505.5C47.5312 504.479 47.8438 503.208 47.8438 501.688C47.8438 500.104 47.5312 498.833 46.9062 497.875C46.2812 496.917 45.2708 496.438 43.875 496.438Z" fill="#800080"/>
<path d="M51.375 487.938L51.0544 489.912L51.0639 489.913L51.0734 489.915L51.375 487.938ZM57.9688 489.938L57.082 491.73L57.0896 491.734L57.9688 489.938ZM62 506.938L60.5117 505.601L60.5033 505.611L62 506.938ZM54.75 510.375L54.4672 508.395L52.75 508.64V510.375H54.75ZM54.75 510.719H52.75V512.559L54.5839 512.712L54.75 510.719ZM63.2188 513.906L61.9196 515.427L61.9269 515.433L63.2188 513.906ZM65.4062 526.531L67.2278 527.357L67.2319 527.348L65.4062 526.531ZM61.75 530.844L62.9469 532.446L62.9531 532.441L62.9592 532.437L61.75 530.844ZM32.8125 534.031L32.2557 535.952L32.2594 535.953L32.8125 534.031ZM25.9688 530.844L24.7314 532.415L24.7422 532.424L24.7531 532.432L25.9688 530.844ZM22.4375 526.531L20.603 527.328L20.6069 527.337L22.4375 526.531ZM24.625 513.906L23.3331 512.379L23.3259 512.386L24.625 513.906ZM33.125 510.719L33.2911 512.712L35.125 512.559V510.719H33.125ZM33.125 510.375H35.125V508.64L33.4078 508.395L33.125 510.375ZM25 493.781L23.3725 492.619L23.3675 492.626L23.3625 492.633L25 493.781ZM29.5625 489.938L28.6602 488.153L29.5625 489.938ZM36.1562 487.938L36.4529 489.915L36.461 489.914L36.469 489.913L36.1562 487.938ZM40.3438 524.219L38.6939 525.349L38.6988 525.356L38.7038 525.364L40.3438 524.219ZM47.5312 524.219L49.1712 525.364L49.1762 525.356L49.1811 525.349L47.5312 524.219ZM40.875 497.875L39.1998 496.782L39.1914 496.795L39.1831 496.808L40.875 497.875ZM40.875 505.5L39.1538 506.519L39.1662 506.539L39.179 506.56L40.875 505.5ZM46.9062 505.5L48.6022 506.56L48.6071 506.552L48.612 506.544L46.9062 505.5ZM43.9375 489.344C46.3532 489.344 48.7251 489.533 51.0544 489.912L51.6956 485.963C49.1499 485.55 46.5635 485.344 43.9375 485.344V489.344ZM51.0734 489.915C53.3584 490.263 55.3543 490.876 57.082 491.73L58.8555 488.145C56.7082 487.083 54.3083 486.362 51.6766 485.96L51.0734 489.915ZM57.0896 491.734C58.7872 492.565 60.1004 493.648 61.08 494.971L64.295 492.591C62.8996 490.706 61.0669 489.227 58.8479 488.141L57.0896 491.734ZM61.08 494.971C61.9626 496.163 62.4688 497.732 62.4688 499.812H66.4688C66.4688 497.06 65.7874 494.607 64.295 492.591L61.08 494.971ZM62.4688 499.812C62.4688 502.332 61.7692 504.201 60.5117 505.601L63.4883 508.274C65.5225 506.008 66.4688 503.126 66.4688 499.812H62.4688ZM60.5033 505.611C59.2821 506.989 57.3595 507.982 54.4672 508.395L55.0328 512.355C58.5571 511.851 61.4679 510.553 63.4967 508.264L60.5033 505.611ZM52.75 510.375V510.719H56.75V510.375H52.75ZM54.5839 512.712C57.7693 512.977 60.1633 513.926 61.9196 515.427L64.5179 512.386C61.9826 510.22 58.7307 509.044 54.9161 508.726L54.5839 512.712ZM61.9269 515.433C63.5416 516.799 64.4688 518.845 64.4688 521.906H68.4688C68.4688 517.968 67.2293 514.68 64.5106 512.379L61.9269 515.433ZM64.4688 521.906C64.4688 523.084 64.1919 524.348 63.5806 525.715L67.2319 527.348C68.0373 525.548 68.4688 523.728 68.4688 521.906H64.4688ZM63.5847 525.705C63.0453 526.895 62.074 528.087 60.5408 529.251L62.9592 532.437C64.8843 530.976 66.3506 529.292 67.2278 527.357L63.5847 525.705ZM60.5531 529.241C59.08 530.342 57.0024 531.317 54.2318 532.108L55.3307 535.954C58.3934 535.079 60.9616 533.929 62.9469 532.446L60.5531 529.241ZM54.2318 532.108C51.5569 532.872 48.0604 533.281 43.6875 533.281V537.281C48.273 537.281 52.1723 536.857 55.3307 535.954L54.2318 532.108ZM43.6875 533.281C39.4451 533.281 36.0213 532.873 33.3656 532.109L32.2594 535.953C35.3954 536.856 39.2216 537.281 43.6875 537.281V533.281ZM33.3693 532.11C30.6427 531.32 28.612 530.348 27.1844 529.256L24.7531 532.432C26.7005 533.922 29.2323 535.076 32.2557 535.952L33.3693 532.11ZM27.2061 529.272C25.7355 528.114 24.7953 526.924 24.2681 525.726L20.6069 527.337C21.4547 529.264 22.8687 530.948 24.7314 532.415L27.2061 529.272ZM24.272 525.735C23.6773 524.365 23.4062 523.094 23.4062 521.906H19.4062C19.4062 523.719 19.8227 525.531 20.603 527.328L24.272 525.735ZM23.4062 521.906C23.4062 518.839 24.3273 516.791 25.9241 515.427L23.3259 512.386C20.631 514.688 19.4062 517.974 19.4062 521.906H23.4062ZM25.9169 515.433C27.6973 513.927 30.1061 512.977 33.2911 512.712L32.9589 508.726C29.1439 509.044 25.8861 510.219 23.3331 512.379L25.9169 515.433ZM35.125 510.719V510.375H31.125V510.719H35.125ZM33.4078 508.395C30.5166 507.982 28.5606 506.987 27.2924 505.592L24.3326 508.283C26.3977 510.554 29.3168 511.851 32.8422 512.355L33.4078 508.395ZM27.2924 505.592C26.0184 504.191 25.3125 502.325 25.3125 499.812H21.3125C21.3125 503.133 22.2733 506.018 24.3326 508.283L27.2924 505.592ZM25.3125 499.812C25.3125 497.71 25.7986 496.126 26.6375 494.93L23.3625 492.633C21.9514 494.645 21.3125 497.082 21.3125 499.812H25.3125ZM26.6275 494.944C27.571 493.623 28.8345 492.547 30.4648 491.722L28.6602 488.153C26.4989 489.245 24.7206 490.731 23.3725 492.619L26.6275 494.944ZM30.4648 491.722C32.1381 490.877 34.1249 490.265 36.4529 489.915L35.8596 485.96C33.1876 486.36 30.7786 487.082 28.6602 488.153L30.4648 491.722ZM36.469 489.913C38.8594 489.534 41.3483 489.344 43.9375 489.344V485.344C41.1517 485.344 38.4531 485.549 35.8435 485.962L36.469 489.913ZM43.9375 512.094C41.8425 512.094 39.9621 512.808 38.7249 514.513L41.9626 516.862C42.2671 516.442 42.7825 516.094 43.9375 516.094V512.094ZM38.7249 514.513C37.6356 516.015 37.1875 517.873 37.1875 519.906H41.1875C41.1875 518.439 41.5103 517.485 41.9626 516.862L38.7249 514.513ZM37.1875 519.906C37.1875 521.946 37.6381 523.808 38.6939 525.349L41.9936 523.088C41.5077 522.379 41.1875 521.367 41.1875 519.906H37.1875ZM38.7038 525.364C39.9288 527.118 41.8126 527.875 43.9375 527.875V523.875C42.8124 523.875 42.3003 523.528 41.9837 523.074L38.7038 525.364ZM43.9375 527.875C46.0624 527.875 47.9462 527.118 49.1712 525.364L45.8913 523.074C45.5747 523.528 45.0626 523.875 43.9375 523.875V527.875ZM49.1811 525.349C50.2369 523.808 50.6875 521.946 50.6875 519.906H46.6875C46.6875 521.367 46.3673 522.379 45.8814 523.088L49.1811 525.349ZM50.6875 519.906C50.6875 517.873 50.2394 516.015 49.1501 514.513L45.9124 516.862C46.3647 517.485 46.6875 518.439 46.6875 519.906H50.6875ZM49.1501 514.513C47.9129 512.808 46.0325 512.094 43.9375 512.094V516.094C45.0925 516.094 45.6079 516.442 45.9124 516.862L49.1501 514.513ZM43.875 494.438C41.9814 494.438 40.2724 495.138 39.1998 496.782L42.5502 498.968C42.7276 498.696 43.0186 498.438 43.875 498.438V494.438ZM39.1831 496.808C38.3127 498.189 37.9688 499.871 37.9688 501.688H41.9688C41.9688 500.338 42.229 499.478 42.5669 498.942L39.1831 496.808ZM37.9688 501.688C37.9688 503.467 38.3225 505.114 39.1538 506.519L42.5962 504.481C42.2192 503.844 41.9688 502.949 41.9688 501.688H37.9688ZM39.179 506.56C40.2354 508.25 41.9448 509 43.875 509V505C43.0552 505 42.7646 504.75 42.571 504.44L39.179 506.56ZM43.875 509C45.8125 509 47.5397 508.26 48.6022 506.56L45.2103 504.44C45.0228 504.74 44.7292 505 43.875 505V509ZM48.612 506.544C49.4751 505.135 49.8438 503.478 49.8438 501.688H45.8438C45.8438 502.938 45.5874 503.824 45.2005 504.456L48.612 506.544ZM49.8438 501.688C49.8438 499.86 49.4852 498.168 48.5815 496.782L45.231 498.968C45.5773 499.498 45.8438 500.348 45.8438 501.688H49.8438ZM48.5815 496.782C47.5029 495.129 45.7761 494.438 43.875 494.438V498.438C44.7656 498.438 45.0596 498.705 45.231 498.968L48.5815 496.782Z" fill="black" mask="url(#path-21-outside-4_0_1)"/>
<mask id="path-23-outside-5_0_1" maskUnits="userSpaceOnUse" x="19" y="21" width="50" height="53" fill="black">
<rect fill="white" x="19" y="21" width="50" height="53"/>
<path d="M43.9375 23.3438C46.4583 23.3438 48.9375 23.5417 51.375 23.9375C53.8333 24.3125 56.0312 24.9792 57.9688 25.9375C59.9271 26.8958 61.5 28.1771 62.6875 29.7812C63.875 31.3854 64.4688 33.3958 64.4688 35.8125C64.4688 38.7292 63.6458 41.1042 62 42.9375C60.375 44.7708 57.9583 45.9167 54.75 46.375V46.7188C58.25 47.0104 61.0729 48.0729 63.2188 49.9062C65.3854 51.7396 66.4688 54.4062 66.4688 57.9062C66.4688 59.4062 66.1146 60.9479 65.4062 62.5312C64.6979 64.0938 63.4792 65.5312 61.75 66.8438C60.0208 68.1354 57.6979 69.1979 54.7812 70.0312C51.8646 70.8646 48.1667 71.2812 43.6875 71.2812C39.3333 71.2812 35.7083 70.8646 32.8125 70.0312C29.9375 69.1979 27.6562 68.1354 25.9688 66.8438C24.3021 65.5312 23.125 64.0938 22.4375 62.5312C21.75 60.9479 21.4062 59.4062 21.4062 57.9062C21.4062 54.4062 22.4792 51.7396 24.625 49.9062C26.7917 48.0729 29.625 47.0104 33.125 46.7188V46.375C29.9167 45.9167 27.4792 44.7708 25.8125 42.9375C24.1458 41.1042 23.3125 38.7292 23.3125 35.8125C23.3125 33.3958 23.875 31.3854 25 29.7812C26.1458 28.1771 27.6667 26.8958 29.5625 25.9375C31.4583 24.9792 33.6562 24.3125 36.1562 23.9375C38.6562 23.5417 41.25 23.3438 43.9375 23.3438ZM43.9375 50.0938C42.3125 50.0938 41.1146 50.625 40.3438 51.6875C39.5729 52.75 39.1875 54.1562 39.1875 55.9062C39.1875 57.6562 39.5729 59.0938 40.3438 60.2188C41.1146 61.3229 42.3125 61.875 43.9375 61.875C45.5625 61.875 46.7604 61.3229 47.5312 60.2188C48.3021 59.0938 48.6875 57.6562 48.6875 55.9062C48.6875 54.1562 48.3021 52.75 47.5312 51.6875C46.7604 50.625 45.5625 50.0938 43.9375 50.0938ZM43.875 32.4375C42.5 32.4375 41.5 32.9167 40.875 33.875C40.2708 34.8333 39.9688 36.1042 39.9688 37.6875C39.9688 39.2083 40.2708 40.4792 40.875 41.5C41.5 42.5 42.5 43 43.875 43C45.2708 43 46.2812 42.5 46.9062 41.5C47.5312 40.4792 47.8438 39.2083 47.8438 37.6875C47.8438 36.1042 47.5312 34.8333 46.9062 33.875C46.2812 32.9167 45.2708 32.4375 43.875 32.4375Z"/>
</mask>
<path d="M43.9375 23.3438C46.4583 23.3438 48.9375 23.5417 51.375 23.9375C53.8333 24.3125 56.0312 24.9792 57.9688 25.9375C59.9271 26.8958 61.5 28.1771 62.6875 29.7812C63.875 31.3854 64.4688 33.3958 64.4688 35.8125C64.4688 38.7292 63.6458 41.1042 62 42.9375C60.375 44.7708 57.9583 45.9167 54.75 46.375V46.7188C58.25 47.0104 61.0729 48.0729 63.2188 49.9062C65.3854 51.7396 66.4688 54.4062 66.4688 57.9062C66.4688 59.4062 66.1146 60.9479 65.4062 62.5312C64.6979 64.0938 63.4792 65.5312 61.75 66.8438C60.0208 68.1354 57.6979 69.1979 54.7812 70.0312C51.8646 70.8646 48.1667 71.2812 43.6875 71.2812C39.3333 71.2812 35.7083 70.8646 32.8125 70.0312C29.9375 69.1979 27.6562 68.1354 25.9688 66.8438C24.3021 65.5312 23.125 64.0938 22.4375 62.5312C21.75 60.9479 21.4062 59.4062 21.4062 57.9062C21.4062 54.4062 22.4792 51.7396 24.625 49.9062C26.7917 48.0729 29.625 47.0104 33.125 46.7188V46.375C29.9167 45.9167 27.4792 44.7708 25.8125 42.9375C24.1458 41.1042 23.3125 38.7292 23.3125 35.8125C23.3125 33.3958 23.875 31.3854 25 29.7812C26.1458 28.1771 27.6667 26.8958 29.5625 25.9375C31.4583 24.9792 33.6562 24.3125 36.1562 23.9375C38.6562 23.5417 41.25 23.3438 43.9375 23.3438ZM43.9375 50.0938C42.3125 50.0938 41.1146 50.625 40.3438 51.6875C39.5729 52.75 39.1875 54.1562 39.1875 55.9062C39.1875 57.6562 39.5729 59.0938 40.3438 60.2188C41.1146 61.3229 42.3125 61.875 43.9375 61.875C45.5625 61.875 46.7604 61.3229 47.5312 60.2188C48.3021 59.0938 48.6875 57.6562 48.6875 55.9062C48.6875 54.1562 48.3021 52.75 47.5312 51.6875C46.7604 50.625 45.5625 50.0938 43.9375 50.0938ZM43.875 32.4375C42.5 32.4375 41.5 32.9167 40.875 33.875C40.2708 34.8333 39.9688 36.1042 39.9688 37.6875C39.9688 39.2083 40.2708 40.4792 40.875 41.5C41.5 42.5 42.5 43 43.875 43C45.2708 43 46.2812 42.5 46.9062 41.5C47.5312 40.4792 47.8438 39.2083 47.8438 37.6875C47.8438 36.1042 47.5312 34.8333 46.9062 33.875C46.2812 32.9167 45.2708 32.4375 43.875 32.4375Z" fill="#800080"/>
<path d="M51.375 23.9375L51.0544 25.9116L51.0639 25.9132L51.0734 25.9146L51.375 23.9375ZM57.9688 25.9375L57.082 27.7302L57.0896 27.7339L57.9688 25.9375ZM62 42.9375L60.5117 41.6014L60.5033 41.6109L62 42.9375ZM54.75 46.375L54.4672 44.3951L52.75 44.6404V46.375H54.75ZM54.75 46.7188H52.75V48.559L54.5839 48.7118L54.75 46.7188ZM63.2188 49.9062L61.9196 51.4269L61.9269 51.433L63.2188 49.9062ZM65.4062 62.5312L67.2278 63.357L67.2319 63.348L65.4062 62.5312ZM61.75 66.8438L62.9469 68.4461L62.9531 68.4415L62.9592 68.4368L61.75 66.8438ZM32.8125 70.0312L32.2557 71.9522L32.2594 71.9533L32.8125 70.0312ZM25.9688 66.8438L24.7314 68.415L24.7422 68.4235L24.7531 68.4319L25.9688 66.8438ZM22.4375 62.5312L20.603 63.3278L20.6069 63.3367L22.4375 62.5312ZM24.625 49.9062L23.3331 48.3795L23.3259 48.3857L24.625 49.9062ZM33.125 46.7188L33.2911 48.7118L35.125 48.559V46.7188H33.125ZM33.125 46.375H35.125V44.6404L33.4078 44.3951L33.125 46.375ZM25 29.7812L23.3725 28.6188L23.3675 28.6258L23.3625 28.6329L25 29.7812ZM29.5625 25.9375L28.6602 24.1526L29.5625 25.9375ZM36.1562 23.9375L36.4529 25.9154L36.461 25.9142L36.469 25.9129L36.1562 23.9375ZM40.3438 60.2188L38.6939 61.3492L38.6988 61.3564L38.7038 61.3636L40.3438 60.2188ZM47.5312 60.2188L49.1712 61.3636L49.1762 61.3564L49.1811 61.3492L47.5312 60.2188ZM40.875 33.875L39.1998 32.7825L39.1914 32.7954L39.1831 32.8084L40.875 33.875ZM40.875 41.5L39.1538 42.5186L39.1662 42.5395L39.179 42.56L40.875 41.5ZM46.9062 41.5L48.6022 42.56L48.6071 42.5522L48.612 42.5443L46.9062 41.5ZM43.9375 25.3438C46.3532 25.3438 48.7251 25.5334 51.0544 25.9116L51.6956 21.9634C49.1499 21.55 46.5635 21.3438 43.9375 21.3438V25.3438ZM51.0734 25.9146C53.3584 26.2632 55.3543 26.8756 57.082 27.7302L58.8555 24.1448C56.7082 23.0827 54.3083 22.3618 51.6766 21.9604L51.0734 25.9146ZM57.0896 27.7339C58.7872 28.5647 60.1004 29.6479 61.08 30.9712L64.295 28.5913C62.8996 26.7063 61.0669 25.227 58.8479 24.1411L57.0896 27.7339ZM61.08 30.9712C61.9626 32.1634 62.4688 33.7318 62.4688 35.8125H66.4688C66.4688 33.0599 65.7874 30.6074 64.295 28.5913L61.08 30.9712ZM62.4688 35.8125C62.4688 38.3319 61.7692 40.2007 60.5117 41.6014L63.4883 44.2736C65.5225 42.0076 66.4688 39.1265 66.4688 35.8125H62.4688ZM60.5033 41.6109C59.2821 42.9887 57.3595 43.9819 54.4672 44.3951L55.0328 48.3549C58.5571 47.8514 61.4679 46.553 63.4967 44.2641L60.5033 41.6109ZM52.75 46.375V46.7188H56.75V46.375H52.75ZM54.5839 48.7118C57.7693 48.9773 60.1633 49.9263 61.9196 51.4268L64.5179 48.3857C61.9826 46.2195 58.7307 45.0435 54.9161 44.7257L54.5839 48.7118ZM61.9269 51.433C63.5416 52.7993 64.4688 54.845 64.4688 57.9062H68.4688C68.4688 53.9675 67.2293 50.6799 64.5106 48.3795L61.9269 51.433ZM64.4688 57.9062C64.4688 59.0841 64.1919 60.3482 63.5806 61.7145L67.2319 63.348C68.0373 61.5476 68.4688 59.7284 68.4688 57.9062H64.4688ZM63.5847 61.7055C63.0453 62.8954 62.074 64.0869 60.5408 65.2507L62.9592 68.4368C64.8843 66.9756 66.3506 65.2921 67.2278 63.357L63.5847 61.7055ZM60.5531 65.2414C59.08 66.3418 57.0024 67.3166 54.2318 68.1082L55.3307 71.9543C58.3934 71.0792 60.9616 69.929 62.9469 68.4461L60.5531 65.2414ZM54.2318 68.1082C51.5569 68.8725 48.0604 69.2812 43.6875 69.2812V73.2812C48.273 73.2812 52.1723 72.8567 55.3307 71.9543L54.2318 68.1082ZM43.6875 69.2812C39.4451 69.2812 36.0213 68.8735 33.3656 68.1092L32.2594 71.9533C35.3954 72.8557 39.2216 73.2812 43.6875 73.2812V69.2812ZM33.3693 68.1103C30.6427 67.32 28.612 66.3484 27.1844 65.2556L24.7531 68.4319C26.7005 69.9225 29.2323 71.0758 32.2557 71.9522L33.3693 68.1103ZM27.2061 65.2725C25.7355 64.1144 24.7953 62.924 24.2681 61.7258L20.6069 63.3367C21.4547 65.2635 22.8687 66.9481 24.7314 68.415L27.2061 65.2725ZM24.272 61.7347C23.6773 60.3651 23.4062 59.0939 23.4062 57.9062H19.4062C19.4062 59.7186 19.8227 61.5308 20.603 63.3278L24.272 61.7347ZM23.4062 57.9062C23.4062 54.8386 24.3273 52.7911 25.9241 51.4268L23.3259 48.3857C20.631 50.688 19.4062 53.9739 19.4062 57.9062H23.4062ZM25.9169 51.433C27.6973 49.9265 30.1061 48.9773 33.2911 48.7118L32.9589 44.7257C29.1439 45.0436 25.8861 46.2193 23.3331 48.3795L25.9169 51.433ZM35.125 46.7188V46.375H31.125V46.7188H35.125ZM33.4078 44.3951C30.5166 43.9821 28.5606 42.9872 27.2924 41.5922L24.3326 44.2828C26.3977 46.5544 29.3168 47.8513 32.8422 48.3549L33.4078 44.3951ZM27.2924 41.5922C26.0184 40.1908 25.3125 38.3252 25.3125 35.8125H21.3125C21.3125 39.1331 22.2733 42.0175 24.3326 44.2828L27.2924 41.5922ZM25.3125 35.8125C25.3125 33.7097 25.7986 32.1258 26.6375 30.9296L23.3625 28.6329C21.9514 30.6451 21.3125 33.0819 21.3125 35.8125H25.3125ZM26.6275 30.9437C27.571 29.6227 28.8345 28.5465 30.4648 27.7224L28.6602 24.1526C26.4989 25.2452 24.7206 26.7314 23.3725 28.6188L26.6275 30.9437ZM30.4648 27.7224C32.1381 26.8765 34.1249 26.2646 36.4529 25.9154L35.8596 21.9596C33.1876 22.3604 30.7786 23.0818 28.6602 24.1526L30.4648 27.7224ZM36.469 25.9129C38.8594 25.5344 41.3483 25.3438 43.9375 25.3438V21.3438C41.1517 21.3438 38.4531 21.5489 35.8435 21.9621L36.469 25.9129ZM43.9375 48.0938C41.8425 48.0938 39.9621 48.8077 38.7249 50.513L41.9626 52.862C42.2671 52.4423 42.7825 52.0938 43.9375 52.0938V48.0938ZM38.7249 50.513C37.6356 52.0146 37.1875 53.8734 37.1875 55.9062H41.1875C41.1875 54.4391 41.5103 53.4854 41.9626 52.862L38.7249 50.513ZM37.1875 55.9062C37.1875 57.9459 37.6381 59.8084 38.6939 61.3492L41.9936 59.0883C41.5077 58.3791 41.1875 57.3666 41.1875 55.9062H37.1875ZM38.7038 61.3636C39.9288 63.1183 41.8126 63.875 43.9375 63.875V59.875C42.8124 59.875 42.3003 59.5275 41.9837 59.0739L38.7038 61.3636ZM43.9375 63.875C46.0624 63.875 47.9462 63.1183 49.1712 61.3636L45.8913 59.0739C45.5747 59.5275 45.0626 59.875 43.9375 59.875V63.875ZM49.1811 61.3492C50.2369 59.8084 50.6875 57.9459 50.6875 55.9062H46.6875C46.6875 57.3666 46.3673 58.3791 45.8814 59.0883L49.1811 61.3492ZM50.6875 55.9062C50.6875 53.8734 50.2394 52.0146 49.1501 50.513L45.9124 52.862C46.3647 53.4854 46.6875 54.4391 46.6875 55.9062H50.6875ZM49.1501 50.513C47.9129 48.8077 46.0325 48.0938 43.9375 48.0938V52.0938C45.0925 52.0938 45.6079 52.4423 45.9124 52.862L49.1501 50.513ZM43.875 30.4375C41.9814 30.4375 40.2724 31.1378 39.1998 32.7825L42.5502 34.9675C42.7276 34.6955 43.0186 34.4375 43.875 34.4375V30.4375ZM39.1831 32.8084C38.3127 34.1891 37.9688 35.8705 37.9688 37.6875H41.9688C41.9688 36.3378 42.229 35.4775 42.5669 34.9416L39.1831 32.8084ZM37.9688 37.6875C37.9688 39.4675 38.3225 41.1139 39.1538 42.5186L42.5962 40.4814C42.2192 39.8444 41.9688 38.9492 41.9688 37.6875H37.9688ZM39.179 42.56C40.2354 44.2503 41.9448 45 43.875 45V41C43.0552 41 42.7646 40.7497 42.571 40.44L39.179 42.56ZM43.875 45C45.8125 45 47.5397 44.2601 48.6022 42.56L45.2103 40.44C45.0228 40.7399 44.7292 41 43.875 41V45ZM48.612 42.5443C49.4751 41.1346 49.8438 39.4784 49.8438 37.6875H45.8438C45.8438 38.9383 45.5874 39.8238 45.2005 40.4557L48.612 42.5443ZM49.8438 37.6875C49.8438 35.8599 49.4852 34.1682 48.5815 32.7825L45.231 34.9675C45.5773 35.4984 45.8438 36.3484 45.8438 37.6875H49.8438ZM48.5815 32.7825C47.5029 31.1286 45.7761 30.4375 43.875 30.4375V34.4375C44.7656 34.4375 45.0596 34.7047 45.231 34.9675L48.5815 32.7825Z" fill="black" mask="url(#path-23-outside-5_0_1)"/>
</g>
<defs>
<filter id="filter0_d_0_1" x="24" y="92" width="352" height="394" filterUnits="userSpaceOnUse" color-interpolation-filters="sRGB">
<feFlood flood-opacity="0" result="BackgroundImageFix"/>
<feColorMatrix in="SourceAlpha" type="matrix" values="0 0 0 0 0 0 0 0 0 0 0 0 0 0 0 0 0 0 127 0" result="hardAlpha"/>
<feOffset dy="4"/>
<feGaussianBlur stdDeviation="2"/>
<feComposite in2="hardAlpha" operator="out"/>
<feColorMatrix type="matrix" values="0 0 0 0 0 0 0 0 0 0 0 0 0 0 0 0 0 0 0.25 0"/>
<feBlend mode="normal" in2="BackgroundImageFix" result="effect1_dropShadow_0_1"/>
<feBlend mode="normal" in="SourceGraphic" in2="effect1_dropShadow_0_1" result="shape"/>
</filter>
<filter id="filter1_d_0_1" x="17.4062" y="23.3438" width="375.062" height="519.938" filterUnits="userSpaceOnUse" color-interpolation-filters="sRGB">
<feFlood flood-opacity="0" result="BackgroundImageFix"/>
<feColorMatrix in="SourceAlpha" type="matrix" values="0 0 0 0 0 0 0 0 0 0 0 0 0 0 0 0 0 0 127 0" result="hardAlpha"/>
<feOffset dy="4"/>
<feGaussianBlur stdDeviation="2"/>
<feComposite in2="hardAlpha" operator="out"/>
<feColorMatrix type="matrix" values="0 0 0 0 0 0 0 0 0 0 0 0 0 0 0 0 0 0 0.25 0"/>
<feBlend mode="normal" in2="BackgroundImageFix" result="effect1_dropShadow_0_1"/>
<feBlend mode="normal" in="SourceGraphic" in2="effect1_dropShadow_0_1" result="shape"/>
</filter>
<clipPath id="clip0_0_1">
<rect width="344" height="386" fill="white" transform="translate(28 92)"/>
</clipPath>
<clipPath id="clip1_0_1">
<rect width="34" height="38" fill="white" transform="translate(183 17)"/>
</clipPath>
<clipPath id="clip2_0_1">
<rect width="34" height="38" fill="white" transform="translate(183 495)"/>
</clipPath>
</defs>
</svg>
