<?xml version="1.0" encoding="UTF-8" standalone="no"?>
<!-- Created with Inkscape (http://www.inkscape.org/) -->

<svg
   width="64.029167mm"
   height="95.779167mm"
   viewBox="0 0 64.029167 95.779167"
   version="1.1"
   id="svg1"
   inkscape:version="1.3.2 (091e20e, 2023-11-25, custom)"
   sodipodi:docname="3_rouge.svg"
   xmlns:inkscape="http://www.inkscape.org/namespaces/inkscape"
   xmlns:sodipodi="http://sodipodi.sourceforge.net/DTD/sodipodi-0.dtd"
   xmlns="http://www.w3.org/2000/svg"
   xmlns:svg="http://www.w3.org/2000/svg">
  <sodipodi:namedview
     id="namedview1"
     pagecolor="#505050"
     bordercolor="#eeeeee"
     borderopacity="1"
     inkscape:showpageshadow="0"
     inkscape:pageopacity="0"
     inkscape:pagecheckerboard="0"
     inkscape:deskcolor="#505050"
     inkscape:document-units="mm"
     inkscape:zoom="0.73139029"
     inkscape:cx="120.3188"
     inkscape:cy="181.16182"
     inkscape:window-width="1920"
     inkscape:window-height="1017"
     inkscape:window-x="1912"
     inkscape:window-y="-8"
     inkscape:window-maximized="1"
     inkscape:current-layer="layer1" />
  <defs
     id="defs1" />
  <g
     inkscape:label="Calque 1"
     inkscape:groupmode="layer"
     id="layer1"
     transform="translate(-73.024991,-100.54167)">
    <g
       transform="matrix(1.0583333,0,0,1.0583333,-117.21042,-250.94371)"
       id="g6579">
      <rect
         width="60"
         height="90"
         rx="10"
         ry="10"
         x="180"
         y="332.36218"
         id="rect2987-8-5"
         style="fill:#ffffff;fill-opacity:1;fill-rule:evenodd;stroke:#000000;stroke-width:0.5;stroke-miterlimit:4;stroke-dasharray:none" />
      <rect
         width="50"
         height="80"
         rx="5"
         ry="5"
         x="185"
         y="337.36218"
         id="rect3757-26-33"
         style="fill:#55aa55;fill-opacity:1;fill-rule:evenodd;stroke:none" />
      <path
         d="m 225,352.36217 c -22.09139,0 -40,17.90861 -40,40 0,5.52285 4.47715,10 10,10 22.09139,0 40,-17.90861 40,-40 0,-5.52285 -4.47715,-10 -10,-10 z"
         id="path3773-0-4-8-4-60-3"
         style="fill:#ffffff;fill-opacity:1;fill-rule:evenodd;stroke:none" />
      <path
         d="m 210,362.36217 c -4.14214,0 -7.5,3.35786 -7.5,7.5 h 5 c 0,-1.38071 1.11929,-2.5 2.5,-2.5 1.38071,0 2.5,1.11929 2.5,2.5 0,1.38071 -1.11929,2.5 -2.5,2.5 h -3 v 5 h 3 c 2.77,0 5,2.23 5,5 0,2.77 -2.23,5 -5,5 -2.77,0 -5,-2.23 -5,-5 h -5 c 0,5.54 4.46,10 10,10 5.54,0 10,-4.46 10,-10 0,-3.29394 -1.58832,-6.18011 -4.03125,-8 0.95194,-1.25738 1.53125,-2.80132 1.53125,-4.5 0,-4.14214 -3.35786,-7.5 -7.5,-7.5 z"
         id="rect3163-52-9-8-1-1-2-7-3-6-4-6-1-8-7-0-1"
         style="fill:#55aa55;fill-opacity:1;stroke:none" />
      <path
         d="m 192.5,339.86217 c -2.07107,0 -3.75,1.67893 -3.75,3.75 h 2.5 c 0,-0.69036 0.55965,-1.25 1.25,-1.25 0.69035,0 1.25,0.55964 1.25,1.25 0,0.69035 -0.55965,1.25 -1.25,1.25 H 191 v 2.49999 h 1.5 c 1.385,0 2.5,1.115 2.5,2.50001 0,1.385 -1.115,2.5 -2.5,2.5 -1.385,0 -2.5,-1.115 -2.5,-2.5 h -2.5 c 0,2.77 2.23,5 5,5 2.77,0 5,-2.23 5,-5 0,-1.64697 -0.79416,-3.09006 -2.01563,-4 0.47598,-0.6287 0.76563,-1.40066 0.76563,-2.25 0,-2.07107 -1.67893,-3.75 -3.75,-3.75 z"
         id="rect3163-52-9-8-1-1-2-7-3-6-4-6-1-8-7-0-6-2"
         style="fill:#ffffff;fill-opacity:1;stroke:none" />
      <path
         d="m 227.5,414.86217 c 2.07107,0 3.75,-1.67893 3.75,-3.75 h -2.5 c 0,0.69036 -0.55965,1.25 -1.25,1.25 -0.69035,0 -1.25,-0.55964 -1.25,-1.25 0,-0.69035 0.55965,-1.25 1.25,-1.25 h 1.5 v -2.49999 h -1.5 c -1.385,0 -2.5,-1.115 -2.5,-2.50001 0,-1.385 1.115,-2.5 2.5,-2.5 1.385,0 2.5,1.115 2.5,2.5 h 2.5 c 0,-2.77 -2.23,-5 -5,-5 -2.77,0 -5,2.23 -5,5 0,1.64697 0.79416,3.09006 2.01563,4 -0.47598,0.6287 -0.76563,1.40066 -0.76563,2.25 0,2.07107 1.67893,3.75 3.75,3.75 z"
         id="rect3163-52-9-8-1-1-2-7-3-6-4-6-1-8-7-0-6-2-6"
         style="fill:#ffffff;fill-opacity:1;stroke:none" />
    </g>
  </g>
</svg>
